<?xml version="1.0" standalone="no"?>
 <!DOCTYPE svg PUBLIC "-//W3C//DTD SVG 1.1//EN" 
 "http://www.w3.org/Graphics/SVG/1.1/DTD/svg11.dtd"> 
<svg
  xmlns:svg="http://www.w3.org/2000/svg"
  xmlns="http://www.w3.org/2000/svg"
  xmlns:xlink="http://www.w3.org/1999/xlink"
  version="1.1"
  width="25.6794mm" height="25.6794mm" viewBox="0.0000 0.0000 25.6794 25.6794">
<title>SVG Image created as outline.svg date 2024/10/08 17:16:17 </title>
  <desc>Image generated by PCBNEW </desc>
<g style="fill:#000000; fill-opacity:0.0000;stroke:#000000; stroke-opacity:1.0000;
stroke-linecap:round; stroke-linejoin:round;"
 transform="translate(0 0) scale(1 1)">
</g>
<g style="fill:#000000; fill-opacity:0.0; 
stroke:#000000; stroke-width:0.0000; stroke-opacity:1; 
stroke-linecap:round; stroke-linejoin:round;">
</g>
<g style="fill:#000000; fill-opacity:0.0000; 
stroke:#000000; stroke-width:0.0212; stroke-opacity:1; 
stroke-linecap:round; stroke-linejoin:round;">
<rect x="-5.000000" y="-5.000000" width="35.704000" height="35.704000" rx="0.000000" />
</g>
<g style="fill:#FFFFFF; fill-opacity:0.0000; 
stroke:#FFFFFF; stroke-width:0.0212; stroke-opacity:1; 
stroke-linecap:round; stroke-linejoin:round;">
</g>
<g style="fill:#FFFFFF; fill-opacity:0.0000; 
stroke:#FFFFFF; stroke-width:0.0200; stroke-opacity:1; 
stroke-linecap:round; stroke-linejoin:round;">
</g>
<g style="fill:#FFFFFF; fill-opacity:0.0; 
stroke:#FFFFFF; stroke-width:0.0200; stroke-opacity:1; 
stroke-linecap:round; stroke-linejoin:round;">
<path d="M0.1520 0.5100
L0.1520 0.5310
" />
<path d="M0.1520 0.5310
L0.1520 0.5510
" />
<path d="M0.1520 25.1520
L0.1520 0.5510
" />
<path d="M0.1520 25.1520
L0.1520 25.1700
" />
<path d="M0.1520 25.1700
L0.1520 25.1900
" />
<path d="M0.1520 25.1900
L0.1560 25.2100
" />
<path d="M0.1560 0.4900
L0.1520 0.5100
" />
<path d="M0.1560 25.2100
L0.1600 25.2310
" />
<path d="M0.1600 0.4700
L0.1560 0.4900
" />
<path d="M0.1600 25.2310
L0.1640 25.2510
" />
<path d="M0.1640 0.4500
L0.1600 0.4700
" />
<path d="M0.1640 25.2510
L0.1680 25.2690
" />
<path d="M0.1680 0.4330
L0.1640 0.4500
" />
<path d="M0.1680 25.2690
L0.1760 25.2890
" />
<path d="M0.1760 0.4140
L0.1680 0.4330
" />
<path d="M0.1760 25.2890
L0.1830 25.3060
" />
<path d="M0.1830 0.3940
L0.1760 0.4140
" />
<path d="M0.1830 25.3060
L0.1910 25.3240
" />
<path d="M0.1910 0.3770
L0.1830 0.3940
" />
<path d="M0.1910 25.3240
L0.2000 25.3410
" />
<path d="M0.2000 0.3610
L0.1910 0.3770
" />
<path d="M0.2000 25.3410
L0.2080 25.3590
" />
<path d="M0.2080 0.3440
L0.2000 0.3610
" />
<path d="M0.2080 25.3590
L0.2200 25.3730
" />
<path d="M0.2200 0.3280
L0.2080 0.3440
" />
<path d="M0.2200 25.3730
L0.2310 25.3910
" />
<path d="M0.2310 0.3120
L0.2200 0.3280
" />
<path d="M0.2310 25.3910
L0.2430 25.4050
" />
<path d="M0.2430 0.2970
L0.2310 0.3120
" />
<path d="M0.2430 25.4050
L0.2550 25.4200
" />
<path d="M0.2550 0.2810
L0.2430 0.2970
" />
<path d="M0.2550 25.4200
L0.2690 25.4340
" />
<path d="M0.2690 0.2690
L0.2550 0.2810
" />
<path d="M0.2690 25.4340
L0.2810 25.4460
" />
<path d="M0.2810 0.2550
L0.2690 0.2690
" />
<path d="M0.2810 25.4460
L0.2970 25.4600
" />
<path d="M0.2970 0.2430
L0.2810 0.2550
" />
<path d="M0.2970 25.4600
L0.3120 25.4720
" />
<path d="M0.3120 0.2310
L0.2970 0.2430
" />
<path d="M0.3120 25.4720
L0.3280 25.4810
" />
<path d="M0.3280 0.2200
L0.3120 0.2310
" />
<path d="M0.3280 25.4810
L0.3440 25.4920
" />
<path d="M0.3440 0.2080
L0.3280 0.2200
" />
<path d="M0.3440 25.4920
L0.3610 25.5010
" />
<path d="M0.3610 0.2000
L0.3440 0.2080
" />
<path d="M0.3610 25.5010
L0.3770 25.5100
" />
<path d="M0.3770 0.1910
L0.3610 0.2000
" />
<path d="M0.3770 25.5100
L0.3940 25.5190
" />
<path d="M0.3940 0.1830
L0.3770 0.1910
" />
<path d="M0.3940 25.5190
L0.4140 25.5270
" />
<path d="M0.4140 0.1760
L0.3940 0.1830
" />
<path d="M0.4140 25.5270
L0.4330 25.5330
" />
<path d="M0.4330 0.1680
L0.4140 0.1760
" />
<path d="M0.4330 25.5330
L0.4500 25.5390
" />
<path d="M0.4500 0.1640
L0.4330 0.1680
" />
<path d="M0.4500 25.5390
L0.4700 25.5420
" />
<path d="M0.4700 0.1600
L0.4500 0.1640
" />
<path d="M0.4700 25.5420
L0.4900 25.5450
" />
<path d="M0.4900 0.1560
L0.4700 0.1600
" />
<path d="M0.4900 25.5450
L0.5100 25.5480
" />
<path d="M0.5100 0.1520
L0.4900 0.1560
" />
<path d="M0.5100 25.5480
L0.5310 25.5510
" />
<path d="M0.5310 0.1520
L0.5100 0.1520
" />
<path d="M0.5310 25.5510
L0.5510 25.5510
" />
<path d="M0.5510 0.1520
L0.5310 0.1520
" />
<path d="M0.5510 0.1520
L25.1520 0.1520
" />
<path d="M25.1520 0.1520
L25.1700 0.1520
" />
<path d="M25.1520 25.5510
L0.5510 25.5510
" />
<path d="M25.1520 25.5510
L25.1700 25.5510
" />
<path d="M25.1700 0.1520
L25.1900 0.1520
" />
<path d="M25.1700 25.5510
L25.1900 25.5480
" />
<path d="M25.1900 0.1520
L25.2100 0.1560
" />
<path d="M25.1900 25.5480
L25.2100 25.5450
" />
<path d="M25.2100 0.1560
L25.2310 0.1600
" />
<path d="M25.2100 25.5450
L25.2310 25.5420
" />
<path d="M25.2310 0.1600
L25.2510 0.1640
" />
<path d="M25.2310 25.5420
L25.2510 25.5390
" />
<path d="M25.2510 0.1640
L25.2690 0.1680
" />
<path d="M25.2510 25.5390
L25.2690 25.5330
" />
<path d="M25.2690 0.1680
L25.2890 0.1760
" />
<path d="M25.2690 25.5330
L25.2890 25.5270
" />
<path d="M25.2890 0.1760
L25.3060 0.1830
" />
<path d="M25.2890 25.5270
L25.3060 25.5190
" />
<path d="M25.3060 0.1830
L25.3240 0.1910
" />
<path d="M25.3060 25.5190
L25.3240 25.5100
" />
<path d="M25.3240 0.1910
L25.3410 0.2000
" />
<path d="M25.3240 25.5100
L25.3410 25.5010
" />
<path d="M25.3410 0.2000
L25.3590 0.2080
" />
<path d="M25.3410 25.5010
L25.3590 25.4920
" />
<path d="M25.3590 0.2080
L25.3730 0.2200
" />
<path d="M25.3590 25.4920
L25.3730 25.4810
" />
<path d="M25.3730 0.2200
L25.3910 0.2310
" />
<path d="M25.3730 25.4810
L25.3910 25.4720
" />
<path d="M25.3910 0.2310
L25.4050 0.2430
" />
<path d="M25.3910 25.4720
L25.4050 25.4600
" />
<path d="M25.4050 0.2430
L25.4200 0.2550
" />
<path d="M25.4050 25.4600
L25.4200 25.4460
" />
<path d="M25.4200 0.2550
L25.4340 0.2690
" />
<path d="M25.4200 25.4460
L25.4340 25.4340
" />
<path d="M25.4340 0.2690
L25.4460 0.2810
" />
<path d="M25.4340 25.4340
L25.4460 25.4200
" />
<path d="M25.4460 0.2810
L25.4600 0.2970
" />
<path d="M25.4460 25.4200
L25.4600 25.4050
" />
<path d="M25.4600 0.2970
L25.4720 0.3120
" />
<path d="M25.4600 25.4050
L25.4720 25.3910
" />
<path d="M25.4720 0.3120
L25.4810 0.3280
" />
<path d="M25.4720 25.3910
L25.4810 25.3730
" />
<path d="M25.4810 0.3280
L25.4920 0.3440
" />
<path d="M25.4810 25.3730
L25.4920 25.3590
" />
<path d="M25.4920 0.3440
L25.5010 0.3610
" />
<path d="M25.4920 25.3590
L25.5010 25.3410
" />
<path d="M25.5010 0.3610
L25.5100 0.3770
" />
<path d="M25.5010 25.3410
L25.5100 25.3240
" />
<path d="M25.5100 0.3770
L25.5190 0.3940
" />
<path d="M25.5100 25.3240
L25.5190 25.3060
" />
<path d="M25.5190 0.3940
L25.5270 0.4140
" />
<path d="M25.5190 25.3060
L25.5270 25.2890
" />
<path d="M25.5270 0.4140
L25.5330 0.4330
" />
<path d="M25.5270 25.2890
L25.5330 25.2690
" />
<path d="M25.5330 0.4330
L25.5390 0.4500
" />
<path d="M25.5330 25.2690
L25.5390 25.2510
" />
<path d="M25.5390 0.4500
L25.5420 0.4700
" />
<path d="M25.5390 25.2510
L25.5420 25.2310
" />
<path d="M25.5420 0.4700
L25.5450 0.4900
" />
<path d="M25.5420 25.2310
L25.5450 25.2100
" />
<path d="M25.5450 0.4900
L25.5480 0.5100
" />
<path d="M25.5450 25.2100
L25.5480 25.1900
" />
<path d="M25.5480 0.5100
L25.5510 0.5310
" />
<path d="M25.5480 25.1900
L25.5510 25.1700
" />
<path d="M25.5510 0.5310
L25.5510 0.5510
" />
<path d="M25.5510 0.5510
L25.5510 25.1520
" />
<path d="M25.5510 25.1700
L25.5510 25.1520
" />
<g >
</g>
<g >
</g>
<g >
</g>
<g >
</g>
</g> 
</svg>
