<?xml version="1.0" standalone="no"?>
 <!DOCTYPE svg PUBLIC "-//W3C//DTD SVG 1.1//EN" 
 "http://www.w3.org/Graphics/SVG/1.1/DTD/svg11.dtd"> 
<svg
  xmlns:svg="http://www.w3.org/2000/svg"
  xmlns="http://www.w3.org/2000/svg"
  xmlns:xlink="http://www.w3.org/1999/xlink"
  version="1.1"
  width="23.3426mm" height="27.0256mm" viewBox="0.0000 0.0000 23.3426 27.0256">
<title>SVG Image created as outline.svg date 2024/10/08 17:14:23 </title>
  <desc>Image generated by PCBNEW </desc>
<g style="fill:#000000; fill-opacity:0.0000;stroke:#000000; stroke-opacity:1.0000;
stroke-linecap:round; stroke-linejoin:round;"
 transform="translate(0 0) scale(1 1)">
</g>
<g style="fill:#000000; fill-opacity:0.0; 
stroke:#000000; stroke-width:0.0000; stroke-opacity:1; 
stroke-linecap:round; stroke-linejoin:round;">
</g>
<g style="fill:#000000; fill-opacity:0.0000; 
stroke:#000000; stroke-width:0.0212; stroke-opacity:1; 
stroke-linecap:round; stroke-linejoin:round;">
<rect x="-5.000000" y="-5.000000" width="33.350000" height="37.050000" rx="0.000000" />
</g>
<g style="fill:#FFFFFF; fill-opacity:0.0000; 
stroke:#FFFFFF; stroke-width:0.0212; stroke-opacity:1; 
stroke-linecap:round; stroke-linejoin:round;">
</g>
<g style="fill:#FFFFFF; fill-opacity:0.0000; 
stroke:#FFFFFF; stroke-width:0.0200; stroke-opacity:1; 
stroke-linecap:round; stroke-linejoin:round;">
</g>
<g style="fill:#FFFFFF; fill-opacity:0.0; 
stroke:#FFFFFF; stroke-width:0.0200; stroke-opacity:1; 
stroke-linecap:round; stroke-linejoin:round;">
<path d="M1.0250 1.0250
L22.3250 1.0250
" />
<path d="M1.0250 24.0250
L1.0250 1.0250
" />
<path d="M8.7260 25.7100
L8.7260 25.7250
" />
</g>
<g style="fill:#FFFFFF; fill-opacity:0.0000; 
stroke:#FFFFFF; stroke-width:0.0000; stroke-opacity:1; 
stroke-linecap:round; stroke-linejoin:round;">
<circle cx="8.7260" cy="25.7250" r="0.0100" /> 
</g>
<g style="fill:#FFFFFF; fill-opacity:0.0000; 
stroke:#FFFFFF; stroke-width:0.0200; stroke-opacity:1; 
stroke-linecap:round; stroke-linejoin:round;">
</g>
<g style="fill:#FFFFFF; fill-opacity:0.0; 
stroke:#FFFFFF; stroke-width:0.0200; stroke-opacity:1; 
stroke-linecap:round; stroke-linejoin:round;">
<path d="M8.7260 25.7250
L8.7260 25.7400
" />
<path d="M8.7260 25.7400
L8.7270 25.7550
" />
<path d="M8.7270 25.6950
L8.7260 25.7100
" />
<path d="M8.7270 25.7550
L8.7290 25.7700
" />
<path d="M8.7290 25.6800
L8.7270 25.6950
" />
<path d="M8.7290 25.7700
L8.7320 25.7850
" />
<path d="M8.7320 25.6650
L8.7290 25.6800
" />
<path d="M8.7320 25.7850
L8.7350 25.7990
" />
<path d="M8.7350 25.6510
L8.7320 25.6650
" />
<path d="M8.7350 25.7990
L8.7390 25.8140
" />
<path d="M8.7390 25.6360
L8.7350 25.6510
" />
<path d="M8.7390 25.8140
L8.7440 25.8280
" />
<path d="M8.7440 25.6220
L8.7390 25.6360
" />
<path d="M8.7440 25.8280
L8.7490 25.8410
" />
<path d="M8.7490 25.6090
L8.7440 25.6220
" />
<path d="M8.7490 25.8410
L8.7550 25.8550
" />
<path d="M8.7550 25.5950
L8.7490 25.6090
" />
<path d="M8.7550 25.8550
L8.7630 25.8670
" />
<path d="M8.7630 25.5830
L8.7550 25.5950
" />
<path d="M8.7630 25.8670
L8.7690 25.8800
" />
<path d="M8.7690 25.5700
L8.7630 25.5830
" />
<path d="M8.7690 25.8800
L8.7770 25.8920
" />
<path d="M8.7770 25.5580
L8.7690 25.5700
" />
<path d="M8.7770 25.8920
L8.7850 25.9040
" />
<path d="M8.7850 25.5460
L8.7770 25.5580
" />
<path d="M8.7850 25.9040
L8.7950 25.9150
" />
<path d="M8.7950 25.5350
L8.7850 25.5460
" />
<path d="M8.7950 25.9150
L8.8030 25.9260
" />
<path d="M8.8030 25.5240
L8.7950 25.5350
" />
<path d="M8.8030 25.9260
L8.8130 25.9370
" />
<path d="M8.8130 25.5130
L8.8030 25.5240
" />
<path d="M8.8130 25.9370
L8.8240 25.9470
" />
<path d="M8.8240 25.5030
L8.8130 25.5130
" />
<path d="M8.8240 25.9470
L8.8350 25.9560
" />
<path d="M8.8350 25.4940
L8.8240 25.5030
" />
<path d="M8.8350 25.9560
L8.8460 25.9650
" />
<path d="M8.8460 25.4850
L8.8350 25.4940
" />
<path d="M8.8460 25.9650
L8.8580 25.9730
" />
<path d="M8.8580 25.4770
L8.8460 25.4850
" />
<path d="M8.8580 25.9730
L8.8700 25.9810
" />
<path d="M8.8700 25.4690
L8.8580 25.4770
" />
<path d="M8.8700 25.9810
L8.8830 25.9880
" />
<path d="M8.8830 25.4620
L8.8700 25.4690
" />
<path d="M8.8830 25.9880
L8.8960 25.9950
" />
<path d="M8.8960 25.4550
L8.8830 25.4620
" />
<path d="M8.8960 25.9950
L8.9090 26.0010
" />
<path d="M8.9090 25.4490
L8.8960 25.4550
" />
<path d="M8.9090 26.0010
L8.9220 26.0060
" />
<path d="M8.9220 25.4440
L8.9090 25.4490
" />
<path d="M8.9220 26.0060
L8.9360 26.0110
" />
<path d="M8.9360 25.4390
L8.9220 25.4440
" />
<path d="M8.9360 26.0110
L8.9510 26.0150
" />
<path d="M8.9510 25.4350
L8.9360 25.4390
" />
<path d="M8.9510 26.0150
L8.9650 26.0180
" />
<path d="M8.9650 25.4320
L8.9510 25.4350
" />
<path d="M8.9650 26.0180
L8.9810 26.0210
" />
<path d="M8.9810 25.4290
L8.9650 25.4320
" />
<path d="M8.9810 26.0210
L8.9950 26.0230
" />
<path d="M8.9950 25.4270
L8.9810 25.4290
" />
<path d="M8.9950 26.0230
L9.0100 26.0240
" />
<path d="M9.0100 25.4260
L8.9950 25.4270
" />
<path d="M9.0100 26.0240
L9.0250 26.0250
" />
<path d="M9.0250 25.4250
L9.0100 25.4260
" />
</g>
<g style="fill:#FFFFFF; fill-opacity:0.0000; 
stroke:#FFFFFF; stroke-width:0.0000; stroke-opacity:1; 
stroke-linecap:round; stroke-linejoin:round;">
<circle cx="9.0250" cy="25.4250" r="0.0100" /> 
<circle cx="9.0250" cy="26.0250" r="0.0100" /> 
</g>
<g style="fill:#FFFFFF; fill-opacity:0.0000; 
stroke:#FFFFFF; stroke-width:0.0200; stroke-opacity:1; 
stroke-linecap:round; stroke-linejoin:round;">
</g>
<g style="fill:#FFFFFF; fill-opacity:0.0; 
stroke:#FFFFFF; stroke-width:0.0200; stroke-opacity:1; 
stroke-linecap:round; stroke-linejoin:round;">
<path d="M9.0250 26.0250
L9.0410 26.0240
" />
<path d="M9.0410 25.4260
L9.0250 25.4250
" />
<path d="M9.0410 26.0240
L9.0550 26.0230
" />
<path d="M9.0550 25.4270
L9.0410 25.4260
" />
<path d="M9.0550 26.0230
L9.0700 26.0210
" />
<path d="M9.0700 25.4290
L9.0550 25.4270
" />
<path d="M9.0700 26.0210
L9.0850 26.0180
" />
<path d="M9.0850 25.4320
L9.0700 25.4290
" />
<path d="M9.0850 26.0180
L9.0990 26.0150
" />
<path d="M9.0990 25.4350
L9.0850 25.4320
" />
<path d="M9.0990 26.0150
L9.1140 26.0110
" />
<path d="M9.1140 25.4390
L9.0990 25.4350
" />
<path d="M9.1140 26.0110
L9.1290 26.0060
" />
<path d="M9.1290 25.4440
L9.1140 25.4390
" />
<path d="M9.1290 26.0060
L9.1410 26.0010
" />
<path d="M9.1410 25.4490
L9.1290 25.4440
" />
<path d="M9.1410 26.0010
L9.1550 25.9950
" />
<path d="M9.1550 25.4550
L9.1410 25.4490
" />
<path d="M9.1550 25.9950
L9.1670 25.9880
" />
<path d="M9.1670 25.4620
L9.1550 25.4550
" />
<path d="M9.1670 25.9880
L9.1800 25.9810
" />
<path d="M9.1800 25.4690
L9.1670 25.4620
" />
<path d="M9.1800 25.9810
L9.1930 25.9730
" />
<path d="M9.1930 25.4770
L9.1800 25.4690
" />
<path d="M9.1930 25.9730
L9.2040 25.9650
" />
<path d="M9.2040 25.4850
L9.1930 25.4770
" />
<path d="M9.2040 25.9650
L9.2150 25.9560
" />
<path d="M9.2150 25.4940
L9.2040 25.4850
" />
<path d="M9.2150 25.9560
L9.2260 25.9470
" />
<path d="M9.2260 25.5030
L9.2150 25.4940
" />
<path d="M9.2260 25.9470
L9.2380 25.9370
" />
<path d="M9.2380 25.5130
L9.2260 25.5030
" />
<path d="M9.2380 25.9370
L9.2470 25.9260
" />
<path d="M9.2470 25.5240
L9.2380 25.5130
" />
<path d="M9.2470 25.9260
L9.2560 25.9150
" />
<path d="M9.2560 25.5350
L9.2470 25.5240
" />
<path d="M9.2560 25.9150
L9.2650 25.9040
" />
<path d="M9.2650 25.5460
L9.2560 25.5350
" />
<path d="M9.2650 25.9040
L9.2730 25.8920
" />
<path d="M9.2730 25.5580
L9.2650 25.5460
" />
<path d="M9.2730 25.8920
L9.2810 25.8800
" />
<path d="M9.2810 25.5700
L9.2730 25.5580
" />
<path d="M9.2810 25.8800
L9.2880 25.8670
" />
<path d="M9.2880 25.5830
L9.2810 25.5700
" />
<path d="M9.2880 25.8670
L9.2950 25.8550
" />
<path d="M9.2950 25.5950
L9.2880 25.5830
" />
<path d="M9.2950 25.8550
L9.3020 25.8410
" />
<path d="M9.3020 25.6090
L9.2950 25.5950
" />
<path d="M9.3020 25.8410
L9.3070 25.8280
" />
<path d="M9.3070 25.6220
L9.3020 25.6090
" />
<path d="M9.3070 25.8280
L9.3110 25.8140
" />
<path d="M9.3110 25.6360
L9.3070 25.6220
" />
<path d="M9.3110 25.8140
L9.3150 25.7990
" />
<path d="M9.3150 25.6510
L9.3110 25.6360
" />
<path d="M9.3150 25.7990
L9.3180 25.7850
" />
<path d="M9.3180 25.6650
L9.3150 25.6510
" />
<path d="M9.3180 25.7850
L9.3210 25.7700
" />
<path d="M9.3210 25.6800
L9.3180 25.6650
" />
<path d="M9.3210 25.7700
L9.3230 25.7550
" />
<path d="M9.3230 25.6950
L9.3210 25.6800
" />
<path d="M9.3230 25.7550
L9.3240 25.7400
" />
<path d="M9.3240 25.7100
L9.3230 25.6950
" />
<path d="M9.3240 25.7250
L9.3240 25.7100
" />
</g>
<g style="fill:#FFFFFF; fill-opacity:0.0000; 
stroke:#FFFFFF; stroke-width:0.0000; stroke-opacity:1; 
stroke-linecap:round; stroke-linejoin:round;">
<circle cx="9.3240" cy="25.7250" r="0.0100" /> 
<circle cx="9.3240" cy="25.7250" r="0.0100" /> 
</g>
<g style="fill:#FFFFFF; fill-opacity:0.0000; 
stroke:#FFFFFF; stroke-width:0.0200; stroke-opacity:1; 
stroke-linecap:round; stroke-linejoin:round;">
</g>
<g style="fill:#FFFFFF; fill-opacity:0.0; 
stroke:#FFFFFF; stroke-width:0.0200; stroke-opacity:1; 
stroke-linecap:round; stroke-linejoin:round;">
<path d="M9.3240 25.7400
L9.3240 25.7250
" />
<path d="M14.0250 25.7100
L14.0250 25.7250
" />
</g>
<g style="fill:#FFFFFF; fill-opacity:0.0000; 
stroke:#FFFFFF; stroke-width:0.0000; stroke-opacity:1; 
stroke-linecap:round; stroke-linejoin:round;">
<circle cx="14.0250" cy="25.7250" r="0.0100" /> 
</g>
<g style="fill:#FFFFFF; fill-opacity:0.0000; 
stroke:#FFFFFF; stroke-width:0.0200; stroke-opacity:1; 
stroke-linecap:round; stroke-linejoin:round;">
</g>
<g style="fill:#FFFFFF; fill-opacity:0.0; 
stroke:#FFFFFF; stroke-width:0.0200; stroke-opacity:1; 
stroke-linecap:round; stroke-linejoin:round;">
<path d="M14.0250 25.7250
L14.0250 25.7400
" />
<path d="M14.0250 25.7400
L14.0270 25.7550
" />
<path d="M14.0270 25.6950
L14.0250 25.7100
" />
<path d="M14.0270 25.7550
L14.0280 25.7700
" />
<path d="M14.0280 25.6800
L14.0270 25.6950
" />
<path d="M14.0280 25.7700
L14.0320 25.7850
" />
<path d="M14.0320 25.6650
L14.0280 25.6800
" />
<path d="M14.0320 25.7850
L14.0350 25.7990
" />
<path d="M14.0350 25.6510
L14.0320 25.6650
" />
<path d="M14.0350 25.7990
L14.0380 25.8140
" />
<path d="M14.0380 25.6360
L14.0350 25.6510
" />
<path d="M14.0380 25.8140
L14.0440 25.8280
" />
<path d="M14.0440 25.6220
L14.0380 25.6360
" />
<path d="M14.0440 25.8280
L14.0490 25.8410
" />
<path d="M14.0490 25.6090
L14.0440 25.6220
" />
<path d="M14.0490 25.8410
L14.0540 25.8550
" />
<path d="M14.0540 25.5950
L14.0490 25.6090
" />
<path d="M14.0540 25.8550
L14.0620 25.8670
" />
<path d="M14.0620 25.5830
L14.0540 25.5950
" />
<path d="M14.0620 25.8670
L14.0680 25.8800
" />
<path d="M14.0680 25.5700
L14.0620 25.5830
" />
<path d="M14.0680 25.8800
L14.0760 25.8920
" />
<path d="M14.0760 25.5580
L14.0680 25.5700
" />
<path d="M14.0760 25.8920
L14.0840 25.9040
" />
<path d="M14.0840 25.5460
L14.0760 25.5580
" />
<path d="M14.0840 25.9040
L14.0940 25.9150
" />
<path d="M14.0940 25.5350
L14.0840 25.5460
" />
<path d="M14.0940 25.9150
L14.1020 25.9260
" />
<path d="M14.1020 25.5240
L14.0940 25.5350
" />
<path d="M14.1020 25.9260
L14.1130 25.9370
" />
<path d="M14.1130 25.5130
L14.1020 25.5240
" />
<path d="M14.1130 25.9370
L14.1240 25.9470
" />
<path d="M14.1240 25.5030
L14.1130 25.5130
" />
<path d="M14.1240 25.9470
L14.1340 25.9560
" />
<path d="M14.1340 25.4940
L14.1240 25.5030
" />
<path d="M14.1340 25.9560
L14.1450 25.9650
" />
<path d="M14.1450 25.4850
L14.1340 25.4940
" />
<path d="M14.1450 25.9650
L14.1580 25.9730
" />
<path d="M14.1580 25.4770
L14.1450 25.4850
" />
<path d="M14.1580 25.9730
L14.1690 25.9810
" />
<path d="M14.1690 25.4690
L14.1580 25.4770
" />
<path d="M14.1690 25.9810
L14.1820 25.9880
" />
<path d="M14.1820 25.4620
L14.1690 25.4690
" />
<path d="M14.1820 25.9880
L14.1950 25.9950
" />
<path d="M14.1950 25.4550
L14.1820 25.4620
" />
<path d="M14.1950 25.9950
L14.2090 26.0010
" />
<path d="M14.2090 25.4490
L14.1950 25.4550
" />
<path d="M14.2090 26.0010
L14.2220 26.0060
" />
<path d="M14.2220 25.4440
L14.2090 25.4490
" />
<path d="M14.2220 26.0060
L14.2350 26.0110
" />
<path d="M14.2350 25.4390
L14.2220 25.4440
" />
<path d="M14.2350 26.0110
L14.2510 26.0150
" />
<path d="M14.2510 25.4350
L14.2350 25.4390
" />
<path d="M14.2510 26.0150
L14.2650 26.0180
" />
<path d="M14.2650 25.4320
L14.2510 25.4350
" />
<path d="M14.2650 26.0180
L14.2800 26.0210
" />
<path d="M14.2800 25.4290
L14.2650 25.4320
" />
<path d="M14.2800 26.0210
L14.2940 26.0230
" />
<path d="M14.2940 25.4270
L14.2800 25.4290
" />
<path d="M14.2940 26.0230
L14.3100 26.0240
" />
<path d="M14.3100 25.4260
L14.2940 25.4270
" />
<path d="M14.3100 26.0240
L14.3250 26.0250
" />
<path d="M14.3250 25.4250
L14.3100 25.4260
" />
</g>
<g style="fill:#FFFFFF; fill-opacity:0.0000; 
stroke:#FFFFFF; stroke-width:0.0000; stroke-opacity:1; 
stroke-linecap:round; stroke-linejoin:round;">
<circle cx="14.3250" cy="25.4250" r="0.0100" /> 
<circle cx="14.3250" cy="26.0250" r="0.0100" /> 
</g>
<g style="fill:#FFFFFF; fill-opacity:0.0000; 
stroke:#FFFFFF; stroke-width:0.0200; stroke-opacity:1; 
stroke-linecap:round; stroke-linejoin:round;">
</g>
<g style="fill:#FFFFFF; fill-opacity:0.0; 
stroke:#FFFFFF; stroke-width:0.0200; stroke-opacity:1; 
stroke-linecap:round; stroke-linejoin:round;">
<path d="M14.3250 26.0250
L14.3390 26.0240
" />
<path d="M14.3390 25.4260
L14.3250 25.4250
" />
<path d="M14.3390 26.0240
L14.3550 26.0230
" />
<path d="M14.3550 25.4270
L14.3390 25.4260
" />
<path d="M14.3550 26.0230
L14.3700 26.0210
" />
<path d="M14.3700 25.4290
L14.3550 25.4270
" />
<path d="M14.3700 26.0210
L14.3840 26.0180
" />
<path d="M14.3840 25.4320
L14.3700 25.4290
" />
<path d="M14.3840 26.0180
L14.3990 26.0150
" />
<path d="M14.3990 25.4350
L14.3840 25.4320
" />
<path d="M14.3990 26.0150
L14.4140 26.0110
" />
<path d="M14.4140 25.4390
L14.3990 25.4350
" />
<path d="M14.4140 26.0110
L14.4270 26.0060
" />
<path d="M14.4270 25.4440
L14.4140 25.4390
" />
<path d="M14.4270 26.0060
L14.4400 26.0010
" />
<path d="M14.4400 25.4490
L14.4270 25.4440
" />
<path d="M14.4400 26.0010
L14.4550 25.9950
" />
<path d="M14.4550 25.4550
L14.4400 25.4490
" />
<path d="M14.4550 25.9950
L14.4670 25.9880
" />
<path d="M14.4670 25.4620
L14.4550 25.4550
" />
<path d="M14.4670 25.9880
L14.4800 25.9810
" />
<path d="M14.4800 25.4690
L14.4670 25.4620
" />
<path d="M14.4800 25.9810
L14.4910 25.9730
" />
<path d="M14.4910 25.4770
L14.4800 25.4690
" />
<path d="M14.4910 25.9730
L14.5040 25.9650
" />
<path d="M14.5040 25.4850
L14.4910 25.4770
" />
<path d="M14.5040 25.9650
L14.5150 25.9560
" />
<path d="M14.5150 25.4940
L14.5040 25.4850
" />
<path d="M14.5150 25.9560
L14.5250 25.9470
" />
<path d="M14.5250 25.5030
L14.5150 25.4940
" />
<path d="M14.5250 25.9470
L14.5360 25.9370
" />
<path d="M14.5360 25.5130
L14.5250 25.5030
" />
<path d="M14.5360 25.9370
L14.5470 25.9260
" />
<path d="M14.5470 25.5240
L14.5360 25.5130
" />
<path d="M14.5470 25.9260
L14.5560 25.9150
" />
<path d="M14.5560 25.5350
L14.5470 25.5240
" />
<path d="M14.5560 25.9150
L14.5650 25.9040
" />
<path d="M14.5650 25.5460
L14.5560 25.5350
" />
<path d="M14.5650 25.9040
L14.5730 25.8920
" />
<path d="M14.5730 25.5580
L14.5650 25.5460
" />
<path d="M14.5730 25.8920
L14.5810 25.8800
" />
<path d="M14.5810 25.5700
L14.5730 25.5580
" />
<path d="M14.5810 25.8800
L14.5880 25.8670
" />
<path d="M14.5880 25.5830
L14.5810 25.5700
" />
<path d="M14.5880 25.8670
L14.5950 25.8550
" />
<path d="M14.5950 25.5950
L14.5880 25.5830
" />
<path d="M14.5950 25.8550
L14.6000 25.8410
" />
<path d="M14.6000 25.6090
L14.5950 25.5950
" />
<path d="M14.6000 25.8410
L14.6050 25.8280
" />
<path d="M14.6050 25.6220
L14.6000 25.6090
" />
<path d="M14.6050 25.8280
L14.6110 25.8140
" />
<path d="M14.6110 25.6360
L14.6050 25.6220
" />
<path d="M14.6110 25.8140
L14.6150 25.7990
" />
<path d="M14.6150 25.6510
L14.6110 25.6360
" />
<path d="M14.6150 25.7990
L14.6180 25.7850
" />
<path d="M14.6180 25.6650
L14.6150 25.6510
" />
<path d="M14.6180 25.7850
L14.6210 25.7700
" />
<path d="M14.6210 25.6800
L14.6180 25.6650
" />
<path d="M14.6210 25.7700
L14.6230 25.7550
" />
<path d="M14.6230 25.6950
L14.6210 25.6800
" />
<path d="M14.6230 25.7550
L14.6240 25.7400
" />
<path d="M14.6240 25.7100
L14.6230 25.6950
" />
<path d="M14.6240 25.7250
L14.6240 25.7100
" />
</g>
<g style="fill:#FFFFFF; fill-opacity:0.0000; 
stroke:#FFFFFF; stroke-width:0.0000; stroke-opacity:1; 
stroke-linecap:round; stroke-linejoin:round;">
<circle cx="14.6240" cy="25.7250" r="0.0100" /> 
<circle cx="14.6240" cy="25.7250" r="0.0100" /> 
</g>
<g style="fill:#FFFFFF; fill-opacity:0.0000; 
stroke:#FFFFFF; stroke-width:0.0200; stroke-opacity:1; 
stroke-linecap:round; stroke-linejoin:round;">
</g>
<g style="fill:#FFFFFF; fill-opacity:0.0; 
stroke:#FFFFFF; stroke-width:0.0200; stroke-opacity:1; 
stroke-linecap:round; stroke-linejoin:round;">
<path d="M14.6240 25.7400
L14.6240 25.7250
" />
<path d="M22.3250 1.0250
L22.3250 24.0250
" />
<path d="M22.3250 24.0250
L1.0250 24.0250
" />
<g >
</g>
<g >
</g>
<g >
</g>
<g >
</g>
</g> 
</svg>
