<?xml version="1.0" standalone="no"?>
 <!DOCTYPE svg PUBLIC "-//W3C//DTD SVG 1.1//EN" 
 "http://www.w3.org/Graphics/SVG/1.1/DTD/svg11.dtd"> 
<svg
  xmlns:svg="http://www.w3.org/2000/svg"
  xmlns="http://www.w3.org/2000/svg"
  xmlns:xlink="http://www.w3.org/1999/xlink"
  version="1.1"
  width="19.0246mm" height="18.0340mm" viewBox="0.0000 0.0000 19.0246 18.0340">
<title>SVG Image created as outline.svg date 2024/11/20 14:42:01 </title>
  <desc>Image generated by PCBNEW </desc>
<g style="fill:#000000; fill-opacity:0.0000;stroke:#000000; stroke-opacity:1.0000;
stroke-linecap:round; stroke-linejoin:round;"
 transform="translate(0 0) scale(1 1)">
</g>
<g style="fill:none; 
stroke:#000000; stroke-width:0.0200; stroke-opacity:1; 
stroke-linecap:round; stroke-linejoin:round;">
<path d="M0.9170 2.9290
L3.4190 2.9290
" />
<path d="M0.9170 15.1210
L0.9170 2.9290
" />
<path d="M0.9440 0.4270
L0.9440 2.9290
" />
<path d="M0.9440 15.1210
L0.9440 17.6230
" />
<path d="M0.9440 17.6230
L4.6380 17.6230
" />
<path d="M3.4190 2.9290
L3.4190 15.1210
" />
<path d="M3.4190 15.1210
L0.9170 15.1210
" />
<path d="M4.6380 0.4270
L0.9440 0.4270
" />
<path d="M4.6380 17.6250
L4.6380 0.4250
" />
<path d="M4.6380 17.6250
L5.8570 17.6250
" />
<path d="M5.8570 0.4250
L4.6380 0.4250
" />
<path d="M5.8570 0.4250
L5.8570 17.6250
" />
<path d="M5.8570 17.6230
L18.0860 17.6230
" />
<path d="M15.6110 2.9290
L18.1130 2.9290
" />
<path d="M15.6110 15.1210
L15.6110 2.9290
" />
<path d="M18.0860 0.4270
L5.8570 0.4270
" />
<path d="M18.0860 2.9290
L18.0860 0.4270
" />
<path d="M18.0860 17.6230
L18.0860 15.1210
" />
<path d="M18.1130 2.9290
L18.1130 15.1210
" />
<path d="M18.1130 15.1210
L15.6110 15.1210
" />
</g> 
</svg>
