<?xml version="1.0" standalone="no"?>
 <!DOCTYPE svg PUBLIC "-//W3C//DTD SVG 1.1//EN" 
 "http://www.w3.org/Graphics/SVG/1.1/DTD/svg11.dtd"> 
<svg
  xmlns:svg="http://www.w3.org/2000/svg"
  xmlns="http://www.w3.org/2000/svg"
  xmlns:xlink="http://www.w3.org/1999/xlink"
  version="1.1"
  width="3.1496mm" height="3.6322mm" viewBox="0.0000 0.0000 3.1496 3.6322">
<title>SVG Image created as outline.svg date 2024/11/19 15:27:48 </title>
  <desc>Image generated by PCBNEW </desc>
<g style="fill:#000000; fill-opacity:0.0000;stroke:#000000; stroke-opacity:1.0000;
stroke-linecap:round; stroke-linejoin:round;"
 transform="translate(0 0) scale(1 1)">
</g>
<g style="fill:none; 
stroke:#000000; stroke-width:0.0200; stroke-opacity:1; 
stroke-linecap:round; stroke-linejoin:round;">
<path d="M0.1780 1.2460
L0.3930 1.2460
" />
<path d="M0.1780 2.5160
L0.1780 1.2460
" />
<path d="M0.1780 2.5160
L0.3610 2.3310
" />
<path d="M0.3610 1.4310
L0.1780 1.2460
" />
<path d="M0.3610 1.4310
L0.3610 2.3310
" />
<path d="M0.3610 2.3310
L2.7860 2.3310
" />
<path d="M0.3930 0.6610
L0.8510 0.6610
" />
<path d="M0.3930 0.8650
L0.3930 0.6610
" />
<path d="M0.3930 0.9400
L0.3930 0.8650
" />
<path d="M0.3930 0.9400
L0.8510 0.9400
" />
<path d="M0.3930 1.2190
L0.3930 0.9400
" />
<path d="M0.3930 1.2550
L0.3930 1.2190
" />
<path d="M0.3930 2.5060
L0.3930 2.5290
" />
<path d="M0.3930 2.5060
L0.8510 2.5060
" />
<path d="M0.3930 2.5160
L0.1780 2.5160
" />
<path d="M0.3930 2.5290
L0.3930 2.8080
" />
<path d="M0.3930 2.8080
L0.3930 2.8840
" />
<path d="M0.3930 2.8840
L0.3930 3.0860
" />
<path d="M0.8510 0.8650
L0.8510 0.6610
" />
<path d="M0.8510 0.9400
L0.8510 0.8650
" />
<path d="M0.8510 1.2190
L0.8510 0.9400
" />
<path d="M0.8510 1.2460
L1.3450 1.2460
" />
<path d="M0.8510 1.2550
L0.3930 1.2550
" />
<path d="M0.8510 1.2550
L0.8510 1.2190
" />
<path d="M0.8510 2.5060
L0.8510 2.5290
" />
<path d="M0.8510 2.5290
L0.8510 2.8080
" />
<path d="M0.8510 2.8080
L0.3930 2.8080
" />
<path d="M0.8510 2.8080
L0.8510 2.8840
" />
<path d="M0.8510 2.8840
L0.8510 3.0860
" />
<path d="M0.8510 3.0860
L0.3930 3.0860
" />
<path d="M1.3450 0.6610
L1.8030 0.6610
" />
<path d="M1.3450 0.8650
L1.3450 0.6610
" />
<path d="M1.3450 0.9400
L1.3450 0.8650
" />
<path d="M1.3450 0.9400
L1.8030 0.9400
" />
<path d="M1.3450 1.2190
L1.3450 0.9400
" />
<path d="M1.3450 1.2550
L1.3450 1.2190
" />
<path d="M1.3450 2.5060
L1.3450 2.5290
" />
<path d="M1.3450 2.5060
L1.8030 2.5060
" />
<path d="M1.3450 2.5160
L0.8510 2.5160
" />
<path d="M1.3450 2.5290
L1.3450 2.8080
" />
<path d="M1.3450 2.8080
L1.3450 2.8840
" />
<path d="M1.3450 2.8840
L1.3450 3.0860
" />
<path d="M1.8030 0.8650
L1.8030 0.6610
" />
<path d="M1.8030 0.9400
L1.8030 0.8650
" />
<path d="M1.8030 1.2190
L1.8030 0.9400
" />
<path d="M1.8030 1.2460
L2.2970 1.2460
" />
<path d="M1.8030 1.2550
L1.3450 1.2550
" />
<path d="M1.8030 1.2550
L1.8030 1.2190
" />
<path d="M1.8030 2.5060
L1.8030 2.5290
" />
<path d="M1.8030 2.5290
L1.8030 2.8080
" />
<path d="M1.8030 2.8080
L1.3450 2.8080
" />
<path d="M1.8030 2.8080
L1.8030 2.8840
" />
<path d="M1.8030 2.8840
L1.8030 3.0860
" />
<path d="M1.8030 3.0860
L1.3450 3.0860
" />
<path d="M2.2970 0.6610
L2.7560 0.6610
" />
<path d="M2.2970 0.8650
L2.2970 0.6610
" />
<path d="M2.2970 0.9400
L2.2970 0.8650
" />
<path d="M2.2970 0.9400
L2.7560 0.9400
" />
<path d="M2.2970 1.2190
L2.2970 0.9400
" />
<path d="M2.2970 1.2550
L2.2970 1.2190
" />
<path d="M2.2970 2.5060
L2.2970 2.5290
" />
<path d="M2.2970 2.5060
L2.7560 2.5060
" />
<path d="M2.2970 2.5160
L1.8030 2.5160
" />
<path d="M2.2970 2.5290
L2.2970 2.8080
" />
<path d="M2.2970 2.8080
L2.2970 2.8840
" />
<path d="M2.2970 2.8840
L2.2970 3.0860
" />
<path d="M2.7560 0.8650
L2.7560 0.6610
" />
<path d="M2.7560 0.9400
L2.7560 0.8650
" />
<path d="M2.7560 1.2190
L2.7560 0.9400
" />
<path d="M2.7560 1.2460
L2.9710 1.2460
" />
<path d="M2.7560 1.2550
L2.2970 1.2550
" />
<path d="M2.7560 1.2550
L2.7560 1.2190
" />
<path d="M2.7560 2.5060
L2.7560 2.5290
" />
<path d="M2.7560 2.5290
L2.7560 2.8080
" />
<path d="M2.7560 2.8080
L2.2970 2.8080
" />
<path d="M2.7560 2.8080
L2.7560 2.8840
" />
<path d="M2.7560 2.8840
L2.7560 3.0860
" />
<path d="M2.7560 3.0860
L2.2970 3.0860
" />
<path d="M2.7860 1.4310
L0.3610 1.4310
" />
<path d="M2.7860 1.4310
L2.9710 1.2460
" />
<path d="M2.7860 2.3310
L2.7860 1.4310
" />
<path d="M2.9710 1.2460
L2.9710 2.5160
" />
<path d="M2.9710 2.5160
L2.7560 2.5160
" />
<path d="M2.9710 2.5160
L2.7860 2.3310
" />
</g> 
</svg>
