<?xml version="1.0" standalone="no"?>
 <!DOCTYPE svg PUBLIC "-//W3C//DTD SVG 1.1//EN" 
 "http://www.w3.org/Graphics/SVG/1.1/DTD/svg11.dtd"> 
<svg
  xmlns:svg="http://www.w3.org/2000/svg"
  xmlns="http://www.w3.org/2000/svg"
  xmlns:xlink="http://www.w3.org/1999/xlink"
  version="1.1"
  width="21.4122mm" height="21.9456mm" viewBox="0.0000 0.0000 21.4122 21.9456">
<title>SVG Image created as outline.svg date 2024/11/19 15:34:06 </title>
  <desc>Image generated by PCBNEW </desc>
<g style="fill:#000000; fill-opacity:0.0000;stroke:#000000; stroke-opacity:1.0000;
stroke-linecap:round; stroke-linejoin:round;"
 transform="translate(0 0) scale(1 1)">
</g>
<g style="fill:none; 
stroke:#000000; stroke-width:0.1000; stroke-opacity:1; 
stroke-linecap:round; stroke-linejoin:round;">
<path d="M0.6809 9.9560
L0.6809 7.9240
" />
<path d="M0.6809 9.9560
L0.6835 9.9560
" />
<path d="M0.6835 7.9240
L0.6809 7.9240
" />
<path d="M0.6835 9.9560
L0.6911 9.9560
" />
<path d="M0.6911 7.9240
L0.6835 7.9240
" />
<path d="M0.6911 9.9560
L0.7037 9.9560
" />
<path d="M0.7037 7.9240
L0.6911 7.9240
" />
<path d="M0.7037 9.9560
L0.7212 9.9560
" />
<path d="M0.7212 7.9240
L0.7037 7.9240
" />
<path d="M0.7212 9.9560
L0.7432 9.9560
" />
<path d="M0.7432 7.9240
L0.7212 7.9240
" />
<path d="M0.7432 9.9560
L0.7696 9.9560
" />
<path d="M0.7696 7.9240
L0.7432 7.9240
" />
<path d="M0.7696 9.9560
L0.8000 9.9560
" />
<path d="M0.8000 7.9240
L0.7696 7.9240
" />
<path d="M0.8000 9.9560
L0.8339 9.9560
" />
<path d="M0.8339 7.9240
L0.8000 7.9240
" />
<path d="M0.8339 9.9560
L0.8711 9.9560
" />
<path d="M0.8711 7.9240
L0.8339 7.9240
" />
<path d="M0.8711 9.9560
L0.9110 9.9560
" />
<path d="M0.9110 7.9240
L0.8711 7.9240
" />
<path d="M0.9110 9.9560
L0.9531 9.9560
" />
<path d="M0.9531 7.9240
L0.9110 7.9240
" />
<path d="M0.9531 9.9560
L0.9969 9.9560
" />
<path d="M0.9969 7.9240
L0.9531 7.9240
" />
<path d="M0.9969 9.9560
L1.0418 9.9560
" />
<path d="M1.0418 7.9240
L0.9969 7.9240
" />
<path d="M1.0418 9.9560
L1.0873 9.9560
" />
<path d="M1.0873 7.9240
L1.0418 7.9240
" />
<path d="M1.0873 9.9560
L1.0873 7.9240
" />
<path d="M1.0873 9.9560
L2.2828 9.9560
" />
<path d="M1.4240 3.8166
L1.4251 3.7064
" />
<path d="M1.4251 3.7064
L1.4293 3.5963
" />
<path d="M1.4259 3.9268
L1.4240 3.8166
" />
<path d="M1.4293 3.5963
L1.4366 3.4863
" />
<path d="M1.4310 4.0369
L1.4259 3.9268
" />
<path d="M1.4366 3.4863
L1.4470 3.3766
" />
<path d="M1.4392 4.1468
L1.4310 4.0369
" />
<path d="M1.4470 3.3766
L1.4605 3.2672
" />
<path d="M1.4506 4.2564
L1.4392 4.1468
" />
<path d="M1.4605 3.2672
L1.4771 3.1583
" />
<path d="M1.4650 4.3657
L1.4506 4.2564
" />
<path d="M1.4771 3.1583
L1.4967 3.0498
" />
<path d="M1.4826 4.4745
L1.4650 4.3657
" />
<path d="M1.4967 3.0498
L1.5195 2.9420
" />
<path d="M1.5195 2.9420
L1.5452 2.8349
" />
<path d="M1.5248 4.7139
L1.4826 4.4745
" />
<path d="M1.5248 4.7139
L1.7249 4.6787
" />
<path d="M1.5416 4.8089
L1.5248 4.7139
" />
<path d="M1.5452 2.8349
L1.5741 2.7285
" />
<path d="M1.5580 4.9023
L1.5416 4.8089
" />
<path d="M1.5740 4.9931
L1.5580 4.9023
" />
<path d="M1.5741 2.7285
L1.6060 2.6230
" />
<path d="M1.5894 5.0800
L1.5740 4.9931
" />
<path d="M1.6038 5.1621
L1.5894 5.0800
" />
<path d="M1.6060 2.6230
L1.6409 2.5185
" />
<path d="M1.6173 5.2385
L1.6038 5.1621
" />
<path d="M1.6271 3.8158
L1.6290 3.9202
" />
<path d="M1.6282 3.7113
L1.6271 3.8158
" />
<path d="M1.6290 3.9202
L1.6339 4.0245
" />
<path d="M1.6296 5.3082
L1.6173 5.2385
" />
<path d="M1.6322 3.6069
L1.6282 3.7113
" />
<path d="M1.6339 4.0245
L1.6416 4.1287
" />
<path d="M1.6391 3.5027
L1.6322 3.6069
" />
<path d="M1.6406 5.3703
L1.6296 5.3082
" />
<path d="M1.6409 2.5185
L1.6788 2.4150
" />
<path d="M1.6416 4.1287
L1.6524 4.2326
" />
<path d="M1.6490 3.3987
L1.6391 3.5027
" />
<path d="M1.6501 5.4242
L1.6406 5.3703
" />
<path d="M1.6524 4.2326
L1.6661 4.3361
" />
<path d="M1.6580 5.4692
L1.6501 5.4242
" />
<path d="M1.6618 3.2951
L1.6490 3.3987
" />
<path d="M1.6643 5.5048
L1.6580 5.4692
" />
<path d="M1.6661 4.3361
L1.6827 4.4392
" />
<path d="M1.6688 5.5305
L1.6643 5.5048
" />
<path d="M1.6715 5.5460
L1.6688 5.5305
" />
<path d="M1.6725 5.5512
L1.6715 5.5460
" />
<path d="M1.6725 5.5512
L1.8726 5.5160
" />
<path d="M1.6725 5.5512
L1.8726 5.5160
" />
<path d="M1.6775 3.1918
L1.6618 3.2951
" />
<path d="M1.6788 2.4150
L1.7196 2.3126
" />
<path d="M1.6827 4.4392
L1.4826 4.4745
" />
<path d="M1.6961 3.0890
L1.6775 3.1918
" />
<path d="M1.7176 2.9868
L1.6961 3.0890
" />
<path d="M1.7196 2.3126
L1.7633 2.2114
" />
<path d="M1.7249 4.6787
L1.6827 4.4392
" />
<path d="M1.7417 4.7736
L1.7249 4.6787
" />
<path d="M1.7421 2.8853
L1.7176 2.9868
" />
<path d="M1.7581 4.8671
L1.7417 4.7736
" />
<path d="M1.7633 2.2114
L1.8098 2.1115
" />
<path d="M1.7694 2.7845
L1.7421 2.8853
" />
<path d="M1.7741 4.9578
L1.7581 4.8671
" />
<path d="M1.7895 5.0447
L1.7741 4.9578
" />
<path d="M1.7997 2.6845
L1.7694 2.7845
" />
<path d="M1.8040 5.1269
L1.7895 5.0447
" />
<path d="M1.8098 2.1115
L1.8591 2.0129
" />
<path d="M1.8153 3.3520
L2.7002 3.3520
" />
<path d="M1.8153 5.1912
L1.8153 3.3520
" />
<path d="M1.8153 6.6032
L1.8153 5.5261
" />
<path d="M1.8153 6.6032
L2.7002 6.6032
" />
<path d="M1.8174 5.2032
L1.8040 5.1269
" />
<path d="M1.8297 5.2729
L1.8174 5.2032
" />
<path d="M1.8327 2.5855
L1.7997 2.6845
" />
<path d="M1.8407 5.3350
L1.8297 5.2729
" />
<path d="M1.8502 5.3889
L1.8407 5.3350
" />
<path d="M1.8581 5.4339
L1.8502 5.3889
" />
<path d="M1.8591 2.0129
L1.9112 1.9158
" />
<path d="M1.8644 5.4695
L1.8581 5.4339
" />
<path d="M1.8686 2.4874
L1.8327 2.5855
" />
<path d="M1.8689 5.4952
L1.8644 5.4695
" />
<path d="M1.8716 5.5108
L1.8689 5.4952
" />
<path d="M1.8726 5.5160
L1.8716 5.5108
" />
<path d="M1.9073 2.3903
L1.8686 2.4874
" />
<path d="M1.9112 1.9158
L1.9660 1.8202
" />
<path d="M1.9487 2.2945
L1.9073 2.3903
" />
<path d="M1.9660 1.8202
L2.0234 1.7261
" />
<path d="M1.9928 2.1998
L1.9487 2.2945
" />
<path d="M2.0234 1.7261
L2.0835 1.6337
" />
<path d="M2.0395 2.1064
L1.9928 2.1998
" />
<path d="M2.0835 1.6337
L2.1461 1.5431
" />
<path d="M2.0889 2.0143
L2.0395 2.1064
" />
<path d="M2.1408 1.9237
L2.0889 2.0143
" />
<path d="M2.1461 1.5431
L2.2113 1.4542
" />
<path d="M2.1952 1.8345
L2.1408 1.9237
" />
<path d="M2.2113 1.4542
L2.2790 1.3672
" />
<path d="M2.2522 1.7470
L2.1952 1.8345
" />
<path d="M2.2790 1.3672
L2.3492 1.2822
" />
<path d="M2.2828 7.9240
L1.0873 7.9240
" />
<path d="M2.2828 9.9560
L2.3374 9.9583
" />
<path d="M2.3116 1.6611
L2.2522 1.7470
" />
<path d="M2.3374 7.9217
L2.2828 7.9240
" />
<path d="M2.3374 9.9583
L2.3915 9.9654
" />
<path d="M2.3492 1.2822
L2.4217 1.1993
" />
<path d="M2.3733 1.5768
L2.3116 1.6611
" />
<path d="M2.3915 7.9146
L2.3374 7.9217
" />
<path d="M2.3915 9.9654
L2.4449 9.9770
" />
<path d="M2.4217 1.1993
L2.6480 0.9480
" />
<path d="M2.4375 1.4944
L2.3733 1.5768
" />
<path d="M2.4416 18.1702
L2.4503 18.1673
" />
<path d="M2.4449 7.9030
L2.3915 7.9146
" />
<path d="M2.4449 9.9770
L2.4970 9.9932
" />
<path d="M2.4503 16.8410
L2.4503 16.8394
" />
<path d="M2.4503 16.8458
L2.4503 16.8410
" />
<path d="M2.4503 16.8537
L2.4503 16.8458
" />
<path d="M2.4503 16.8646
L2.4503 16.8537
" />
<path d="M2.4503 16.8783
L2.4503 16.8646
" />
<path d="M2.4503 16.8948
L2.4503 16.8783
" />
<path d="M2.4503 16.9138
L2.4503 16.8948
" />
<path d="M2.4503 16.9350
L2.4503 16.9138
" />
<path d="M2.4503 16.9583
L2.4503 16.9350
" />
<path d="M2.4503 16.9832
L2.4503 16.9583
" />
<path d="M2.4503 17.0095
L2.4503 16.9832
" />
<path d="M2.4503 17.0369
L2.4503 17.0095
" />
<path d="M2.4503 17.0650
L2.4503 17.0369
" />
<path d="M2.4503 17.0934
L2.4503 17.0650
" />
<path d="M2.4503 18.1970
L2.4416 18.1702
" />
<path d="M2.4503 20.2176
L2.4503 17.0934
" />
<path d="M2.4503 20.2176
L2.4537 20.2646
" />
<path d="M2.4537 20.2646
L2.4637 20.3106
" />
<path d="M2.4637 20.3106
L2.4801 20.3548
" />
<path d="M2.4801 20.3548
L2.5027 20.3961
" />
<path d="M2.4970 7.8868
L2.4449 7.9030
" />
<path d="M2.4970 9.9932
L2.4970 7.8868
" />
<path d="M2.4970 9.9932
L2.5241 10.0073
" />
<path d="M2.5027 20.3961
L2.5310 20.4338
" />
<path d="M2.5040 1.4139
L2.4375 1.4944
" />
<path d="M2.5241 10.0073
L2.5497 10.0235
" />
<path d="M2.5282 7.8703
L2.4970 7.8868
" />
<path d="M2.5310 20.4338
L2.5643 20.4671
" />
<path d="M2.5497 10.0235
L2.5738 10.0418
" />
<path d="M2.5575 7.8510
L2.5282 7.8703
" />
<path d="M2.5643 20.4671
L2.6020 20.4954
" />
<path d="M2.5728 1.3353
L2.4217 1.1993
" />
<path d="M2.5728 1.3353
L2.5040 1.4139
" />
<path d="M2.5728 1.3353
L2.7002 1.1937
" />
<path d="M2.5738 10.0418
L2.5960 10.0622
" />
<path d="M2.5845 7.8289
L2.5575 7.8510
" />
<path d="M2.5960 10.0622
L2.6160 10.0846
" />
<path d="M2.6020 20.4954
L2.6433 20.5180
" />
<path d="M2.6088 7.8040
L2.5845 7.8289
" />
<path d="M2.6160 10.0846
L2.6337 10.1092
" />
<path d="M2.6301 7.7762
L2.6088 7.8040
" />
<path d="M2.6337 10.1092
L2.6491 10.1359
" />
<path d="M2.6433 20.5180
L2.6875 20.5344
" />
<path d="M2.6480 0.9480
L2.6703 0.9182
" />
<path d="M2.6482 7.7457
L2.6301 7.7762
" />
<path d="M2.6491 10.1359
L2.6622 10.1646
" />
<path d="M2.6535 16.8394
L2.4503 16.8394
" />
<path d="M2.6535 16.8410
L2.6535 16.8394
" />
<path d="M2.6535 16.8458
L2.6535 16.8410
" />
<path d="M2.6535 16.8537
L2.6535 16.8458
" />
<path d="M2.6535 16.8646
L2.6535 16.8537
" />
<path d="M2.6535 16.8783
L2.6535 16.8646
" />
<path d="M2.6535 16.8948
L2.6535 16.8783
" />
<path d="M2.6535 16.9138
L2.6535 16.8948
" />
<path d="M2.6535 16.9350
L2.6535 16.9138
" />
<path d="M2.6535 16.9583
L2.6535 16.9350
" />
<path d="M2.6535 16.9832
L2.6535 16.9583
" />
<path d="M2.6535 17.0095
L2.6535 16.9832
" />
<path d="M2.6535 17.0369
L2.6535 17.0095
" />
<path d="M2.6535 17.0650
L2.6535 17.0369
" />
<path d="M2.6535 17.0934
L2.4503 17.0934
" />
<path d="M2.6535 17.0934
L2.6535 17.0650
" />
<path d="M2.6535 18.2110
L2.7030 18.2110
" />
<path d="M2.6535 19.1000
L2.7030 19.1000
" />
<path d="M2.6535 20.2176
L2.6535 17.0934
" />
<path d="M2.6535 20.2176
L2.6567 20.2459
" />
<path d="M2.6567 20.2459
L2.6661 20.2727
" />
<path d="M2.6622 10.1646
L2.6732 10.1955
" />
<path d="M2.6633 7.7123
L2.6482 7.7457
" />
<path d="M2.6661 20.2727
L2.6812 20.2968
" />
<path d="M2.6685 18.2110
L2.6535 18.1648
" />
<path d="M2.6703 0.9182
L2.6867 0.8848
" />
<path d="M2.6732 10.1955
L2.6820 10.2286
" />
<path d="M2.6756 7.6762
L2.6633 7.7123
" />
<path d="M2.6812 20.2968
L2.7013 20.3169
" />
<path d="M2.6820 10.2286
L2.6924 10.2885
" />
<path d="M2.6851 7.6372
L2.6756 7.6762
" />
<path d="M2.6867 0.8848
L2.6968 0.8490
" />
<path d="M2.6875 20.5344
L2.7335 20.5444
" />
<path d="M2.6907 7.6038
L2.6851 7.6372
" />
<path d="M2.6924 10.2885
L2.6979 10.3485
" />
<path d="M2.6968 0.8490
L2.7002 0.8120
" />
<path d="M2.6971 7.5351
L2.6907 7.6038
" />
<path d="M2.6979 10.3485
L2.7002 10.4123
" />
<path d="M2.6995 7.4613
L2.6971 7.5351
" />
<path d="M2.7002 0.3802
L2.7019 0.3479
" />
<path d="M2.7002 0.8882
L2.7002 0.3802
" />
<path d="M2.7002 0.9950
L2.6480 0.9480
" />
<path d="M2.7002 2.4596
L2.7002 0.8882
" />
<path d="M2.7002 2.8373
L2.7002 2.4596
" />
<path d="M2.7002 3.2207
L2.7002 2.8373
" />
<path d="M2.7002 3.6095
L2.7002 3.2207
" />
<path d="M2.7002 4.0031
L2.7002 3.6095
" />
<path d="M2.7002 4.4012
L2.7002 4.0031
" />
<path d="M2.7002 4.8033
L2.7002 4.4012
" />
<path d="M2.7002 5.2090
L2.7002 4.8033
" />
<path d="M2.7002 5.6178
L2.7002 5.2090
" />
<path d="M2.7002 6.0293
L2.7002 5.6178
" />
<path d="M2.7002 6.4432
L2.7002 6.0293
" />
<path d="M2.7002 6.8588
L2.7002 6.4432
" />
<path d="M2.7002 7.2758
L2.7002 6.8588
" />
<path d="M2.7002 7.3824
L2.6995 7.4613
" />
<path d="M2.7002 7.6936
L2.7002 7.2758
" />
<path d="M2.7002 8.1120
L2.7002 7.6936
" />
<path d="M2.7002 18.2110
L2.7002 8.1120
" />
<path d="M2.7002 19.8112
L2.7002 19.1000
" />
<path d="M2.7002 19.8396
L2.7002 19.8112
" />
<path d="M2.7002 19.8677
L2.7002 19.8396
" />
<path d="M2.7002 19.8951
L2.7002 19.8677
" />
<path d="M2.7002 19.9214
L2.7002 19.8951
" />
<path d="M2.7002 19.9463
L2.7002 19.9214
" />
<path d="M2.7002 19.9696
L2.7002 19.9463
" />
<path d="M2.7002 19.9908
L2.7002 19.9696
" />
<path d="M2.7002 20.0098
L2.7002 19.9908
" />
<path d="M2.7002 20.0263
L2.7002 20.0098
" />
<path d="M2.7002 20.0400
L2.7002 20.0263
" />
<path d="M2.7002 20.0509
L2.7002 20.0400
" />
<path d="M2.7002 20.0588
L2.7002 20.0509
" />
<path d="M2.7002 20.0636
L2.7002 20.0588
" />
<path d="M2.7002 20.0652
L2.7002 20.0636
" />
<path d="M2.7013 20.3169
L2.7254 20.3320
" />
<path d="M2.7019 0.3479
L2.7067 0.3158
" />
<path d="M2.7030 18.2110
L2.7256 18.2110
" />
<path d="M2.7030 19.1000
L2.7030 18.2110
" />
<path d="M2.7067 0.3158
L2.7147 0.2845
" />
<path d="M2.7147 0.2845
L2.7257 0.2540
" />
<path d="M2.7254 20.3320
L2.7522 20.3414
" />
<path d="M2.7256 1.1422
L2.7276 1.1358
" />
<path d="M2.7256 2.4596
L2.7002 2.4596
" />
<path d="M2.7256 8.1120
L2.7002 8.1120
" />
<path d="M2.7256 19.1000
L2.7030 19.1000
" />
<path d="M2.7256 19.8112
L2.7002 19.8112
" />
<path d="M2.7256 20.0652
L2.7002 20.0652
" />
<path d="M2.7256 20.0906
L2.7256 1.1422
" />
<path d="M2.7256 20.0906
L2.7277 20.0969
" />
<path d="M2.7257 0.2540
L2.7395 0.2247
" />
<path d="M2.7276 1.1358
L2.7334 1.1295
" />
<path d="M2.7277 20.0969
L2.7336 20.1033
" />
<path d="M2.7334 1.1295
L2.7566 1.1168
" />
<path d="M2.7335 20.5444
L2.7805 20.5478
" />
<path d="M2.7336 20.1033
L2.7569 20.1160
" />
<path d="M2.7395 0.2247
L2.7560 0.1968
" />
<path d="M2.7522 20.3414
L2.7805 20.3446
" />
<path d="M2.7560 0.1968
L2.7752 0.1707
" />
<path d="M2.7566 1.1168
L2.7941 1.1041
" />
<path d="M2.7569 20.1160
L2.7943 20.1287
" />
<path d="M2.7752 0.1707
L2.7969 0.1467
" />
<path d="M2.7941 1.1041
L2.8447 1.0914
" />
<path d="M2.7943 20.1287
L2.8447 20.1414
" />
<path d="M2.7969 0.1467
L2.8210 0.1250
" />
<path d="M2.8210 0.1250
L2.8471 0.1058
" />
<path d="M2.8447 20.1414
L2.9767 20.1668
" />
<path d="M2.8447 1.0914
L2.9765 1.0660
" />
<path d="M2.8471 0.1058
L2.8749 0.0892
" />
<path d="M2.8749 0.0892
L2.9042 0.0754
" />
<path d="M2.9034 0.3802
L2.7002 0.3802
" />
<path d="M2.9034 0.3802
L2.9059 0.3554
" />
<path d="M2.9034 0.8882
L2.7002 0.8882
" />
<path d="M2.9034 0.8882
L2.9034 0.3802
" />
<path d="M2.9034 1.0792
L2.9034 0.8882
" />
<path d="M2.9042 0.0754
L2.9347 0.0645
" />
<path d="M2.9059 0.3554
L2.9131 0.3316
" />
<path d="M2.9131 0.3316
L2.9248 0.3096
" />
<path d="M2.9248 0.3096
L2.9406 0.2904
" />
<path d="M2.9347 0.0645
L2.9661 0.0565
" />
<path d="M2.9406 0.2904
L2.9599 0.2746
" />
<path d="M2.9583 0.6850
L2.9596 0.6850
" />
<path d="M2.9583 1.0692
L2.9583 0.6850
" />
<path d="M2.9583 20.2430
L2.9583 20.1636
" />
<path d="M2.9594 20.2430
L2.9583 20.2430
" />
<path d="M2.9596 0.6850
L2.9634 0.6850
" />
<path d="M2.9599 0.2746
L2.9818 0.2629
" />
<path d="M2.9622 0.6308
L2.9583 0.6850
" />
<path d="M2.9626 20.2430
L2.9594 20.2430
" />
<path d="M2.9634 0.6850
L2.9698 0.6850
" />
<path d="M2.9661 0.0565
L2.9981 0.0516
" />
<path d="M2.9679 20.2430
L2.9626 20.2430
" />
<path d="M2.9698 0.6850
L2.9786 0.6850
" />
<path d="M2.9737 0.5777
L2.9622 0.6308
" />
<path d="M2.9754 20.2430
L2.9679 20.2430
" />
<path d="M2.9765 1.0660
L3.1320 1.0406
" />
<path d="M2.9767 20.1668
L3.1320 20.1922
" />
<path d="M2.9786 0.6850
L2.9899 0.6850
" />
<path d="M2.9818 0.2629
L3.0057 0.2556
" />
<path d="M2.9849 20.2430
L2.9754 20.2430
" />
<path d="M2.9899 0.6850
L3.0035 0.6850
" />
<path d="M2.9927 0.5268
L2.9737 0.5777
" />
<path d="M2.9964 20.2430
L2.9849 20.2430
" />
<path d="M2.9981 0.0516
L3.0304 0.0500
" />
<path d="M3.0035 0.6850
L3.0193 0.6850
" />
<path d="M3.0057 0.2556
L3.0304 0.2532
" />
<path d="M3.0098 20.2430
L2.9964 20.2430
" />
<path d="M3.0187 0.4791
L2.9927 0.5268
" />
<path d="M3.0193 0.6850
L3.0373 0.6850
" />
<path d="M3.0251 20.2430
L3.0098 20.2430
" />
<path d="M3.0304 0.0500
L3.0432 0.0500
" />
<path d="M3.0304 0.2532
L3.0304 0.0500
" />
<path d="M3.0304 0.2532
L3.0432 0.2532
" />
<path d="M3.0373 0.6850
L3.0574 0.6850
" />
<path d="M3.0422 20.2430
L3.0251 20.2430
" />
<path d="M3.0432 0.0500
L3.0555 0.0500
" />
<path d="M3.0432 0.2532
L3.0555 0.2532
" />
<path d="M3.0513 0.4356
L3.0187 0.4791
" />
<path d="M3.0555 0.0500
L3.0675 0.0500
" />
<path d="M3.0555 0.2532
L3.0675 0.2532
" />
<path d="M3.0558 20.3446
L2.7805 20.3446
" />
<path d="M3.0558 20.3446
L3.0558 20.5478
" />
<path d="M3.0558 20.5478
L2.7805 20.5478
" />
<path d="M3.0574 0.6850
L3.0793 0.6850
" />
<path d="M3.0609 20.2430
L3.0422 20.2430
" />
<path d="M3.0642 20.3446
L3.0558 20.3446
" />
<path d="M3.0675 0.0500
L3.0790 0.0500
" />
<path d="M3.0675 0.2532
L3.0790 0.2532
" />
<path d="M3.0700 20.5478
L3.0558 20.5478
" />
<path d="M3.0726 20.3446
L3.0642 20.3446
" />
<path d="M3.0790 0.0500
L3.0900 0.0500
" />
<path d="M3.0790 0.2532
L3.0901 0.2532
" />
<path d="M3.0793 0.6850
L3.1030 0.6850
" />
<path d="M3.0809 20.3446
L3.0726 20.3446
" />
<path d="M3.0812 20.2430
L3.0609 20.2430
" />
<path d="M3.0841 20.5478
L3.0700 20.5478
" />
<path d="M3.0890 20.3446
L3.0809 20.3446
" />
<path d="M3.0897 0.3971
L3.0513 0.4356
" />
<path d="M3.0900 0.0500
L3.1006 0.0500
" />
<path d="M3.0901 0.2532
L3.1006 0.2532
" />
<path d="M3.0971 20.3446
L3.0890 20.3446
" />
<path d="M3.0978 20.5478
L3.0841 20.5478
" />
<path d="M3.1006 0.0500
L3.1106 0.0500
" />
<path d="M3.1006 0.2532
L3.1106 0.2532
" />
<path d="M3.1024 0.2549
L3.0952 0.2532
" />
<path d="M3.1030 0.6850
L3.1282 0.6850
" />
<path d="M3.1030 20.2430
L3.0812 20.2430
" />
<path d="M3.1049 20.3446
L3.0971 20.3446
" />
<path d="M3.1096 0.2600
L3.1024 0.2549
" />
<path d="M3.1106 0.0500
L3.1200 0.0500
" />
<path d="M3.1106 0.2532
L3.1200 0.2532
" />
<path d="M3.1109 20.5478
L3.0978 20.5478
" />
<path d="M3.1125 20.3446
L3.1049 20.3446
" />
<path d="M3.1199 20.3446
L3.1125 20.3446
" />
<path d="M3.1200 0.0500
L3.1289 0.0500
" />
<path d="M3.1200 0.2532
L3.1289 0.2532
" />
<path d="M3.1234 20.5478
L3.1109 20.5478
" />
<path d="M3.1240 0.2798
L3.1096 0.2600
" />
<path d="M3.1261 20.2430
L3.1030 20.2430
" />
<path d="M3.1270 20.3446
L3.1199 20.3446
" />
<path d="M3.1282 0.6850
L3.1549 0.6850
" />
<path d="M3.1289 0.0500
L3.1372 0.0500
" />
<path d="M3.1289 0.2532
L3.1372 0.2532
" />
<path d="M3.1320 1.0406
L3.1538 1.0061
" />
<path d="M3.1320 20.1922
L3.1320 1.0406
" />
<path d="M3.1332 0.3646
L3.0897 0.3971
" />
<path d="M3.1338 20.3446
L3.1270 20.3446
" />
<path d="M3.1350 20.5478
L3.1234 20.5478
" />
<path d="M3.1372 0.0500
L3.1448 0.0500
" />
<path d="M3.1372 0.2532
L3.1448 0.2532
" />
<path d="M3.1385 0.3114
L3.1240 0.2798
" />
<path d="M3.1403 20.3446
L3.1338 20.3446
" />
<path d="M3.1448 0.0500
L3.1518 0.0500
" />
<path d="M3.1448 0.2532
L3.1518 0.2532
" />
<path d="M3.1456 20.5478
L3.1350 20.5478
" />
<path d="M3.1464 20.3446
L3.1403 20.3446
" />
<path d="M3.1488 20.2176
L3.1488 20.2176
" />
<path d="M3.1488 20.2176
L3.1320 20.1922
" />
<path d="M3.1504 20.2430
L3.1261 20.2430
" />
<path d="M3.1518 0.0500
L3.1581 0.0500
" />
<path d="M3.1518 0.2532
L3.1581 0.2532
" />
<path d="M3.1521 20.3446
L3.1464 20.3446
" />
<path d="M3.1529 0.3527
L3.1385 0.3114
" />
<path d="M3.1538 1.0061
L3.1698 0.9685
" />
<path d="M3.1549 0.6850
L3.1828 0.6850
" />
<path d="M3.1551 20.5478
L3.1456 20.5478
" />
<path d="M3.1573 20.3446
L3.1521 20.3446
" />
<path d="M3.1581 0.0500
L3.1637 0.0500
" />
<path d="M3.1581 0.2532
L3.1637 0.2532
" />
<path d="M3.1634 20.5478
L3.1551 20.5478
" />
<path d="M3.1637 0.2532
L3.1637 0.0500
" />
<path d="M3.1637 0.0500
L3.1649 0.0515
" />
<path d="M3.1637 0.0500
L8.6733 0.0500
" />
<path d="M3.1637 0.2532
L3.1661 0.2552
" />
<path d="M3.1649 0.0515
L3.1661 0.0559
" />
<path d="M3.1658 20.4511
L3.1488 20.2176
" />
<path d="M3.1661 0.0559
L3.1685 0.0732
" />
<path d="M3.1661 0.2552
L3.1685 0.2609
" />
<path d="M3.1685 0.0732
L3.1733 0.1393
" />
<path d="M3.1685 0.2609
L3.1733 0.2830
" />
<path d="M3.1698 0.9685
L3.1795 0.9289
" />
<path d="M3.1703 20.5478
L3.1634 20.5478
" />
<path d="M3.1733 0.1393
L3.1828 0.3548
" />
<path d="M3.1733 0.2830
L3.1828 0.3548
" />
<path d="M3.1743 20.5227
L3.1658 20.4511
" />
<path d="M3.1757 20.5478
L3.1703 20.5478
" />
<path d="M3.1786 20.5415
L3.1743 20.5227
" />
<path d="M3.1795 0.9289
L3.1828 0.8882
" />
<path d="M3.1796 20.5478
L3.1757 20.5478
" />
<path d="M3.1807 20.5462
L3.1786 20.5415
" />
<path d="M3.1809 0.3385
L3.1332 0.3646
" />
<path d="M3.1820 20.5478
L3.1796 20.5478
" />
<path d="M3.1828 0.3548
L8.6733 0.3548
" />
<path d="M3.1828 0.8882
L3.1828 0.3548
" />
<path d="M3.1828 20.5478
L3.1807 20.5462
" />
<path d="M3.1828 20.5478
L3.1820 20.5478
" />
<path d="M4.1156 1.8683
L4.1145 1.9125
" />
<path d="M4.1245 1.8249
L4.1156 1.8683
" />
<path d="M4.1407 1.7837
L4.1245 1.8249
" />
<path d="M4.1638 1.7459
L4.1407 1.7837
" />
<path d="M4.1932 1.7128
L4.1638 1.7459
" />
<path d="M4.2278 1.6852
L4.1932 1.7128
" />
<path d="M4.2667 1.6641
L4.2278 1.6852
" />
<path d="M4.3087 1.6500
L4.2667 1.6641
" />
<path d="M4.3270 5.3880
L4.1145 1.9125
" />
<path d="M4.3270 5.3880
L4.3358 5.4728
" />
<path d="M4.3358 5.4728
L4.3516 5.5565
" />
<path d="M4.3516 5.5565
L4.3744 5.6386
" />
<path d="M4.3525 1.6435
L4.3087 1.6500
" />
<path d="M4.3744 5.6386
L4.4040 5.7185
" />
<path d="M4.3968 1.6446
L4.3525 1.6435
" />
<path d="M4.4040 5.7185
L4.4402 5.7956
" />
<path d="M4.4401 1.6535
L4.3968 1.6446
" />
<path d="M4.4402 5.7956
L4.4827 5.8694
" />
<path d="M4.4813 1.6697
L4.4401 1.6535
" />
<path d="M4.4827 5.8694
L4.5312 5.9394
" />
<path d="M4.5191 1.6928
L4.4813 1.6697
" />
<path d="M4.5312 5.9394
L4.5855 6.0051
" />
<path d="M4.5522 1.7222
L4.5191 1.6928
" />
<path d="M4.5798 1.7568
L4.5522 1.7222
" />
<path d="M4.5855 6.0051
L4.6450 6.0660
" />
<path d="M4.6009 1.7957
L4.5798 1.7568
" />
<path d="M4.6150 1.8377
L4.6009 1.7957
" />
<path d="M4.6215 1.8815
L4.6150 1.8377
" />
<path d="M4.6215 1.8815
L4.6225 1.8970
" />
<path d="M4.6225 1.8970
L4.6339 2.0276
" />
<path d="M4.6225 1.8970
L4.6339 2.1582
" />
<path d="M4.6339 2.0276
L4.6598 2.3518
" />
<path d="M4.6339 2.1582
L4.6339 2.0276
" />
<path d="M4.6339 2.1582
L4.6598 2.4824
" />
<path d="M4.6450 6.0660
L4.7094 6.1217
" />
<path d="M4.6598 2.3518
L4.6984 2.8885
" />
<path d="M4.6598 2.4824
L4.6598 2.3518
" />
<path d="M4.6598 2.4824
L4.6984 2.9901
" />
<path d="M4.6984 2.8885
L4.7371 3.4824
" />
<path d="M4.6984 2.9901
L4.7371 3.5519
" />
<path d="M4.7094 6.1217
L4.7783 6.1719
" />
<path d="M4.7371 3.4824
L4.8144 4.7681
" />
<path d="M4.7371 3.5519
L4.8144 4.7681
" />
<path d="M4.7628 11.7448
L4.7628 11.9880
" />
<path d="M4.7628 11.9880
L6.1044 11.9880
" />
<path d="M4.7783 6.1719
L4.8512 6.2161
" />
<path d="M4.8144 4.7681
L4.8195 4.8550
" />
<path d="M4.8195 4.8550
L4.8255 4.9168
" />
<path d="M4.8255 4.9168
L4.8360 4.9776
" />
<path d="M4.8360 4.9776
L4.8512 5.0372
" />
<path d="M4.8512 6.2161
L4.9275 6.2540
" />
<path d="M4.8512 5.0372
L4.8709 5.0958
" />
<path d="M4.8709 5.0958
L4.8937 5.1478
" />
<path d="M4.8937 5.1478
L4.9204 5.1979
" />
<path d="M4.9204 5.1979
L4.9507 5.2459
" />
<path d="M4.9275 6.2540
L5.0066 6.2854
" />
<path d="M4.9507 5.2459
L4.9846 5.2916
" />
<path d="M4.9846 5.2916
L5.0217 5.3346
" />
<path d="M5.0066 6.2854
L5.0882 6.3100
" />
<path d="M5.0217 5.3346
L5.0620 5.3747
" />
<path d="M5.0620 5.3747
L5.1052 5.4117
" />
<path d="M5.0882 6.3100
L5.1715 6.3277
" />
<path d="M5.1052 5.4117
L5.1510 5.4453
" />
<path d="M5.1510 5.4453
L5.1993 5.4755
" />
<path d="M5.1715 6.3277
L5.2560 6.3384
" />
<path d="M5.1993 5.4755
L5.2496 5.5020
" />
<path d="M5.2496 5.5020
L5.3018 5.5247
" />
<path d="M5.2560 6.3384
L5.3412 6.3420
" />
<path d="M5.3018 5.5247
L5.3556 5.5434
" />
<path d="M5.3277 9.7020
L5.3277 11.7448
" />
<path d="M5.3277 11.7448
L4.7628 11.7448
" />
<path d="M5.3556 5.5434
L5.4106 5.5581
" />
<path d="M5.4106 5.5581
L5.4666 5.5686
" />
<path d="M5.4666 5.5686
L5.5232 5.5750
" />
<path d="M5.5232 5.5750
L5.5801 5.5771
" />
<path d="M5.5395 9.7020
L5.3277 9.7020
" />
<path d="M5.5395 11.7448
L5.5395 9.7020
" />
<path d="M5.5801 5.5771
L5.9753 5.5771
" />
<path d="M5.6253 20.4818
L5.6272 20.5103
" />
<path d="M5.6272 20.5103
L5.6330 20.5312
" />
<path d="M5.6295 20.4274
L5.6253 20.4818
" />
<path d="M5.6330 20.5312
L5.6375 20.5385
" />
<path d="M5.6375 20.5385
L5.6429 20.5437
" />
<path d="M5.6423 20.3613
L5.6295 20.4274
" />
<path d="M5.6429 20.5437
L5.6495 20.5468
" />
<path d="M5.6469 20.3439
L5.6572 20.3446
" />
<path d="M5.6495 20.5468
L5.6572 20.5478
" />
<path d="M5.6523 20.3254
L5.6423 20.3613
" />
<path d="M5.6572 20.3446
L5.6672 20.3446
" />
<path d="M5.6572 20.5478
L3.1828 20.5478
" />
<path d="M5.6572 20.5478
L5.6572 20.3446
" />
<path d="M5.6572 20.5478
L5.6672 20.5478
" />
<path d="M5.6630 20.2938
L9.3976 20.2938
" />
<path d="M5.6649 20.2889
L5.6523 20.3254
" />
<path d="M5.6672 20.3446
L5.6785 20.3446
" />
<path d="M5.6672 20.5478
L5.6785 20.5478
" />
<path d="M5.6785 20.3446
L5.6908 20.3446
" />
<path d="M5.6785 20.5478
L5.6908 20.5478
" />
<path d="M5.6800 20.2526
L5.6649 20.2889
" />
<path d="M5.6908 20.3446
L5.7043 20.3446
" />
<path d="M5.6908 20.5478
L5.7043 20.5478
" />
<path d="M5.6979 20.2176
L3.1488 20.2176
" />
<path d="M5.6979 20.2176
L5.6800 20.2526
" />
<path d="M5.7043 20.3446
L5.7188 20.3446
" />
<path d="M5.7043 20.5478
L5.7188 20.5478
" />
<path d="M5.7188 20.3446
L5.7342 20.3446
" />
<path d="M5.7188 20.5478
L5.7342 20.5478
" />
<path d="M5.7284 20.1911
L5.6979 20.2176
" />
<path d="M5.7342 20.3446
L5.7505 20.3446
" />
<path d="M5.7342 20.5478
L5.7505 20.5478
" />
<path d="M5.7505 20.3446
L5.7675 20.3446
" />
<path d="M5.7505 20.5478
L5.7675 20.5478
" />
<path d="M5.7626 20.1698
L5.7284 20.1911
" />
<path d="M5.7675 20.3446
L5.7851 20.3446
" />
<path d="M5.7675 20.5478
L5.7851 20.5478
" />
<path d="M5.7851 20.3446
L5.8033 20.3446
" />
<path d="M5.7851 20.5478
L5.8033 20.5478
" />
<path d="M5.7998 20.1541
L5.7626 20.1698
" />
<path d="M5.8033 20.3446
L5.8219 20.3446
" />
<path d="M5.8033 20.5478
L5.8219 20.5478
" />
<path d="M5.8219 20.3446
L5.8408 20.3446
" />
<path d="M5.8219 20.5478
L5.8408 20.5478
" />
<path d="M5.8391 20.1446
L5.7998 20.1541
" />
<path d="M5.8408 20.3446
L5.8600 20.3446
" />
<path d="M5.8408 20.5478
L5.8600 20.5478
" />
<path d="M5.8600 20.3446
L5.8793 20.3446
" />
<path d="M5.8600 20.5478
L5.8793 20.5478
" />
<path d="M5.8793 20.1414
L5.8391 20.1446
" />
<path d="M5.8793 20.1414
L9.1813 20.1414
" />
<path d="M5.8793 20.5478
L5.8793 20.3446
" />
<path d="M5.9753 5.5771
L6.0322 5.5750
" />
<path d="M6.0322 5.5750
L6.0888 5.5686
" />
<path d="M6.0888 5.5686
L6.1448 5.5581
" />
<path d="M6.1044 11.7448
L5.5395 11.7448
" />
<path d="M6.1044 11.9880
L6.1044 11.7448
" />
<path d="M6.1448 5.5581
L6.1998 5.5434
" />
<path d="M6.1998 5.5434
L6.2536 5.5247
" />
<path d="M6.2142 6.3420
L5.3412 6.3420
" />
<path d="M6.2142 6.3420
L6.2994 6.3384
" />
<path d="M6.2536 5.5247
L6.3058 5.5020
" />
<path d="M6.2994 6.3384
L6.3839 6.3277
" />
<path d="M6.3058 5.5020
L6.3561 5.4755
" />
<path d="M6.3561 5.4755
L6.4044 5.4453
" />
<path d="M6.3839 6.3277
L6.4672 6.3100
" />
<path d="M6.3868 9.7020
L6.7046 10.8207
" />
<path d="M6.4044 5.4453
L6.4502 5.4117
" />
<path d="M6.4221 11.2584
L6.4221 11.4530
" />
<path d="M6.4221 11.4530
L6.4575 11.5989
" />
<path d="M6.4502 5.4117
L6.4934 5.3747
" />
<path d="M6.4575 11.1125
L6.4221 11.2584
" />
<path d="M6.4575 11.5989
L6.5634 11.7934
" />
<path d="M6.4575 11.5989
L6.5634 11.7934
" />
<path d="M6.4672 6.3100
L6.5488 6.2854
" />
<path d="M6.4934 5.3747
L6.5337 5.3346
" />
<path d="M6.5337 5.3346
L6.5708 5.2916
" />
<path d="M6.5488 6.2854
L6.6279 6.2540
" />
<path d="M6.5634 10.9180
L6.4575 11.1125
" />
<path d="M6.5634 11.7934
L6.7046 11.9394
" />
<path d="M6.5634 11.7934
L6.7046 11.9394
" />
<path d="M6.5708 5.2916
L6.6047 5.2459
" />
<path d="M6.6047 5.2459
L6.6350 5.1979
" />
<path d="M6.6279 6.2540
L6.7042 6.2161
" />
<path d="M6.6340 9.7020
L6.3868 9.7020
" />
<path d="M6.6340 11.3071
L6.6693 11.1611
" />
<path d="M6.6340 11.4530
L6.6340 11.3071
" />
<path d="M6.6350 5.1979
L6.6617 5.1478
" />
<path d="M6.6617 5.1478
L6.6845 5.0958
" />
<path d="M6.6693 11.1611
L6.7399 11.0639
" />
<path d="M6.6693 11.5989
L6.6340 11.4530
" />
<path d="M6.6845 5.0958
L4.8709 5.0958
" />
<path d="M6.6845 5.0958
L6.7042 5.0372
" />
<path d="M6.7042 5.0372
L6.7194 4.9776
" />
<path d="M6.7042 6.2161
L6.7771 6.1719
" />
<path d="M6.7046 11.9394
L6.8811 11.9880
" />
<path d="M6.7046 10.8207
L6.5634 10.9180
" />
<path d="M6.7194 4.9776
L6.7299 4.9168
" />
<path d="M6.7299 4.9168
L6.7359 4.8550
" />
<path d="M6.7359 4.8550
L6.7410 4.7681
" />
<path d="M6.7399 11.0639
L6.8458 11.0152
" />
<path d="M6.7399 11.6962
L6.6693 11.5989
" />
<path d="M6.7410 4.7681
L6.8183 3.4824
" />
<path d="M6.7410 4.7681
L6.8183 3.5519
" />
<path d="M6.7771 6.1719
L6.8460 6.1217
" />
<path d="M6.8183 3.4824
L6.8570 2.8885
" />
<path d="M6.8183 3.5519
L6.8570 2.9901
" />
<path d="M6.8458 11.0152
L7.5166 11.0152
" />
<path d="M6.8458 11.7448
L6.7399 11.6962
" />
<path d="M6.8458 11.7448
L6.7399 11.6962
" />
<path d="M6.8460 6.1217
L6.9104 6.0660
" />
<path d="M6.8570 2.8885
L6.8956 2.3518
" />
<path d="M6.8570 2.9901
L6.8956 2.4824
" />
<path d="M6.8811 11.9880
L7.7284 11.9880
" />
<path d="M6.8956 2.3518
L4.6598 2.3518
" />
<path d="M6.8956 2.3518
L6.9215 2.0276
" />
<path d="M6.8956 2.4824
L6.8956 2.3518
" />
<path d="M6.8956 2.4824
L6.9215 2.1582
" />
<path d="M6.9104 6.0660
L6.9699 6.0051
" />
<path d="M6.9164 10.7234
L6.6340 9.7020
" />
<path d="M6.9215 2.0276
L4.6339 2.0276
" />
<path d="M6.9215 2.0276
L6.9329 1.8970
" />
<path d="M6.9215 2.1582
L6.9215 2.0276
" />
<path d="M6.9215 2.1582
L6.9329 1.8970
" />
<path d="M6.9329 1.8970
L4.6225 1.8970
" />
<path d="M6.9329 1.8970
L6.9339 1.8815
" />
<path d="M6.9404 1.8377
L6.9339 1.8815
" />
<path d="M6.9545 1.7957
L6.9404 1.8377
" />
<path d="M6.9699 6.0051
L7.0242 5.9394
" />
<path d="M6.9756 1.7568
L6.9545 1.7957
" />
<path d="M7.0032 1.7222
L6.9756 1.7568
" />
<path d="M7.0242 5.9394
L7.0727 5.8694
" />
<path d="M7.0363 1.6928
L7.0032 1.7222
" />
<path d="M7.0727 5.8694
L7.1152 5.7956
" />
<path d="M7.0741 1.6697
L7.0363 1.6928
" />
<path d="M7.1152 5.7956
L7.1514 5.7185
" />
<path d="M7.1153 1.6535
L7.0741 1.6697
" />
<path d="M7.1514 5.7185
L7.1810 5.6386
" />
<path d="M7.1586 1.6446
L7.1153 1.6535
" />
<path d="M7.1810 5.6386
L7.2038 5.5565
" />
<path d="M7.2029 1.6435
L7.1586 1.6446
" />
<path d="M7.2038 5.5565
L7.2196 5.4728
" />
<path d="M7.2196 5.4728
L7.2284 5.3880
" />
<path d="M7.2467 1.6500
L7.2029 1.6435
" />
<path d="M7.2887 1.6641
L7.2467 1.6500
" />
<path d="M7.3276 1.6852
L7.2887 1.6641
" />
<path d="M7.3622 1.7128
L7.3276 1.6852
" />
<path d="M7.3916 1.7459
L7.3622 1.7128
" />
<path d="M7.4147 1.7837
L7.3916 1.7459
" />
<path d="M7.4309 1.8249
L7.4147 1.7837
" />
<path d="M7.4398 1.8683
L7.4309 1.8249
" />
<path d="M7.4409 1.9125
L7.2284 5.3880
" />
<path d="M7.4409 1.9125
L7.4398 1.8683
" />
<path d="M7.5166 9.7020
L7.5166 10.7234
" />
<path d="M7.5166 10.7234
L6.9164 10.7234
" />
<path d="M7.5166 11.0152
L7.5166 11.7448
" />
<path d="M7.5166 11.7448
L6.8458 11.7448
" />
<path d="M7.6573 20.2430
L5.6846 20.2430
" />
<path d="M7.6573 20.2430
L7.6573 20.1414
" />
<path d="M7.7284 9.7020
L7.5166 9.7020
" />
<path d="M7.7284 11.9880
L7.7284 9.7020
" />
<path d="M8.0109 9.7020
L8.5757 11.9880
" />
<path d="M8.2227 9.7020
L8.0109 9.7020
" />
<path d="M8.3639 10.2857
L8.2227 9.7020
" />
<path d="M8.3992 10.4802
L9.0347 10.4802
" />
<path d="M8.3992 10.4802
L9.0347 10.4802
" />
<path d="M8.5757 11.9880
L8.8582 11.9880
" />
<path d="M8.6733 0.0500
L12.7373 0.0500
" />
<path d="M8.6733 0.0519
L8.6733 0.0500
" />
<path d="M8.6733 0.0576
L8.6733 0.0519
" />
<path d="M8.6733 0.0671
L8.6733 0.0576
" />
<path d="M8.6733 0.0802
L8.6733 0.0671
" />
<path d="M8.6733 0.0967
L8.6733 0.0802
" />
<path d="M8.6733 0.1165
L8.6733 0.0967
" />
<path d="M8.6733 0.1393
L8.6733 0.1165
" />
<path d="M8.6733 0.1648
L8.6733 0.1393
" />
<path d="M8.6733 0.1926
L8.6733 0.1648
" />
<path d="M8.6733 0.2226
L8.6733 0.1926
" />
<path d="M8.6733 0.2532
L12.7373 0.2532
" />
<path d="M8.6733 0.2541
L8.6733 0.2226
" />
<path d="M8.6733 0.2870
L8.6733 0.2541
" />
<path d="M8.6733 0.3040
L12.7373 0.3040
" />
<path d="M8.6733 0.3207
L8.6733 0.2870
" />
<path d="M8.6733 0.3548
L8.6733 0.3207
" />
<path d="M8.6733 0.5580
L12.7373 0.5580
" />
<path d="M8.6733 3.7512
L8.6733 0.3548
" />
<path d="M8.6733 3.7512
L8.6772 3.7953
" />
<path d="M8.6772 3.7953
L8.6886 3.8381
" />
<path d="M8.6886 3.8381
L8.7073 3.8782
" />
<path d="M8.7073 3.8782
L8.7327 3.9145
" />
<path d="M8.7170 11.7934
L8.3992 10.4802
" />
<path d="M8.7327 3.9145
L8.7640 3.9458
" />
<path d="M8.7640 3.9458
L8.8003 3.9712
" />
<path d="M8.7749 3.1488
L8.6733 3.1488
" />
<path d="M8.7749 3.1488
L8.9019 3.1488
" />
<path d="M8.7749 3.9544
L8.7749 3.1488
" />
<path d="M8.8003 3.9712
L8.8404 3.9899
" />
<path d="M8.8404 3.9899
L8.8832 4.0013
" />
<path d="M8.8582 11.9880
L9.4231 9.7020
" />
<path d="M8.8832 4.0013
L8.9273 4.0052
" />
<path d="M8.9019 3.0472
L8.9019 3.1488
" />
<path d="M8.9019 4.0039
L8.9019 3.1488
" />
<path d="M8.9527 3.1356
L9.4099 3.1356
" />
<path d="M8.9527 4.0052
L8.9527 3.1356
" />
<path d="M8.9592 3.0472
L8.9527 3.1356
" />
<path d="M9.0347 10.4802
L8.7170 11.7934
" />
<path d="M9.0700 10.2857
L8.3639 10.2857
" />
<path d="M9.1813 20.3446
L5.8793 20.3446
" />
<path d="M9.1813 20.3446
L9.2006 20.3446
" />
<path d="M9.1813 20.5478
L5.8793 20.5478
" />
<path d="M9.1813 20.5478
L9.1813 20.3446
" />
<path d="M9.1813 20.5478
L9.2006 20.5478
" />
<path d="M9.2006 20.3446
L9.2198 20.3446
" />
<path d="M9.2006 20.5478
L9.2198 20.5478
" />
<path d="M9.2112 9.7020
L9.0700 10.2857
" />
<path d="M9.2198 20.3446
L9.2387 20.3446
" />
<path d="M9.2198 20.5478
L9.2387 20.5478
" />
<path d="M9.2215 20.1446
L9.1813 20.1414
" />
<path d="M9.2387 20.3446
L9.2573 20.3446
" />
<path d="M9.2387 20.5478
L9.2573 20.5478
" />
<path d="M9.2573 20.3446
L9.2755 20.3446
" />
<path d="M9.2573 20.5478
L9.2755 20.5478
" />
<path d="M9.2608 20.1541
L9.2215 20.1446
" />
<path d="M9.2755 20.3446
L9.2931 20.3446
" />
<path d="M9.2755 20.5478
L9.2931 20.5478
" />
<path d="M9.2931 20.3446
L9.3101 20.3446
" />
<path d="M9.2931 20.5478
L9.3101 20.5478
" />
<path d="M9.2980 20.1698
L9.2608 20.1541
" />
<path d="M9.3083 0.2756
L9.3098 0.2692
" />
<path d="M9.3083 0.2773
L9.3083 0.2756
" />
<path d="M9.3083 0.2790
L9.3083 0.2773
" />
<path d="M9.3083 0.2808
L9.3083 0.2790
" />
<path d="M9.3083 0.2827
L9.3083 0.2808
" />
<path d="M9.3083 0.2846
L9.3083 0.2827
" />
<path d="M9.3083 0.2865
L9.3083 0.2846
" />
<path d="M9.3083 0.2885
L9.3083 0.2865
" />
<path d="M9.3083 0.2906
L9.3083 0.2885
" />
<path d="M9.3083 0.2927
L9.3083 0.2906
" />
<path d="M9.3083 0.2948
L9.3083 0.2927
" />
<path d="M9.3083 0.2971
L9.3083 0.2948
" />
<path d="M9.3083 0.2993
L9.3083 0.2971
" />
<path d="M9.3083 0.3016
L9.3083 0.2993
" />
<path d="M9.3083 0.3040
L9.3083 0.3016
" />
<path d="M9.3098 0.2692
L9.3142 0.2641
" />
<path d="M9.3101 20.3446
L9.3264 20.3446
" />
<path d="M9.3101 20.5478
L9.3264 20.5478
" />
<path d="M9.3142 0.2641
L9.3216 0.2602
" />
<path d="M9.3216 0.2602
L9.3322 0.2573
" />
<path d="M9.3264 20.3446
L9.3418 20.3446
" />
<path d="M9.3264 20.5478
L9.3418 20.5478
" />
<path d="M9.3322 0.2573
L9.3599 0.2542
" />
<path d="M9.3322 20.1911
L9.2980 20.1698
" />
<path d="M9.3418 20.3446
L9.3563 20.3446
" />
<path d="M9.3418 20.5478
L9.3563 20.5478
" />
<path d="M9.3563 20.3446
L9.3698 20.3446
" />
<path d="M9.3563 20.5478
L9.3698 20.5478
" />
<path d="M9.3599 0.2542
L9.3910 0.2532
" />
<path d="M9.3627 20.2176
L9.3322 20.1911
" />
<path d="M9.3698 20.3446
L9.3821 20.3446
" />
<path d="M9.3698 20.5478
L9.3821 20.5478
" />
<path d="M9.3806 20.2526
L9.3627 20.2176
" />
<path d="M9.3821 20.3446
L9.3934 20.3446
" />
<path d="M9.3821 20.5478
L9.3934 20.5478
" />
<path d="M9.3934 20.3446
L9.4034 20.3446
" />
<path d="M9.3934 20.5478
L9.4034 20.5478
" />
<path d="M9.3957 20.2889
L9.3806 20.2526
" />
<path d="M9.4034 20.3446
L9.4137 20.3439
" />
<path d="M9.4034 20.5478
L9.4034 20.3446
" />
<path d="M9.4034 20.5478
L9.4111 20.5468
" />
<path d="M9.4083 20.3254
L9.3957 20.2889
" />
<path d="M9.4099 3.1356
L9.4034 3.0472
" />
<path d="M9.4099 4.0052
L9.4099 3.1356
" />
<path d="M9.4099 0.0500
L9.4353 0.0500
" />
<path d="M9.4111 20.5468
L9.4177 20.5437
" />
<path d="M9.4177 20.5437
L9.4231 20.5385
" />
<path d="M9.4183 20.3613
L9.4083 20.3254
" />
<path d="M9.4231 9.7020
L9.2112 9.7020
" />
<path d="M9.4231 20.5385
L9.4276 20.5312
" />
<path d="M9.4276 20.5312
L9.4334 20.5103
" />
<path d="M9.4311 20.4274
L9.4183 20.3613
" />
<path d="M9.4334 20.5103
L9.4353 20.4818
" />
<path d="M9.4353 20.4818
L9.4311 20.4274
" />
<path d="M9.4607 3.0472
L9.4607 3.1488
" />
<path d="M9.4607 3.1488
L9.4607 4.0052
" />
<path d="M9.4607 3.1488
L9.5877 3.1488
" />
<path d="M9.5877 3.1488
L9.5877 4.0052
" />
<path d="M9.7055 11.9880
L9.9173 11.9880
" />
<path d="M9.7909 3.1488
L9.5877 3.1488
" />
<path d="M9.7909 3.1488
L9.9179 3.1488
" />
<path d="M9.7909 4.0052
L9.7909 3.1488
" />
<path d="M9.9173 11.9880
L10.1292 10.2370
" />
<path d="M9.9179 3.0472
L9.9179 3.1488
" />
<path d="M9.9179 4.0052
L9.9179 3.1488
" />
<path d="M9.9687 3.1358
L10.4259 3.1358
" />
<path d="M9.9687 4.0052
L9.9687 3.1358
" />
<path d="M9.9755 3.0472
L9.9687 3.1358
" />
<path d="M9.9879 9.7020
L9.7055 11.9880
" />
<path d="M10.1292 10.2370
L10.4116 11.9880
" />
<path d="M10.2704 9.7020
L9.9879 9.7020
" />
<path d="M10.4116 11.9880
L10.6940 11.9880
" />
<path d="M10.4259 3.1358
L10.4191 3.0472
" />
<path d="M10.4259 4.0052
L10.4259 3.1358
" />
<path d="M10.4767 3.0472
L10.4767 3.1488
" />
<path d="M10.4767 3.1488
L10.4767 4.0052
" />
<path d="M10.4767 3.1488
L10.6037 3.1488
" />
<path d="M10.5528 11.5503
L10.2704 9.7020
" />
<path d="M10.6037 3.1488
L10.6037 4.0052
" />
<path d="M10.6940 11.9880
L10.9765 10.2370
" />
<path d="M10.8069 3.1488
L10.6037 3.1488
" />
<path d="M10.8069 3.1488
L10.9339 3.1488
" />
<path d="M10.8069 4.0052
L10.8069 3.1488
" />
<path d="M10.8353 9.7020
L10.5528 11.5503
" />
<path d="M10.9339 3.0472
L10.9339 3.1488
" />
<path d="M10.9339 4.0052
L10.9339 3.1488
" />
<path d="M10.9765 10.2370
L11.1883 11.9880
" />
<path d="M10.9847 3.1356
L11.4419 3.1356
" />
<path d="M10.9847 4.0052
L10.9847 3.1356
" />
<path d="M10.9912 3.0472
L10.9847 3.1356
" />
<path d="M11.1177 9.7020
L10.8353 9.7020
" />
<path d="M11.1883 11.9880
L11.4001 11.9880
" />
<path d="M11.4001 11.9880
L11.1177 9.7020
" />
<path d="M11.4419 3.1356
L11.4354 3.0472
" />
<path d="M11.4419 4.0052
L11.4419 3.1356
" />
<path d="M11.4927 3.0472
L11.4927 3.1488
" />
<path d="M11.4927 3.1488
L11.4927 4.0052
" />
<path d="M11.4927 3.1488
L11.6197 3.1488
" />
<path d="M11.6197 3.1488
L11.6197 4.0052
" />
<path d="M11.6826 9.7020
L11.6826 9.9938
" />
<path d="M11.6826 9.9938
L12.7417 9.9938
" />
<path d="M11.6826 11.6962
L11.6826 11.9880
" />
<path d="M11.6826 11.9880
L12.9536 11.9880
" />
<path d="M11.8229 3.1488
L11.6197 3.1488
" />
<path d="M11.8229 3.1488
L11.9496 3.1488
" />
<path d="M11.8229 4.0052
L11.8229 3.1488
" />
<path d="M11.8238 10.7720
L11.8238 11.0639
" />
<path d="M11.8238 11.0639
L12.7417 11.0639
" />
<path d="M11.9493 3.0472
L11.9493 3.1489
" />
<path d="M11.9493 4.0052
L11.9493 3.1488
" />
<path d="M11.9753 0.0500
L12.0007 0.0500
" />
<path d="M11.9753 20.4818
L11.9772 20.5103
" />
<path d="M11.9772 20.5103
L11.9830 20.5312
" />
<path d="M11.9795 20.4274
L11.9753 20.4818
" />
<path d="M11.9830 20.5312
L11.9875 20.5385
" />
<path d="M11.9875 20.5385
L11.9929 20.5437
" />
<path d="M11.9924 20.3613
L11.9795 20.4274
" />
<path d="M11.9929 20.5437
L11.9995 20.5468
" />
<path d="M11.9969 20.3439
L12.0072 20.3446
" />
<path d="M11.9977 0.2532
L12.0354 0.2536
" />
<path d="M11.9995 20.5468
L12.0072 20.5478
" />
<path d="M12.0007 3.1358
L12.4579 3.1358
" />
<path d="M12.0007 4.0052
L12.0007 3.1358
" />
<path d="M12.0023 20.3254
L11.9924 20.3613
" />
<path d="M12.0072 20.3446
L12.0172 20.3446
" />
<path d="M12.0072 20.5478
L9.4034 20.5478
" />
<path d="M12.0072 20.5478
L12.0072 20.3446
" />
<path d="M12.0072 20.5478
L12.0172 20.5478
" />
<path d="M12.0075 3.0472
L12.0007 3.1358
" />
<path d="M12.0130 20.2938
L15.7476 20.2938
" />
<path d="M12.0149 20.2889
L12.0023 20.3254
" />
<path d="M12.0172 20.3446
L12.0285 20.3446
" />
<path d="M12.0172 20.5478
L12.0285 20.5478
" />
<path d="M12.0285 20.3446
L12.0408 20.3446
" />
<path d="M12.0285 20.5478
L12.0408 20.5478
" />
<path d="M12.0300 20.2526
L12.0149 20.2889
" />
<path d="M12.0354 0.2536
L12.0704 0.2560
" />
<path d="M12.0408 20.3446
L12.0543 20.3446
" />
<path d="M12.0408 20.5478
L12.0543 20.5478
" />
<path d="M12.0479 20.2176
L9.3627 20.2176
" />
<path d="M12.0479 20.2176
L12.0300 20.2526
" />
<path d="M12.0543 20.3446
L12.0688 20.3446
" />
<path d="M12.0543 20.5478
L12.0688 20.5478
" />
<path d="M12.0688 20.3446
L12.0842 20.3446
" />
<path d="M12.0688 20.5478
L12.0842 20.5478
" />
<path d="M12.0704 0.2560
L12.0844 0.2587
" />
<path d="M12.0784 20.1911
L12.0479 20.2176
" />
<path d="M12.0842 20.3446
L12.1005 20.3446
" />
<path d="M12.0842 20.5478
L12.1005 20.5478
" />
<path d="M12.0844 0.2587
L12.0943 0.2627
" />
<path d="M12.0943 0.2627
L12.1003 0.2683
" />
<path d="M12.1003 0.2683
L12.1023 0.2756
" />
<path d="M12.1005 20.3446
L12.1175 20.3446
" />
<path d="M12.1005 20.5478
L12.1175 20.5478
" />
<path d="M12.1023 0.2773
L12.1023 0.2756
" />
<path d="M12.1023 0.2790
L12.1023 0.2773
" />
<path d="M12.1023 0.2808
L12.1023 0.2790
" />
<path d="M12.1023 0.2827
L12.1023 0.2808
" />
<path d="M12.1023 0.2846
L12.1023 0.2827
" />
<path d="M12.1023 0.2865
L12.1023 0.2846
" />
<path d="M12.1023 0.2885
L12.1023 0.2865
" />
<path d="M12.1023 0.2906
L12.1023 0.2885
" />
<path d="M12.1023 0.2927
L12.1023 0.2906
" />
<path d="M12.1023 0.2948
L12.1023 0.2927
" />
<path d="M12.1023 0.2971
L12.1023 0.2948
" />
<path d="M12.1023 0.2993
L12.1023 0.2971
" />
<path d="M12.1023 0.3016
L12.1023 0.2993
" />
<path d="M12.1023 0.3040
L12.1023 0.3016
" />
<path d="M12.1126 20.1698
L12.0784 20.1911
" />
<path d="M12.1175 20.3446
L12.1351 20.3446
" />
<path d="M12.1175 20.5478
L12.1351 20.5478
" />
<path d="M12.1351 20.3446
L12.1533 20.3446
" />
<path d="M12.1351 20.5478
L12.1533 20.5478
" />
<path d="M12.1498 20.1541
L12.1126 20.1698
" />
<path d="M12.1533 20.3446
L12.1719 20.3446
" />
<path d="M12.1533 20.5478
L12.1719 20.5478
" />
<path d="M12.1719 20.3446
L12.1908 20.3446
" />
<path d="M12.1719 20.5478
L12.1908 20.5478
" />
<path d="M12.1891 20.1446
L12.1498 20.1541
" />
<path d="M12.1908 20.3446
L12.2100 20.3446
" />
<path d="M12.1908 20.5478
L12.2100 20.5478
" />
<path d="M12.2100 20.3446
L12.2293 20.3446
" />
<path d="M12.2100 20.5478
L12.2293 20.5478
" />
<path d="M12.2293 20.1414
L12.1891 20.1446
" />
<path d="M12.2293 20.1414
L15.5313 20.1414
" />
<path d="M12.2293 20.5478
L12.2293 20.3446
" />
<path d="M12.4579 3.1358
L12.4511 3.0472
" />
<path d="M12.4579 4.0052
L12.4579 3.1358
" />
<path d="M12.4833 4.0052
L8.9273 4.0052
" />
<path d="M12.4833 4.0052
L12.5274 4.0013
" />
<path d="M12.5087 3.0472
L12.5087 3.1488
" />
<path d="M12.5087 3.1488
L12.5087 4.0039
" />
<path d="M12.5087 3.1488
L12.6357 3.1488
" />
<path d="M12.5274 4.0013
L12.5702 3.9899
" />
<path d="M12.5702 3.9899
L12.6103 3.9712
" />
<path d="M12.6103 3.9712
L12.6466 3.9458
" />
<path d="M12.6357 3.1488
L12.6357 3.9544
" />
<path d="M12.6466 3.9458
L12.6779 3.9145
" />
<path d="M12.6779 3.9145
L12.7033 3.8782
" />
<path d="M12.7033 3.8782
L12.7220 3.8381
" />
<path d="M12.7220 3.8381
L12.7334 3.7953
" />
<path d="M12.7334 3.7953
L12.7373 3.7512
" />
<path d="M12.7373 0.0500
L18.2469 0.0500
" />
<path d="M12.7373 0.0519
L12.7373 0.0500
" />
<path d="M12.7373 0.0576
L12.7373 0.0519
" />
<path d="M12.7373 0.0671
L12.7373 0.0576
" />
<path d="M12.7373 0.0802
L12.7373 0.0671
" />
<path d="M12.7373 0.0967
L12.7373 0.0802
" />
<path d="M12.7373 0.1165
L12.7373 0.0967
" />
<path d="M12.7373 0.1393
L12.7373 0.1165
" />
<path d="M12.7373 0.1648
L12.7373 0.1393
" />
<path d="M12.7373 0.1926
L12.7373 0.1648
" />
<path d="M12.7373 0.2226
L12.7373 0.1926
" />
<path d="M12.7373 0.2541
L12.7373 0.2226
" />
<path d="M12.7373 0.2870
L12.7373 0.2541
" />
<path d="M12.7373 0.3207
L12.7373 0.2870
" />
<path d="M12.7373 0.3548
L12.7373 0.3207
" />
<path d="M12.7373 0.3548
L12.7373 3.7512
" />
<path d="M12.7373 0.3548
L18.2278 0.3548
" />
<path d="M12.7373 3.0472
L8.6733 3.0472
" />
<path d="M12.7373 3.1488
L12.6357 3.1488
" />
<path d="M12.7417 9.9938
L12.7417 10.7720
" />
<path d="M12.7417 10.7720
L11.8238 10.7720
" />
<path d="M12.7417 11.0639
L12.7417 11.6962
" />
<path d="M12.7417 11.6962
L11.6826 11.6962
" />
<path d="M12.9536 9.7020
L11.6826 9.7020
" />
<path d="M12.9536 11.9880
L12.9536 9.7020
" />
<path d="M13.2360 11.7448
L13.2360 11.9880
" />
<path d="M13.2360 11.9880
L14.5776 11.9880
" />
<path d="M13.7533 20.2430
L13.7533 20.1414
" />
<path d="M13.8009 9.7020
L13.8009 11.7448
" />
<path d="M13.8009 11.7448
L13.2360 11.7448
" />
<path d="M13.9708 1.8683
L13.9697 1.9125
" />
<path d="M13.9797 1.8249
L13.9708 1.8683
" />
<path d="M13.9959 1.7837
L13.9797 1.8249
" />
<path d="M14.0127 9.7020
L13.8009 9.7020
" />
<path d="M14.0127 11.7448
L14.0127 9.7020
" />
<path d="M14.0190 1.7459
L13.9959 1.7837
" />
<path d="M14.0484 1.7128
L14.0190 1.7459
" />
<path d="M14.0830 1.6852
L14.0484 1.7128
" />
<path d="M14.1219 1.6641
L14.0830 1.6852
" />
<path d="M14.1639 1.6500
L14.1219 1.6641
" />
<path d="M14.1822 5.3880
L13.9697 1.9125
" />
<path d="M14.1822 5.3880
L14.1910 5.4728
" />
<path d="M14.1910 5.4728
L14.2068 5.5565
" />
<path d="M14.2068 5.5565
L14.2296 5.6386
" />
<path d="M14.2077 1.6435
L14.1639 1.6500
" />
<path d="M14.2296 5.6386
L14.2592 5.7185
" />
<path d="M14.2520 1.6446
L14.2077 1.6435
" />
<path d="M14.2592 5.7185
L14.2954 5.7956
" />
<path d="M14.2953 1.6535
L14.2520 1.6446
" />
<path d="M14.2954 5.7956
L14.3379 5.8694
" />
<path d="M14.3365 1.6697
L14.2953 1.6535
" />
<path d="M14.3379 5.8694
L14.3864 5.9394
" />
<path d="M14.3743 1.6928
L14.3365 1.6697
" />
<path d="M14.3864 5.9394
L14.4407 6.0051
" />
<path d="M14.4074 1.7222
L14.3743 1.6928
" />
<path d="M14.4350 1.7568
L14.4074 1.7222
" />
<path d="M14.4407 6.0051
L14.5002 6.0660
" />
<path d="M14.4561 1.7957
L14.4350 1.7568
" />
<path d="M14.4702 1.8377
L14.4561 1.7957
" />
<path d="M14.4767 1.8815
L14.4702 1.8377
" />
<path d="M14.4767 1.8815
L14.4777 1.8970
" />
<path d="M14.4777 1.8970
L14.4891 2.0276
" />
<path d="M14.4777 1.8970
L14.4891 2.1582
" />
<path d="M14.4891 2.0276
L14.5150 2.3518
" />
<path d="M14.4891 2.1582
L14.4891 2.0276
" />
<path d="M14.4891 2.1582
L14.5150 2.4824
" />
<path d="M14.5002 6.0660
L14.5646 6.1217
" />
<path d="M14.5150 2.3518
L14.5536 2.8885
" />
<path d="M14.5150 2.4824
L14.5150 2.3518
" />
<path d="M14.5150 2.4824
L14.5536 2.9901
" />
<path d="M14.5536 2.8885
L14.5923 3.4824
" />
<path d="M14.5536 2.9901
L14.5923 3.5519
" />
<path d="M14.5646 6.1217
L14.6335 6.1719
" />
<path d="M14.5776 11.7448
L14.0127 11.7448
" />
<path d="M14.5776 11.9880
L14.5776 11.7448
" />
<path d="M14.5923 3.4824
L14.6696 4.7681
" />
<path d="M14.5923 3.5519
L14.6696 4.7681
" />
<path d="M14.6335 6.1719
L14.7064 6.2161
" />
<path d="M14.6696 4.7681
L14.6747 4.8550
" />
<path d="M14.6747 4.8550
L14.6807 4.9168
" />
<path d="M14.6807 4.9168
L14.6912 4.9776
" />
<path d="M14.6912 4.9776
L14.7064 5.0372
" />
<path d="M14.7064 6.2161
L14.7827 6.2540
" />
<path d="M14.7064 5.0372
L14.7261 5.0958
" />
<path d="M14.7261 5.0958
L14.7489 5.1478
" />
<path d="M14.7489 5.1478
L14.7756 5.1979
" />
<path d="M14.7756 5.1979
L14.8059 5.2459
" />
<path d="M14.7827 6.2540
L14.8618 6.2854
" />
<path d="M14.8059 5.2459
L14.8398 5.2916
" />
<path d="M14.8398 5.2916
L14.8769 5.3346
" />
<path d="M14.8600 10.2370
L14.8600 10.4802
" />
<path d="M14.8600 10.2370
L14.8600 10.4802
" />
<path d="M14.8600 10.4802
L14.9306 10.6748
" />
<path d="M14.8600 10.4802
L14.9306 10.6748
" />
<path d="M14.8618 6.2854
L14.9434 6.3100
" />
<path d="M14.8769 5.3346
L14.9172 5.3747
" />
<path d="M14.9172 5.3747
L14.9604 5.4117
" />
<path d="M14.9306 10.0425
L14.8600 10.2370
" />
<path d="M14.9306 10.6748
L15.0718 10.8693
" />
<path d="M14.9434 6.3100
L15.0267 6.3277
" />
<path d="M14.9604 5.4117
L15.0062 5.4453
" />
<path d="M14.9659 11.4530
L15.0012 11.5989
" />
<path d="M14.9659 11.4530
L15.0012 11.5989
" />
<path d="M15.0012 11.5989
L15.1072 11.7934
" />
<path d="M15.0062 5.4453
L15.0545 5.4755
" />
<path d="M15.0267 6.3277
L15.1112 6.3384
" />
<path d="M15.0545 5.4755
L15.1048 5.5020
" />
<path d="M15.0718 9.8479
L14.9306 10.0425
" />
<path d="M15.0718 10.2857
L15.1425 10.1397
" />
<path d="M15.0718 10.4316
L15.0718 10.2857
" />
<path d="M15.0718 10.8693
L15.2131 10.9666
" />
<path d="M15.1048 5.5020
L15.1570 5.5247
" />
<path d="M15.1072 11.7934
L15.2484 11.9394
" />
<path d="M15.1112 6.3384
L15.1963 6.3420
" />
<path d="M15.1425 10.1397
L15.2484 10.0425
" />
<path d="M15.1425 10.5775
L15.0718 10.4316
" />
<path d="M15.1570 5.5247
L15.2108 5.5434
" />
<path d="M15.1778 11.4530
L14.9659 11.4530
" />
<path d="M15.2108 5.5434
L15.2658 5.5581
" />
<path d="M15.2131 9.7506
L15.0718 9.8479
" />
<path d="M15.2131 10.9666
L15.3896 11.0152
" />
<path d="M15.2131 11.5503
L15.1778 11.4530
" />
<path d="M15.2484 10.0425
L15.3896 9.9938
" />
<path d="M15.2484 10.6748
L15.1425 10.5775
" />
<path d="M15.2484 10.6748
L15.1425 10.5775
" />
<path d="M15.2484 11.9394
L15.4249 11.9880
" />
<path d="M15.2658 5.5581
L15.3218 5.5686
" />
<path d="M15.2837 11.6475
L15.2131 11.5503
" />
<path d="M15.3218 5.5686
L15.3784 5.5750
" />
<path d="M15.3784 5.5750
L15.4353 5.5771
" />
<path d="M15.3896 9.7020
L15.2131 9.7506
" />
<path d="M15.3896 9.9938
L15.6720 9.9938
" />
<path d="M15.3896 9.9938
L15.6720 9.9938
" />
<path d="M15.3896 10.7234
L15.2484 10.6748
" />
<path d="M15.3896 10.7234
L15.2484 10.6748
" />
<path d="M15.3896 11.0152
L15.6014 11.0152
" />
<path d="M15.3896 11.6962
L15.2837 11.6475
" />
<path d="M15.3896 11.6962
L15.2837 11.6475
" />
<path d="M15.4249 11.9880
L15.6014 11.9880
" />
<path d="M15.4353 5.5771
L15.8305 5.5771
" />
<path d="M15.5313 20.3446
L12.2293 20.3446
" />
<path d="M15.5313 20.3446
L15.5506 20.3446
" />
<path d="M15.5313 20.5478
L12.2293 20.5478
" />
<path d="M15.5313 20.5478
L15.5313 20.3446
" />
<path d="M15.5313 20.5478
L15.5506 20.5478
" />
<path d="M15.5506 20.3446
L15.5698 20.3446
" />
<path d="M15.5506 20.5478
L15.5698 20.5478
" />
<path d="M15.5698 20.3446
L15.5887 20.3446
" />
<path d="M15.5698 20.5478
L15.5887 20.5478
" />
<path d="M15.5715 20.1446
L15.5313 20.1414
" />
<path d="M15.5887 20.3446
L15.6073 20.3446
" />
<path d="M15.5887 20.5478
L15.6073 20.5478
" />
<path d="M15.6014 10.7234
L15.3896 10.7234
" />
<path d="M15.6014 11.0152
L15.7073 11.0639
" />
<path d="M15.6014 11.6962
L15.3896 11.6962
" />
<path d="M15.6014 11.6962
L15.3896 11.6962
" />
<path d="M15.6014 11.9880
L15.7426 11.9394
" />
<path d="M15.6014 11.9880
L15.7426 11.9394
" />
<path d="M15.6073 20.3446
L15.6255 20.3446
" />
<path d="M15.6073 20.5478
L15.6255 20.5478
" />
<path d="M15.6108 20.1541
L15.5715 20.1446
" />
<path d="M15.6255 20.3446
L15.6431 20.3446
" />
<path d="M15.6255 20.5478
L15.6431 20.5478
" />
<path d="M15.6431 20.3446
L15.6601 20.3446
" />
<path d="M15.6431 20.5478
L15.6601 20.5478
" />
<path d="M15.6480 20.1698
L15.6108 20.1541
" />
<path d="M15.6601 20.3446
L15.6764 20.3446
" />
<path d="M15.6601 20.5478
L15.6764 20.5478
" />
<path d="M15.6720 9.7020
L15.3896 9.7020
" />
<path d="M15.6720 9.9938
L15.8133 10.0425
" />
<path d="M15.6720 9.9938
L15.8133 10.0425
" />
<path d="M15.6764 20.3446
L15.6918 20.3446
" />
<path d="M15.6764 20.5478
L15.6918 20.5478
" />
<path d="M15.6822 20.1911
L15.6480 20.1698
" />
<path d="M15.6918 20.3446
L15.7063 20.3446
" />
<path d="M15.6918 20.5478
L15.7063 20.5478
" />
<path d="M15.7063 20.3446
L15.7198 20.3446
" />
<path d="M15.7063 20.5478
L15.7198 20.5478
" />
<path d="M15.7073 11.0639
L15.8133 11.1611
" />
<path d="M15.7073 11.6475
L15.6014 11.6962
" />
<path d="M15.7127 20.2176
L15.6822 20.1911
" />
<path d="M15.7198 20.3446
L15.7321 20.3446
" />
<path d="M15.7198 20.5478
L15.7321 20.5478
" />
<path d="M15.7260 20.2430
L13.7533 20.2430
" />
<path d="M15.7306 20.2526
L15.7127 20.2176
" />
<path d="M15.7321 20.3446
L15.7434 20.3446
" />
<path d="M15.7321 20.5478
L15.7434 20.5478
" />
<path d="M15.7426 10.7720
L15.6014 10.7234
" />
<path d="M15.7426 11.9394
L15.8839 11.8421
" />
<path d="M15.7434 20.3446
L15.7534 20.3446
" />
<path d="M15.7434 20.5478
L15.7534 20.5478
" />
<path d="M15.7457 20.2889
L15.7306 20.2526
" />
<path d="M15.7534 20.3446
L15.7637 20.3439
" />
<path d="M15.7534 20.5478
L15.7534 20.3446
" />
<path d="M15.7534 20.5478
L15.7611 20.5468
" />
<path d="M15.7583 20.3254
L15.7457 20.2889
" />
<path d="M15.7611 20.5468
L15.7677 20.5437
" />
<path d="M15.7677 20.5437
L15.7731 20.5385
" />
<path d="M15.7683 20.3613
L15.7583 20.3254
" />
<path d="M15.7731 20.5385
L15.7776 20.5312
" />
<path d="M15.7776 20.5312
L15.7834 20.5103
" />
<path d="M15.7811 20.4274
L15.7683 20.3613
" />
<path d="M15.7834 20.5103
L15.7853 20.4818
" />
<path d="M15.7853 20.4818
L15.7811 20.4274
" />
<path d="M15.8133 10.0425
L15.9192 10.1884
" />
<path d="M15.8133 10.0425
L15.9192 10.1884
" />
<path d="M15.8133 11.1611
L15.8486 11.3071
" />
<path d="M15.8133 11.5503
L15.7073 11.6475
" />
<path d="M15.8305 5.5771
L15.8874 5.5750
" />
<path d="M15.8486 9.7506
L15.6720 9.7020
" />
<path d="M15.8486 9.7506
L15.6720 9.7020
" />
<path d="M15.8486 11.3071
L15.8486 11.4043
" />
<path d="M15.8486 11.4043
L15.8133 11.5503
" />
<path d="M15.8839 10.8693
L15.7426 10.7720
" />
<path d="M15.8839 11.8421
L16.0251 11.6475
" />
<path d="M15.8874 5.5750
L15.9440 5.5686
" />
<path d="M15.9192 10.1884
L15.9545 10.3343
" />
<path d="M15.9440 5.5686
L16.0000 5.5581
" />
<path d="M15.9545 10.3343
L16.1663 10.3343
" />
<path d="M16.0000 5.5581
L16.0550 5.5434
" />
<path d="M16.0251 9.8966
L15.8486 9.7506
" />
<path d="M16.0251 11.0639
L15.8839 10.8693
" />
<path d="M16.0251 11.0639
L15.8839 10.8693
" />
<path d="M16.0251 11.6475
L16.0604 11.4530
" />
<path d="M16.0550 5.5434
L16.1088 5.5247
" />
<path d="M16.0604 11.2584
L16.0251 11.0639
" />
<path d="M16.0604 11.2584
L16.0251 11.0639
" />
<path d="M16.0604 11.4530
L16.0604 11.2584
" />
<path d="M16.0694 6.3420
L15.1963 6.3420
" />
<path d="M16.0694 6.3420
L16.1546 6.3384
" />
<path d="M16.1088 5.5247
L16.1610 5.5020
" />
<path d="M16.1310 10.1397
L16.0251 9.8966
" />
<path d="M16.1546 6.3384
L16.2391 6.3277
" />
<path d="M16.1610 5.5020
L16.2113 5.4755
" />
<path d="M16.1663 10.3343
L16.1310 10.1397
" />
<path d="M16.2113 5.4755
L16.2596 5.4453
" />
<path d="M16.2391 6.3277
L16.3224 6.3100
" />
<path d="M16.2596 5.4453
L16.3054 5.4117
" />
<path d="M16.3054 5.4117
L16.3486 5.3747
" />
<path d="M16.3224 6.3100
L16.4039 6.2854
" />
<path d="M16.3486 5.3747
L16.3889 5.3346
" />
<path d="M16.3889 5.3346
L16.4260 5.2916
" />
<path d="M16.4039 6.2854
L16.4831 6.2540
" />
<path d="M16.4260 5.2916
L16.4599 5.2459
" />
<path d="M16.4599 5.2459
L16.4902 5.1979
" />
<path d="M16.4831 6.2540
L16.5594 6.2161
" />
<path d="M16.4902 5.1979
L16.5169 5.1478
" />
<path d="M16.5169 5.1478
L16.5397 5.0958
" />
<path d="M16.5397 5.0958
L14.7261 5.0958
" />
<path d="M16.5397 5.0958
L16.5594 5.0372
" />
<path d="M16.5594 5.0372
L16.5746 4.9776
" />
<path d="M16.5594 6.2161
L16.6323 6.1719
" />
<path d="M16.5746 4.9776
L16.5851 4.9168
" />
<path d="M16.5851 4.9168
L16.5911 4.8550
" />
<path d="M16.5911 4.8550
L16.5962 4.7681
" />
<path d="M16.5962 4.7681
L16.6735 3.4824
" />
<path d="M16.5962 4.7681
L16.6735 3.5519
" />
<path d="M16.6323 6.1719
L16.7012 6.1217
" />
<path d="M16.6735 3.4824
L16.7122 2.8885
" />
<path d="M16.6735 3.5519
L16.7122 2.9901
" />
<path d="M16.7012 6.1217
L16.7656 6.0660
" />
<path d="M16.7122 2.8885
L16.7508 2.3518
" />
<path d="M16.7122 2.9901
L16.7508 2.4824
" />
<path d="M16.7508 2.3518
L14.5150 2.3518
" />
<path d="M16.7508 2.3518
L16.7767 2.0276
" />
<path d="M16.7508 2.4824
L16.7508 2.3518
" />
<path d="M16.7508 2.4824
L16.7767 2.1582
" />
<path d="M16.7656 6.0660
L16.8251 6.0051
" />
<path d="M16.7767 2.0276
L14.4891 2.0276
" />
<path d="M16.7767 2.0276
L16.7881 1.8970
" />
<path d="M16.7767 2.1582
L16.7767 2.0276
" />
<path d="M16.7767 2.1582
L16.7881 1.8970
" />
<path d="M16.7881 1.8970
L14.4777 1.8970
" />
<path d="M16.7881 1.8970
L16.7891 1.8815
" />
<path d="M16.7956 1.8377
L16.7891 1.8815
" />
<path d="M16.8097 1.7957
L16.7956 1.8377
" />
<path d="M16.8251 6.0051
L16.8794 5.9394
" />
<path d="M16.8308 1.7568
L16.8097 1.7957
" />
<path d="M16.8584 1.7222
L16.8308 1.7568
" />
<path d="M16.8794 5.9394
L16.9279 5.8694
" />
<path d="M16.8915 1.6928
L16.8584 1.7222
" />
<path d="M16.9279 5.8694
L16.9704 5.7956
" />
<path d="M16.9293 1.6697
L16.8915 1.6928
" />
<path d="M16.9704 5.7956
L17.0066 5.7185
" />
<path d="M16.9705 1.6535
L16.9293 1.6697
" />
<path d="M17.0066 5.7185
L17.0362 5.6386
" />
<path d="M17.0138 1.6446
L16.9705 1.6535
" />
<path d="M17.0362 5.6386
L17.0590 5.5565
" />
<path d="M17.0581 1.6435
L17.0138 1.6446
" />
<path d="M17.0590 5.5565
L17.0748 5.4728
" />
<path d="M17.0748 5.4728
L17.0836 5.3880
" />
<path d="M17.1019 1.6500
L17.0581 1.6435
" />
<path d="M17.1439 1.6641
L17.1019 1.6500
" />
<path d="M17.1828 1.6852
L17.1439 1.6641
" />
<path d="M17.2174 1.7128
L17.1828 1.6852
" />
<path d="M17.2468 1.7459
L17.2174 1.7128
" />
<path d="M17.2699 1.7837
L17.2468 1.7459
" />
<path d="M17.2861 1.8249
L17.2699 1.7837
" />
<path d="M17.2950 1.8683
L17.2861 1.8249
" />
<path d="M17.2961 1.9125
L17.0836 5.3880
" />
<path d="M17.2961 1.9125
L17.2950 1.8683
" />
<path d="M18.2278 0.3548
L18.2278 0.8882
" />
<path d="M18.2278 0.6850
L18.2557 0.6850
" />
<path d="M18.2278 0.8882
L18.2310 0.9289
" />
<path d="M18.2278 20.5478
L15.7534 20.5478
" />
<path d="M18.2278 20.5478
L18.2299 20.5462
" />
<path d="M18.2286 20.5478
L18.2278 20.5478
" />
<path d="M18.2299 20.5462
L18.2320 20.5413
" />
<path d="M18.2310 20.5478
L18.2286 20.5478
" />
<path d="M18.2310 0.9289
L18.2408 0.9685
" />
<path d="M18.2320 20.5413
L18.2363 20.5224
" />
<path d="M18.2349 20.5478
L18.2310 20.5478
" />
<path d="M18.2363 20.5224
L18.2448 20.4511
" />
<path d="M18.2373 0.1393
L18.2278 0.3548
" />
<path d="M18.2373 0.2830
L18.2278 0.3548
" />
<path d="M18.2403 20.5478
L18.2349 20.5478
" />
<path d="M18.2408 0.9685
L18.2568 1.0061
" />
<path d="M18.2421 0.0732
L18.2373 0.1393
" />
<path d="M18.2421 0.2609
L18.2373 0.2830
" />
<path d="M18.2445 0.2552
L18.2421 0.2609
" />
<path d="M18.2445 0.0559
L18.2421 0.0732
" />
<path d="M18.2448 20.4511
L18.2618 20.2176
" />
<path d="M18.2457 0.0515
L18.2445 0.0559
" />
<path d="M18.2469 0.0500
L18.2457 0.0515
" />
<path d="M18.2469 0.0500
L18.2525 0.0500
" />
<path d="M18.2469 0.2532
L18.2445 0.2552
" />
<path d="M18.2469 0.2532
L18.2525 0.2532
" />
<path d="M18.2469 0.2532
L18.2469 0.0500
" />
<path d="M18.2472 20.5478
L18.2403 20.5478
" />
<path d="M18.2525 0.0500
L18.2588 0.0500
" />
<path d="M18.2525 0.2532
L18.2588 0.2532
" />
<path d="M18.2555 20.5478
L18.2472 20.5478
" />
<path d="M18.2557 0.6850
L18.2824 0.6850
" />
<path d="M18.2568 1.0061
L18.2786 1.0406
" />
<path d="M18.2577 0.3527
L18.2721 0.3114
" />
<path d="M18.2585 20.3446
L18.2533 20.3446
" />
<path d="M18.2588 0.0500
L18.2658 0.0500
" />
<path d="M18.2588 0.2532
L18.2658 0.2532
" />
<path d="M18.2618 20.2176
L15.7127 20.2176
" />
<path d="M18.2618 20.2176
L18.2618 20.2176
" />
<path d="M18.2642 20.3446
L18.2585 20.3446
" />
<path d="M18.2650 20.5478
L18.2555 20.5478
" />
<path d="M18.2658 0.2532
L18.2734 0.2532
" />
<path d="M18.2658 0.0500
L18.2734 0.0500
" />
<path d="M18.2703 20.3446
L18.2642 20.3446
" />
<path d="M18.2721 0.3114
L18.2866 0.2798
" />
<path d="M18.2734 0.2532
L18.2817 0.2532
" />
<path d="M18.2734 0.0500
L18.2817 0.0500
" />
<path d="M18.2756 20.5478
L18.2650 20.5478
" />
<path d="M18.2768 20.3446
L18.2703 20.3446
" />
<path d="M18.2774 0.3646
L18.2297 0.3385
" />
<path d="M18.2774 0.3646
L18.2297 0.3385
" />
<path d="M18.2786 1.0406
L18.2786 20.1922
" />
<path d="M18.2786 20.1922
L18.2618 20.2176
" />
<path d="M18.2817 0.2532
L18.2906 0.2532
" />
<path d="M18.2817 0.0500
L18.2906 0.0500
" />
<path d="M18.2824 0.6850
L18.3076 0.6850
" />
<path d="M18.2835 20.3446
L18.2768 20.3446
" />
<path d="M18.2845 20.2430
L18.2601 20.2430
" />
<path d="M18.2866 0.2798
L18.3010 0.2600
" />
<path d="M18.2872 20.5478
L18.2756 20.5478
" />
<path d="M18.2906 0.2532
L18.3000 0.2532
" />
<path d="M18.2906 0.0500
L18.3000 0.0500
" />
<path d="M18.2907 20.3446
L18.2835 20.3446
" />
<path d="M18.2980 20.3446
L18.2907 20.3446
" />
<path d="M18.2997 20.5478
L18.2872 20.5478
" />
<path d="M18.3000 0.2532
L18.3100 0.2532
" />
<path d="M18.3000 0.0500
L18.3100 0.0500
" />
<path d="M18.3010 0.2600
L18.3082 0.2549
" />
<path d="M18.3057 20.3446
L18.2980 20.3446
" />
<path d="M18.3076 20.2430
L18.2845 20.2430
" />
<path d="M18.3076 0.6850
L18.3313 0.6850
" />
<path d="M18.3082 0.2549
L18.3154 0.2532
" />
<path d="M18.3100 0.2532
L18.3205 0.2532
" />
<path d="M18.3100 0.0500
L18.3206 0.0500
" />
<path d="M18.3128 20.5478
L18.2997 20.5478
" />
<path d="M18.3135 20.3446
L18.3057 20.3446
" />
<path d="M18.3205 0.2532
L18.3316 0.2532
" />
<path d="M18.3206 0.0500
L18.3316 0.0500
" />
<path d="M18.3209 0.3971
L18.2774 0.3646
" />
<path d="M18.3209 0.3971
L18.2774 0.3646
" />
<path d="M18.3216 20.3446
L18.3135 20.3446
" />
<path d="M18.3265 20.5478
L18.3128 20.5478
" />
<path d="M18.3293 20.2430
L18.3076 20.2430
" />
<path d="M18.3297 20.3446
L18.3216 20.3446
" />
<path d="M18.3313 0.6850
L18.3532 0.6850
" />
<path d="M18.3316 0.2532
L18.3431 0.2532
" />
<path d="M18.3316 0.0500
L18.3431 0.0500
" />
<path d="M18.3380 20.3446
L18.3297 20.3446
" />
<path d="M18.3406 20.5478
L18.3265 20.5478
" />
<path d="M18.3431 0.2532
L18.3551 0.2532
" />
<path d="M18.3431 0.0500
L18.3551 0.0500
" />
<path d="M18.3464 20.3446
L18.3380 20.3446
" />
<path d="M18.3497 20.2430
L18.3293 20.2430
" />
<path d="M18.3532 0.6850
L18.3733 0.6850
" />
<path d="M18.3548 20.3446
L18.3464 20.3446
" />
<path d="M18.3548 20.3446
L18.3548 20.5478
" />
<path d="M18.3548 20.5478
L18.3406 20.5478
" />
<path d="M18.3551 0.2532
L18.3674 0.2532
" />
<path d="M18.3551 0.0500
L18.3674 0.0500
" />
<path d="M18.3593 0.4356
L18.3209 0.3971
" />
<path d="M18.3593 0.4356
L18.3209 0.3971
" />
<path d="M18.3674 0.2532
L18.3802 0.2532
" />
<path d="M18.3674 0.0500
L18.3802 0.0500
" />
<path d="M18.3684 20.2430
L18.3497 20.2430
" />
<path d="M18.3733 0.6850
L18.3913 0.6850
" />
<path d="M18.3802 0.2532
L18.3802 0.0500
" />
<path d="M18.3855 20.2430
L18.3684 20.2430
" />
<path d="M18.3913 0.6850
L18.4071 0.6850
" />
<path d="M18.3919 0.4791
L18.3593 0.4356
" />
<path d="M18.3919 0.4791
L18.3593 0.4356
" />
<path d="M18.4008 20.2430
L18.3855 20.2430
" />
<path d="M18.4049 0.2557
L18.3802 0.2532
" />
<path d="M18.4071 0.6850
L18.4207 0.6850
" />
<path d="M18.4125 0.0516
L18.3802 0.0500
" />
<path d="M18.4142 20.2430
L18.4008 20.2430
" />
<path d="M18.4179 0.5268
L18.3919 0.4791
" />
<path d="M18.4179 0.5268
L18.3919 0.4791
" />
<path d="M18.4207 0.6850
L18.4320 0.6850
" />
<path d="M18.4257 20.2430
L18.4142 20.2430
" />
<path d="M18.4287 0.2630
L18.4049 0.2557
" />
<path d="M18.4320 0.6850
L18.4408 0.6850
" />
<path d="M18.4339 1.0660
L18.2786 1.0406
" />
<path d="M18.4341 20.1668
L18.2786 20.1922
" />
<path d="M18.4352 20.2430
L18.4257 20.2430
" />
<path d="M18.4369 0.5777
L18.4179 0.5268
" />
<path d="M18.4369 0.5777
L18.4179 0.5268
" />
<path d="M18.4408 0.6850
L18.4472 0.6850
" />
<path d="M18.4427 20.2430
L18.4352 20.2430
" />
<path d="M18.4446 0.0563
L18.4125 0.0516
" />
<path d="M18.4472 0.6850
L18.4510 0.6850
" />
<path d="M18.4480 20.2430
L18.4427 20.2430
" />
<path d="M18.4484 0.6308
L18.4369 0.5777
" />
<path d="M18.4484 0.6308
L18.4369 0.5777
" />
<path d="M18.4507 0.2747
L18.4287 0.2630
" />
<path d="M18.4510 0.6850
L18.4523 0.6850
" />
<path d="M18.4512 20.2430
L18.4480 20.2430
" />
<path d="M18.4523 0.6850
L18.4484 0.6308
" />
<path d="M18.4523 0.6850
L18.4484 0.6308
" />
<path d="M18.4523 0.6850
L18.4523 1.0692
" />
<path d="M18.4523 20.1636
L18.4523 20.2430
" />
<path d="M18.4523 20.2430
L18.4512 20.2430
" />
<path d="M18.4700 0.2904
L18.4507 0.2747
" />
<path d="M18.4760 0.0642
L18.4446 0.0563
" />
<path d="M18.4857 0.3097
L18.4700 0.2904
" />
<path d="M18.4974 0.3316
L18.4857 0.3097
" />
<path d="M18.5047 0.3554
L18.4974 0.3316
" />
<path d="M18.5065 0.0751
L18.4760 0.0642
" />
<path d="M18.5072 0.3802
L18.5047 0.3554
" />
<path d="M18.5072 0.3802
L18.5072 0.8882
" />
<path d="M18.5072 0.3802
L18.7104 0.3802
" />
<path d="M18.5072 0.8882
L18.5072 1.0793
" />
<path d="M18.5072 0.8882
L18.7104 0.8882
" />
<path d="M18.5358 0.0890
L18.5065 0.0751
" />
<path d="M18.5636 0.1056
L18.5358 0.0890
" />
<path d="M18.5659 20.1414
L18.4341 20.1668
" />
<path d="M18.5659 1.0914
L18.4339 1.0660
" />
<path d="M18.5896 0.1250
L18.5636 0.1056
" />
<path d="M18.6137 0.1467
L18.5896 0.1250
" />
<path d="M18.6163 1.1041
L18.5659 1.0914
" />
<path d="M18.6165 20.1287
L18.5659 20.1414
" />
<path d="M18.6301 20.3446
L18.3548 20.3446
" />
<path d="M18.6301 20.5478
L18.3548 20.5478
" />
<path d="M18.6354 0.1707
L18.6137 0.1467
" />
<path d="M18.6537 1.1168
L18.6163 1.1041
" />
<path d="M18.6540 20.1160
L18.6165 20.1287
" />
<path d="M18.6547 0.1968
L18.6354 0.1707
" />
<path d="M18.6584 20.3414
L18.6301 20.3446
" />
<path d="M18.6714 0.2245
L18.6547 0.1968
" />
<path d="M18.6770 1.1295
L18.6537 1.1168
" />
<path d="M18.6771 20.5444
L18.6301 20.5478
" />
<path d="M18.6772 20.1033
L18.6540 20.1160
" />
<path d="M18.6829 1.1358
L18.6770 1.1295
" />
<path d="M18.6830 20.0969
L18.6772 20.1033
" />
<path d="M18.6850 1.1422
L18.6829 1.1358
" />
<path d="M18.6850 1.1422
L18.6850 20.0906
" />
<path d="M18.6850 2.4596
L18.7104 2.4596
" />
<path d="M18.6850 8.1120
L18.7104 8.1120
" />
<path d="M18.6850 18.2110
L18.7076 18.2110
" />
<path d="M18.6850 19.8112
L18.7104 19.8112
" />
<path d="M18.6850 20.0652
L18.7104 20.0652
" />
<path d="M18.6850 20.0906
L18.6830 20.0969
" />
<path d="M18.6852 20.3320
L18.6584 20.3414
" />
<path d="M18.6852 0.2538
L18.6714 0.2245
" />
<path d="M18.6962 0.2843
L18.6852 0.2538
" />
<path d="M18.7040 0.3158
L18.6962 0.2843
" />
<path d="M18.7076 18.2110
L18.7076 19.1000
" />
<path d="M18.7076 19.1000
L18.6850 19.1000
" />
<path d="M18.7088 0.3478
L18.7040 0.3158
" />
<path d="M18.7093 20.3169
L18.6852 20.3320
" />
<path d="M18.7104 0.3802
L18.7088 0.3478
" />
<path d="M18.7104 0.3802
L18.7104 0.8882
" />
<path d="M18.7104 0.8120
L18.7138 0.8490
" />
<path d="M18.7104 0.8882
L18.7104 2.4596
" />
<path d="M18.7104 0.9950
L18.7626 0.9480
" />
<path d="M18.7104 1.1937
L18.8378 1.3353
" />
<path d="M18.7104 2.4596
L18.7104 2.8373
" />
<path d="M18.7104 2.8373
L18.7104 3.2207
" />
<path d="M18.7104 3.2207
L18.7104 3.6095
" />
<path d="M18.7104 3.6095
L18.7104 4.0031
" />
<path d="M18.7104 4.0031
L18.7104 4.4012
" />
<path d="M18.7104 4.4012
L18.7104 4.8033
" />
<path d="M18.7104 4.8033
L18.7104 5.2090
" />
<path d="M18.7104 5.2090
L18.7104 5.6178
" />
<path d="M18.7104 5.6178
L18.7104 6.0293
" />
<path d="M18.7104 6.0293
L18.7104 6.4432
" />
<path d="M18.7104 6.4432
L18.7104 6.8588
" />
<path d="M18.7104 6.8588
L18.7104 7.2758
" />
<path d="M18.7104 7.2758
L18.7104 7.6936
" />
<path d="M18.7104 7.6936
L18.7104 8.1120
" />
<path d="M18.7104 8.1120
L18.7104 18.2110
" />
<path d="M18.7104 10.4976
L18.7111 10.4187
" />
<path d="M18.7104 19.1000
L18.7104 19.8112
" />
<path d="M18.7104 19.8112
L18.7104 19.8396
" />
<path d="M18.7104 19.8396
L18.7104 19.8677
" />
<path d="M18.7104 19.8677
L18.7104 19.8951
" />
<path d="M18.7104 19.8951
L18.7104 19.9214
" />
<path d="M18.7104 19.9214
L18.7104 19.9463
" />
<path d="M18.7104 19.9463
L18.7104 19.9696
" />
<path d="M18.7104 19.9696
L18.7104 19.9908
" />
<path d="M18.7104 19.9908
L18.7104 20.0098
" />
<path d="M18.7104 20.0098
L18.7104 20.0263
" />
<path d="M18.7104 20.0263
L18.7104 20.0400
" />
<path d="M18.7104 20.0400
L18.7104 20.0509
" />
<path d="M18.7104 20.0509
L18.7104 20.0588
" />
<path d="M18.7104 20.0588
L18.7104 20.0636
" />
<path d="M18.7104 20.0636
L18.7104 20.0652
" />
<path d="M18.7111 10.4187
L18.7135 10.3449
" />
<path d="M18.7127 7.5315
L18.7104 7.4677
" />
<path d="M18.7135 10.3449
L18.7199 10.2762
" />
<path d="M18.7138 0.8490
L18.7239 0.8848
" />
<path d="M18.7182 7.5915
L18.7127 7.5315
" />
<path d="M18.7199 10.2762
L18.7255 10.2428
" />
<path d="M18.7231 20.5344
L18.6771 20.5444
" />
<path d="M18.7239 0.8848
L18.7403 0.9182
" />
<path d="M18.7255 10.2428
L18.7350 10.2038
" />
<path d="M18.7286 7.6514
L18.7182 7.5915
" />
<path d="M18.7294 20.2968
L18.7093 20.3169
" />
<path d="M18.7350 10.2038
L18.7473 10.1677
" />
<path d="M18.7374 7.6845
L18.7286 7.6514
" />
<path d="M18.7403 0.9182
L18.7626 0.9480
" />
<path d="M18.7445 20.2727
L18.7294 20.2968
" />
<path d="M18.7473 10.1677
L18.7624 10.1343
" />
<path d="M18.7484 7.7154
L18.7374 7.6845
" />
<path d="M18.7539 20.2459
L18.7445 20.2727
" />
<path d="M18.7571 16.8394
L18.7571 16.8410
" />
<path d="M18.7571 16.8394
L18.9603 16.8394
" />
<path d="M18.7571 16.8410
L18.7571 16.8458
" />
<path d="M18.7571 16.8458
L18.7571 16.8537
" />
<path d="M18.7571 16.8537
L18.7571 16.8646
" />
<path d="M18.7571 16.8646
L18.7571 16.8783
" />
<path d="M18.7571 16.8783
L18.7571 16.8948
" />
<path d="M18.7571 16.8948
L18.7571 16.9138
" />
<path d="M18.7571 16.9138
L18.7571 16.9350
" />
<path d="M18.7571 16.9350
L18.7571 16.9583
" />
<path d="M18.7571 16.9583
L18.7571 16.9832
" />
<path d="M18.7571 16.9832
L18.7571 17.0095
" />
<path d="M18.7571 17.0095
L18.7571 17.0369
" />
<path d="M18.7571 17.0369
L18.7571 17.0650
" />
<path d="M18.7571 17.0650
L18.7571 17.0934
" />
<path d="M18.7571 17.0934
L18.7571 20.2176
" />
<path d="M18.7571 17.0934
L18.9603 17.0934
" />
<path d="M18.7571 18.1648
L18.7421 18.2110
" />
<path d="M18.7571 18.2110
L18.7076 18.2110
" />
<path d="M18.7571 19.1000
L18.7076 19.1000
" />
<path d="M18.7571 20.2176
L18.7539 20.2459
" />
<path d="M18.7615 7.7441
L18.7484 7.7154
" />
<path d="M18.7624 10.1343
L18.7805 10.1038
" />
<path d="M18.7626 0.9480
L18.9889 1.1993
" />
<path d="M18.7673 20.5180
L18.7231 20.5344
" />
<path d="M18.7769 7.7708
L18.7615 7.7441
" />
<path d="M18.7805 10.1038
L18.8018 10.0760
" />
<path d="M18.7946 7.7954
L18.7769 7.7708
" />
<path d="M18.8018 10.0760
L18.8261 10.0511
" />
<path d="M18.8086 20.4954
L18.7673 20.5180
" />
<path d="M18.8146 7.8178
L18.7946 7.7954
" />
<path d="M18.8261 10.0511
L18.8531 10.0290
" />
<path d="M18.8368 7.8382
L18.8146 7.8178
" />
<path d="M18.8378 1.3353
L18.9889 1.1993
" />
<path d="M18.8463 20.4671
L18.8086 20.4954
" />
<path d="M18.8531 10.0290
L18.8824 10.0097
" />
<path d="M18.8609 7.8565
L18.8368 7.8382
" />
<path d="M18.8796 20.4338
L18.8463 20.4671
" />
<path d="M18.8824 10.0097
L18.9136 9.9932
" />
<path d="M18.8865 7.8727
L18.8609 7.8565
" />
<path d="M18.9066 1.4139
L18.8378 1.3353
" />
<path d="M18.9079 20.3961
L18.8796 20.4338
" />
<path d="M18.9136 7.8868
L18.8865 7.8727
" />
<path d="M18.9136 9.9932
L18.9136 7.8868
" />
<path d="M18.9136 9.9932
L18.9657 9.9770
" />
<path d="M18.9305 20.3548
L18.9079 20.3961
" />
<path d="M18.9469 20.3106
L18.9305 20.3548
" />
<path d="M18.9569 20.2646
L18.9469 20.3106
" />
<path d="M18.9603 16.8394
L18.9603 16.8410
" />
<path d="M18.9603 16.8410
L18.9603 16.8458
" />
<path d="M18.9603 16.8458
L18.9603 16.8537
" />
<path d="M18.9603 16.8537
L18.9603 16.8646
" />
<path d="M18.9603 16.8646
L18.9603 16.8783
" />
<path d="M18.9603 16.8783
L18.9603 16.8948
" />
<path d="M18.9603 16.8948
L18.9603 16.9138
" />
<path d="M18.9603 16.9138
L18.9603 16.9350
" />
<path d="M18.9603 16.9350
L18.9603 16.9583
" />
<path d="M18.9603 16.9583
L18.9603 16.9832
" />
<path d="M18.9603 16.9832
L18.9603 17.0095
" />
<path d="M18.9603 17.0095
L18.9603 17.0369
" />
<path d="M18.9603 17.0369
L18.9603 17.0650
" />
<path d="M18.9603 17.0650
L18.9603 17.0934
" />
<path d="M18.9603 17.0934
L18.9603 20.2176
" />
<path d="M18.9603 20.2176
L18.9569 20.2646
" />
<path d="M18.9657 7.9030
L18.9136 7.8868
" />
<path d="M18.9657 9.9770
L19.0191 9.9654
" />
<path d="M18.9690 18.1702
L18.9603 18.1673
" />
<path d="M18.9690 18.1702
L18.9603 18.1970
" />
<path d="M18.9731 1.4944
L18.9066 1.4139
" />
<path d="M18.9889 1.1993
L19.0614 1.2822
" />
<path d="M19.0191 7.9146
L18.9657 7.9030
" />
<path d="M19.0191 9.9654
L19.0732 9.9583
" />
<path d="M19.0373 1.5768
L18.9731 1.4944
" />
<path d="M19.0614 1.2822
L19.1316 1.3672
" />
<path d="M19.0732 7.9217
L19.0191 7.9146
" />
<path d="M19.0732 9.9583
L19.1278 9.9560
" />
<path d="M19.0990 1.6611
L19.0373 1.5768
" />
<path d="M19.1278 7.9240
L19.0732 7.9217
" />
<path d="M19.1278 9.9560
L20.3233 9.9560
" />
<path d="M19.1316 1.3672
L19.1993 1.4542
" />
<path d="M19.1584 1.7470
L19.0990 1.6611
" />
<path d="M19.1993 1.4542
L19.2645 1.5431
" />
<path d="M19.2154 1.8345
L19.1584 1.7470
" />
<path d="M19.2645 1.5431
L19.3271 1.6337
" />
<path d="M19.2698 1.9237
L19.2154 1.8345
" />
<path d="M19.3217 2.0143
L19.2698 1.9237
" />
<path d="M19.3271 1.6337
L19.3872 1.7261
" />
<path d="M19.3711 2.1064
L19.3217 2.0143
" />
<path d="M19.3872 1.7261
L19.4446 1.8202
" />
<path d="M19.4178 2.1998
L19.3711 2.1064
" />
<path d="M19.4446 1.8202
L19.4994 1.9158
" />
<path d="M19.4619 2.2945
L19.4178 2.1998
" />
<path d="M19.4994 1.9158
L19.5515 2.0129
" />
<path d="M19.5033 2.3903
L19.4619 2.2945
" />
<path d="M19.5390 5.5108
L19.5380 5.5160
" />
<path d="M19.5417 5.4952
L19.5390 5.5108
" />
<path d="M19.5420 2.4874
L19.5033 2.3903
" />
<path d="M19.5462 5.4695
L19.5417 5.4952
" />
<path d="M19.5515 2.0129
L19.6008 2.1115
" />
<path d="M19.5525 5.4339
L19.5462 5.4695
" />
<path d="M19.5604 5.3889
L19.5525 5.4339
" />
<path d="M19.5699 5.3350
L19.5604 5.3889
" />
<path d="M19.5779 2.5855
L19.5420 2.4874
" />
<path d="M19.5809 5.2729
L19.5699 5.3350
" />
<path d="M19.5932 5.2032
L19.5809 5.2729
" />
<path d="M19.5953 3.3520
L18.7104 3.3520
" />
<path d="M19.5953 5.1912
L19.5953 3.3520
" />
<path d="M19.5953 6.6032
L18.7104 6.6032
" />
<path d="M19.5953 6.6032
L19.5953 5.5261
" />
<path d="M19.6008 2.1115
L19.6473 2.2114
" />
<path d="M19.6066 5.1269
L19.5932 5.2032
" />
<path d="M19.6109 2.6845
L19.5779 2.5855
" />
<path d="M19.6211 5.0447
L19.6066 5.1269
" />
<path d="M19.6365 4.9578
L19.6211 5.0447
" />
<path d="M19.6412 2.7845
L19.6109 2.6845
" />
<path d="M19.6473 2.2114
L19.6910 2.3126
" />
<path d="M19.6525 4.8671
L19.6365 4.9578
" />
<path d="M19.6685 2.8853
L19.6412 2.7845
" />
<path d="M19.6689 4.7736
L19.6525 4.8671
" />
<path d="M19.6857 4.6787
L19.6689 4.7736
" />
<path d="M19.6910 2.3126
L19.7318 2.4150
" />
<path d="M19.6930 2.9868
L19.6685 2.8853
" />
<path d="M19.7145 3.0890
L19.6930 2.9868
" />
<path d="M19.7279 4.4392
L19.6857 4.6787
" />
<path d="M19.7279 4.4392
L19.7445 4.3361
" />
<path d="M19.7279 4.4392
L19.9280 4.4745
" />
<path d="M19.7318 2.4150
L19.7697 2.5185
" />
<path d="M19.7331 3.1918
L19.7145 3.0890
" />
<path d="M19.7381 5.5512
L19.5380 5.5160
" />
<path d="M19.7381 5.5512
L19.5380 5.5160
" />
<path d="M19.7391 5.5460
L19.7381 5.5512
" />
<path d="M19.7418 5.5305
L19.7391 5.5460
" />
<path d="M19.7445 4.3361
L19.7582 4.2326
" />
<path d="M19.7463 5.5048
L19.7418 5.5305
" />
<path d="M19.7488 3.2951
L19.7331 3.1918
" />
<path d="M19.7526 5.4692
L19.7463 5.5048
" />
<path d="M19.7582 4.2326
L19.7690 4.1287
" />
<path d="M19.7605 5.4242
L19.7526 5.4692
" />
<path d="M19.7616 3.3987
L19.7488 3.2951
" />
<path d="M19.7690 4.1287
L19.7767 4.0245
" />
<path d="M19.7697 2.5185
L19.8046 2.6230
" />
<path d="M19.7700 5.3703
L19.7605 5.4242
" />
<path d="M19.7715 3.5027
L19.7616 3.3987
" />
<path d="M19.7767 4.0245
L19.7816 3.9202
" />
<path d="M19.7784 3.6069
L19.7715 3.5027
" />
<path d="M19.7810 5.3082
L19.7700 5.3703
" />
<path d="M19.7816 3.9202
L19.7835 3.8158
" />
<path d="M19.7824 3.7113
L19.7784 3.6069
" />
<path d="M19.7835 3.8158
L19.7824 3.7113
" />
<path d="M19.7933 5.2385
L19.7810 5.3082
" />
<path d="M19.8046 2.6230
L19.8365 2.7285
" />
<path d="M19.8068 5.1621
L19.7933 5.2385
" />
<path d="M19.8212 5.0800
L19.8068 5.1621
" />
<path d="M19.8365 2.7285
L19.8654 2.8349
" />
<path d="M19.8366 4.9931
L19.8212 5.0800
" />
<path d="M19.8526 4.9023
L19.8366 4.9931
" />
<path d="M19.8654 2.8349
L19.8911 2.9420
" />
<path d="M19.8690 4.8089
L19.8526 4.9023
" />
<path d="M19.8858 4.7139
L19.6857 4.6787
" />
<path d="M19.8858 4.7139
L19.8690 4.8089
" />
<path d="M19.8911 2.9420
L19.9139 3.0498
" />
<path d="M19.9139 3.0498
L19.9335 3.1583
" />
<path d="M19.9280 4.4745
L19.8858 4.7139
" />
<path d="M19.9335 3.1583
L19.9501 3.2672
" />
<path d="M19.9456 4.3657
L19.9280 4.4745
" />
<path d="M19.9501 3.2672
L19.9636 3.3766
" />
<path d="M19.9600 4.2564
L19.9456 4.3657
" />
<path d="M19.9636 3.3766
L19.9740 3.4863
" />
<path d="M19.9714 4.1468
L19.9600 4.2564
" />
<path d="M19.9740 3.4863
L19.9813 3.5963
" />
<path d="M19.9796 4.0369
L19.9714 4.1468
" />
<path d="M19.9813 3.5963
L19.9855 3.7064
" />
<path d="M19.9847 3.9268
L19.9796 4.0369
" />
<path d="M19.9855 3.7064
L19.9866 3.8166
" />
<path d="M19.9866 3.8166
L19.9847 3.9268
" />
<path d="M20.3233 7.9240
L19.1278 7.9240
" />
<path d="M20.3233 9.9560
L20.3233 7.9240
" />
<path d="M20.3233 9.9560
L20.3688 9.9560
" />
<path d="M20.3688 7.9240
L20.3233 7.9240
" />
<path d="M20.3688 9.9560
L20.4137 9.9560
" />
<path d="M20.4137 7.9240
L20.3688 7.9240
" />
<path d="M20.4137 9.9560
L20.4575 9.9560
" />
<path d="M20.4575 7.9240
L20.4137 7.9240
" />
<path d="M20.4575 9.9560
L20.4996 9.9560
" />
<path d="M20.4996 7.9240
L20.4575 7.9240
" />
<path d="M20.4996 9.9560
L20.5395 9.9560
" />
<path d="M20.5395 7.9240
L20.4996 7.9240
" />
<path d="M20.5395 9.9560
L20.5767 9.9560
" />
<path d="M20.5767 7.9240
L20.5395 7.9240
" />
<path d="M20.5767 9.9560
L20.6106 9.9560
" />
<path d="M20.6106 7.9240
L20.5767 7.9240
" />
<path d="M20.6106 9.9560
L20.6410 9.9560
" />
<path d="M20.6410 7.9240
L20.6106 7.9240
" />
<path d="M20.6410 9.9560
L20.6674 9.9560
" />
<path d="M20.6674 7.9240
L20.6410 7.9240
" />
<path d="M20.6674 9.9560
L20.6894 9.9560
" />
<path d="M20.6894 7.9240
L20.6674 7.9240
" />
<path d="M20.6894 9.9560
L20.7069 9.9560
" />
<path d="M20.7069 7.9240
L20.6894 7.9240
" />
<path d="M20.7069 9.9560
L20.7195 9.9560
" />
<path d="M20.7195 7.9240
L20.7069 7.9240
" />
<path d="M20.7195 9.9560
L20.7271 9.9560
" />
<path d="M20.7271 7.9240
L20.7195 7.9240
" />
<path d="M20.7271 9.9560
L20.7297 9.9560
" />
<path d="M20.7297 7.9240
L20.7271 7.9240
" />
<path d="M20.7297 9.9560
L20.7297 7.9240
" />
</g> 
</svg>
