<?xml version="1.0" standalone="no"?>
 <!DOCTYPE svg PUBLIC "-//W3C//DTD SVG 1.1//EN" 
 "http://www.w3.org/Graphics/SVG/1.1/DTD/svg11.dtd"> 
<svg
  xmlns:svg="http://www.w3.org/2000/svg"
  xmlns="http://www.w3.org/2000/svg"
  xmlns:xlink="http://www.w3.org/1999/xlink"
  version="1.1"
  width="1.8796mm" height="0.9652mm" viewBox="0.0000 0.0000 1.8796 0.9652">
<title>SVG Image created as outline.svg date 2024/10/22 15:47:10 </title>
  <desc>Image generated by PCBNEW </desc>
<g style="fill:#000000; fill-opacity:0.0000;stroke:#000000; stroke-opacity:1.0000;
stroke-linecap:round; stroke-linejoin:round;"
 transform="translate(0 0) scale(1 1)">
</g>
<g style="fill:#000000; fill-opacity:0.0; 
stroke:#000000; stroke-width:0.0000; stroke-opacity:1; 
stroke-linecap:round; stroke-linejoin:round;">
<g >
</g>
<g style="fill:#000000; fill-opacity:0.0; 
stroke:#000000; stroke-width:0.0000; stroke-opacity:1; 
stroke-linecap:round; stroke-linejoin:round;">
</g>
<g style="fill:#000000; fill-opacity:0.0000; 
stroke:#000000; stroke-width:0.0000; stroke-opacity:1; 
stroke-linecap:round; stroke-linejoin:round;">
<path style="fill:#000000; fill-opacity:0.0000; 
stroke:#000000; stroke-width:0.0000; stroke-opacity:1; 
stroke-linecap:round; stroke-linejoin:round;fill-rule:evenodd;"
d="M 0.1750,0.3225
0.1862,0.2661
0.2182,0.2182
0.2661,0.1862
0.3225,0.1750
0.6175,0.1750
0.6739,0.1862
0.7218,0.2182
0.7538,0.2661
0.7650,0.3225
0.7650,0.6675
0.7538,0.7239
0.7218,0.7718
0.6739,0.8038
0.6175,0.8150
0.3225,0.8150
0.2661,0.8038
0.2182,0.7718
0.1862,0.7239
0.1750,0.6675
Z" /> 
<path style="fill:#000000; fill-opacity:0.0000; 
stroke:#000000; stroke-width:0.0000; stroke-opacity:1; 
stroke-linecap:round; stroke-linejoin:round;fill-rule:evenodd;"
d="M 1.1350,0.3225
1.1462,0.2661
1.1782,0.2182
1.2261,0.1862
1.2825,0.1750
1.5775,0.1750
1.6339,0.1862
1.6818,0.2182
1.7138,0.2661
1.7250,0.3225
1.7250,0.6675
1.7138,0.7239
1.6818,0.7718
1.6339,0.8038
1.5775,0.8150
1.2825,0.8150
1.2261,0.8038
1.1782,0.7718
1.1462,0.7239
1.1350,0.6675
Z" /> 
</g>
<g >
</g>
<g >
</g>
<g >
</g>
</g> 
</svg>
