<?xml version="1.0" standalone="no"?>
 <!DOCTYPE svg PUBLIC "-//W3C//DTD SVG 1.1//EN" 
 "http://www.w3.org/Graphics/SVG/1.1/DTD/svg11.dtd"> 
<svg
  xmlns:svg="http://www.w3.org/2000/svg"
  xmlns="http://www.w3.org/2000/svg"
  xmlns:xlink="http://www.w3.org/1999/xlink"
  version="1.1"
  width="31.2928mm" height="31.2928mm" viewBox="0.0000 0.0000 31.2928 31.2928">
<title>SVG Image created as outline.svg date 2024/11/20 14:44:29 </title>
  <desc>Image generated by PCBNEW </desc>
<g style="fill:#000000; fill-opacity:0.0000;stroke:#000000; stroke-opacity:1.0000;
stroke-linecap:round; stroke-linejoin:round;"
 transform="translate(0 0) scale(1 1)">
</g>
<g style="fill:none; 
stroke:#000000; stroke-width:0.0200; stroke-opacity:1; 
stroke-linecap:round; stroke-linejoin:round;">
<path d="M2.7830 2.9450
L7.0380 2.9450
" />
<path d="M2.7830 7.0650
L2.7830 2.9450
" />
<path d="M2.7830 7.7150
L2.7830 8.3350
" />
<path d="M2.7830 8.9850
L2.7830 9.6050
" />
<path d="M2.7830 10.2550
L2.7830 10.8750
" />
<path d="M2.7830 11.5250
L2.7830 12.1450
" />
<path d="M2.7830 12.7950
L2.7830 13.4150
" />
<path d="M2.7830 14.0650
L2.7830 14.6850
" />
<path d="M2.7830 15.3350
L2.7830 15.9550
" />
<path d="M2.7830 16.6050
L2.7830 17.2250
" />
<path d="M2.7830 17.8750
L2.7830 18.4950
" />
<path d="M2.7830 19.1450
L2.7830 19.7650
" />
<path d="M2.7830 20.4150
L2.7830 21.0350
" />
<path d="M2.7830 21.6850
L2.7830 22.3050
" />
<path d="M2.7830 22.9550
L2.7830 23.5750
" />
<path d="M2.7830 28.3450
L2.7830 24.2250
" />
<path d="M6.9060 28.3450
L2.7830 28.3450
" />
<path d="M7.5550 28.3450
L8.1750 28.3450
" />
<path d="M8.3080 2.9450
L7.6880 2.9450
" />
<path d="M8.8250 28.3450
L9.4450 28.3450
" />
<path d="M9.5780 2.9450
L8.9580 2.9450
" />
<path d="M10.0950 28.3450
L10.7150 28.3450
" />
<path d="M10.8480 2.9450
L10.2280 2.9450
" />
<path d="M11.3650 28.3450
L11.9850 28.3450
" />
<path d="M12.1180 2.9450
L11.4980 2.9450
" />
<path d="M12.6350 28.3450
L13.2550 28.3450
" />
<path d="M13.3760 12.6710
L13.3930 12.6290
" />
<path d="M13.3760 13.9710
L13.3760 12.6710
" />
</g>
<g style="fill:#000000; fill-opacity:0.0000; stroke:none;">
<circle cx="13.3770" cy="16.9670" r="0.0100" /> 
</g>
<g style="fill:none; 
stroke:#000000; stroke-width:0.0200; stroke-opacity:1; 
stroke-linecap:round; stroke-linejoin:round;">
<path d="M13.3770 16.9670
L13.3780 16.9660
" />
<path d="M13.3780 16.8110
L13.3950 16.7690
" />
<path d="M13.3780 18.1110
L13.3780 16.8110
" />
<path d="M13.3880 2.9450
L12.7680 2.9450
" />
<path d="M13.3930 12.6290
L13.4350 12.6110
" />
<path d="M13.3930 14.0130
L13.3760 13.9710
" />
<path d="M13.3950 16.7690
L13.4380 16.7510
" />
<path d="M13.3950 18.1530
L13.3780 18.1110
" />
<path d="M13.4350 12.6110
L14.3350 12.6110
" />
<path d="M13.4350 14.0310
L13.3930 14.0130
" />
<path d="M13.4380 16.7510
L13.4800 16.7690
" />
<path d="M13.4380 18.1710
L13.3950 18.1530
" />
<path d="M13.4430 18.1690
L13.4380 18.1710
" />
<path d="M13.4780 14.0130
L13.4350 14.0310
" />
<path d="M13.4800 16.7690
L13.4980 16.8110
" />
<path d="M13.4950 12.7310
L13.4950 13.9710
" />
<path d="M13.4950 13.9710
L13.4780 14.0130
" />
<path d="M13.4980 16.8110
L13.4980 18.0490
" />
<path d="M13.4980 18.0490
L14.3380 18.0490
" />
<path d="M13.6100 17.9310
L13.6100 12.9310
" />
<path d="M13.9050 28.3450
L14.5250 28.3450
" />
<path d="M14.3350 12.6110
L14.3780 12.6290
" />
<path d="M14.3350 12.7310
L13.4950 12.7310
" />
<path d="M14.3380 18.0490
L14.3800 18.0660
" />
<path d="M14.3380 18.1690
L13.4430 18.1690
" />
<path d="M14.3780 12.6290
L14.3950 12.6710
" />
<path d="M14.3780 12.7130
L14.3350 12.7310
" />
<path d="M14.3800 18.0660
L14.3980 18.1090
" />
<path d="M14.3800 18.1510
L14.3380 18.1690
" />
<path d="M14.3950 12.6710
L14.3780 12.7130
" />
<path d="M14.3980 18.1090
L14.3800 18.1510
" />
<path d="M14.6580 2.9450
L14.0380 2.9450
" />
<path d="M15.1750 28.3450
L15.7950 28.3450
" />
<path d="M15.9280 2.9450
L15.3080 2.9450
" />
<path d="M16.3150 12.6710
L16.3330 12.6290
" />
<path d="M16.3150 18.1110
L16.3330 18.0690
" />
<path d="M16.3330 12.6290
L16.3760 12.6110
" />
<path d="M16.3330 12.7130
L16.3150 12.6710
" />
<path d="M16.3330 18.0690
L16.3760 18.0510
" />
<path d="M16.3330 18.1530
L16.3150 18.1110
" />
<path d="M16.3760 12.6110
L17.2750 12.6110
" />
<path d="M16.3760 12.7310
L16.3330 12.7130
" />
<path d="M16.3760 18.0510
L17.2160 18.0510
" />
<path d="M16.3760 18.1710
L16.3330 18.1530
" />
<path d="M16.4450 28.3450
L17.0650 28.3450
" />
<path d="M17.1100 12.9310
L13.6100 12.9310
" />
<path d="M17.1100 17.9310
L13.6100 17.9310
" />
<path d="M17.1100 17.9310
L17.1100 12.9310
" />
<path d="M17.1980 2.9450
L16.5780 2.9450
" />
<path d="M17.2160 12.7310
L16.3760 12.7310
" />
<path d="M17.2160 13.9710
L17.2160 12.7310
" />
<path d="M17.2160 16.8110
L17.2330 16.7690
" />
<path d="M17.2160 18.0510
L17.2160 16.8110
" />
<path d="M17.2330 14.0130
L17.2160 13.9710
" />
<path d="M17.2330 16.7690
L17.2750 16.7510
" />
<path d="M17.2750 12.6110
L17.3180 12.6290
" />
<path d="M17.2750 14.0310
L17.2330 14.0130
" />
<path d="M17.2750 16.7510
L17.3180 16.7690
" />
<path d="M17.2750 18.1710
L16.3760 18.1710
" />
<path d="M17.3180 12.6290
L17.3360 12.6710
" />
<path d="M17.3180 14.0130
L17.2750 14.0310
" />
<path d="M17.3180 16.7690
L17.3360 16.8110
" />
<path d="M17.3180 18.1530
L17.2750 18.1710
" />
<path d="M17.3360 12.6710
L17.3360 13.9710
" />
<path d="M17.3360 13.9710
L17.3180 14.0130
" />
<path d="M17.3360 16.8110
L17.3360 18.1110
" />
<path d="M17.3360 18.1110
L17.3180 18.1530
" />
<path d="M17.7150 28.3450
L18.3350 28.3450
" />
<path d="M18.4680 2.9450
L17.8480 2.9450
" />
<path d="M18.9850 28.3450
L19.6050 28.3450
" />
<path d="M19.7380 2.9450
L19.1180 2.9450
" />
<path d="M20.2550 28.3450
L20.8750 28.3450
" />
<path d="M21.0080 2.9450
L20.3880 2.9450
" />
<path d="M21.5250 28.3450
L22.1450 28.3450
" />
<path d="M22.2780 2.9450
L21.6580 2.9450
" />
<path d="M22.7950 28.3450
L23.4150 28.3450
" />
<path d="M23.5480 2.9450
L22.9280 2.9450
" />
<path d="M24.1980 2.9450
L28.1830 2.9450
" />
<path d="M28.1830 2.9450
L28.1830 7.0760
" />
<path d="M28.1830 8.3460
L28.1830 7.7260
" />
<path d="M28.1830 9.6160
L28.1830 8.9960
" />
<path d="M28.1830 10.8860
L28.1830 10.2660
" />
<path d="M28.1830 12.1560
L28.1830 11.5360
" />
<path d="M28.1830 13.4260
L28.1830 12.8060
" />
<path d="M28.1830 14.6960
L28.1830 14.0760
" />
<path d="M28.1830 15.9660
L28.1830 15.3460
" />
<path d="M28.1830 17.2360
L28.1830 16.6160
" />
<path d="M28.1830 18.5060
L28.1830 17.8860
" />
<path d="M28.1830 19.7760
L28.1830 19.1560
" />
<path d="M28.1830 21.0460
L28.1830 20.4260
" />
<path d="M28.1830 22.3160
L28.1830 21.6960
" />
<path d="M28.1830 23.5860
L28.1830 22.9660
" />
<path d="M28.1830 24.2360
L28.1830 28.3450
" />
<path d="M28.1830 28.3450
L24.0650 28.3450
" />
<path d="M2.7830 7.7150 A0.3250 0.3250 0.0 0 0 2.7830 7.0650" />
<path d="M2.7830 8.9850 A0.3250 0.3250 0.0 0 0 2.7830 8.3350" />
<path d="M2.7830 10.2550 A0.3250 0.3250 0.0 0 0 2.7830 9.6050" />
<path d="M2.7830 11.5250 A0.3250 0.3250 0.0 0 0 2.7830 10.8750" />
<path d="M2.7830 12.7950 A0.3250 0.3250 0.0 0 0 2.7830 12.1450" />
<path d="M2.7830 14.0650 A0.3250 0.3250 0.0 0 0 2.7830 13.4150" />
<path d="M2.7830 15.3350 A0.3250 0.3250 0.0 0 0 2.7830 14.6850" />
<path d="M2.7830 16.6050 A0.3250 0.3250 0.0 0 0 2.7830 15.9550" />
<path d="M2.7830 17.8750 A0.3250 0.3250 0.0 0 0 2.7830 17.2250" />
<path d="M2.7830 19.1450 A0.3250 0.3250 0.0 0 0 2.7830 18.4950" />
<path d="M2.7830 20.4150 A0.3250 0.3250 0.0 0 0 2.7830 19.7650" />
<path d="M2.7830 21.6850 A0.3250 0.3250 0.0 0 0 2.7830 21.0350" />
<path d="M2.7830 22.9550 A0.3250 0.3250 0.0 0 0 2.7830 22.3050" />
<path d="M2.7830 24.2250 A0.3250 0.3250 0.0 0 0 2.7830 23.5750" />
<path d="M7.5550 28.3450 A0.3250 0.3250 0.0 0 0 6.9050 28.3450" />
<path d="M7.0380 2.9450 A0.3250 0.3250 0.0 0 0 7.6880 2.9450" />
<path d="M8.8250 28.3450 A0.3250 0.3250 0.0 0 0 8.1750 28.3450" />
<path d="M8.3080 2.9450 A0.3250 0.3250 0.0 0 0 8.9580 2.9450" />
<path d="M10.0950 28.3450 A0.3250 0.3250 0.0 0 0 9.4450 28.3450" />
<path d="M9.5780 2.9450 A0.3250 0.3250 0.0 0 0 10.2280 2.9450" />
<path d="M11.3650 28.3450 A0.3250 0.3250 0.0 0 0 10.7150 28.3450" />
<path d="M10.8480 2.9450 A0.3250 0.3250 0.0 0 0 11.4980 2.9450" />
<path d="M12.6350 28.3450 A0.3250 0.3250 0.0 0 0 11.9850 28.3450" />
<path d="M12.1180 2.9450 A0.3250 0.3250 0.0 0 0 12.7680 2.9450" />
<path d="M13.9050 28.3450 A0.3250 0.3250 0.0 0 0 13.2550 28.3450" />
<path d="M13.3880 2.9450 A0.3250 0.3250 0.0 0 0 14.0380 2.9450" />
<path d="M15.1750 28.3450 A0.3250 0.3250 0.0 0 0 14.5250 28.3450" />
<path d="M14.6580 2.9450 A0.3250 0.3250 0.0 0 0 15.3080 2.9450" />
<path d="M16.4450 28.3450 A0.3250 0.3250 0.0 0 0 15.7950 28.3450" />
<path d="M15.9280 2.9450 A0.3250 0.3250 0.0 0 0 16.5780 2.9450" />
<path d="M17.7150 28.3450 A0.3250 0.3250 0.0 0 0 17.0650 28.3450" />
<path d="M17.1980 2.9450 A0.3250 0.3250 0.0 0 0 17.8480 2.9450" />
<path d="M18.9850 28.3450 A0.3250 0.3250 0.0 0 0 18.3350 28.3450" />
<path d="M18.4680 2.9450 A0.3250 0.3250 0.0 0 0 19.1180 2.9450" />
<path d="M20.2550 28.3450 A0.3250 0.3250 0.0 0 0 19.6050 28.3450" />
<path d="M19.7380 2.9450 A0.3250 0.3250 0.0 0 0 20.3880 2.9450" />
<path d="M21.5250 28.3450 A0.3250 0.3250 0.0 0 0 20.8750 28.3450" />
<path d="M21.0080 2.9450 A0.3250 0.3250 0.0 0 0 21.6580 2.9450" />
<path d="M22.7950 28.3450 A0.3250 0.3250 0.0 0 0 22.1450 28.3450" />
<path d="M22.2780 2.9450 A0.3250 0.3250 0.0 0 0 22.9280 2.9450" />
<path d="M24.0650 28.3450 A0.3250 0.3250 0.0 0 0 23.4150 28.3450" />
<path d="M23.5480 2.9450 A0.3250 0.3250 0.0 0 0 24.1980 2.9450" />
<path d="M28.1830 7.0760 A0.3250 0.3250 0.0 0 0 28.1830 7.7260" />
<path d="M28.1830 8.3460 A0.3250 0.3250 0.0 0 0 28.1830 8.9960" />
<path d="M28.1830 9.6160 A0.3250 0.3250 0.0 0 0 28.1830 10.2660" />
<path d="M28.1830 10.8860 A0.3250 0.3250 0.0 0 0 28.1830 11.5360" />
<path d="M28.1830 12.1560 A0.3250 0.3250 0.0 0 0 28.1830 12.8060" />
<path d="M28.1830 13.4260 A0.3250 0.3250 0.0 0 0 28.1830 14.0760" />
<path d="M28.1830 14.6960 A0.3250 0.3250 0.0 0 0 28.1830 15.3460" />
<path d="M28.1830 15.9660 A0.3250 0.3250 0.0 0 0 28.1830 16.6160" />
<path d="M28.1830 17.2360 A0.3250 0.3250 0.0 0 0 28.1830 17.8860" />
<path d="M28.1830 18.5060 A0.3250 0.3250 0.0 0 0 28.1830 19.1560" />
<path d="M28.1830 19.7760 A0.3250 0.3250 0.0 0 0 28.1830 20.4260" />
<path d="M28.1830 21.0460 A0.3250 0.3250 0.0 0 0 28.1830 21.6960" />
<path d="M28.1830 22.3160 A0.3250 0.3250 0.0 0 0 28.1830 22.9660" />
<path d="M28.1830 23.5860 A0.3250 0.3250 0.0 0 0 28.1830 24.2360" />
<circle cx="3.4500" cy="27.7305" r="0.1250" /> 
<circle cx="3.4500" cy="27.7305" r="0.2500" /> 
<circle cx="3.6200" cy="3.8330" r="0.1250" /> 
<circle cx="3.6200" cy="3.8330" r="0.2500" /> 
<circle cx="8.2400" cy="8.2810" r="1.1000" /> 
<circle cx="8.2400" cy="8.2810" r="1.7500" /> 
<circle cx="8.2400" cy="22.8730" r="1.1000" /> 
<circle cx="8.2400" cy="22.8730" r="1.7500" /> 
<circle cx="22.8500" cy="8.2830" r="1.1000" /> 
<circle cx="22.8500" cy="8.2830" r="1.7500" /> 
<circle cx="22.8500" cy="8.2830" r="1.9750" /> 
<circle cx="22.8500" cy="22.8930" r="1.1000" /> 
<circle cx="22.8500" cy="22.8930" r="1.7500" /> 
<circle cx="27.5400" cy="3.5780" r="0.1250" /> 
<circle cx="27.5400" cy="3.5780" r="0.2500" /> 
<circle cx="27.5600" cy="27.7405" r="0.1250" /> 
<circle cx="27.5600" cy="27.7405" r="0.2500" /> 
</g> 
</svg>
