<?xml version="1.0" standalone="no"?>
 <!DOCTYPE svg PUBLIC "-//W3C//DTD SVG 1.1//EN" 
 "http://www.w3.org/Graphics/SVG/1.1/DTD/svg11.dtd"> 
<svg
  xmlns:svg="http://www.w3.org/2000/svg"
  xmlns="http://www.w3.org/2000/svg"
  xmlns:xlink="http://www.w3.org/1999/xlink"
  version="1.1"
  width="31.2420mm" height="31.2420mm" viewBox="0.0000 0.0000 31.2420 31.2420">
<title>SVG Image created as outline.svg date 2024/11/06 11:44:30 </title>
  <desc>Image generated by PCBNEW </desc>
<g style="fill:#000000; fill-opacity:0.0000;stroke:#000000; stroke-opacity:1.0000;
stroke-linecap:round; stroke-linejoin:round;"
 transform="translate(0 0) scale(1 1)">
</g>
<g style="fill:#000000; fill-opacity:0.0; 
stroke:#000000; stroke-width:0.0000; stroke-opacity:1; 
stroke-linecap:round; stroke-linejoin:round;">
</g>
<g style="fill:#000000; fill-opacity:0.0000; 
stroke:#000000; stroke-width:0.0212; stroke-opacity:1; 
stroke-linecap:round; stroke-linejoin:round;">
<rect x="-5.000000" y="-5.000000" width="41.250000" height="41.250000" rx="0.000000" />
</g>
<g style="fill:#FFFFFF; fill-opacity:0.0000; 
stroke:#FFFFFF; stroke-width:0.0212; stroke-opacity:1; 
stroke-linecap:round; stroke-linejoin:round;">
</g>
<g style="fill:#FFFFFF; fill-opacity:0.0000; 
stroke:#FFFFFF; stroke-width:0.0200; stroke-opacity:1; 
stroke-linecap:round; stroke-linejoin:round;">
</g>
<g style="fill:#FFFFFF; fill-opacity:0.0; 
stroke:#FFFFFF; stroke-width:0.0200; stroke-opacity:1; 
stroke-linecap:round; stroke-linejoin:round;">
<path d="M2.7580 2.9270
L7.0130 2.9270
" />
<path d="M2.7580 7.0470
L2.7580 2.9270
" />
<path d="M2.7580 7.6970
L2.7580 8.3170
" />
<path d="M2.7580 8.9670
L2.7580 9.5870
" />
<path d="M2.7580 10.2370
L2.7580 10.8570
" />
<path d="M2.7580 11.5070
L2.7580 12.1270
" />
<path d="M2.7580 12.7770
L2.7580 13.3970
" />
<path d="M2.7580 14.0470
L2.7580 14.6670
" />
<path d="M2.7580 15.3170
L2.7580 15.9370
" />
<path d="M2.7580 16.5870
L2.7580 17.2070
" />
<path d="M2.7580 17.8570
L2.7580 18.4770
" />
<path d="M2.7580 19.1270
L2.7580 19.7470
" />
<path d="M2.7580 20.3970
L2.7580 21.0170
" />
<path d="M2.7580 21.6670
L2.7580 22.2870
" />
<path d="M2.7580 22.9370
L2.7580 23.5570
" />
<path d="M2.7580 28.3270
L2.7580 24.2070
" />
<path d="M6.8810 28.3270
L2.7580 28.3270
" />
<path d="M7.5300 28.3270
L8.1500 28.3270
" />
<path d="M8.2830 2.9270
L7.6630 2.9270
" />
<path d="M8.8000 28.3270
L9.4200 28.3270
" />
<path d="M9.5530 2.9270
L8.9330 2.9270
" />
<path d="M10.0700 28.3270
L10.6900 28.3270
" />
<path d="M10.8230 2.9270
L10.2030 2.9270
" />
<path d="M11.3400 28.3270
L11.9600 28.3270
" />
<path d="M12.0930 2.9270
L11.4730 2.9270
" />
<path d="M12.6100 28.3270
L13.2300 28.3270
" />
<path d="M13.3510 12.6530
L13.3680 12.6110
" />
<path d="M13.3510 13.9530
L13.3510 12.6530
" />
</g>
<g style="fill:#FFFFFF; fill-opacity:0.0000; 
stroke:#FFFFFF; stroke-width:0.0000; stroke-opacity:1; 
stroke-linecap:round; stroke-linejoin:round;">
<circle cx="13.3520" cy="16.9490" r="0.0100" /> 
</g>
<g style="fill:#FFFFFF; fill-opacity:0.0000; 
stroke:#FFFFFF; stroke-width:0.0200; stroke-opacity:1; 
stroke-linecap:round; stroke-linejoin:round;">
</g>
<g style="fill:#FFFFFF; fill-opacity:0.0; 
stroke:#FFFFFF; stroke-width:0.0200; stroke-opacity:1; 
stroke-linecap:round; stroke-linejoin:round;">
<path d="M13.3520 16.9490
L13.3530 16.9480
" />
<path d="M13.3530 16.7930
L13.3700 16.7510
" />
<path d="M13.3530 18.0930
L13.3530 16.7930
" />
<path d="M13.3630 2.9270
L12.7430 2.9270
" />
<path d="M13.3680 12.6110
L13.4100 12.5930
" />
<path d="M13.3680 13.9950
L13.3510 13.9530
" />
<path d="M13.3700 16.7510
L13.4130 16.7330
" />
<path d="M13.3700 18.1350
L13.3530 18.0930
" />
<path d="M13.4100 12.5930
L14.3100 12.5930
" />
<path d="M13.4100 14.0130
L13.3680 13.9950
" />
<path d="M13.4130 16.7330
L13.4550 16.7510
" />
<path d="M13.4130 18.1530
L13.3700 18.1350
" />
<path d="M13.4180 18.1510
L13.4130 18.1530
" />
<path d="M13.4530 13.9950
L13.4100 14.0130
" />
<path d="M13.4550 16.7510
L13.4730 16.7930
" />
<path d="M13.4700 12.7130
L13.4700 13.9530
" />
<path d="M13.4700 13.9530
L13.4530 13.9950
" />
<path d="M13.4730 16.7930
L13.4730 18.0310
" />
<path d="M13.4730 18.0310
L14.3130 18.0310
" />
<path d="M13.5850 17.9130
L13.5850 12.9130
" />
<path d="M13.8800 28.3270
L14.5000 28.3270
" />
<path d="M14.3100 12.5930
L14.3530 12.6110
" />
<path d="M14.3100 12.7130
L13.4700 12.7130
" />
<path d="M14.3130 18.0310
L14.3550 18.0480
" />
<path d="M14.3130 18.1510
L13.4180 18.1510
" />
<path d="M14.3530 12.6110
L14.3700 12.6530
" />
<path d="M14.3530 12.6950
L14.3100 12.7130
" />
<path d="M14.3550 18.0480
L14.3730 18.0910
" />
<path d="M14.3550 18.1330
L14.3130 18.1510
" />
<path d="M14.3700 12.6530
L14.3530 12.6950
" />
<path d="M14.3730 18.0910
L14.3550 18.1330
" />
<path d="M14.6330 2.9270
L14.0130 2.9270
" />
<path d="M15.1500 28.3270
L15.7700 28.3270
" />
<path d="M15.9030 2.9270
L15.2830 2.9270
" />
<path d="M16.2900 12.6530
L16.3080 12.6110
" />
<path d="M16.2900 18.0930
L16.3080 18.0510
" />
<path d="M16.3080 12.6110
L16.3510 12.5930
" />
<path d="M16.3080 12.6950
L16.2900 12.6530
" />
<path d="M16.3080 18.0510
L16.3510 18.0330
" />
<path d="M16.3080 18.1350
L16.2900 18.0930
" />
<path d="M16.3510 12.5930
L17.2500 12.5930
" />
<path d="M16.3510 12.7130
L16.3080 12.6950
" />
<path d="M16.3510 18.0330
L17.1910 18.0330
" />
<path d="M16.3510 18.1530
L16.3080 18.1350
" />
<path d="M16.4200 28.3270
L17.0400 28.3270
" />
<path d="M17.0850 12.9130
L13.5850 12.9130
" />
<path d="M17.0850 17.9130
L13.5850 17.9130
" />
<path d="M17.0850 17.9130
L17.0850 12.9130
" />
<path d="M17.1730 2.9270
L16.5530 2.9270
" />
<path d="M17.1910 12.7130
L16.3510 12.7130
" />
<path d="M17.1910 13.9530
L17.1910 12.7130
" />
<path d="M17.1910 16.7930
L17.2080 16.7510
" />
<path d="M17.1910 18.0330
L17.1910 16.7930
" />
<path d="M17.2080 13.9950
L17.1910 13.9530
" />
<path d="M17.2080 16.7510
L17.2500 16.7330
" />
<path d="M17.2500 12.5930
L17.2930 12.6110
" />
<path d="M17.2500 14.0130
L17.2080 13.9950
" />
<path d="M17.2500 16.7330
L17.2930 16.7510
" />
<path d="M17.2500 18.1530
L16.3510 18.1530
" />
<path d="M17.2930 12.6110
L17.3110 12.6530
" />
<path d="M17.2930 13.9950
L17.2500 14.0130
" />
<path d="M17.2930 16.7510
L17.3110 16.7930
" />
<path d="M17.2930 18.1350
L17.2500 18.1530
" />
<path d="M17.3110 12.6530
L17.3110 13.9530
" />
<path d="M17.3110 13.9530
L17.2930 13.9950
" />
<path d="M17.3110 16.7930
L17.3110 18.0930
" />
<path d="M17.3110 18.0930
L17.2930 18.1350
" />
<path d="M17.6900 28.3270
L18.3100 28.3270
" />
<path d="M18.4430 2.9270
L17.8230 2.9270
" />
<path d="M18.9600 28.3270
L19.5800 28.3270
" />
<path d="M19.7130 2.9270
L19.0930 2.9270
" />
<path d="M20.2300 28.3270
L20.8500 28.3270
" />
<path d="M20.9830 2.9270
L20.3630 2.9270
" />
<path d="M21.5000 28.3270
L22.1200 28.3270
" />
<path d="M22.2530 2.9270
L21.6330 2.9270
" />
<path d="M22.7700 28.3270
L23.3900 28.3270
" />
<path d="M23.5230 2.9270
L22.9030 2.9270
" />
<path d="M24.1730 2.9270
L28.1580 2.9270
" />
<path d="M28.1580 2.9270
L28.1580 7.0580
" />
<path d="M28.1580 8.3280
L28.1580 7.7080
" />
<path d="M28.1580 9.5980
L28.1580 8.9780
" />
<path d="M28.1580 10.8680
L28.1580 10.2480
" />
<path d="M28.1580 12.1380
L28.1580 11.5180
" />
<path d="M28.1580 13.4080
L28.1580 12.7880
" />
<path d="M28.1580 14.6780
L28.1580 14.0580
" />
<path d="M28.1580 15.9480
L28.1580 15.3280
" />
<path d="M28.1580 17.2180
L28.1580 16.5980
" />
<path d="M28.1580 18.4880
L28.1580 17.8680
" />
<path d="M28.1580 19.7580
L28.1580 19.1380
" />
<path d="M28.1580 21.0280
L28.1580 20.4080
" />
<path d="M28.1580 22.2980
L28.1580 21.6780
" />
<path d="M28.1580 23.5680
L28.1580 22.9480
" />
<path d="M28.1580 24.2180
L28.1580 28.3270
" />
<path d="M28.1580 28.3270
L24.0400 28.3270
" />
<path d="M2.7580 7.6970 A0.3250 0.3250 0.0 0 0 2.7580 7.0470" />
<path d="M2.7580 8.9670 A0.3250 0.3250 0.0 0 0 2.7580 8.3170" />
<path d="M2.7580 10.2370 A0.3250 0.3250 0.0 0 0 2.7580 9.5870" />
<path d="M2.7580 11.5070 A0.3250 0.3250 0.0 0 0 2.7580 10.8570" />
<path d="M2.7580 12.7770 A0.3250 0.3250 0.0 0 0 2.7580 12.1270" />
<path d="M2.7580 14.0470 A0.3250 0.3250 0.0 0 0 2.7580 13.3970" />
<path d="M2.7580 15.3170 A0.3250 0.3250 0.0 0 0 2.7580 14.6670" />
<path d="M2.7580 16.5870 A0.3250 0.3250 0.0 0 0 2.7580 15.9370" />
<path d="M2.7580 17.8570 A0.3250 0.3250 0.0 0 0 2.7580 17.2070" />
<path d="M2.7580 19.1270 A0.3250 0.3250 0.0 0 0 2.7580 18.4770" />
<path d="M2.7580 20.3970 A0.3250 0.3250 0.0 0 0 2.7580 19.7470" />
<path d="M2.7580 21.6670 A0.3250 0.3250 0.0 0 0 2.7580 21.0170" />
<path d="M2.7580 22.9370 A0.3250 0.3250 0.0 0 0 2.7580 22.2870" />
<path d="M2.7580 24.2070 A0.3250 0.3250 0.0 0 0 2.7580 23.5570" />
<path d="M7.5300 28.3270 A0.3250 0.3250 0.0 0 0 6.8800 28.3270" />
<path d="M7.0130 2.9270 A0.3250 0.3250 0.0 0 0 7.6630 2.9270" />
<path d="M8.8000 28.3270 A0.3250 0.3250 0.0 0 0 8.1500 28.3270" />
<path d="M8.2830 2.9270 A0.3250 0.3250 0.0 0 0 8.9330 2.9270" />
<path d="M10.0700 28.3270 A0.3250 0.3250 0.0 0 0 9.4200 28.3270" />
<path d="M9.5530 2.9270 A0.3250 0.3250 0.0 0 0 10.2030 2.9270" />
<path d="M11.3400 28.3270 A0.3250 0.3250 0.0 0 0 10.6900 28.3270" />
<path d="M10.8230 2.9270 A0.3250 0.3250 0.0 0 0 11.4730 2.9270" />
<path d="M12.6100 28.3270 A0.3250 0.3250 0.0 0 0 11.9600 28.3270" />
<path d="M12.0930 2.9270 A0.3250 0.3250 0.0 0 0 12.7430 2.9270" />
<path d="M13.8800 28.3270 A0.3250 0.3250 0.0 0 0 13.2300 28.3270" />
<path d="M13.3630 2.9270 A0.3250 0.3250 0.0 0 0 14.0130 2.9270" />
<path d="M15.1500 28.3270 A0.3250 0.3250 0.0 0 0 14.5000 28.3270" />
<path d="M14.6330 2.9270 A0.3250 0.3250 0.0 0 0 15.2830 2.9270" />
<path d="M16.4200 28.3270 A0.3250 0.3250 0.0 0 0 15.7700 28.3270" />
<path d="M15.9030 2.9270 A0.3250 0.3250 0.0 0 0 16.5530 2.9270" />
<path d="M17.6900 28.3270 A0.3250 0.3250 0.0 0 0 17.0400 28.3270" />
<path d="M17.1730 2.9270 A0.3250 0.3250 0.0 0 0 17.8230 2.9270" />
<path d="M18.9600 28.3270 A0.3250 0.3250 0.0 0 0 18.3100 28.3270" />
<path d="M18.4430 2.9270 A0.3250 0.3250 0.0 0 0 19.0930 2.9270" />
<path d="M20.2300 28.3270 A0.3250 0.3250 0.0 0 0 19.5800 28.3270" />
<path d="M19.7130 2.9270 A0.3250 0.3250 0.0 0 0 20.3630 2.9270" />
<path d="M21.5000 28.3270 A0.3250 0.3250 0.0 0 0 20.8500 28.3270" />
<path d="M20.9830 2.9270 A0.3250 0.3250 0.0 0 0 21.6330 2.9270" />
<path d="M22.7700 28.3270 A0.3250 0.3250 0.0 0 0 22.1200 28.3270" />
<path d="M22.2530 2.9270 A0.3250 0.3250 0.0 0 0 22.9030 2.9270" />
<path d="M24.0400 28.3270 A0.3250 0.3250 0.0 0 0 23.3900 28.3270" />
<path d="M23.5230 2.9270 A0.3250 0.3250 0.0 0 0 24.1730 2.9270" />
<path d="M28.1580 7.0580 A0.3250 0.3250 0.0 0 0 28.1580 7.7080" />
<path d="M28.1580 8.3280 A0.3250 0.3250 0.0 0 0 28.1580 8.9780" />
<path d="M28.1580 9.5980 A0.3250 0.3250 0.0 0 0 28.1580 10.2480" />
<path d="M28.1580 10.8680 A0.3250 0.3250 0.0 0 0 28.1580 11.5180" />
<path d="M28.1580 12.1380 A0.3250 0.3250 0.0 0 0 28.1580 12.7880" />
<path d="M28.1580 13.4080 A0.3250 0.3250 0.0 0 0 28.1580 14.0580" />
<path d="M28.1580 14.6780 A0.3250 0.3250 0.0 0 0 28.1580 15.3280" />
<path d="M28.1580 15.9480 A0.3250 0.3250 0.0 0 0 28.1580 16.5980" />
<path d="M28.1580 17.2180 A0.3250 0.3250 0.0 0 0 28.1580 17.8680" />
<path d="M28.1580 18.4880 A0.3250 0.3250 0.0 0 0 28.1580 19.1380" />
<path d="M28.1580 19.7580 A0.3250 0.3250 0.0 0 0 28.1580 20.4080" />
<path d="M28.1580 21.0280 A0.3250 0.3250 0.0 0 0 28.1580 21.6780" />
<path d="M28.1580 22.2980 A0.3250 0.3250 0.0 0 0 28.1580 22.9480" />
<path d="M28.1580 23.5680 A0.3250 0.3250 0.0 0 0 28.1580 24.2180" />
<circle cx="3.4250" cy="27.7125" r="0.1250" /> 
<circle cx="3.4250" cy="27.7125" r="0.2500" /> 
<circle cx="3.5950" cy="3.8150" r="0.1250" /> 
<circle cx="3.5950" cy="3.8150" r="0.2500" /> 
<circle cx="8.2150" cy="8.2630" r="1.1000" /> 
<circle cx="8.2150" cy="8.2630" r="1.7500" /> 
<circle cx="8.2150" cy="22.8550" r="1.1000" /> 
<circle cx="8.2150" cy="22.8550" r="1.7500" /> 
<circle cx="22.8250" cy="8.2650" r="1.1000" /> 
<circle cx="22.8250" cy="8.2650" r="1.7500" /> 
<circle cx="22.8250" cy="8.2650" r="1.9750" /> 
<circle cx="22.8250" cy="22.8750" r="1.1000" /> 
<circle cx="22.8250" cy="22.8750" r="1.7500" /> 
<circle cx="27.5150" cy="3.5600" r="0.1250" /> 
<circle cx="27.5150" cy="3.5600" r="0.2500" /> 
<circle cx="27.5350" cy="27.7225" r="0.1250" /> 
<circle cx="27.5350" cy="27.7225" r="0.2500" /> 
<g >
</g>
<g >
</g>
<g >
</g>
<g >
</g>
</g> 
</svg>
