<?xml version="1.0" standalone="no"?>
 <!DOCTYPE svg PUBLIC "-//W3C//DTD SVG 1.1//EN" 
 "http://www.w3.org/Graphics/SVG/1.1/DTD/svg11.dtd"> 
<svg
  xmlns:svg="http://www.w3.org/2000/svg"
  xmlns="http://www.w3.org/2000/svg"
  xmlns:xlink="http://www.w3.org/1999/xlink"
  version="1.1"
  width="10.1854mm" height="3.0480mm" viewBox="0.0000 0.0000 10.1854 3.0480">
<title>SVG Image created as outline.svg date 2024/10/08 17:14:36 </title>
  <desc>Image generated by PCBNEW </desc>
<g style="fill:#000000; fill-opacity:0.0000;stroke:#000000; stroke-opacity:1.0000;
stroke-linecap:round; stroke-linejoin:round;"
 transform="translate(0 0) scale(1 1)">
</g>
<g style="fill:#000000; fill-opacity:0.0; 
stroke:#000000; stroke-width:0.0000; stroke-opacity:1; 
stroke-linecap:round; stroke-linejoin:round;">
</g>
<g style="fill:#000000; fill-opacity:0.0000; 
stroke:#000000; stroke-width:0.0212; stroke-opacity:1; 
stroke-linecap:round; stroke-linejoin:round;">
<rect x="-5.000000" y="-5.000000" width="20.205000" height="13.050000" rx="0.000000" />
</g>
<g style="fill:#FFFFFF; fill-opacity:0.0000; 
stroke:#FFFFFF; stroke-width:0.0212; stroke-opacity:1; 
stroke-linecap:round; stroke-linejoin:round;">
</g>
<g style="fill:#FFFFFF; fill-opacity:0.0000; 
stroke:#FFFFFF; stroke-width:0.0200; stroke-opacity:1; 
stroke-linecap:round; stroke-linejoin:round;">
</g>
<g style="fill:#FFFFFF; fill-opacity:0.0; 
stroke:#FFFFFF; stroke-width:0.0200; stroke-opacity:1; 
stroke-linecap:round; stroke-linejoin:round;">
<path d="M0.5960 0.5850
L0.5960 0.3850
" />
<path d="M0.6960 0.3850
L0.5960 0.3850
" />
<path d="M0.6960 0.3850
L0.6960 0.3870
" />
<path d="M0.6960 0.3850
L3.2900 0.3850
" />
<path d="M0.6960 0.3870
L0.6960 0.3910
" />
<path d="M0.6960 0.3910
L0.6960 0.3990
" />
<path d="M0.6960 0.3990
L0.6960 0.4100
" />
<path d="M0.6960 0.4100
L0.6960 0.4240
" />
<path d="M0.6960 0.4240
L0.6960 0.4410
" />
<path d="M0.6960 0.4410
L0.6960 0.4610
" />
<path d="M0.6960 0.4610
L0.6960 0.4830
" />
<path d="M0.6960 0.4830
L0.6960 0.5080
" />
<path d="M0.6960 0.5080
L0.6960 0.5350
" />
<path d="M0.6960 0.5350
L0.6960 0.5650
" />
<path d="M0.6960 0.5650
L0.6960 0.5960
" />
<path d="M0.6960 0.5850
L0.5960 0.5850
" />
<path d="M0.6960 0.5960
L0.6960 0.6300
" />
<path d="M0.6960 0.6300
L0.6960 0.6650
" />
<path d="M0.6960 0.6650
L0.6970 0.6410
" />
<path d="M0.6960 0.7190
L0.6960 1.0750
" />
<path d="M0.6960 0.7850
L0.6960 0.6650
" />
<path d="M0.6960 0.7850
L0.6960 1.2760
" />
<path d="M0.6960 1.2760
L0.6960 1.3020
" />
<path d="M0.6960 1.2760
L3.2900 1.2760
" />
<path d="M0.6960 1.3020
L0.6960 1.3260
" />
<path d="M0.6960 1.3260
L0.6960 1.3490
" />
<path d="M0.6960 1.3490
L0.6960 1.3700
" />
<path d="M0.6960 1.3700
L0.6960 1.3890
" />
<path d="M0.6960 1.3890
L0.6960 1.4070
" />
<path d="M0.6960 1.4070
L0.6960 1.4220
" />
<path d="M0.6960 1.4220
L0.6960 1.4360
" />
<path d="M0.6960 1.4360
L0.6960 1.4480
" />
<path d="M0.6960 1.4480
L0.6960 1.4580
" />
<path d="M0.6960 1.4580
L0.6960 1.4650
" />
<path d="M0.6960 1.4650
L0.6960 1.4710
" />
<path d="M0.6960 1.4710
L0.6960 1.4740
" />
<path d="M0.6960 1.4740
L0.6960 1.4750
" />
<path d="M0.6960 1.4750
L0.6960 1.5750
" />
<path d="M0.6960 1.4750
L3.2900 1.4750
" />
<path d="M0.6960 1.5750
L0.6960 1.5760
" />
<path d="M0.6960 1.5750
L3.2900 1.5750
" />
<path d="M0.6960 1.5760
L0.6960 1.5790
" />
<path d="M0.6960 1.5790
L0.6960 1.5850
" />
<path d="M0.6960 1.5850
L0.6960 1.5920
" />
<path d="M0.6960 1.5920
L0.6960 1.6020
" />
<path d="M0.6960 1.6020
L0.6960 1.6140
" />
<path d="M0.6960 1.6140
L0.6960 1.6280
" />
<path d="M0.6960 1.6280
L0.6960 1.6430
" />
<path d="M0.6960 1.6430
L0.6960 1.6610
" />
<path d="M0.6960 1.6610
L0.6960 1.6800
" />
<path d="M0.6960 1.6800
L0.6960 1.7010
" />
<path d="M0.6960 1.7010
L0.6960 1.7240
" />
<path d="M0.6960 1.7240
L0.6960 1.7480
" />
<path d="M0.6960 1.7480
L0.6960 1.7740
" />
<path d="M0.6960 1.7740
L0.6960 2.2650
" />
<path d="M0.6960 1.7740
L3.2900 1.7740
" />
<path d="M0.6960 1.9750
L0.6960 2.3310
" />
<path d="M0.6960 2.2650
L0.6970 2.2890
" />
<path d="M0.6960 2.3310
L0.6960 2.3720
" />
<path d="M0.6960 2.3720
L0.6960 2.4110
" />
<path d="M0.6960 2.3850
L0.6960 2.2650
" />
<path d="M0.6960 2.4110
L0.6960 2.4490
" />
<path d="M0.6960 2.4490
L0.6960 2.4840
" />
<path d="M0.6960 2.4840
L0.6960 2.5160
" />
<path d="M0.6960 2.5160
L0.6960 2.5460
" />
<path d="M0.6960 2.5460
L0.6960 2.5730
" />
<path d="M0.6960 2.5730
L0.6960 2.5970
" />
<path d="M0.6960 2.5970
L0.6960 2.6170
" />
<path d="M0.6960 2.6170
L0.6960 2.6340
" />
<path d="M0.6960 2.6340
L0.6960 2.6480
" />
<path d="M0.6960 2.6480
L0.6960 2.6570
" />
<path d="M0.6960 2.6570
L0.6960 2.6630
" />
<path d="M0.6960 2.6630
L0.6960 2.6650
" />
<path d="M0.6960 2.6650
L3.2900 2.6650
" />
<path d="M0.6970 0.6410
L0.7020 0.6180
" />
<path d="M0.6970 0.7610
L0.6960 0.7850
" />
<path d="M0.6970 2.2890
L0.7020 2.3120
" />
<path d="M0.6970 2.4090
L0.6960 2.3850
" />
<path d="M0.7020 0.6180
L0.7090 0.5950
" />
<path d="M0.7020 0.7380
L0.6970 0.7610
" />
<path d="M0.7020 2.3120
L0.7090 2.3350
" />
<path d="M0.7020 2.4320
L0.6970 2.4090
" />
<path d="M0.7090 0.5950
L0.7190 0.5730
" />
<path d="M0.7090 0.7150
L0.7020 0.7380
" />
<path d="M0.7090 2.3350
L0.7190 2.3570
" />
<path d="M0.7090 2.4550
L0.7020 2.4320
" />
<path d="M0.7190 0.5730
L0.7310 0.5520
" />
<path d="M0.7190 0.6930
L0.7090 0.7150
" />
<path d="M0.7190 2.3570
L0.7310 2.3780
" />
<path d="M0.7190 2.4770
L0.7090 2.4550
" />
<path d="M0.7310 0.5520
L0.7460 0.5310
" />
<path d="M0.7310 0.6720
L0.7190 0.6930
" />
<path d="M0.7310 2.3780
L0.7460 2.3980
" />
<path d="M0.7310 2.4980
L0.7190 2.4770
" />
<path d="M0.7460 0.5310
L0.7640 0.5130
" />
<path d="M0.7460 0.6520
L0.7310 0.6720
" />
<path d="M0.7460 2.3980
L0.7640 2.4170
" />
<path d="M0.7460 2.5190
L0.7310 2.4980
" />
<path d="M0.7640 0.5130
L0.7840 0.4950
" />
<path d="M0.7640 0.6330
L0.7460 0.6520
" />
<path d="M0.7640 2.4170
L0.7840 2.4340
" />
<path d="M0.7640 2.5370
L0.7460 2.5190
" />
<path d="M0.7840 0.4950
L0.8050 0.4790
" />
<path d="M0.7840 0.6160
L0.7640 0.6330
" />
<path d="M0.7840 2.4340
L0.8050 2.4500
" />
<path d="M0.7840 2.5550
L0.7640 2.5370
" />
<path d="M0.8050 0.4790
L0.8290 0.4650
" />
<path d="M0.8050 0.6000
L0.7840 0.6160
" />
<path d="M0.8050 2.4500
L0.8290 2.4640
" />
<path d="M0.8050 2.5710
L0.7840 2.5550
" />
<path d="M0.8290 0.4650
L0.8540 0.4530
" />
<path d="M0.8290 0.5860
L0.8050 0.6000
" />
<path d="M0.8290 2.4640
L0.8540 2.4760
" />
<path d="M0.8290 2.5850
L0.8050 2.5710
" />
<path d="M0.8540 0.4530
L0.8810 0.4430
" />
<path d="M0.8540 0.5740
L0.8290 0.5860
" />
<path d="M0.8540 2.4760
L0.8810 2.4860
" />
<path d="M0.8540 2.5970
L0.8290 2.5850
" />
<path d="M0.8810 0.4430
L0.9090 0.4350
" />
<path d="M0.8810 0.5640
L0.8540 0.5740
" />
<path d="M0.8810 2.4860
L0.9090 2.4940
" />
<path d="M0.8810 2.6070
L0.8540 2.5970
" />
<path d="M0.9090 0.4350
L0.9370 0.4300
" />
<path d="M0.9090 0.5560
L0.8810 0.5640
" />
<path d="M0.9090 2.4940
L0.9370 2.5000
" />
<path d="M0.9090 2.6150
L0.8810 2.6070
" />
<path d="M0.9370 0.4300
L0.9660 0.4260
" />
<path d="M0.9370 0.5500
L0.9090 0.5560
" />
<path d="M0.9370 2.5000
L0.9660 2.5030
" />
<path d="M0.9370 2.6200
L0.9090 2.6150
" />
<path d="M0.9660 0.4260
L0.9960 0.4250
" />
<path d="M0.9660 0.5470
L0.9370 0.5500
" />
<path d="M0.9660 2.5030
L0.9960 2.5050
" />
<path d="M0.9660 2.6240
L0.9370 2.6200
" />
<path d="M0.9960 0.4250
L2.9900 0.4250
" />
<path d="M0.9960 0.5450
L0.9660 0.5470
" />
<path d="M0.9960 0.5450
L0.9960 0.4250
" />
<path d="M0.9960 0.5450
L2.9900 0.5450
" />
<path d="M0.9960 2.5050
L2.9900 2.5050
" />
<path d="M0.9960 2.6250
L0.9660 2.6240
" />
<path d="M0.9960 2.6250
L0.9960 2.5050
" />
<path d="M0.9960 2.6250
L2.9900 2.6250
" />
<path d="M1.3400 1.5250
L1.3430 1.4750
" />
<path d="M1.3430 1.5750
L1.3400 1.5250
" />
<path d="M2.9900 0.4250
L3.0190 0.4260
" />
<path d="M2.9900 0.5450
L2.9900 0.4250
" />
<path d="M2.9900 2.5050
L3.0190 2.5030
" />
<path d="M2.9900 2.6250
L2.9900 2.5050
" />
<path d="M3.0190 0.4260
L3.0490 0.4300
" />
<path d="M3.0190 0.5470
L2.9900 0.5450
" />
<path d="M3.0190 2.5030
L3.0490 2.5000
" />
<path d="M3.0190 2.6240
L2.9900 2.6250
" />
<path d="M3.0490 0.4300
L3.0770 0.4350
" />
<path d="M3.0490 0.5500
L3.0190 0.5470
" />
<path d="M3.0490 2.5000
L3.0770 2.4940
" />
<path d="M3.0490 2.6200
L3.0190 2.6240
" />
<path d="M3.0770 0.4350
L3.1050 0.4430
" />
<path d="M3.0770 0.5560
L3.0490 0.5500
" />
<path d="M3.0770 2.4940
L3.1050 2.4860
" />
<path d="M3.0770 2.6150
L3.0490 2.6200
" />
<path d="M3.1050 0.4430
L3.1310 0.4530
" />
<path d="M3.1050 0.5640
L3.0770 0.5560
" />
<path d="M3.1050 2.4860
L3.1310 2.4760
" />
<path d="M3.1050 2.6070
L3.0770 2.6150
" />
<path d="M3.1170 1.4750
L3.1200 1.5250
" />
<path d="M3.1200 1.5250
L3.1170 1.5750
" />
<path d="M3.1310 0.4530
L3.1570 0.4650
" />
<path d="M3.1310 0.5740
L3.1050 0.5640
" />
<path d="M3.1310 2.4760
L3.1570 2.4640
" />
<path d="M3.1310 2.5970
L3.1050 2.6070
" />
<path d="M3.1570 0.4650
L3.1800 0.4790
" />
<path d="M3.1570 0.5860
L3.1310 0.5740
" />
<path d="M3.1570 2.4640
L3.1800 2.4500
" />
<path d="M3.1570 2.5850
L3.1310 2.5970
" />
<path d="M3.1800 0.4790
L3.2020 0.4950
" />
<path d="M3.1800 0.6000
L3.1570 0.5860
" />
<path d="M3.1800 2.4500
L3.2020 2.4340
" />
<path d="M3.1800 2.5710
L3.1570 2.5850
" />
<path d="M3.2020 0.4950
L3.2220 0.5130
" />
<path d="M3.2020 0.6160
L3.1800 0.6000
" />
<path d="M3.2020 2.4340
L3.2220 2.4170
" />
<path d="M3.2020 2.5550
L3.1800 2.5710
" />
<path d="M3.2220 0.5130
L3.2390 0.5310
" />
<path d="M3.2220 0.6330
L3.2020 0.6160
" />
<path d="M3.2220 2.4170
L3.2390 2.3980
" />
<path d="M3.2220 2.5370
L3.2020 2.5550
" />
<path d="M3.2390 0.5310
L3.2550 0.5520
" />
<path d="M3.2390 0.6520
L3.2220 0.6330
" />
<path d="M3.2390 2.3980
L3.2550 2.3780
" />
<path d="M3.2390 2.5190
L3.2220 2.5370
" />
<path d="M3.2550 0.5520
L3.2670 0.5730
" />
<path d="M3.2550 0.6720
L3.2390 0.6520
" />
<path d="M3.2550 2.3780
L3.2670 2.3570
" />
<path d="M3.2550 2.4980
L3.2390 2.5190
" />
<path d="M3.2670 0.5730
L3.2770 0.5950
" />
<path d="M3.2670 0.6930
L3.2550 0.6720
" />
<path d="M3.2670 2.3570
L3.2770 2.3350
" />
<path d="M3.2670 2.4770
L3.2550 2.4980
" />
<path d="M3.2770 0.5950
L3.2840 0.6180
" />
<path d="M3.2770 0.7150
L3.2670 0.6930
" />
<path d="M3.2770 2.3350
L3.2840 2.3120
" />
<path d="M3.2770 2.4550
L3.2670 2.4770
" />
<path d="M3.2840 0.6180
L3.2890 0.6410
" />
<path d="M3.2840 0.7380
L3.2770 0.7150
" />
<path d="M3.2840 2.3120
L3.2890 2.2890
" />
<path d="M3.2840 2.4320
L3.2770 2.4550
" />
<path d="M3.2890 0.6410
L3.2900 0.6650
" />
<path d="M3.2890 0.7610
L3.2840 0.7380
" />
<path d="M3.2890 2.2890
L3.2900 2.2650
" />
<path d="M3.2890 2.4090
L3.2840 2.4320
" />
<path d="M3.2900 0.3850
L3.2900 0.3870
" />
<path d="M3.2900 0.3870
L3.2900 0.3930
" />
<path d="M3.2900 0.3930
L3.2900 0.4020
" />
<path d="M3.2900 0.4020
L3.2900 0.4160
" />
<path d="M3.2900 0.4160
L3.2900 0.4330
" />
<path d="M3.2900 0.4330
L3.2900 0.4530
" />
<path d="M3.2900 0.4530
L3.2900 0.4770
" />
<path d="M3.2900 0.4770
L3.2900 0.5040
" />
<path d="M3.2900 0.5040
L3.2900 0.5340
" />
<path d="M3.2900 0.5340
L3.2900 0.5660
" />
<path d="M3.2900 0.5660
L3.2900 0.6010
" />
<path d="M3.2900 0.6010
L3.2900 0.6390
" />
<path d="M3.2900 0.6390
L3.2900 0.6780
" />
<path d="M3.2900 0.6780
L3.2900 0.7190
" />
<path d="M3.2900 0.7190
L3.2900 1.0750
" />
<path d="M3.2900 0.7850
L3.2890 0.7610
" />
<path d="M3.2900 0.7850
L3.2900 0.6650
" />
<path d="M3.2900 0.7850
L3.2900 1.2760
" />
<path d="M3.2900 1.2760
L3.2900 1.3020
" />
<path d="M3.2900 1.3020
L3.2900 1.3260
" />
<path d="M3.2900 1.3260
L3.2900 1.3490
" />
<path d="M3.2900 1.3490
L3.2900 1.3700
" />
<path d="M3.2900 1.3700
L3.2900 1.3890
" />
<path d="M3.2900 1.3890
L3.2900 1.4070
" />
<path d="M3.2900 1.4070
L3.2900 1.4220
" />
<path d="M3.2900 1.4220
L3.2900 1.4360
" />
<path d="M3.2900 1.4360
L3.2900 1.4480
" />
<path d="M3.2900 1.4480
L3.2900 1.4580
" />
<path d="M3.2900 1.4580
L3.2900 1.4650
" />
<path d="M3.2900 1.4650
L3.2900 1.4710
" />
<path d="M3.2900 1.4710
L3.2900 1.4740
" />
<path d="M3.2900 1.4740
L3.2900 1.4750
" />
<path d="M3.2900 1.5750
L3.2900 1.5760
" />
<path d="M3.2900 1.5760
L3.2900 1.5790
" />
<path d="M3.2900 1.5790
L3.2900 1.5850
" />
<path d="M3.2900 1.5850
L3.2900 1.5920
" />
<path d="M3.2900 1.5920
L3.2900 1.6020
" />
<path d="M3.2900 1.6020
L3.2900 1.6140
" />
<path d="M3.2900 1.6140
L3.2900 1.6280
" />
<path d="M3.2900 1.6280
L3.2900 1.6430
" />
<path d="M3.2900 1.6430
L3.2900 1.6610
" />
<path d="M3.2900 1.6610
L3.2900 1.6800
" />
<path d="M3.2900 1.6800
L3.2900 1.7010
" />
<path d="M3.2900 1.7010
L3.2900 1.7240
" />
<path d="M3.2900 1.7240
L3.2900 1.7480
" />
<path d="M3.2900 1.7480
L3.2900 1.7740
" />
<path d="M3.2900 1.7740
L3.2900 2.2650
" />
<path d="M3.2900 1.9750
L3.2900 2.3310
" />
<path d="M3.2900 2.1650
L3.2940 2.1320
" />
<path d="M3.2900 2.3310
L3.2900 2.3720
" />
<path d="M3.2900 2.3720
L3.2900 2.4110
" />
<path d="M3.2900 2.3850
L3.2890 2.4090
" />
<path d="M3.2900 2.3850
L3.2900 2.2650
" />
<path d="M3.2900 2.4110
L3.2900 2.4490
" />
<path d="M3.2900 2.4490
L3.2900 2.4840
" />
<path d="M3.2900 2.4840
L3.2900 2.5160
" />
<path d="M3.2900 2.5160
L3.2900 2.5460
" />
<path d="M3.2900 2.5460
L3.2900 2.5730
" />
<path d="M3.2900 2.5730
L3.2900 2.5970
" />
<path d="M3.2900 2.5970
L3.2900 2.6170
" />
<path d="M3.2900 2.6170
L3.2900 2.6340
" />
<path d="M3.2900 2.6340
L3.2900 2.6480
" />
<path d="M3.2900 2.6480
L3.2900 2.6570
" />
<path d="M3.2900 2.6570
L3.2900 2.6630
" />
<path d="M3.2900 2.6630
L3.2900 2.6650
" />
<path d="M3.2940 0.9180
L3.2900 0.8850
" />
<path d="M3.2940 2.1320
L3.3050 2.1000
" />
<path d="M3.3050 0.9500
L3.2940 0.9180
" />
<path d="M3.3050 2.1000
L3.3230 2.0710
" />
<path d="M3.3230 0.9790
L3.3050 0.9500
" />
<path d="M3.3230 2.0710
L3.3460 2.0480
" />
<path d="M3.3460 1.0020
L3.3230 0.9790
" />
<path d="M3.3460 2.0480
L3.3750 2.0300
" />
<path d="M3.3750 1.0200
L3.3460 1.0020
" />
<path d="M3.3750 2.0300
L3.4070 2.0190
" />
<path d="M3.4070 1.0310
L3.3750 1.0200
" />
<path d="M3.4070 2.0190
L3.4400 2.0150
" />
<path d="M3.4400 1.0350
L3.4070 1.0310
" />
<path d="M3.4400 2.0150
L3.4730 2.0190
" />
<path d="M3.4730 1.0310
L3.4400 1.0350
" />
<path d="M3.4730 2.0190
L3.5050 2.0300
" />
<path d="M3.5050 1.0200
L3.4730 1.0310
" />
<path d="M3.5050 2.0300
L3.5340 2.0480
" />
<path d="M3.5340 1.0020
L3.5050 1.0200
" />
<path d="M3.5340 2.0480
L3.5570 2.0710
" />
<path d="M3.5570 0.9790
L3.5340 1.0020
" />
<path d="M3.5570 2.0710
L3.5750 2.1000
" />
<path d="M3.5750 0.9500
L3.5570 0.9790
" />
<path d="M3.5750 2.1000
L3.5860 2.1320
" />
<path d="M3.5860 0.9180
L3.5750 0.9500
" />
<path d="M3.5860 2.1320
L3.5900 2.1650
" />
<path d="M3.5900 0.6850
L3.5900 0.8850
" />
<path d="M3.5900 0.8850
L3.5860 0.9180
" />
<path d="M3.5900 2.3650
L3.5900 2.1650
" />
<path d="M3.5900 2.3650
L3.5940 2.4120
" />
<path d="M3.5940 0.6380
L3.5900 0.6850
" />
<path d="M3.5940 2.4120
L3.6050 2.4580
" />
<path d="M3.6050 0.5920
L3.5940 0.6380
" />
<path d="M3.6050 2.4580
L3.6230 2.5010
" />
<path d="M3.6230 0.5490
L3.6050 0.5920
" />
<path d="M3.6230 2.5010
L3.6470 2.5410
" />
<path d="M3.6470 0.5090
L3.6230 0.5490
" />
<path d="M3.6470 2.5410
L3.6780 2.5770
" />
<path d="M3.6780 0.4730
L3.6470 0.5090
" />
<path d="M3.6780 2.5770
L3.7140 2.6080
" />
<path d="M3.7140 0.4420
L3.6780 0.4730
" />
<path d="M3.7140 2.6080
L3.7540 2.6320
" />
<path d="M3.7540 0.4180
L3.7140 0.4420
" />
<path d="M3.7540 2.6320
L3.7970 2.6500
" />
<path d="M3.7970 0.4000
L3.7540 0.4180
" />
<path d="M3.7970 2.6500
L3.8430 2.6610
" />
<path d="M3.8430 0.3890
L3.7970 0.4000
" />
<path d="M3.8430 2.6610
L3.8900 2.6650
" />
<path d="M3.8900 0.3850
L3.8430 0.3890
" />
<path d="M3.8900 2.6650
L6.2900 2.6650
" />
<path d="M6.2900 0.3850
L3.8900 0.3850
" />
<path d="M6.2900 2.6650
L6.3370 2.6610
" />
<path d="M6.3370 0.3890
L6.2900 0.3850
" />
<path d="M6.3370 2.6610
L6.3830 2.6500
" />
<path d="M6.3830 0.4000
L6.3370 0.3890
" />
<path d="M6.3830 2.6500
L6.4260 2.6320
" />
<path d="M6.4260 0.4180
L6.3830 0.4000
" />
<path d="M6.4260 2.6320
L6.4660 2.6080
" />
<path d="M6.4660 0.4420
L6.4260 0.4180
" />
<path d="M6.4660 2.6080
L6.5020 2.5770
" />
<path d="M6.5020 0.4730
L6.4660 0.4420
" />
<path d="M6.5020 2.5770
L6.5330 2.5410
" />
<path d="M6.5330 0.5090
L6.5020 0.4730
" />
<path d="M6.5330 2.5410
L6.5570 2.5010
" />
<path d="M6.5570 0.5490
L6.5330 0.5090
" />
<path d="M6.5570 2.5010
L6.5750 2.4580
" />
<path d="M6.5750 0.5920
L6.5570 0.5490
" />
<path d="M6.5750 2.4580
L6.5860 2.4120
" />
<path d="M6.5860 0.6380
L6.5750 0.5920
" />
<path d="M6.5860 2.4120
L6.5900 2.3650
" />
<path d="M6.5900 0.6850
L6.5860 0.6380
" />
<path d="M6.5900 0.6850
L6.5900 0.8850
" />
<path d="M6.5900 2.1650
L6.5940 2.1320
" />
<path d="M6.5900 2.3650
L6.5900 2.1650
" />
<path d="M6.5940 0.9180
L6.5900 0.8850
" />
<path d="M6.5940 2.1320
L6.6050 2.1000
" />
<path d="M6.6050 0.9500
L6.5940 0.9180
" />
<path d="M6.6050 2.1000
L6.6230 2.0710
" />
<path d="M6.6230 0.9790
L6.6050 0.9500
" />
<path d="M6.6230 2.0710
L6.6460 2.0480
" />
<path d="M6.6460 1.0020
L6.6230 0.9790
" />
<path d="M6.6460 2.0480
L6.6750 2.0300
" />
<path d="M6.6750 1.0200
L6.6460 1.0020
" />
<path d="M6.6750 2.0300
L6.7070 2.0190
" />
<path d="M6.7070 1.0310
L6.6750 1.0200
" />
<path d="M6.7070 2.0190
L6.7400 2.0150
" />
<path d="M6.7400 1.0350
L6.7070 1.0310
" />
<path d="M6.7400 2.0150
L6.7730 2.0190
" />
<path d="M6.7730 1.0310
L6.7400 1.0350
" />
<path d="M6.7730 2.0190
L6.8050 2.0300
" />
<path d="M6.8050 1.0200
L6.7730 1.0310
" />
<path d="M6.8050 2.0300
L6.8340 2.0480
" />
<path d="M6.8340 1.0020
L6.8050 1.0200
" />
<path d="M6.8340 2.0480
L6.8570 2.0710
" />
<path d="M6.8570 0.9790
L6.8340 1.0020
" />
<path d="M6.8570 2.0710
L6.8750 2.1000
" />
<path d="M6.8750 0.9500
L6.8570 0.9790
" />
<path d="M6.8750 2.1000
L6.8860 2.1320
" />
<path d="M6.8860 0.9180
L6.8750 0.9500
" />
<path d="M6.8860 2.1320
L6.8900 2.1650
" />
<path d="M6.8900 0.3850
L6.8900 0.3870
" />
<path d="M6.8900 0.3850
L9.4840 0.3850
" />
<path d="M6.8900 0.3870
L6.8900 0.3930
" />
<path d="M6.8900 0.3930
L6.8900 0.4020
" />
<path d="M6.8900 0.4020
L6.8900 0.4160
" />
<path d="M6.8900 0.4160
L6.8900 0.4330
" />
<path d="M6.8900 0.4330
L6.8900 0.4530
" />
<path d="M6.8900 0.4530
L6.8900 0.4770
" />
<path d="M6.8900 0.4770
L6.8900 0.5040
" />
<path d="M6.8900 0.5040
L6.8900 0.5340
" />
<path d="M6.8900 0.5340
L6.8900 0.5660
" />
<path d="M6.8900 0.5660
L6.8900 0.6010
" />
<path d="M6.8900 0.6010
L6.8900 0.6390
" />
<path d="M6.8900 0.6390
L6.8900 0.6780
" />
<path d="M6.8900 0.6650
L6.8900 0.7850
" />
<path d="M6.8900 0.6650
L6.8910 0.6410
" />
<path d="M6.8900 0.6780
L6.8900 0.7190
" />
<path d="M6.8900 0.7190
L6.8900 1.0750
" />
<path d="M6.8900 0.7850
L6.8900 1.2760
" />
<path d="M6.8900 0.8850
L6.8860 0.9180
" />
<path d="M6.8900 1.2760
L6.8900 1.3020
" />
<path d="M6.8900 1.2760
L9.4840 1.2760
" />
<path d="M6.8900 1.3020
L6.8900 1.3260
" />
<path d="M6.8900 1.3260
L6.8900 1.3490
" />
<path d="M6.8900 1.3490
L6.8900 1.3700
" />
<path d="M6.8900 1.3700
L6.8900 1.3890
" />
<path d="M6.8900 1.3890
L6.8900 1.4070
" />
<path d="M6.8900 1.4070
L6.8900 1.4220
" />
<path d="M6.8900 1.4220
L6.8900 1.4360
" />
<path d="M6.8900 1.4360
L6.8900 1.4480
" />
<path d="M6.8900 1.4480
L6.8900 1.4580
" />
<path d="M6.8900 1.4580
L6.8900 1.4650
" />
<path d="M6.8900 1.4650
L6.8900 1.4710
" />
<path d="M6.8900 1.4710
L6.8900 1.4740
" />
<path d="M6.8900 1.4740
L6.8900 1.4750
" />
<path d="M6.8900 1.4750
L9.4840 1.4750
" />
<path d="M6.8900 1.5750
L6.8900 1.5760
" />
<path d="M6.8900 1.5750
L9.4840 1.5750
" />
<path d="M6.8900 1.5760
L6.8900 1.5790
" />
<path d="M6.8900 1.5790
L6.8900 1.5850
" />
<path d="M6.8900 1.5850
L6.8900 1.5920
" />
<path d="M6.8900 1.5920
L6.8900 1.6020
" />
<path d="M6.8900 1.6020
L6.8900 1.6140
" />
<path d="M6.8900 1.6140
L6.8900 1.6280
" />
<path d="M6.8900 1.6280
L6.8900 1.6430
" />
<path d="M6.8900 1.6430
L6.8900 1.6610
" />
<path d="M6.8900 1.6610
L6.8900 1.6800
" />
<path d="M6.8900 1.6800
L6.8900 1.7010
" />
<path d="M6.8900 1.7010
L6.8900 1.7240
" />
<path d="M6.8900 1.7240
L6.8900 1.7480
" />
<path d="M6.8900 1.7480
L6.8900 1.7740
" />
<path d="M6.8900 1.7740
L6.8900 2.2650
" />
<path d="M6.8900 1.7740
L9.4840 1.7740
" />
<path d="M6.8900 1.9750
L6.8900 2.3310
" />
<path d="M6.8900 2.2650
L6.8900 2.3850
" />
<path d="M6.8900 2.2650
L6.8910 2.2890
" />
<path d="M6.8900 2.3310
L6.8900 2.3720
" />
<path d="M6.8900 2.3720
L6.8900 2.4110
" />
<path d="M6.8900 2.4110
L6.8900 2.4490
" />
<path d="M6.8900 2.4490
L6.8900 2.4840
" />
<path d="M6.8900 2.4840
L6.8900 2.5160
" />
<path d="M6.8900 2.5160
L6.8900 2.5460
" />
<path d="M6.8900 2.5460
L6.8900 2.5730
" />
<path d="M6.8900 2.5730
L6.8900 2.5970
" />
<path d="M6.8900 2.5970
L6.8900 2.6170
" />
<path d="M6.8900 2.6170
L6.8900 2.6340
" />
<path d="M6.8900 2.6340
L6.8900 2.6480
" />
<path d="M6.8900 2.6480
L6.8900 2.6570
" />
<path d="M6.8900 2.6570
L6.8900 2.6630
" />
<path d="M6.8900 2.6630
L6.8900 2.6650
" />
<path d="M6.8900 2.6650
L9.4840 2.6650
" />
<path d="M6.8910 0.6410
L6.8960 0.6180
" />
<path d="M6.8910 0.7610
L6.8900 0.7850
" />
<path d="M6.8910 2.2890
L6.8960 2.3120
" />
<path d="M6.8910 2.4090
L6.8900 2.3850
" />
<path d="M6.8960 0.6180
L6.9030 0.5950
" />
<path d="M6.8960 0.7380
L6.8910 0.7610
" />
<path d="M6.8960 2.3120
L6.9030 2.3350
" />
<path d="M6.8960 2.4320
L6.8910 2.4090
" />
<path d="M6.9030 0.5950
L6.9130 0.5730
" />
<path d="M6.9030 0.7150
L6.8960 0.7380
" />
<path d="M6.9030 2.3350
L6.9130 2.3570
" />
<path d="M6.9030 2.4550
L6.8960 2.4320
" />
<path d="M6.9130 0.5730
L6.9250 0.5520
" />
<path d="M6.9130 0.6930
L6.9030 0.7150
" />
<path d="M6.9130 2.3570
L6.9250 2.3780
" />
<path d="M6.9130 2.4770
L6.9030 2.4550
" />
<path d="M6.9250 0.5520
L6.9410 0.5310
" />
<path d="M6.9250 0.6720
L6.9130 0.6930
" />
<path d="M6.9250 2.3780
L6.9410 2.3980
" />
<path d="M6.9250 2.4980
L6.9130 2.4770
" />
<path d="M6.9410 0.5310
L6.9580 0.5130
" />
<path d="M6.9410 0.6520
L6.9250 0.6720
" />
<path d="M6.9410 2.3980
L6.9580 2.4170
" />
<path d="M6.9410 2.5190
L6.9250 2.4980
" />
<path d="M6.9580 0.5130
L6.9780 0.4950
" />
<path d="M6.9580 0.6330
L6.9410 0.6520
" />
<path d="M6.9580 2.4170
L6.9780 2.4340
" />
<path d="M6.9580 2.5370
L6.9410 2.5190
" />
<path d="M6.9780 0.4950
L7.0000 0.4790
" />
<path d="M6.9780 0.6160
L6.9580 0.6330
" />
<path d="M6.9780 2.4340
L7.0000 2.4500
" />
<path d="M6.9780 2.5550
L6.9580 2.5370
" />
<path d="M7.0000 0.4790
L7.0230 0.4650
" />
<path d="M7.0000 0.6000
L6.9780 0.6160
" />
<path d="M7.0000 2.4500
L7.0230 2.4640
" />
<path d="M7.0000 2.5710
L6.9780 2.5550
" />
<path d="M7.0230 0.4650
L7.0490 0.4530
" />
<path d="M7.0230 0.5860
L7.0000 0.6000
" />
<path d="M7.0230 2.4640
L7.0490 2.4760
" />
<path d="M7.0230 2.5850
L7.0000 2.5710
" />
<path d="M7.0490 0.4530
L7.0750 0.4430
" />
<path d="M7.0490 0.5740
L7.0230 0.5860
" />
<path d="M7.0490 2.4760
L7.0750 2.4860
" />
<path d="M7.0490 2.5970
L7.0230 2.5850
" />
<path d="M7.0600 1.5250
L7.0630 1.4750
" />
<path d="M7.0630 1.5750
L7.0600 1.5250
" />
<path d="M7.0750 0.4430
L7.1030 0.4350
" />
<path d="M7.0750 0.5640
L7.0490 0.5740
" />
<path d="M7.0750 2.4860
L7.1030 2.4940
" />
<path d="M7.0750 2.6070
L7.0490 2.5970
" />
<path d="M7.1030 0.4350
L7.1310 0.4300
" />
<path d="M7.1030 0.5560
L7.0750 0.5640
" />
<path d="M7.1030 2.4940
L7.1310 2.5000
" />
<path d="M7.1030 2.6150
L7.0750 2.6070
" />
<path d="M7.1310 0.4300
L7.1610 0.4260
" />
<path d="M7.1310 0.5500
L7.1030 0.5560
" />
<path d="M7.1310 2.5000
L7.1610 2.5030
" />
<path d="M7.1310 2.6200
L7.1030 2.6150
" />
<path d="M7.1610 0.4260
L7.1900 0.4250
" />
<path d="M7.1610 0.5470
L7.1310 0.5500
" />
<path d="M7.1610 2.5030
L7.1900 2.5050
" />
<path d="M7.1610 2.6240
L7.1310 2.6200
" />
<path d="M7.1900 0.4250
L7.1900 0.5450
" />
<path d="M7.1900 0.4250
L9.1840 0.4250
" />
<path d="M7.1900 0.5450
L7.1610 0.5470
" />
<path d="M7.1900 0.5450
L9.1840 0.5450
" />
<path d="M7.1900 2.5050
L7.1900 2.6250
" />
<path d="M7.1900 2.5050
L9.1840 2.5050
" />
<path d="M7.1900 2.6250
L7.1610 2.6240
" />
<path d="M7.1900 2.6250
L9.1840 2.6250
" />
<path d="M8.8370 1.4750
L8.8400 1.5250
" />
<path d="M8.8400 1.5250
L8.8370 1.5750
" />
<path d="M9.1840 0.4250
L9.1840 0.5450
" />
<path d="M9.1840 0.4250
L9.2140 0.4260
" />
<path d="M9.1840 2.5050
L9.1840 2.6250
" />
<path d="M9.1840 2.5050
L9.2140 2.5030
" />
<path d="M9.2140 0.4260
L9.2430 0.4300
" />
<path d="M9.2140 0.5470
L9.1840 0.5450
" />
<path d="M9.2140 2.5030
L9.2430 2.5000
" />
<path d="M9.2140 2.6240
L9.1840 2.6250
" />
<path d="M9.2430 0.4300
L9.2710 0.4350
" />
<path d="M9.2430 0.5500
L9.2140 0.5470
" />
<path d="M9.2430 2.5000
L9.2710 2.4940
" />
<path d="M9.2430 2.6200
L9.2140 2.6240
" />
<path d="M9.2710 0.4350
L9.2990 0.4430
" />
<path d="M9.2710 0.5560
L9.2430 0.5500
" />
<path d="M9.2710 2.4940
L9.2990 2.4860
" />
<path d="M9.2710 2.6150
L9.2430 2.6200
" />
<path d="M9.2990 0.4430
L9.3260 0.4530
" />
<path d="M9.2990 0.5640
L9.2710 0.5560
" />
<path d="M9.2990 2.4860
L9.3260 2.4760
" />
<path d="M9.2990 2.6070
L9.2710 2.6150
" />
<path d="M9.3260 0.4530
L9.3510 0.4650
" />
<path d="M9.3260 0.5740
L9.2990 0.5640
" />
<path d="M9.3260 2.4760
L9.3510 2.4640
" />
<path d="M9.3260 2.5970
L9.2990 2.6070
" />
<path d="M9.3510 0.4650
L9.3750 0.4790
" />
<path d="M9.3510 0.5860
L9.3260 0.5740
" />
<path d="M9.3510 2.4640
L9.3750 2.4500
" />
<path d="M9.3510 2.5850
L9.3260 2.5970
" />
<path d="M9.3750 0.4790
L9.3960 0.4950
" />
<path d="M9.3750 0.6000
L9.3510 0.5860
" />
<path d="M9.3750 2.4500
L9.3960 2.4340
" />
<path d="M9.3750 2.5710
L9.3510 2.5850
" />
<path d="M9.3960 0.4950
L9.4160 0.5130
" />
<path d="M9.3960 0.6160
L9.3750 0.6000
" />
<path d="M9.3960 2.4340
L9.4160 2.4170
" />
<path d="M9.3960 2.5550
L9.3750 2.5710
" />
<path d="M9.4160 0.5130
L9.4340 0.5310
" />
<path d="M9.4160 0.6330
L9.3960 0.6160
" />
<path d="M9.4160 2.4170
L9.4340 2.3980
" />
<path d="M9.4160 2.5370
L9.3960 2.5550
" />
<path d="M9.4340 0.5310
L9.4490 0.5520
" />
<path d="M9.4340 0.6520
L9.4160 0.6330
" />
<path d="M9.4340 2.3980
L9.4490 2.3780
" />
<path d="M9.4340 2.5190
L9.4160 2.5370
" />
<path d="M9.4490 0.5520
L9.4610 0.5730
" />
<path d="M9.4490 0.6720
L9.4340 0.6520
" />
<path d="M9.4490 2.3780
L9.4610 2.3570
" />
<path d="M9.4490 2.4980
L9.4340 2.5190
" />
<path d="M9.4610 0.5730
L9.4710 0.5950
" />
<path d="M9.4610 0.6930
L9.4490 0.6720
" />
<path d="M9.4610 2.3570
L9.4710 2.3350
" />
<path d="M9.4610 2.4770
L9.4490 2.4980
" />
<path d="M9.4710 0.5950
L9.4780 0.6180
" />
<path d="M9.4710 0.7150
L9.4610 0.6930
" />
<path d="M9.4710 2.3350
L9.4780 2.3120
" />
<path d="M9.4710 2.4550
L9.4610 2.4770
" />
<path d="M9.4780 0.6180
L9.4830 0.6410
" />
<path d="M9.4780 0.7380
L9.4710 0.7150
" />
<path d="M9.4780 2.3120
L9.4830 2.2890
" />
<path d="M9.4780 2.4320
L9.4710 2.4550
" />
<path d="M9.4830 0.6410
L9.4840 0.6650
" />
<path d="M9.4830 0.7610
L9.4780 0.7380
" />
<path d="M9.4830 2.2890
L9.4840 2.2650
" />
<path d="M9.4830 2.4090
L9.4780 2.4320
" />
<path d="M9.4840 0.3850
L9.4840 0.3870
" />
<path d="M9.4840 0.3850
L9.5840 0.3850
" />
<path d="M9.4840 0.3870
L9.4840 0.3910
" />
<path d="M9.4840 0.3910
L9.4840 0.3990
" />
<path d="M9.4840 0.3990
L9.4840 0.4100
" />
<path d="M9.4840 0.4100
L9.4840 0.4240
" />
<path d="M9.4840 0.4240
L9.4840 0.4410
" />
<path d="M9.4840 0.4410
L9.4840 0.4610
" />
<path d="M9.4840 0.4610
L9.4840 0.4830
" />
<path d="M9.4840 0.4830
L9.4840 0.5080
" />
<path d="M9.4840 0.5080
L9.4840 0.5350
" />
<path d="M9.4840 0.5350
L9.4840 0.5650
" />
<path d="M9.4840 0.5650
L9.4840 0.5960
" />
<path d="M9.4840 0.5850
L9.5840 0.5850
" />
<path d="M9.4840 0.5960
L9.4840 0.6300
" />
<path d="M9.4840 0.6300
L9.4840 0.6650
" />
<path d="M9.4840 0.6650
L9.4840 0.7850
" />
<path d="M9.4840 0.7190
L9.4840 1.0750
" />
<path d="M9.4840 0.7850
L9.4830 0.7610
" />
<path d="M9.4840 0.7850
L9.4840 1.2760
" />
<path d="M9.4840 1.2760
L9.4840 1.3020
" />
<path d="M9.4840 1.3020
L9.4840 1.3260
" />
<path d="M9.4840 1.3260
L9.4840 1.3490
" />
<path d="M9.4840 1.3490
L9.4840 1.3700
" />
<path d="M9.4840 1.3700
L9.4840 1.3890
" />
<path d="M9.4840 1.3890
L9.4840 1.4070
" />
<path d="M9.4840 1.4070
L9.4840 1.4220
" />
<path d="M9.4840 1.4220
L9.4840 1.4360
" />
<path d="M9.4840 1.4360
L9.4840 1.4480
" />
<path d="M9.4840 1.4480
L9.4840 1.4580
" />
<path d="M9.4840 1.4580
L9.4840 1.4650
" />
<path d="M9.4840 1.4650
L9.4840 1.4710
" />
<path d="M9.4840 1.4710
L9.4840 1.4740
" />
<path d="M9.4840 1.4740
L9.4840 1.4750
" />
<path d="M9.4840 1.4750
L9.4840 1.5750
" />
<path d="M9.4840 1.5750
L9.4840 1.5760
" />
<path d="M9.4840 1.5760
L9.4840 1.5790
" />
<path d="M9.4840 1.5790
L9.4840 1.5850
" />
<path d="M9.4840 1.5850
L9.4840 1.5920
" />
<path d="M9.4840 1.5920
L9.4840 1.6020
" />
<path d="M9.4840 1.6020
L9.4840 1.6140
" />
<path d="M9.4840 1.6140
L9.4840 1.6280
" />
<path d="M9.4840 1.6280
L9.4840 1.6430
" />
<path d="M9.4840 1.6430
L9.4840 1.6610
" />
<path d="M9.4840 1.6610
L9.4840 1.6800
" />
<path d="M9.4840 1.6800
L9.4840 1.7010
" />
<path d="M9.4840 1.7010
L9.4840 1.7240
" />
<path d="M9.4840 1.7240
L9.4840 1.7480
" />
<path d="M9.4840 1.7480
L9.4840 1.7740
" />
<path d="M9.4840 1.7740
L9.4840 2.2650
" />
<path d="M9.4840 1.9750
L9.4840 2.3310
" />
<path d="M9.4840 2.2650
L9.4840 2.3850
" />
<path d="M9.4840 2.3310
L9.4840 2.3720
" />
<path d="M9.4840 2.3720
L9.4840 2.4110
" />
<path d="M9.4840 2.3850
L9.4830 2.4090
" />
<path d="M9.4840 2.4110
L9.4840 2.4490
" />
<path d="M9.4840 2.4490
L9.4840 2.4840
" />
<path d="M9.4840 2.4840
L9.4840 2.5160
" />
<path d="M9.4840 2.5160
L9.4840 2.5460
" />
<path d="M9.4840 2.5460
L9.4840 2.5730
" />
<path d="M9.4840 2.5730
L9.4840 2.5970
" />
<path d="M9.4840 2.5970
L9.4840 2.6170
" />
<path d="M9.4840 2.6170
L9.4840 2.6340
" />
<path d="M9.4840 2.6340
L9.4840 2.6480
" />
<path d="M9.4840 2.6480
L9.4840 2.6570
" />
<path d="M9.4840 2.6570
L9.4840 2.6630
" />
<path d="M9.4840 2.6630
L9.4840 2.6650
" />
<path d="M9.5840 0.3850
L9.5840 0.5850
" />
<g >
</g>
<g >
</g>
<g >
</g>
<g >
</g>
</g> 
</svg>
