<?xml version="1.0" standalone="no"?>
 <!DOCTYPE svg PUBLIC "-//W3C//DTD SVG 1.1//EN" 
 "http://www.w3.org/Graphics/SVG/1.1/DTD/svg11.dtd"> 
<svg
  xmlns:svg="http://www.w3.org/2000/svg"
  xmlns="http://www.w3.org/2000/svg"
  xmlns:xlink="http://www.w3.org/1999/xlink"
  version="1.1"
  width="3.0480mm" height="2.2352mm" viewBox="0.0000 0.0000 3.0480 2.2352">
<title>SVG Image created as outline.svg date 2024/09/26 11:56:10 </title>
  <desc>Image generated by PCBNEW </desc>
<g style="fill:#000000; fill-opacity:1.0000;stroke:#000000; stroke-opacity:1.0000;
stroke-linecap:round; stroke-linejoin:round;"
 transform="translate(0 0) scale(1 1)">
</g>
<g style="fill:#000000; fill-opacity:0.0; 
stroke:#000000; stroke-width:0.0000; stroke-opacity:1; 
stroke-linecap:round; stroke-linejoin:round;">
</g>
<g style="fill:#000000; fill-opacity:1.0000; 
stroke:#000000; stroke-width:0.0212; stroke-opacity:1; 
stroke-linecap:round; stroke-linejoin:round;">
<rect x="-5.000000" y="-5.000000" width="13.050000" height="12.250000" rx="0.000000" />
</g>
<g style="fill:#FFFFFF; fill-opacity:1.0000; 
stroke:#FFFFFF; stroke-width:0.0212; stroke-opacity:1; 
stroke-linecap:round; stroke-linejoin:round;">
</g>
<g style="fill:#FFFFFF; fill-opacity:1.0000; 
stroke:#FFFFFF; stroke-width:0.0200; stroke-opacity:1; 
stroke-linecap:round; stroke-linejoin:round;">
</g>
<g style="fill:#FFFFFF; fill-opacity:0.0; 
stroke:#FFFFFF; stroke-width:0.0200; stroke-opacity:1; 
stroke-linecap:round; stroke-linejoin:round;">
<path d="M0.5250 0.3250
L0.5500 0.3250
" />
<path d="M0.5250 0.6250
L0.5250 0.3250
" />
<path d="M0.5250 0.6250
L0.5500 0.6250
" />
<path d="M0.5250 0.9750
L0.5500 0.9750
" />
<path d="M0.5250 1.2750
L0.5250 0.9750
" />
<path d="M0.5250 1.2750
L0.5500 1.2750
" />
<path d="M0.5250 1.6250
L0.5500 1.6250
" />
<path d="M0.5250 1.9250
L0.5250 1.6250
" />
<path d="M0.5250 1.9250
L0.5500 1.9250
" />
<path d="M0.5500 0.3250
L0.6500 0.3250
" />
<path d="M0.5500 0.6250
L0.6500 0.6250
" />
<path d="M0.5500 0.9750
L0.6500 0.9750
" />
<path d="M0.5500 1.2750
L0.6500 1.2750
" />
<path d="M0.5500 1.6250
L0.6500 1.6250
" />
<path d="M0.5500 1.9250
L0.6500 1.9250
" />
<path d="M0.6500 0.3250
L0.9000 0.3250
" />
<path d="M0.6500 0.6250
L0.6500 0.3250
" />
<path d="M0.6500 0.6250
L0.9000 0.6250
" />
<path d="M0.6500 0.9750
L0.9000 0.9750
" />
<path d="M0.6500 1.2750
L0.6500 0.9750
" />
<path d="M0.6500 1.2750
L0.9000 1.2750
" />
<path d="M0.6500 1.6250
L0.9000 1.6250
" />
<path d="M0.6500 1.9250
L0.6500 1.6250
" />
<path d="M0.6500 1.9250
L0.9000 1.9250
" />
<path d="M0.9000 0.2200
L0.9250 0.2330
" />
<path d="M0.9000 0.2200
L0.9950 0.1250
" />
<path d="M0.9000 0.3250
L0.9000 0.2200
" />
<path d="M0.9000 0.9750
L0.9000 0.6250
" />
<path d="M0.9000 1.6250
L0.9000 1.2750
" />
<path d="M0.9000 2.0300
L0.9000 1.9250
" />
<path d="M0.9000 2.0300
L0.9250 2.0170
" />
<path d="M0.9250 0.2330
L0.9820 0.2610
" />
<path d="M0.9250 0.2330
L1.0080 0.1500
" />
<path d="M0.9250 0.3250
L0.9250 0.2330
" />
<path d="M0.9250 0.6250
L0.9250 0.3250
" />
<path d="M0.9250 0.9750
L0.9250 0.6250
" />
<path d="M0.9250 1.2750
L0.9250 0.9750
" />
<path d="M0.9250 1.6250
L0.9250 1.2750
" />
<path d="M0.9250 1.9250
L0.9250 1.6250
" />
<path d="M0.9250 2.0170
L0.9250 1.9250
" />
<path d="M0.9250 2.0170
L0.9820 1.9890
" />
<path d="M0.9820 0.2610
L1.0360 0.2070
" />
<path d="M0.9820 1.9890
L0.9820 0.2610
" />
<path d="M0.9950 0.1250
L1.0080 0.1500
" />
<path d="M0.9950 0.1250
L2.0550 0.1250
" />
<path d="M0.9950 2.1250
L0.9000 2.0300
" />
<path d="M0.9950 2.1250
L1.0080 2.1000
" />
<path d="M1.0080 0.1500
L1.0360 0.2070
" />
<path d="M1.0080 0.1500
L2.0420 0.1500
" />
<path d="M1.0080 2.1000
L0.9250 2.0170
" />
<path d="M1.0080 2.1000
L1.0360 2.0430
" />
<path d="M1.0360 0.2070
L2.0140 0.2070
" />
<path d="M1.0360 2.0430
L0.9820 1.9890
" />
<path d="M2.0140 0.2070
L2.0680 0.2610
" />
<path d="M2.0140 2.0430
L1.0360 2.0430
" />
<path d="M2.0420 0.1500
L2.0140 0.2070
" />
<path d="M2.0420 0.1500
L2.1250 0.2330
" />
<path d="M2.0420 2.1000
L1.0080 2.1000
" />
<path d="M2.0420 2.1000
L2.0140 2.0430
" />
<path d="M2.0550 0.1250
L2.0420 0.1500
" />
<path d="M2.0550 0.1250
L2.1500 0.2200
" />
<path d="M2.0550 2.1250
L0.9950 2.1250
" />
<path d="M2.0550 2.1250
L2.0420 2.1000
" />
<path d="M2.0680 0.2610
L2.0680 1.9890
" />
<path d="M2.0680 1.9890
L2.0140 2.0430
" />
<path d="M2.1250 0.2330
L2.0680 0.2610
" />
<path d="M2.1250 0.2330
L2.1250 0.3250
" />
<path d="M2.1250 0.3250
L2.1250 0.6250
" />
<path d="M2.1250 0.6250
L2.1250 0.9750
" />
<path d="M2.1250 0.9750
L2.1250 1.2750
" />
<path d="M2.1250 1.2750
L2.1250 1.6250
" />
<path d="M2.1250 1.6250
L2.1250 1.9250
" />
<path d="M2.1250 1.9250
L2.1250 2.0170
" />
<path d="M2.1250 2.0170
L2.0420 2.1000
" />
<path d="M2.1250 2.0170
L2.0680 1.9890
" />
<path d="M2.1500 0.2200
L2.1250 0.2330
" />
<path d="M2.1500 0.2200
L2.1500 0.3250
" />
<path d="M2.1500 0.6250
L2.1500 0.9750
" />
<path d="M2.1500 1.2750
L2.1500 1.6250
" />
<path d="M2.1500 1.9250
L2.1500 2.0300
" />
<path d="M2.1500 2.0300
L2.0550 2.1250
" />
<path d="M2.1500 2.0300
L2.1250 2.0170
" />
<path d="M2.4000 0.3250
L2.1500 0.3250
" />
<path d="M2.4000 0.3250
L2.4000 0.6250
" />
<path d="M2.4000 0.6250
L2.1500 0.6250
" />
<path d="M2.4000 0.9750
L2.1500 0.9750
" />
<path d="M2.4000 0.9750
L2.4000 1.2750
" />
<path d="M2.4000 1.2750
L2.1500 1.2750
" />
<path d="M2.4000 1.6250
L2.1500 1.6250
" />
<path d="M2.4000 1.6250
L2.4000 1.9250
" />
<path d="M2.4000 1.9250
L2.1500 1.9250
" />
<path d="M2.5000 0.3250
L2.4000 0.3250
" />
<path d="M2.5000 0.6250
L2.4000 0.6250
" />
<path d="M2.5000 0.9750
L2.4000 0.9750
" />
<path d="M2.5000 1.2750
L2.4000 1.2750
" />
<path d="M2.5000 1.6250
L2.4000 1.6250
" />
<path d="M2.5000 1.9250
L2.4000 1.9250
" />
<path d="M2.5250 0.3250
L2.5000 0.3250
" />
<path d="M2.5250 0.3250
L2.5250 0.6250
" />
<path d="M2.5250 0.6250
L2.5000 0.6250
" />
<path d="M2.5250 0.9750
L2.5000 0.9750
" />
<path d="M2.5250 0.9750
L2.5250 1.2750
" />
<path d="M2.5250 1.2750
L2.5000 1.2750
" />
<path d="M2.5250 1.6250
L2.5000 1.6250
" />
<path d="M2.5250 1.6250
L2.5250 1.9250
" />
<path d="M2.5250 1.9250
L2.5000 1.9250
" />
<g >
</g>
<g >
</g>
<g >
</g>
<g >
</g>
</g> 
</svg>
