<?xml version="1.0" standalone="no"?>
 <!DOCTYPE svg PUBLIC "-//W3C//DTD SVG 1.1//EN" 
 "http://www.w3.org/Graphics/SVG/1.1/DTD/svg11.dtd"> 
<svg
  xmlns:svg="http://www.w3.org/2000/svg"
  xmlns="http://www.w3.org/2000/svg"
  xmlns:xlink="http://www.w3.org/1999/xlink"
  version="1.1"
  width="9.1440mm" height="15.0876mm" viewBox="0.0000 0.0000 9.1440 15.0876">
<title>SVG Image created as outline.svg date 2024/11/27 14:35:51 </title>
  <desc>Image generated by PCBNEW </desc>
<g style="fill:#000000; fill-opacity:0.0000;stroke:#000000; stroke-opacity:1.0000;
stroke-linecap:round; stroke-linejoin:round;"
 transform="translate(0 0) scale(1 1)">
</g>
<g style="fill:none; 
stroke:#000000; stroke-width:0.0200; stroke-opacity:1; 
stroke-linecap:round; stroke-linejoin:round;">
<path d="M1.4210 1.0250
L1.4210 1.2250
" />
<path d="M1.4210 1.0250
L1.5670 1.0250
" />
<path d="M1.4210 2.2250
L1.4210 1.0250
" />
<path d="M1.4210 8.9750
L1.4210 9.1750
" />
<path d="M1.4210 8.9750
L1.5670 8.9750
" />
<path d="M1.4210 9.9750
L1.4210 10.1750
" />
<path d="M1.4210 10.1750
L1.4210 8.9750
" />
</g>
<g style="fill:#000000; fill-opacity:0.0000; stroke:none;">
<circle cx="1.5670" cy="1.0250" r="0.0100" /> 
</g>
<g style="fill:none; 
stroke:#000000; stroke-width:0.0200; stroke-opacity:1; 
stroke-linecap:round; stroke-linejoin:round;">
<path d="M1.5670 1.0250
L1.9210 1.0250
" />
<path d="M1.5670 2.2250
L1.4210 2.2250
" />
</g>
<g style="fill:#000000; fill-opacity:0.0000; stroke:none;">
<circle cx="1.5670" cy="2.2250" r="0.0100" /> 
<circle cx="1.5670" cy="8.9750" r="0.0100" /> 
</g>
<g style="fill:none; 
stroke:#000000; stroke-width:0.0200; stroke-opacity:1; 
stroke-linecap:round; stroke-linejoin:round;">
<path d="M1.5670 8.9750
L1.9210 8.9750
" />
<path d="M1.5670 10.1750
L1.4210 10.1750
" />
</g>
<g style="fill:#000000; fill-opacity:0.0000; stroke:none;">
<circle cx="1.5670" cy="10.1750" r="0.0100" /> 
</g>
<g style="fill:none; 
stroke:#000000; stroke-width:0.0200; stroke-opacity:1; 
stroke-linecap:round; stroke-linejoin:round;">
<path d="M1.9210 1.0250
L2.3250 1.0250
" />
<path d="M1.9210 2.2250
L1.5670 2.2250
" />
<path d="M1.9210 2.2250
L2.3250 2.2250
" />
<path d="M1.9210 10.1750
L1.5670 10.1750
" />
<path d="M1.9210 10.1750
L2.4750 10.1750
" />
<path d="M2.3250 0.8250
L2.3250 2.6250
" />
<path d="M2.3250 2.9790
L2.3250 2.6250
" />
</g>
<g style="fill:#000000; fill-opacity:0.0000; stroke:none;">
<circle cx="2.3250" cy="2.9790" r="0.0100" /> 
</g>
<g style="fill:none; 
stroke:#000000; stroke-width:0.0200; stroke-opacity:1; 
stroke-linecap:round; stroke-linejoin:round;">
<path d="M2.3250 3.1250
L2.3250 2.9790
" />
<path d="M2.3260 0.8110
L2.3250 0.8250
" />
<path d="M2.3270 0.7960
L2.3260 0.8110
" />
<path d="M2.3290 0.7810
L2.3270 0.7960
" />
<path d="M2.3310 0.7670
L2.3290 0.7810
" />
<path d="M2.3350 0.7520
L2.3310 0.7670
" />
<path d="M2.3380 0.7380
L2.3350 0.7520
" />
<path d="M2.3430 0.7240
L2.3380 0.7380
" />
<path d="M2.3480 0.7110
L2.3430 0.7240
" />
<path d="M2.3540 0.6970
L2.3480 0.7110
" />
<path d="M2.3610 0.6840
L2.3540 0.6970
" />
<path d="M2.3680 0.6710
L2.3610 0.6840
" />
<path d="M2.3760 0.6590
L2.3680 0.6710
" />
<path d="M2.3840 0.6470
L2.3760 0.6590
" />
<path d="M2.3930 0.6350
L2.3840 0.6470
" />
<path d="M2.4030 0.6240
L2.3930 0.6350
" />
<path d="M2.4130 0.6130
L2.4030 0.6240
" />
</g>
<g style="fill:#000000; fill-opacity:0.0000; stroke:none;">
<circle cx="2.4130" cy="0.6130" r="0.0100" /> 
</g>
<g style="fill:none; 
stroke:#000000; stroke-width:0.0200; stroke-opacity:1; 
stroke-linecap:round; stroke-linejoin:round;">
<path d="M2.4240 0.6030
L2.4130 0.6130
" />
<path d="M2.4350 0.5930
L2.4240 0.6030
" />
<path d="M2.4470 0.5840
L2.4350 0.5930
" />
<path d="M2.4590 0.5760
L2.4470 0.5840
" />
<path d="M2.4710 0.5680
L2.4590 0.5760
" />
<path d="M2.4750 8.9750
L1.9210 8.9750
" />
<path d="M2.4750 8.9750
L2.6760 8.9750
" />
<path d="M2.4840 0.5610
L2.4710 0.5680
" />
<path d="M2.4970 0.5540
L2.4840 0.5610
" />
<path d="M2.5110 0.5480
L2.4970 0.5540
" />
<path d="M2.5240 0.5430
L2.5110 0.5480
" />
<path d="M2.5380 0.5380
L2.5240 0.5430
" />
<path d="M2.5520 0.5350
L2.5380 0.5380
" />
<path d="M2.5670 0.5310
L2.5520 0.5350
" />
<path d="M2.5810 0.5290
L2.5670 0.5310
" />
<path d="M2.5960 0.5270
L2.5810 0.5290
" />
<path d="M2.6110 0.5260
L2.5960 0.5270
" />
<path d="M2.6250 0.5250
L2.6110 0.5260
" />
<path d="M2.6250 0.8250
L2.6250 2.6250
" />
<path d="M2.6250 1.0250
L2.6760 1.0250
" />
<path d="M2.6250 2.5250
L2.6760 2.5250
" />
<path d="M2.6250 2.6250
L2.6250 2.9790
" />
</g>
<g style="fill:#000000; fill-opacity:0.0000; stroke:none;">
<circle cx="2.6250" cy="2.9790" r="0.0100" /> 
</g>
<g style="fill:none; 
stroke:#000000; stroke-width:0.0200; stroke-opacity:1; 
stroke-linecap:round; stroke-linejoin:round;">
<path d="M2.6250 2.9790
L2.6250 3.1250
" />
<path d="M2.6250 3.1250
L2.3250 3.1250
" />
<path d="M2.6320 1.8040
L2.6250 1.8090
" />
<path d="M2.6380 1.8000
L2.6320 1.8040
" />
<path d="M2.6440 1.7950
L2.6380 1.8000
" />
<path d="M2.6500 1.7910
L2.6440 1.7950
" />
<path d="M2.6560 1.7870
L2.6500 1.7910
" />
<path d="M2.6630 1.7830
L2.6560 1.7870
" />
<path d="M2.6690 1.7790
L2.6630 1.7830
" />
<path d="M2.6760 1.0250
L2.9750 1.0250
" />
<path d="M2.6760 1.2250
L2.6760 1.0250
" />
<path d="M2.6760 1.2250
L2.6760 1.2750
" />
<path d="M2.6760 1.2750
L2.8220 1.2750
" />
<path d="M2.6760 1.7750
L2.6690 1.7790
" />
<path d="M2.6760 7.1260
L2.6760 7.1250
" />
</g>
<g style="fill:#000000; fill-opacity:0.0000; stroke:none;">
<circle cx="2.6760" cy="7.7250" r="0.0100" /> 
</g>
<g style="fill:none; 
stroke:#000000; stroke-width:0.0200; stroke-opacity:1; 
stroke-linecap:round; stroke-linejoin:round;">
<path d="M2.6760 10.1750
L2.4750 10.1750
" />
<path d="M2.6760 10.1750
L2.6760 1.2750
" />
<path d="M2.7880 10.1750
L2.6760 10.1750
" />
</g>
<g style="fill:#000000; fill-opacity:0.0000; stroke:none;">
<circle cx="2.7880" cy="10.1750" r="0.0100" /> 
<circle cx="2.8220" cy="1.2750" r="0.0100" /> 
</g>
<g style="fill:none; 
stroke:#000000; stroke-width:0.0200; stroke-opacity:1; 
stroke-linecap:round; stroke-linejoin:round;">
<path d="M2.8220 1.2750
L3.1760 1.2750
" />
<path d="M2.9750 0.5250
L2.6250 0.5250
" />
<path d="M2.9750 0.5250
L3.1760 0.5250
" />
<path d="M2.9750 0.8250
L2.6250 0.8250
" />
<path d="M2.9750 1.0250
L2.9750 0.8250
" />
<path d="M2.9750 1.0250
L2.9750 1.2250
" />
<path d="M2.9750 1.2750
L2.9750 1.2250
" />
<path d="M2.9850 14.6750
L2.9850 10.1750
" />
<path d="M2.9860 14.6820
L2.9850 14.6750
" />
<path d="M2.9860 14.6900
L2.9860 14.6820
" />
<path d="M2.9870 14.6970
L2.9860 14.6900
" />
<path d="M2.9890 14.7050
L2.9870 14.6970
" />
<path d="M2.9900 14.7120
L2.9890 14.7050
" />
<path d="M2.9920 14.7190
L2.9900 14.7120
" />
<path d="M2.9950 14.7260
L2.9920 14.7190
" />
<path d="M2.9970 14.7330
L2.9950 14.7260
" />
<path d="M3.0000 14.7400
L2.9970 14.7330
" />
<path d="M3.0040 14.7460
L3.0000 14.7400
" />
<path d="M3.0070 14.7520
L3.0040 14.7460
" />
<path d="M3.0110 14.7580
L3.0070 14.7520
" />
<path d="M3.0150 14.7640
L3.0110 14.7580
" />
<path d="M3.0200 14.7700
L3.0150 14.7640
" />
<path d="M3.0240 14.7750
L3.0200 14.7700
" />
<path d="M3.0290 14.7810
L3.0240 14.7750
" />
<path d="M3.0350 14.7860
L3.0290 14.7810
" />
<path d="M3.0400 14.7900
L3.0350 14.7860
" />
<path d="M3.0460 14.7950
L3.0400 14.7900
" />
<path d="M3.0520 14.7990
L3.0460 14.7950
" />
<path d="M3.0580 14.8030
L3.0520 14.7990
" />
<path d="M3.0640 14.8060
L3.0580 14.8030
" />
<path d="M3.0700 14.8100
L3.0640 14.8060
" />
<path d="M3.0750 10.1750
L2.7880 10.1750
" />
<path d="M3.0750 10.1750
L3.0800 10.1750
" />
<path d="M3.0770 14.8130
L3.0700 14.8100
" />
<path d="M3.0790 10.1740
L3.0750 10.1750
" />
<path d="M3.0800 10.1750
L3.0850 10.1740
" />
<path d="M3.0830 10.1740
L3.0790 10.1740
" />
<path d="M3.0840 14.8150
L3.0770 14.8130
" />
<path d="M3.0850 10.1740
L3.0900 10.1740
" />
<path d="M3.0860 10.1740
L3.0830 10.1740
" />
<path d="M3.0900 10.1730
L3.0860 10.1740
" />
<path d="M3.0900 10.1740
L3.0950 10.1730
" />
<path d="M3.0910 14.8180
L3.0840 14.8150
" />
<path d="M3.0930 10.1730
L3.0900 10.1730
" />
<path d="M3.0950 10.1730
L3.1000 10.1720
" />
<path d="M3.0970 10.1720
L3.0930 10.1730
" />
<path d="M3.0980 14.8200
L3.0910 14.8180
" />
<path d="M3.1000 10.1720
L3.1040 10.1700
" />
<path d="M3.1010 10.1710
L3.0970 10.1720
" />
<path d="M3.1040 10.1700
L3.1010 10.1710
" />
<path d="M3.1040 10.1700
L3.1090 10.1690
" />
<path d="M3.1050 0.8250
L2.9750 0.8250
" />
</g>
<g style="fill:#000000; fill-opacity:0.0000; stroke:none;">
<circle cx="3.1050" cy="0.8250" r="0.0100" /> 
</g>
<g style="fill:none; 
stroke:#000000; stroke-width:0.0200; stroke-opacity:1; 
stroke-linecap:round; stroke-linejoin:round;">
<path d="M3.1050 14.8210
L3.0980 14.8200
" />
<path d="M3.1090 10.1690
L3.1140 10.1670
" />
<path d="M3.1130 14.8230
L3.1050 14.8210
" />
<path d="M3.1140 10.1670
L3.1180 10.1650
" />
<path d="M3.1180 10.1650
L3.1220 10.1630
" />
<path d="M3.1200 14.8240
L3.1130 14.8230
" />
<path d="M3.1220 10.1630
L3.1270 10.1600
" />
<path d="M3.1260 10.1610
L3.1200 10.1640
" />
<path d="M3.1270 10.1600
L3.1310 10.1580
" />
<path d="M3.1280 14.8240
L3.1200 14.8240
" />
<path d="M3.1310 10.1570
L3.1260 10.1610
" />
<path d="M3.1310 10.1580
L3.1350 10.1550
" />
<path d="M3.1350 10.1550
L3.1380 10.1520
" />
<path d="M3.1350 14.8250
L3.1280 14.8240
" />
<path d="M3.1370 10.1530
L3.1310 10.1570
" />
<path d="M3.1380 10.1520
L3.1420 10.1490
" />
<path d="M3.1420 10.1490
L3.1370 10.1530
" />
<path d="M3.1420 10.1490
L3.1460 10.1450
" />
<path d="M3.1430 14.8250
L3.1350 14.8250
" />
</g>
<g style="fill:#000000; fill-opacity:0.0000; stroke:none;">
<circle cx="3.1430" cy="14.8250" r="0.0100" /> 
</g>
<g style="fill:none; 
stroke:#000000; stroke-width:0.0200; stroke-opacity:1; 
stroke-linecap:round; stroke-linejoin:round;">
<path d="M3.1450 14.8250
L3.1350 14.8250
" />
<path d="M3.1460 10.1450
L3.1490 10.1420
" />
<path d="M3.1470 10.1440
L3.1420 10.1490
" />
<path d="M3.1490 10.1420
L3.1520 10.1380
" />
<path d="M3.1520 10.1380
L3.1550 10.1340
" />
<path d="M3.1520 10.1390
L3.1470 10.1440
" />
<path d="M3.1530 14.8250
L3.1450 14.8250
" />
</g>
<g style="fill:#000000; fill-opacity:0.0000; stroke:none;">
<circle cx="3.1530" cy="14.8250" r="0.0100" /> 
</g>
<g style="fill:none; 
stroke:#000000; stroke-width:0.0200; stroke-opacity:1; 
stroke-linecap:round; stroke-linejoin:round;">
<path d="M3.1550 10.1340
L3.1580 10.1300
" />
<path d="M3.1560 10.1330
L3.1520 10.1390
" />
<path d="M3.1580 10.1300
L3.1610 10.1260
" />
<path d="M3.1600 10.1280
L3.1560 10.1330
" />
<path d="M3.1610 10.1260
L3.1640 10.1220
" />
<path d="M3.1640 10.1220
L3.1600 10.1280
" />
<path d="M3.1640 10.1220
L3.1660 10.1180
" />
<path d="M3.1650 14.8250
L3.1430 14.8250
" />
</g>
<g style="fill:#000000; fill-opacity:0.0000; stroke:none;">
<circle cx="3.1650" cy="14.8250" r="0.0100" /> 
</g>
<g style="fill:none; 
stroke:#000000; stroke-width:0.0200; stroke-opacity:1; 
stroke-linecap:round; stroke-linejoin:round;">
<path d="M3.1660 10.1180
L3.1680 10.1130
" />
<path d="M3.1670 10.1150
L3.1640 10.1220
" />
<path d="M3.1680 10.1130
L3.1700 10.1090
" />
<path d="M3.1690 10.1090
L3.1670 10.1150
" />
<path d="M3.1700 10.1090
L3.1710 10.1040
" />
<path d="M3.1710 10.1040
L3.1730 10.0990
" />
<path d="M3.1720 10.1020
L3.1690 10.1090
" />
<path d="M3.1730 10.0950
L3.1720 10.1020
" />
<path d="M3.1730 10.0990
L3.1740 10.0940
" />
<path d="M3.1740 10.0940
L3.1750 10.0890
" />
<path d="M3.1740 14.8250
L3.1530 14.8250
" />
</g>
<g style="fill:#000000; fill-opacity:0.0000; stroke:none;">
<circle cx="3.1740" cy="14.8250" r="0.0100" /> 
</g>
<g style="fill:none; 
stroke:#000000; stroke-width:0.0200; stroke-opacity:1; 
stroke-linecap:round; stroke-linejoin:round;">
<path d="M3.1750 10.0800
L3.1760 10.0750
" />
<path d="M3.1750 10.0820
L3.1750 10.0880
" />
<path d="M3.1750 10.0850
L3.1750 10.0800
" />
<path d="M3.1750 10.0880
L3.1730 10.0950
" />
<path d="M3.1750 10.0890
L3.1750 10.0850
" />
<path d="M3.1760 0.5250
L3.3750 0.5250
" />
<path d="M3.1760 0.8250
L3.1760 0.5250
" />
<path d="M3.1760 1.2750
L3.1880 1.2750
" />
<path d="M3.1760 10.0140
L3.1770 10.0090
" />
<path d="M3.1760 10.0190
L3.1760 10.0140
" />
<path d="M3.1760 10.0250
L3.1760 10.0190
" />
<path d="M3.1760 10.0250
L3.1760 10.0750
" />
<path d="M3.1760 10.0750
L3.1750 10.0820
" />
<path d="M3.1770 10.0090
L3.1780 10.0040
" />
<path d="M3.1780 10.0040
L3.1790 10.0000
" />
<path d="M3.1790 10.0000
L3.1800 9.9950
" />
<path d="M3.1800 9.9950
L3.1820 9.9900
" />
<path d="M3.1820 9.9900
L3.1830 9.9860
" />
<path d="M3.1830 9.9860
L3.1850 9.9810
" />
<path d="M3.1850 9.9810
L3.1880 9.9770
" />
<path d="M3.1880 1.2750
L3.2000 1.2740
" />
<path d="M3.1880 9.9770
L3.1900 9.9730
" />
<path d="M3.1900 9.9730
L3.1930 9.9690
" />
<path d="M3.1930 9.9690
L3.1950 9.9650
" />
<path d="M3.1950 9.9650
L3.1980 9.9610
" />
<path d="M3.1980 9.9610
L3.2010 9.9570
" />
<path d="M3.2000 1.2740
L3.2120 1.2730
" />
<path d="M3.2010 9.9570
L3.2050 9.9540
" />
<path d="M3.2010 14.8250
L3.1650 14.8250
" />
</g>
<g style="fill:#000000; fill-opacity:0.0000; stroke:none;">
<circle cx="3.2010" cy="14.8250" r="0.0100" /> 
</g>
<g style="fill:none; 
stroke:#000000; stroke-width:0.0200; stroke-opacity:1; 
stroke-linecap:round; stroke-linejoin:round;">
<path d="M3.2050 9.9540
L3.2080 9.9500
" />
<path d="M3.2080 9.9500
L3.2120 9.9470
" />
<path d="M3.2100 14.8250
L3.1740 14.8250
" />
</g>
<g style="fill:#000000; fill-opacity:0.0000; stroke:none;">
<circle cx="3.2100" cy="14.8250" r="0.0100" /> 
</g>
<g style="fill:none; 
stroke:#000000; stroke-width:0.0200; stroke-opacity:1; 
stroke-linecap:round; stroke-linejoin:round;">
<path d="M3.2120 1.2730
L3.2240 1.2710
" />
<path d="M3.2120 9.9470
L3.2160 9.9440
" />
<path d="M3.2160 9.9440
L3.2200 9.9420
" />
<path d="M3.2200 9.9420
L3.2240 9.9390
" />
<path d="M3.2240 1.2710
L3.2360 1.2680
" />
<path d="M3.2240 9.9390
L3.2280 9.9370
" />
<path d="M3.2280 9.9370
L3.2320 9.9340
" />
<path d="M3.2320 9.9340
L3.2370 9.9320
" />
<path d="M3.2360 1.2680
L3.2480 1.2650
" />
<path d="M3.2370 9.9320
L3.2410 9.9310
" />
<path d="M3.2410 9.9310
L3.2460 9.9290
" />
<path d="M3.2460 9.9290
L3.2510 9.9280
" />
<path d="M3.2480 1.2650
L3.2600 1.2610
" />
<path d="M3.2500 14.8250
L3.2010 14.8250
" />
</g>
<g style="fill:#000000; fill-opacity:0.0000; stroke:none;">
<circle cx="3.2500" cy="14.8250" r="0.0100" /> 
</g>
<g style="fill:none; 
stroke:#000000; stroke-width:0.0200; stroke-opacity:1; 
stroke-linecap:round; stroke-linejoin:round;">
<path d="M3.2510 9.9280
L3.2550 9.9270
" />
<path d="M3.2550 9.9270
L3.2600 9.9260
" />
<path d="M3.2590 14.8250
L3.2100 14.8250
" />
</g>
<g style="fill:#000000; fill-opacity:0.0000; stroke:none;">
<circle cx="3.2590" cy="14.8250" r="0.0100" /> 
</g>
<g style="fill:none; 
stroke:#000000; stroke-width:0.0200; stroke-opacity:1; 
stroke-linecap:round; stroke-linejoin:round;">
<path d="M3.2600 1.2610
L3.2710 1.2560
" />
<path d="M3.2600 9.9260
L3.2650 9.9250
" />
<path d="M3.2650 9.9250
L3.2700 9.9250
" />
<path d="M3.2700 9.9250
L3.2750 9.9250
" />
<path d="M3.2710 1.2560
L3.2820 1.2520
" />
<path d="M3.2820 1.2520
L3.2930 1.2460
" />
<path d="M3.2930 1.2460
L3.3040 1.2400
" />
<path d="M3.3040 1.2400
L3.3140 1.2330
" />
<path d="M3.3130 14.8250
L3.2500 14.8250
" />
</g>
<g style="fill:#000000; fill-opacity:0.0000; stroke:none;">
<circle cx="3.3130" cy="14.8250" r="0.0100" /> 
</g>
<g style="fill:none; 
stroke:#000000; stroke-width:0.0200; stroke-opacity:1; 
stroke-linecap:round; stroke-linejoin:round;">
<path d="M3.3140 1.2330
L3.3240 1.2260
" />
<path d="M3.3220 14.8250
L3.2590 14.8250
" />
</g>
<g style="fill:#000000; fill-opacity:0.0000; stroke:none;">
<circle cx="3.3220" cy="14.8250" r="0.0100" /> 
</g>
<g style="fill:none; 
stroke:#000000; stroke-width:0.0200; stroke-opacity:1; 
stroke-linecap:round; stroke-linejoin:round;">
<path d="M3.3240 1.2260
L3.3340 1.2190
" />
<path d="M3.3250 9.9250
L3.2750 9.9250
" />
<path d="M3.3250 9.9250
L3.3310 9.9250
" />
<path d="M3.3310 9.9250
L3.3360 9.9250
" />
<path d="M3.3340 1.2190
L3.3430 1.2110
" />
<path d="M3.3360 9.9250
L3.3410 9.9260
" />
<path d="M3.3410 9.9260
L3.3460 9.9270
" />
<path d="M3.3430 1.2110
L3.3520 1.2020
" />
<path d="M3.3460 9.9270
L3.3500 9.9280
" />
<path d="M3.3500 9.9280
L3.3550 9.9290
" />
</g>
<g style="fill:#000000; fill-opacity:0.0000; stroke:none;">
<circle cx="3.3520" cy="1.2020" r="0.0100" /> 
</g>
<g style="fill:none; 
stroke:#000000; stroke-width:0.0200; stroke-opacity:1; 
stroke-linecap:round; stroke-linejoin:round;">
<path d="M3.3520 1.2020
L3.3610 1.1930
" />
<path d="M3.3550 9.9290
L3.3600 9.9310
" />
<path d="M3.3600 9.9310
L3.3640 9.9320
" />
<path d="M3.3610 1.1930
L3.3690 1.1840
" />
<path d="M3.3640 9.9320
L3.3690 9.9340
" />
<path d="M3.3690 1.1840
L3.3760 1.1740
" />
<path d="M3.3690 9.9340
L3.3730 9.9370
" />
<path d="M3.3730 9.9370
L3.3770 9.9390
" />
<path d="M3.3760 1.1740
L3.3830 1.1640
" />
<path d="M3.3770 9.9390
L3.3810 9.9420
" />
<path d="M3.3810 9.9420
L3.3850 9.9440
" />
<path d="M3.3830 1.1640
L3.3900 1.1540
" />
<path d="M3.3850 9.9440
L3.3890 9.9470
" />
<path d="M3.3890 9.9470
L3.3930 9.9500
" />
<path d="M3.3890 14.8250
L3.3130 14.8250
" />
</g>
<g style="fill:#000000; fill-opacity:0.0000; stroke:none;">
<circle cx="3.3890" cy="14.8250" r="0.0100" /> 
</g>
<g style="fill:none; 
stroke:#000000; stroke-width:0.0200; stroke-opacity:1; 
stroke-linecap:round; stroke-linejoin:round;">
<path d="M3.3900 1.1540
L3.3960 1.1430
" />
<path d="M3.3930 9.9500
L3.3960 9.9540
" />
<path d="M3.3960 1.1430
L3.4020 1.1320
" />
<path d="M3.3960 9.9540
L3.4000 9.9570
" />
<path d="M3.3960 14.8250
L3.3220 14.8250
" />
</g>
<g style="fill:#000000; fill-opacity:0.0000; stroke:none;">
<circle cx="3.3960" cy="14.8250" r="0.0100" /> 
</g>
<g style="fill:none; 
stroke:#000000; stroke-width:0.0200; stroke-opacity:1; 
stroke-linecap:round; stroke-linejoin:round;">
<path d="M3.4000 9.9570
L3.4030 9.9610
" />
<path d="M3.4020 1.1320
L3.4060 1.1210
" />
<path d="M3.4030 9.9610
L3.4060 9.9650
" />
<path d="M3.4060 1.1210
L3.4110 1.1100
" />
<path d="M3.4060 9.9650
L3.4080 9.9690
" />
<path d="M3.4080 9.9690
L3.4110 9.9730
" />
<path d="M3.4110 1.1100
L3.4150 1.0980
" />
<path d="M3.4110 9.9730
L3.4130 9.9770
" />
<path d="M3.4130 9.9770
L3.4160 9.9810
" />
<path d="M3.4150 1.0980
L3.4180 1.0860
" />
<path d="M3.4160 9.9810
L3.4180 9.9860
" />
<path d="M3.4180 1.0860
L3.4210 1.0740
" />
<path d="M3.4180 9.9860
L3.4190 9.9900
" />
<path d="M3.4190 9.9900
L3.4210 9.9950
" />
<path d="M3.4210 1.0740
L3.4230 1.0620
" />
<path d="M3.4210 9.9950
L3.4220 10.0000
" />
<path d="M3.4220 10.0000
L3.4230 10.0040
" />
<path d="M3.4230 1.0620
L3.4240 1.0500
" />
<path d="M3.4230 10.0040
L3.4240 10.0090
" />
<path d="M3.4240 1.0500
L3.4250 1.0380
" />
<path d="M3.4240 10.0090
L3.4250 10.0140
" />
<path d="M3.4250 0.5250
L3.3750 0.5250
" />
<path d="M3.4250 0.5250
L5.7250 0.5250
" />
<path d="M3.4250 0.6130
L3.4250 0.5250
" />
</g>
<g style="fill:#000000; fill-opacity:0.0000; stroke:none;">
<circle cx="3.4250" cy="0.6130" r="0.0100" /> 
</g>
<g style="fill:none; 
stroke:#000000; stroke-width:0.0200; stroke-opacity:1; 
stroke-linecap:round; stroke-linejoin:round;">
<path d="M3.4250 0.8250
L3.1050 0.8250
" />
<path d="M3.4250 0.8250
L3.4250 0.6130
" />
<path d="M3.4250 1.0250
L3.4250 0.8250
" />
<path d="M3.4250 1.0250
L3.4250 1.0350
" />
<path d="M3.4250 1.0380
L3.4250 1.0250
" />
<path d="M3.4250 10.0140
L3.4250 10.0190
" />
<path d="M3.4250 10.0190
L3.4250 10.0250
" />
<path d="M3.4250 10.0750
L3.4250 10.0250
" />
<path d="M3.4250 10.0750
L5.7250 10.0750
" />
<path d="M3.4260 10.0790
L3.4250 10.0750
" />
<path d="M3.4260 10.0840
L3.4260 10.0790
" />
<path d="M3.4260 10.0890
L3.4260 10.0840
" />
<path d="M3.4270 10.0930
L3.4260 10.0890
" />
<path d="M3.4280 10.0980
L3.4270 10.0930
" />
<path d="M3.4290 10.1020
L3.4280 10.0980
" />
<path d="M3.4310 10.1070
L3.4290 10.1020
" />
<path d="M3.4330 10.1110
L3.4310 10.1070
" />
<path d="M3.4350 10.1160
L3.4330 10.1110
" />
<path d="M3.4370 10.1200
L3.4350 10.1160
" />
<path d="M3.4390 10.1240
L3.4370 10.1200
" />
<path d="M3.4420 10.1290
L3.4390 10.1240
" />
<path d="M3.4450 10.1330
L3.4420 10.1290
" />
<path d="M3.4480 10.1370
L3.4450 10.1330
" />
<path d="M3.4510 10.1410
L3.4480 10.1370
" />
<path d="M3.4550 10.1450
L3.4510 10.1410
" />
</g>
<g style="fill:#000000; fill-opacity:0.0000; stroke:none;">
<circle cx="3.4550" cy="10.1450" r="0.0100" /> 
</g>
<g style="fill:none; 
stroke:#000000; stroke-width:0.0200; stroke-opacity:1; 
stroke-linecap:round; stroke-linejoin:round;">
<path d="M3.4590 10.1490
L3.4550 10.1450
" />
<path d="M3.4630 10.1520
L3.4590 10.1490
" />
<path d="M3.4670 10.1550
L3.4630 10.1520
" />
<path d="M3.4710 10.1580
L3.4670 10.1550
" />
<path d="M3.4750 14.8250
L3.3890 14.8250
" />
</g>
<g style="fill:#000000; fill-opacity:0.0000; stroke:none;">
<circle cx="3.4750" cy="14.8250" r="0.0100" /> 
</g>
<g style="fill:none; 
stroke:#000000; stroke-width:0.0200; stroke-opacity:1; 
stroke-linecap:round; stroke-linejoin:round;">
<path d="M3.4760 10.1610
L3.4710 10.1580
" />
<path d="M3.4800 10.1630
L3.4760 10.1610
" />
<path d="M3.4820 14.8250
L3.3960 14.8250
" />
</g>
<g style="fill:#000000; fill-opacity:0.0000; stroke:none;">
<circle cx="3.4820" cy="14.8250" r="0.0100" /> 
</g>
<g style="fill:none; 
stroke:#000000; stroke-width:0.0200; stroke-opacity:1; 
stroke-linecap:round; stroke-linejoin:round;">
<path d="M3.4840 10.1650
L3.4800 10.1630
" />
<path d="M3.4890 10.1670
L3.4840 10.1650
" />
<path d="M3.4930 10.1690
L3.4890 10.1670
" />
<path d="M3.4980 10.1710
L3.4930 10.1690
" />
<path d="M3.5020 10.1720
L3.4980 10.1710
" />
<path d="M3.5070 10.1730
L3.5020 10.1720
" />
<path d="M3.5110 10.1740
L3.5070 10.1730
" />
<path d="M3.5160 10.1740
L3.5110 10.1740
" />
<path d="M3.5210 10.1740
L3.5160 10.1740
" />
<path d="M3.5250 10.1750
L3.5210 10.1740
" />
<path d="M3.5720 14.8250
L3.4750 14.8250
" />
</g>
<g style="fill:#000000; fill-opacity:0.0000; stroke:none;">
<circle cx="3.5720" cy="14.8250" r="0.0100" /> 
</g>
<g style="fill:none; 
stroke:#000000; stroke-width:0.0200; stroke-opacity:1; 
stroke-linecap:round; stroke-linejoin:round;">
<path d="M3.5780 14.8250
L3.4820 14.8250
" />
</g>
<g style="fill:#000000; fill-opacity:0.0000; stroke:none;">
<circle cx="3.5780" cy="14.8250" r="0.0100" /> 
</g>
<g style="fill:none; 
stroke:#000000; stroke-width:0.0200; stroke-opacity:1; 
stroke-linecap:round; stroke-linejoin:round;">
<path d="M3.6780 14.8250
L3.5720 14.8250
" />
</g>
<g style="fill:#000000; fill-opacity:0.0000; stroke:none;">
<circle cx="3.6780" cy="14.8250" r="0.0100" /> 
</g>
<g style="fill:none; 
stroke:#000000; stroke-width:0.0200; stroke-opacity:1; 
stroke-linecap:round; stroke-linejoin:round;">
<path d="M3.6840 14.8250
L3.5780 14.8250
" />
</g>
<g style="fill:#000000; fill-opacity:0.0000; stroke:none;">
<circle cx="3.6840" cy="14.8250" r="0.0100" /> 
</g>
<g style="fill:none; 
stroke:#000000; stroke-width:0.0200; stroke-opacity:1; 
stroke-linecap:round; stroke-linejoin:round;">
<path d="M3.9120 14.8250
L3.6780 14.8250
" />
</g>
<g style="fill:#000000; fill-opacity:0.0000; stroke:none;">
<circle cx="3.9120" cy="14.8250" r="0.0100" /> 
</g>
<g style="fill:none; 
stroke:#000000; stroke-width:0.0200; stroke-opacity:1; 
stroke-linecap:round; stroke-linejoin:round;">
<path d="M3.9160 14.8250
L3.6840 14.8250
" />
</g>
<g style="fill:#000000; fill-opacity:0.0000; stroke:none;">
<circle cx="3.9160" cy="14.8250" r="0.0100" /> 
</g>
<g style="fill:none; 
stroke:#000000; stroke-width:0.0200; stroke-opacity:1; 
stroke-linecap:round; stroke-linejoin:round;">
<path d="M4.2950 14.8250
L3.9120 14.8250
" />
<path d="M4.2950 14.8250
L3.9160 14.8250
" />
<path d="M4.8550 14.8250
L4.2950 14.8250
" />
<path d="M4.8550 14.8250
L5.2340 14.8250
" />
<path d="M4.8550 14.8250
L5.2380 14.8250
" />
</g>
<g style="fill:#000000; fill-opacity:0.0000; stroke:none;">
<circle cx="5.2340" cy="14.8250" r="0.0100" /> 
</g>
<g style="fill:none; 
stroke:#000000; stroke-width:0.0200; stroke-opacity:1; 
stroke-linecap:round; stroke-linejoin:round;">
<path d="M5.2340 14.8250
L5.4660 14.8250
" />
</g>
<g style="fill:#000000; fill-opacity:0.0000; stroke:none;">
<circle cx="5.2380" cy="14.8250" r="0.0100" /> 
</g>
<g style="fill:none; 
stroke:#000000; stroke-width:0.0200; stroke-opacity:1; 
stroke-linecap:round; stroke-linejoin:round;">
<path d="M5.2380 14.8250
L5.4720 14.8250
" />
<path d="M5.3580 14.8250
L4.8550 14.8250
" />
</g>
<g style="fill:#000000; fill-opacity:0.0000; stroke:none;">
<circle cx="5.3580" cy="14.8250" r="0.0100" /> 
<circle cx="5.4660" cy="14.8250" r="0.0100" /> 
</g>
<g style="fill:none; 
stroke:#000000; stroke-width:0.0200; stroke-opacity:1; 
stroke-linecap:round; stroke-linejoin:round;">
<path d="M5.4660 14.8250
L5.5720 14.8250
" />
</g>
<g style="fill:#000000; fill-opacity:0.0000; stroke:none;">
<circle cx="5.4720" cy="14.8250" r="0.0100" /> 
</g>
<g style="fill:none; 
stroke:#000000; stroke-width:0.0200; stroke-opacity:1; 
stroke-linecap:round; stroke-linejoin:round;">
<path d="M5.4720 14.8250
L5.5780 14.8250
" />
</g>
<g style="fill:#000000; fill-opacity:0.0000; stroke:none;">
<circle cx="5.5720" cy="14.8250" r="0.0100" /> 
</g>
<g style="fill:none; 
stroke:#000000; stroke-width:0.0200; stroke-opacity:1; 
stroke-linecap:round; stroke-linejoin:round;">
<path d="M5.5720 14.8250
L5.6680 14.8250
" />
<path d="M5.5780 14.8250
L5.3580 14.8250
" />
</g>
<g style="fill:#000000; fill-opacity:0.0000; stroke:none;">
<circle cx="5.5780" cy="14.8250" r="0.0100" /> 
<circle cx="5.5780" cy="14.8250" r="0.0100" /> 
</g>
<g style="fill:none; 
stroke:#000000; stroke-width:0.0200; stroke-opacity:1; 
stroke-linecap:round; stroke-linejoin:round;">
<path d="M5.5780 14.8250
L5.6750 14.8250
" />
<path d="M5.6250 10.1750
L3.5250 10.1750
" />
<path d="M5.6290 10.1740
L5.6250 10.1750
" />
<path d="M5.6340 10.1740
L5.6290 10.1740
" />
<path d="M5.6390 10.1740
L5.6340 10.1740
" />
<path d="M5.6430 10.1730
L5.6390 10.1740
" />
<path d="M5.6480 10.1720
L5.6430 10.1730
" />
<path d="M5.6520 10.1710
L5.6480 10.1720
" />
<path d="M5.6570 10.1690
L5.6520 10.1710
" />
<path d="M5.6610 10.1670
L5.6570 10.1690
" />
<path d="M5.6660 10.1650
L5.6610 10.1670
" />
</g>
<g style="fill:#000000; fill-opacity:0.0000; stroke:none;">
<circle cx="5.6680" cy="14.8250" r="0.0100" /> 
</g>
<g style="fill:none; 
stroke:#000000; stroke-width:0.0200; stroke-opacity:1; 
stroke-linecap:round; stroke-linejoin:round;">
<path d="M5.6680 14.8250
L5.7540 14.8250
" />
<path d="M5.6700 10.1630
L5.6660 10.1650
" />
<path d="M5.6740 10.1610
L5.6700 10.1630
" />
<path d="M5.6750 14.8250
L5.5780 14.8250
" />
</g>
<g style="fill:#000000; fill-opacity:0.0000; stroke:none;">
<circle cx="5.6750" cy="14.8250" r="0.0100" /> 
<circle cx="5.6750" cy="14.8250" r="0.0100" /> 
</g>
<g style="fill:none; 
stroke:#000000; stroke-width:0.0200; stroke-opacity:1; 
stroke-linecap:round; stroke-linejoin:round;">
<path d="M5.6750 14.8250
L5.7610 14.8250
" />
<path d="M5.6790 10.1580
L5.6740 10.1610
" />
<path d="M5.6830 10.1550
L5.6790 10.1580
" />
<path d="M5.6870 10.1520
L5.6830 10.1550
" />
<path d="M5.6910 10.1490
L5.6870 10.1520
" />
<path d="M5.6950 10.1450
L5.6910 10.1490
" />
</g>
<g style="fill:#000000; fill-opacity:0.0000; stroke:none;">
<circle cx="5.6950" cy="10.1450" r="0.0100" /> 
</g>
<g style="fill:none; 
stroke:#000000; stroke-width:0.0200; stroke-opacity:1; 
stroke-linecap:round; stroke-linejoin:round;">
<path d="M5.6990 10.1410
L5.6950 10.1450
" />
<path d="M5.7020 10.1370
L5.6990 10.1410
" />
<path d="M5.7050 10.1330
L5.7020 10.1370
" />
<path d="M5.7080 10.1290
L5.7050 10.1330
" />
<path d="M5.7110 10.1240
L5.7080 10.1290
" />
<path d="M5.7130 10.1200
L5.7110 10.1240
" />
<path d="M5.7150 10.1160
L5.7130 10.1200
" />
<path d="M5.7170 10.1110
L5.7150 10.1160
" />
<path d="M5.7190 10.1070
L5.7170 10.1110
" />
<path d="M5.7210 10.1020
L5.7190 10.1070
" />
<path d="M5.7220 10.0980
L5.7210 10.1020
" />
<path d="M5.7230 10.0930
L5.7220 10.0980
" />
<path d="M5.7240 10.0790
L5.7240 10.0840
" />
<path d="M5.7240 10.0840
L5.7240 10.0890
" />
<path d="M5.7240 10.0890
L5.7230 10.0930
" />
<path d="M5.7250 0.5250
L5.7250 0.6130
" />
</g>
<g style="fill:#000000; fill-opacity:0.0000; stroke:none;">
<circle cx="5.7250" cy="0.6130" r="0.0100" /> 
</g>
<g style="fill:none; 
stroke:#000000; stroke-width:0.0200; stroke-opacity:1; 
stroke-linecap:round; stroke-linejoin:round;">
<path d="M5.7250 0.6130
L5.7250 0.8250
" />
<path d="M5.7250 0.8250
L5.7250 1.0250
" />
<path d="M5.7250 1.0250
L5.7250 1.0380
" />
<path d="M5.7250 1.0350
L5.7250 1.0250
" />
<path d="M5.7250 1.0380
L5.7260 1.0500
" />
<path d="M5.7250 10.0140
L5.7260 10.0090
" />
<path d="M5.7250 10.0190
L5.7250 10.0140
" />
<path d="M5.7250 10.0250
L5.7250 10.0190
" />
<path d="M5.7250 10.0250
L5.7250 10.0750
" />
<path d="M5.7250 10.0750
L5.7240 10.0790
" />
<path d="M5.7260 1.0500
L5.7270 1.0620
" />
<path d="M5.7260 10.0090
L5.7270 10.0040
" />
<path d="M5.7270 1.0620
L5.7290 1.0740
" />
<path d="M5.7270 10.0040
L5.7280 10.0000
" />
<path d="M5.7280 10.0000
L5.7290 9.9950
" />
<path d="M5.7290 1.0740
L5.7320 1.0860
" />
<path d="M5.7290 9.9950
L5.7310 9.9900
" />
<path d="M5.7310 9.9900
L5.7320 9.9860
" />
<path d="M5.7320 1.0860
L5.7350 1.0980
" />
<path d="M5.7320 9.9860
L5.7340 9.9810
" />
<path d="M5.7340 9.9810
L5.7370 9.9770
" />
<path d="M5.7350 1.0980
L5.7390 1.1100
" />
<path d="M5.7370 9.9770
L5.7390 9.9730
" />
<path d="M5.7390 1.1100
L5.7440 1.1210
" />
<path d="M5.7390 9.9730
L5.7420 9.9690
" />
<path d="M5.7420 9.9690
L5.7440 9.9650
" />
<path d="M5.7440 1.1210
L5.7480 1.1320
" />
<path d="M5.7440 9.9650
L5.7470 9.9610
" />
<path d="M5.7470 9.9610
L5.7500 9.9570
" />
<path d="M5.7480 1.1320
L5.7540 1.1430
" />
<path d="M5.7500 9.9570
L5.7540 9.9540
" />
<path d="M5.7540 1.1430
L5.7600 1.1540
" />
<path d="M5.7540 9.9540
L5.7570 9.9500
" />
</g>
<g style="fill:#000000; fill-opacity:0.0000; stroke:none;">
<circle cx="5.7540" cy="14.8250" r="0.0100" /> 
</g>
<g style="fill:none; 
stroke:#000000; stroke-width:0.0200; stroke-opacity:1; 
stroke-linecap:round; stroke-linejoin:round;">
<path d="M5.7540 14.8250
L5.8280 14.8250
" />
<path d="M5.7570 9.9500
L5.7610 9.9470
" />
<path d="M5.7600 1.1540
L5.7670 1.1640
" />
<path d="M5.7610 9.9470
L5.7650 9.9440
" />
<path d="M5.7610 14.8250
L5.6750 14.8250
" />
</g>
<g style="fill:#000000; fill-opacity:0.0000; stroke:none;">
<circle cx="5.7610" cy="14.8250" r="0.0100" /> 
<circle cx="5.7610" cy="14.8250" r="0.0100" /> 
</g>
<g style="fill:none; 
stroke:#000000; stroke-width:0.0200; stroke-opacity:1; 
stroke-linecap:round; stroke-linejoin:round;">
<path d="M5.7610 14.8250
L5.8370 14.8250
" />
<path d="M5.7650 9.9440
L5.7690 9.9420
" />
<path d="M5.7670 1.1640
L5.7740 1.1740
" />
<path d="M5.7690 9.9420
L5.7730 9.9390
" />
<path d="M5.7730 9.9390
L5.7770 9.9370
" />
<path d="M5.7740 1.1740
L5.7810 1.1840
" />
<path d="M5.7750 0.5250
L5.7250 0.5250
" />
<path d="M5.7750 0.5250
L5.9740 0.5250
" />
<path d="M5.7770 9.9370
L5.7810 9.9340
" />
<path d="M5.7810 1.1840
L5.7890 1.1930
" />
<path d="M5.7810 9.9340
L5.7860 9.9320
" />
<path d="M5.7860 9.9320
L5.7900 9.9310
" />
<path d="M5.7890 1.1930
L5.7980 1.2020
" />
<path d="M5.7900 9.9310
L5.7950 9.9290
" />
<path d="M5.7950 9.9290
L5.8000 9.9280
" />
</g>
<g style="fill:#000000; fill-opacity:0.0000; stroke:none;">
<circle cx="5.7980" cy="1.2020" r="0.0100" /> 
</g>
<g style="fill:none; 
stroke:#000000; stroke-width:0.0200; stroke-opacity:1; 
stroke-linecap:round; stroke-linejoin:round;">
<path d="M5.7980 1.2020
L5.8070 1.2110
" />
<path d="M5.8000 9.9280
L5.8040 9.9270
" />
<path d="M5.8040 9.9270
L5.8090 9.9260
" />
<path d="M5.8070 1.2110
L5.8160 1.2190
" />
<path d="M5.8090 9.9260
L5.8140 9.9250
" />
<path d="M5.8140 9.9250
L5.8190 9.9250
" />
<path d="M5.8160 1.2190
L5.8260 1.2260
" />
<path d="M5.8190 9.9250
L5.8250 9.9250
" />
<path d="M5.8260 1.2260
L5.8360 1.2330
" />
</g>
<g style="fill:#000000; fill-opacity:0.0000; stroke:none;">
<circle cx="5.8280" cy="14.8250" r="0.0100" /> 
</g>
<g style="fill:none; 
stroke:#000000; stroke-width:0.0200; stroke-opacity:1; 
stroke-linecap:round; stroke-linejoin:round;">
<path d="M5.8280 14.8250
L5.8910 14.8250
" />
<path d="M5.8360 1.2330
L5.8460 1.2400
" />
<path d="M5.8370 14.8250
L5.7610 14.8250
" />
</g>
<g style="fill:#000000; fill-opacity:0.0000; stroke:none;">
<circle cx="5.8370" cy="14.8250" r="0.0100" /> 
<circle cx="5.8370" cy="14.8250" r="0.0100" /> 
</g>
<g style="fill:none; 
stroke:#000000; stroke-width:0.0200; stroke-opacity:1; 
stroke-linecap:round; stroke-linejoin:round;">
<path d="M5.8370 14.8250
L5.9000 14.8250
" />
<path d="M5.8460 1.2400
L5.8570 1.2460
" />
<path d="M5.8570 1.2460
L5.8680 1.2520
" />
<path d="M5.8680 1.2520
L5.8790 1.2560
" />
<path d="M5.8750 9.9250
L5.8250 9.9250
" />
<path d="M5.8750 9.9250
L5.8800 9.9250
" />
<path d="M5.8790 1.2560
L5.8900 1.2610
" />
<path d="M5.8800 9.9250
L5.8850 9.9250
" />
<path d="M5.8850 9.9250
L5.8900 9.9260
" />
<path d="M5.8900 1.2610
L5.9020 1.2650
" />
<path d="M5.8900 9.9260
L5.8950 9.9270
" />
</g>
<g style="fill:#000000; fill-opacity:0.0000; stroke:none;">
<circle cx="5.8910" cy="14.8250" r="0.0100" /> 
</g>
<g style="fill:none; 
stroke:#000000; stroke-width:0.0200; stroke-opacity:1; 
stroke-linecap:round; stroke-linejoin:round;">
<path d="M5.8910 14.8250
L5.9400 14.8250
" />
<path d="M5.8950 9.9270
L5.8990 9.9280
" />
<path d="M5.8990 9.9280
L5.9040 9.9290
" />
<path d="M5.9000 14.8250
L5.8370 14.8250
" />
</g>
<g style="fill:#000000; fill-opacity:0.0000; stroke:none;">
<circle cx="5.9000" cy="14.8250" r="0.0100" /> 
<circle cx="5.9000" cy="14.8250" r="0.0100" /> 
</g>
<g style="fill:none; 
stroke:#000000; stroke-width:0.0200; stroke-opacity:1; 
stroke-linecap:round; stroke-linejoin:round;">
<path d="M5.9000 14.8250
L5.9490 14.8250
" />
<path d="M5.9020 1.2650
L5.9140 1.2680
" />
<path d="M5.9040 9.9290
L5.9090 9.9310
" />
<path d="M5.9090 9.9310
L5.9130 9.9320
" />
<path d="M5.9130 9.9320
L5.9180 9.9340
" />
<path d="M5.9140 1.2680
L5.9260 1.2710
" />
<path d="M5.9180 9.9340
L5.9220 9.9370
" />
<path d="M5.9220 9.9370
L5.9260 9.9390
" />
<path d="M5.9260 1.2710
L5.9380 1.2730
" />
<path d="M5.9260 9.9390
L5.9300 9.9420
" />
<path d="M5.9300 9.9420
L5.9340 9.9440
" />
<path d="M5.9340 9.9440
L5.9380 9.9470
" />
<path d="M5.9380 1.2730
L5.9500 1.2740
" />
<path d="M5.9380 9.9470
L5.9420 9.9500
" />
</g>
<g style="fill:#000000; fill-opacity:0.0000; stroke:none;">
<circle cx="5.9400" cy="14.8250" r="0.0100" /> 
</g>
<g style="fill:none; 
stroke:#000000; stroke-width:0.0200; stroke-opacity:1; 
stroke-linecap:round; stroke-linejoin:round;">
<path d="M5.9400 14.8250
L5.9760 14.8250
" />
<path d="M5.9420 9.9500
L5.9450 9.9540
" />
<path d="M5.9450 9.9540
L5.9490 9.9570
" />
<path d="M5.9490 9.9570
L5.9520 9.9610
" />
<path d="M5.9490 14.8250
L5.9000 14.8250
" />
</g>
<g style="fill:#000000; fill-opacity:0.0000; stroke:none;">
<circle cx="5.9490" cy="14.8250" r="0.0100" /> 
<circle cx="5.9490" cy="14.8250" r="0.0100" /> 
</g>
<g style="fill:none; 
stroke:#000000; stroke-width:0.0200; stroke-opacity:1; 
stroke-linecap:round; stroke-linejoin:round;">
<path d="M5.9490 14.8250
L5.9850 14.8250
" />
<path d="M5.9500 1.2740
L5.9620 1.2750
" />
<path d="M5.9520 9.9610
L5.9550 9.9650
" />
<path d="M5.9550 9.9650
L5.9570 9.9690
" />
<path d="M5.9570 9.9690
L5.9600 9.9730
" />
<path d="M5.9600 9.9730
L5.9620 9.9770
" />
<path d="M5.9620 1.2750
L5.9740 1.2750
" />
<path d="M5.9620 9.9770
L5.9650 9.9810
" />
<path d="M5.9650 9.9810
L5.9670 9.9860
" />
<path d="M5.9670 9.9860
L5.9680 9.9900
" />
<path d="M5.9680 9.9900
L5.9700 9.9950
" />
<path d="M5.9700 9.9950
L5.9710 10.0000
" />
<path d="M5.9710 10.0000
L5.9720 10.0040
" />
<path d="M5.9720 10.0040
L5.9730 10.0090
" />
<path d="M5.9730 10.0090
L5.9740 10.0140
" />
<path d="M5.9740 0.5250
L5.9740 0.8250
" />
<path d="M5.9740 0.5250
L6.1750 0.5250
" />
<path d="M5.9740 1.2750
L6.3280 1.2750
" />
<path d="M5.9740 10.0140
L5.9740 10.0190
" />
<path d="M5.9740 10.0190
L5.9740 10.0250
" />
<path d="M5.9740 10.0750
L5.9740 10.0250
" />
<path d="M5.9740 10.0750
L5.9750 10.0800
" />
<path d="M5.9750 10.0790
L5.9740 10.0750
" />
<path d="M5.9750 10.0800
L5.9750 10.0840
" />
<path d="M5.9750 10.0830
L5.9750 10.0790
" />
<path d="M5.9750 10.0840
L5.9750 10.0890
" />
<path d="M5.9750 10.0870
L5.9750 10.0830
" />
<path d="M5.9750 10.0890
L5.9760 10.0940
" />
<path d="M5.9760 10.0910
L5.9750 10.0870
" />
<path d="M5.9760 10.0940
L5.9770 10.0990
" />
</g>
<g style="fill:#000000; fill-opacity:0.0000; stroke:none;">
<circle cx="5.9760" cy="14.8250" r="0.0100" /> 
</g>
<g style="fill:none; 
stroke:#000000; stroke-width:0.0200; stroke-opacity:1; 
stroke-linecap:round; stroke-linejoin:round;">
<path d="M5.9760 14.8250
L5.9970 14.8250
" />
<path d="M5.9770 10.0950
L5.9760 10.0910
" />
<path d="M5.9770 10.0990
L5.9770 10.0950
" />
<path d="M5.9770 10.0990
L5.9790 10.1040
" />
<path d="M5.9780 10.1020
L5.9770 10.0990
" />
<path d="M5.9790 10.1040
L5.9800 10.1080
" />
<path d="M5.9800 10.1060
L5.9780 10.1020
" />
<path d="M5.9800 10.1080
L5.9820 10.1130
" />
<path d="M5.9820 10.1130
L5.9840 10.1170
" />
<path d="M5.9840 10.1170
L5.9860 10.1220
" />
<path d="M5.9850 14.8250
L5.9490 14.8250
" />
</g>
<g style="fill:#000000; fill-opacity:0.0000; stroke:none;">
<circle cx="5.9850" cy="14.8250" r="0.0100" /> 
<circle cx="5.9850" cy="14.8250" r="0.0100" /> 
</g>
<g style="fill:none; 
stroke:#000000; stroke-width:0.0200; stroke-opacity:1; 
stroke-linecap:round; stroke-linejoin:round;">
<path d="M5.9850 14.8250
L6.0070 14.8250
" />
<path d="M5.9860 10.1220
L5.9890 10.1260
" />
<path d="M5.9890 10.1260
L5.9920 10.1300
" />
<path d="M5.9920 10.1300
L5.9940 10.1340
" />
<path d="M5.9940 10.1340
L5.9980 10.1380
" />
</g>
<g style="fill:#000000; fill-opacity:0.0000; stroke:none;">
<circle cx="5.9970" cy="14.8250" r="0.0100" /> 
</g>
<g style="fill:none; 
stroke:#000000; stroke-width:0.0200; stroke-opacity:1; 
stroke-linecap:round; stroke-linejoin:round;">
<path d="M5.9970 14.8250
L6.0050 14.8250
" />
<path d="M5.9980 10.1380
L6.0010 10.1420
" />
<path d="M6.0010 10.1420
L6.0040 10.1450
" />
<path d="M6.0040 10.1450
L6.0080 10.1490
" />
<path d="M6.0070 14.8250
L5.9850 14.8250
" />
</g>
<g style="fill:#000000; fill-opacity:0.0000; stroke:none;">
<circle cx="6.0070" cy="14.8250" r="0.0100" /> 
<circle cx="6.0070" cy="14.8250" r="0.0100" /> 
</g>
<g style="fill:none; 
stroke:#000000; stroke-width:0.0200; stroke-opacity:1; 
stroke-linecap:round; stroke-linejoin:round;">
<path d="M6.0070 14.8250
L6.0150 14.8250
" />
<path d="M6.0080 10.1490
L6.0110 10.1520
" />
<path d="M6.0110 10.1520
L6.0150 10.1550
" />
<path d="M6.0150 10.1550
L6.0190 10.1580
" />
<path d="M6.0150 14.8250
L6.0070 14.8250
" />
<path d="M6.0150 14.8250
L6.0220 14.8240
" />
<path d="M6.0190 10.1580
L6.0230 10.1600
" />
<path d="M6.0220 14.8240
L6.0300 14.8240
" />
<path d="M6.0230 10.1600
L6.0280 10.1630
" />
<path d="M6.0280 10.1630
L6.0320 10.1650
" />
<path d="M6.0300 14.8240
L6.0370 14.8230
" />
<path d="M6.0320 10.1650
L6.0360 10.1670
" />
<path d="M6.0360 10.1670
L6.0410 10.1690
" />
<path d="M6.0370 14.8230
L6.0450 14.8210
" />
<path d="M6.0410 10.1690
L6.0460 10.1700
" />
<path d="M6.0450 0.8250
L5.7250 0.8250
" />
</g>
<g style="fill:#000000; fill-opacity:0.0000; stroke:none;">
<circle cx="6.0450" cy="0.8250" r="0.0100" /> 
</g>
<g style="fill:none; 
stroke:#000000; stroke-width:0.0200; stroke-opacity:1; 
stroke-linecap:round; stroke-linejoin:round;">
<path d="M6.0450 14.8210
L6.0520 14.8200
" />
<path d="M6.0460 10.1700
L6.0500 10.1720
" />
<path d="M6.0500 10.1720
L6.0550 10.1730
" />
<path d="M6.0520 14.8200
L6.0590 14.8180
" />
<path d="M6.0550 10.1730
L6.0600 10.1740
" />
<path d="M6.0590 14.8180
L6.0660 14.8150
" />
<path d="M6.0600 10.1740
L6.0650 10.1740
" />
<path d="M6.0650 10.1740
L6.0700 10.1750
" />
<path d="M6.0660 14.8150
L6.0730 14.8130
" />
<path d="M6.0700 10.1750
L6.0750 10.1750
" />
<path d="M6.0730 14.8130
L6.0800 14.8100
" />
<path d="M6.0800 14.8100
L6.0860 14.8060
" />
<path d="M6.0860 14.8060
L6.0920 14.8030
" />
<path d="M6.0920 14.8030
L6.0980 14.7990
" />
<path d="M6.0980 14.7990
L6.1040 14.7950
" />
<path d="M6.1040 14.7950
L6.1100 14.7900
" />
<path d="M6.1100 14.7900
L6.1150 14.7860
" />
<path d="M6.1150 14.7860
L6.1210 14.7810
" />
<path d="M6.1210 14.7810
L6.1260 14.7750
" />
<path d="M6.1260 14.7750
L6.1300 14.7700
" />
<path d="M6.1300 14.7700
L6.1350 14.7640
" />
<path d="M6.1350 14.7640
L6.1390 14.7580
" />
<path d="M6.1390 14.7580
L6.1430 14.7520
" />
<path d="M6.1430 14.7520
L6.1460 14.7460
" />
<path d="M6.1460 14.7460
L6.1500 14.7400
" />
<path d="M6.1500 14.7400
L6.1530 14.7330
" />
<path d="M6.1530 14.7330
L6.1550 14.7260
" />
<path d="M6.1550 14.7260
L6.1580 14.7190
" />
<path d="M6.1580 14.7190
L6.1600 14.7120
" />
<path d="M6.1600 14.7120
L6.1610 14.7050
" />
<path d="M6.1610 14.7050
L6.1630 14.6970
" />
<path d="M6.1630 14.6970
L6.1640 14.6900
" />
<path d="M6.1640 14.6820
L6.1650 14.6750
" />
<path d="M6.1640 14.6900
L6.1640 14.6820
" />
<path d="M6.1650 14.6750
L6.1650 10.1750
" />
<path d="M6.1750 0.5250
L6.5250 0.5250
" />
<path d="M6.1750 0.8250
L6.0450 0.8250
" />
<path d="M6.1750 0.8250
L6.5250 0.8250
" />
<path d="M6.1750 1.0250
L6.1750 0.8250
" />
<path d="M6.1750 1.0250
L6.4740 1.0250
" />
<path d="M6.1750 1.2250
L6.1750 1.0250
" />
<path d="M6.1750 1.2750
L6.1750 1.2250
" />
</g>
<g style="fill:#000000; fill-opacity:0.0000; stroke:none;">
<circle cx="6.3280" cy="1.2750" r="0.0100" /> 
</g>
<g style="fill:none; 
stroke:#000000; stroke-width:0.0200; stroke-opacity:1; 
stroke-linecap:round; stroke-linejoin:round;">
<path d="M6.3280 1.2750
L6.4740 1.2750
" />
<path d="M6.3620 10.1750
L6.0750 10.1750
" />
</g>
<g style="fill:#000000; fill-opacity:0.0000; stroke:none;">
<circle cx="6.3620" cy="10.1750" r="0.0100" /> 
</g>
<g style="fill:none; 
stroke:#000000; stroke-width:0.0200; stroke-opacity:1; 
stroke-linecap:round; stroke-linejoin:round;">
<path d="M6.4250 7.1750
L6.4270 7.1760
" />
<path d="M6.4250 7.1750
L6.4270 7.1760
" />
<path d="M6.4250 7.6750
L6.4270 7.6750
" />
<path d="M6.4250 7.6750
L6.4270 7.6750
" />
<path d="M6.4250 9.1750
L6.4270 9.1760
" />
<path d="M6.4250 9.6750
L6.4270 9.6740
" />
<path d="M6.4250 9.6750
L6.4270 9.6740
" />
<path d="M6.4250 9.6750
L6.4270 9.6740
" />
<path d="M6.4250 9.6750
L6.4270 9.6740
" />
<path d="M6.4270 7.1760
L6.4290 7.1750
" />
<path d="M6.4270 7.1760
L6.4290 7.1750
" />
<path d="M6.4270 7.6750
L6.4290 7.6760
" />
<path d="M6.4270 7.6750
L6.4290 7.6760
" />
<path d="M6.4270 9.1760
L6.4290 9.1750
" />
<path d="M6.4270 9.6740
L6.4290 9.6750
" />
<path d="M6.4270 9.6740
L6.4290 9.6750
" />
<path d="M6.4270 9.6740
L6.4290 9.6750
" />
<path d="M6.4270 9.6740
L6.4290 9.6750
" />
<path d="M6.4290 7.1750
L6.4320 7.1750
" />
<path d="M6.4290 7.1750
L6.4320 7.1750
" />
<path d="M6.4290 7.6760
L6.4320 7.6760
" />
<path d="M6.4290 7.6760
L6.4320 7.6760
" />
<path d="M6.4290 9.1750
L6.4320 9.1750
" />
<path d="M6.4290 9.6750
L6.4320 9.6750
" />
<path d="M6.4290 9.6750
L6.4320 9.6750
" />
<path d="M6.4290 9.6750
L6.4320 9.6750
" />
<path d="M6.4290 9.6750
L6.4320 9.6750
" />
<path d="M6.4320 7.1750
L6.4340 7.1750
" />
<path d="M6.4320 7.1750
L6.4340 7.1750
" />
<path d="M6.4320 7.6760
L6.4340 7.6760
" />
<path d="M6.4320 7.6760
L6.4340 7.6760
" />
<path d="M6.4320 9.1750
L6.4340 9.1750
" />
<path d="M6.4320 9.6750
L6.4340 9.6750
" />
<path d="M6.4320 9.6750
L6.4340 9.6750
" />
<path d="M6.4320 9.6750
L6.4340 9.6750
" />
<path d="M6.4320 9.6750
L6.4340 9.6750
" />
<path d="M6.4340 7.1750
L6.4370 7.1740
" />
<path d="M6.4340 7.1750
L6.4370 7.1740
" />
<path d="M6.4340 7.6760
L6.4370 7.6770
" />
<path d="M6.4340 7.6760
L6.4370 7.6770
" />
<path d="M6.4340 9.1750
L6.4370 9.1740
" />
<path d="M6.4340 9.6750
L6.4370 9.6760
" />
<path d="M6.4340 9.6750
L6.4370 9.6760
" />
<path d="M6.4340 9.6750
L6.4370 9.6760
" />
<path d="M6.4340 9.6750
L6.4370 9.6760
" />
<path d="M6.4370 7.1740
L6.4390 7.1740
" />
<path d="M6.4370 7.1740
L6.4390 7.1740
" />
<path d="M6.4370 7.6770
L6.4390 7.6770
" />
<path d="M6.4370 7.6770
L6.4390 7.6770
" />
<path d="M6.4370 9.1740
L6.4390 9.1740
" />
<path d="M6.4370 9.6760
L6.4390 9.6760
" />
<path d="M6.4370 9.6760
L6.4390 9.6760
" />
<path d="M6.4370 9.6760
L6.4390 9.6760
" />
<path d="M6.4370 9.6760
L6.4390 9.6760
" />
<path d="M6.4390 7.1740
L6.4410 7.1730
" />
<path d="M6.4390 7.1740
L6.4410 7.1730
" />
<path d="M6.4390 7.6770
L6.4410 7.6780
" />
<path d="M6.4390 7.6770
L6.4410 7.6780
" />
<path d="M6.4390 9.1740
L6.4410 9.1730
" />
<path d="M6.4390 9.6760
L6.4410 9.6770
" />
<path d="M6.4390 9.6760
L6.4410 9.6770
" />
<path d="M6.4390 9.6760
L6.4410 9.6770
" />
<path d="M6.4390 9.6760
L6.4410 9.6770
" />
<path d="M6.4410 7.1730
L6.4430 7.1720
" />
<path d="M6.4410 7.1730
L6.4430 7.1720
" />
<path d="M6.4410 7.6780
L6.4430 7.6790
" />
<path d="M6.4410 7.6780
L6.4430 7.6790
" />
<path d="M6.4410 9.1730
L6.4430 9.1720
" />
<path d="M6.4410 9.6770
L6.4430 9.6780
" />
<path d="M6.4410 9.6770
L6.4430 9.6780
" />
<path d="M6.4410 9.6770
L6.4430 9.6780
" />
<path d="M6.4410 9.6770
L6.4430 9.6780
" />
<path d="M6.4430 7.1720
L6.4460 7.1710
" />
<path d="M6.4430 7.1720
L6.4460 7.1710
" />
<path d="M6.4430 7.6790
L6.4460 7.6800
" />
<path d="M6.4430 7.6790
L6.4460 7.6800
" />
<path d="M6.4430 9.1720
L6.4460 9.1710
" />
<path d="M6.4430 9.6780
L6.4460 9.6790
" />
<path d="M6.4430 9.6780
L6.4460 9.6790
" />
<path d="M6.4430 9.6780
L6.4460 9.6790
" />
<path d="M6.4430 9.6780
L6.4460 9.6790
" />
<path d="M6.4460 7.1710
L6.4480 7.1700
" />
<path d="M6.4460 7.1710
L6.4480 7.1700
" />
<path d="M6.4460 7.6800
L6.4480 7.6810
" />
<path d="M6.4460 7.6800
L6.4480 7.6810
" />
<path d="M6.4460 9.1710
L6.4480 9.1700
" />
<path d="M6.4460 9.6790
L6.4480 9.6800
" />
<path d="M6.4460 9.6790
L6.4480 9.6800
" />
<path d="M6.4460 9.6790
L6.4480 9.6800
" />
<path d="M6.4460 9.6790
L6.4480 9.6800
" />
<path d="M6.4480 7.1700
L6.4500 7.1690
" />
<path d="M6.4480 7.1700
L6.4500 7.1690
" />
<path d="M6.4480 7.6810
L6.4500 7.6820
" />
<path d="M6.4480 7.6810
L6.4500 7.6820
" />
<path d="M6.4480 9.1700
L6.4500 9.1690
" />
<path d="M6.4480 9.6800
L6.4500 9.6810
" />
<path d="M6.4480 9.6800
L6.4500 9.6810
" />
<path d="M6.4480 9.6800
L6.4500 9.6810
" />
<path d="M6.4480 9.6800
L6.4500 9.6810
" />
<path d="M6.4500 7.1690
L6.4520 7.1670
" />
<path d="M6.4500 7.1690
L6.4520 7.1670
" />
<path d="M6.4500 7.6820
L6.4520 7.6840
" />
<path d="M6.4500 7.6820
L6.4520 7.6840
" />
<path d="M6.4500 9.1690
L6.4520 9.1670
" />
<path d="M6.4500 9.6810
L6.4520 9.6830
" />
<path d="M6.4500 9.6810
L6.4520 9.6830
" />
<path d="M6.4500 9.6810
L6.4520 9.6830
" />
<path d="M6.4500 9.6810
L6.4520 9.6830
" />
<path d="M6.4520 7.1670
L6.4540 7.1660
" />
<path d="M6.4520 7.1670
L6.4540 7.1660
" />
<path d="M6.4520 7.6840
L6.4540 7.6850
" />
<path d="M6.4520 7.6840
L6.4540 7.6850
" />
<path d="M6.4520 9.1670
L6.4540 9.1660
" />
<path d="M6.4520 9.6830
L6.4540 9.6840
" />
<path d="M6.4520 9.6830
L6.4540 9.6840
" />
<path d="M6.4520 9.6830
L6.4540 9.6840
" />
<path d="M6.4520 9.6830
L6.4540 9.6840
" />
<path d="M6.4540 7.1660
L6.4560 7.1640
" />
<path d="M6.4540 7.1660
L6.4560 7.1640
" />
<path d="M6.4540 7.6850
L6.4560 7.6870
" />
<path d="M6.4540 7.6850
L6.4560 7.6870
" />
<path d="M6.4540 9.1660
L6.4560 9.1640
" />
<path d="M6.4540 9.6840
L6.4560 9.6860
" />
<path d="M6.4540 9.6840
L6.4560 9.6860
" />
<path d="M6.4540 9.6840
L6.4560 9.6860
" />
<path d="M6.4540 9.6840
L6.4560 9.6860
" />
<path d="M6.4560 7.1640
L6.4580 7.1630
" />
<path d="M6.4560 7.1640
L6.4580 7.1630
" />
<path d="M6.4560 7.6870
L6.4580 7.6880
" />
<path d="M6.4560 7.6870
L6.4580 7.6880
" />
<path d="M6.4560 9.1640
L6.4580 9.1630
" />
<path d="M6.4560 9.6860
L6.4580 9.6870
" />
<path d="M6.4560 9.6860
L6.4580 9.6870
" />
<path d="M6.4560 9.6860
L6.4580 9.6870
" />
<path d="M6.4560 9.6860
L6.4580 9.6870
" />
<path d="M6.4580 7.1630
L6.4600 7.1610
" />
<path d="M6.4580 7.1630
L6.4600 7.1610
" />
<path d="M6.4580 7.6880
L6.4600 7.6900
" />
<path d="M6.4580 7.6880
L6.4600 7.6900
" />
<path d="M6.4580 9.1630
L6.4600 9.1610
" />
<path d="M6.4580 9.6870
L6.4600 9.6890
" />
<path d="M6.4580 9.6870
L6.4600 9.6890
" />
<path d="M6.4580 9.6870
L6.4600 9.6890
" />
<path d="M6.4580 9.6870
L6.4600 9.6890
" />
<path d="M6.4600 7.1610
L6.4610 7.1590
" />
<path d="M6.4600 7.1610
L6.4610 7.1590
" />
<path d="M6.4600 7.6900
L6.4610 7.6920
" />
<path d="M6.4600 7.6900
L6.4610 7.6920
" />
<path d="M6.4600 9.1610
L6.4610 9.1590
" />
<path d="M6.4600 9.6890
L6.4610 9.6910
" />
<path d="M6.4600 9.6890
L6.4610 9.6910
" />
<path d="M6.4600 9.6890
L6.4610 9.6910
" />
<path d="M6.4600 9.6890
L6.4610 9.6910
" />
<path d="M6.4610 7.1590
L6.4630 7.1570
" />
<path d="M6.4610 7.1590
L6.4630 7.1570
" />
<path d="M6.4610 7.6920
L6.4630 7.6940
" />
<path d="M6.4610 7.6920
L6.4630 7.6940
" />
<path d="M6.4610 9.1590
L6.4630 9.1570
" />
<path d="M6.4610 9.6910
L6.4630 9.6930
" />
<path d="M6.4610 9.6910
L6.4630 9.6930
" />
<path d="M6.4610 9.6910
L6.4630 9.6930
" />
<path d="M6.4610 9.6910
L6.4630 9.6930
" />
<path d="M6.4630 7.1570
L6.4640 7.1550
" />
<path d="M6.4630 7.1570
L6.4640 7.1550
" />
<path d="M6.4630 7.6940
L6.4640 7.6960
" />
<path d="M6.4630 7.6940
L6.4640 7.6960
" />
<path d="M6.4630 9.1570
L6.4640 9.1550
" />
<path d="M6.4630 9.6930
L6.4640 9.6950
" />
<path d="M6.4630 9.6930
L6.4640 9.6950
" />
<path d="M6.4630 9.6930
L6.4640 9.6950
" />
<path d="M6.4630 9.6930
L6.4640 9.6950
" />
<path d="M6.4640 7.1550
L6.4660 7.1530
" />
<path d="M6.4640 7.1550
L6.4660 7.1530
" />
<path d="M6.4640 7.6960
L6.4660 7.6980
" />
<path d="M6.4640 7.6960
L6.4660 7.6980
" />
<path d="M6.4640 9.1550
L6.4660 9.1530
" />
<path d="M6.4640 9.6950
L6.4660 9.6970
" />
<path d="M6.4640 9.6950
L6.4660 9.6970
" />
<path d="M6.4640 9.6950
L6.4660 9.6970
" />
<path d="M6.4640 9.6950
L6.4660 9.6970
" />
<path d="M6.4660 7.1530
L6.4670 7.1510
" />
<path d="M6.4660 7.1530
L6.4670 7.1510
" />
<path d="M6.4660 7.6980
L6.4670 7.7000
" />
<path d="M6.4660 7.6980
L6.4670 7.7000
" />
<path d="M6.4660 9.1530
L6.4670 9.1510
" />
<path d="M6.4660 9.6970
L6.4670 9.6990
" />
<path d="M6.4660 9.6970
L6.4670 9.6990
" />
<path d="M6.4660 9.6970
L6.4670 9.6990
" />
<path d="M6.4660 9.6970
L6.4670 9.6990
" />
<path d="M6.4670 7.1510
L6.4680 7.1490
" />
<path d="M6.4670 7.1510
L6.4680 7.1490
" />
<path d="M6.4670 7.7000
L6.4680 7.7020
" />
<path d="M6.4670 7.7000
L6.4680 7.7020
" />
<path d="M6.4670 9.1510
L6.4680 9.1490
" />
<path d="M6.4670 9.6990
L6.4680 9.7010
" />
<path d="M6.4670 9.6990
L6.4680 9.7010
" />
<path d="M6.4670 9.6990
L6.4680 9.7010
" />
<path d="M6.4670 9.6990
L6.4680 9.7010
" />
<path d="M6.4680 7.1490
L6.4700 7.1470
" />
<path d="M6.4680 7.1490
L6.4700 7.1470
" />
<path d="M6.4680 7.7020
L6.4700 7.7040
" />
<path d="M6.4680 7.7020
L6.4700 7.7040
" />
<path d="M6.4680 9.1490
L6.4700 9.1470
" />
<path d="M6.4680 9.7010
L6.4700 9.7030
" />
<path d="M6.4680 9.7010
L6.4700 9.7030
" />
<path d="M6.4680 9.7010
L6.4700 9.7030
" />
<path d="M6.4680 9.7010
L6.4700 9.7030
" />
<path d="M6.4700 7.1470
L6.4710 7.1450
" />
<path d="M6.4700 7.1470
L6.4710 7.1450
" />
<path d="M6.4700 7.7040
L6.4710 7.7060
" />
<path d="M6.4700 7.7040
L6.4710 7.7060
" />
<path d="M6.4700 9.1470
L6.4710 9.1450
" />
<path d="M6.4700 9.7030
L6.4710 9.7050
" />
<path d="M6.4700 9.7030
L6.4710 9.7050
" />
<path d="M6.4700 9.7030
L6.4710 9.7050
" />
<path d="M6.4700 9.7030
L6.4710 9.7050
" />
<path d="M6.4710 7.1450
L6.4720 7.1430
" />
<path d="M6.4710 7.1450
L6.4720 7.1430
" />
<path d="M6.4710 7.7060
L6.4720 7.7080
" />
<path d="M6.4710 7.7060
L6.4720 7.7080
" />
<path d="M6.4710 9.1450
L6.4720 9.1430
" />
<path d="M6.4710 9.7050
L6.4720 9.7070
" />
<path d="M6.4710 9.7050
L6.4720 9.7070
" />
<path d="M6.4710 9.7050
L6.4720 9.7070
" />
<path d="M6.4710 9.7050
L6.4720 9.7070
" />
<path d="M6.4720 7.1400
L6.4730 7.1380
" />
<path d="M6.4720 7.1400
L6.4730 7.1380
" />
<path d="M6.4720 7.1430
L6.4720 7.1400
" />
<path d="M6.4720 7.1430
L6.4720 7.1400
" />
<path d="M6.4720 7.7080
L6.4720 7.7110
" />
<path d="M6.4720 7.7080
L6.4720 7.7110
" />
<path d="M6.4720 7.7110
L6.4730 7.7130
" />
<path d="M6.4720 7.7110
L6.4730 7.7130
" />
<path d="M6.4720 9.1400
L6.4730 9.1380
" />
<path d="M6.4720 9.1430
L6.4720 9.1400
" />
<path d="M6.4720 9.7070
L6.4720 9.7100
" />
<path d="M6.4720 9.7070
L6.4720 9.7100
" />
<path d="M6.4720 9.7070
L6.4720 9.7100
" />
<path d="M6.4720 9.7070
L6.4720 9.7100
" />
<path d="M6.4720 9.7100
L6.4730 9.7120
" />
<path d="M6.4720 9.7100
L6.4730 9.7120
" />
<path d="M6.4720 9.7100
L6.4730 9.7120
" />
<path d="M6.4720 9.7100
L6.4730 9.7120
" />
<path d="M6.4730 7.1380
L6.4740 7.1350
" />
<path d="M6.4730 7.1380
L6.4740 7.1350
" />
<path d="M6.4730 7.7130
L6.4740 7.7160
" />
<path d="M6.4730 7.7130
L6.4740 7.7160
" />
<path d="M6.4730 9.1380
L6.4740 9.1350
" />
<path d="M6.4730 9.7120
L6.4740 9.7150
" />
<path d="M6.4730 9.7120
L6.4740 9.7150
" />
<path d="M6.4730 9.7120
L6.4740 9.7150
" />
<path d="M6.4730 9.7120
L6.4740 9.7150
" />
<path d="M6.4740 1.0250
L6.4740 1.2250
" />
<path d="M6.4740 1.0250
L6.5250 1.0250
" />
<path d="M6.4740 1.2750
L6.4740 1.2250
" />
<path d="M6.4740 1.2750
L6.4740 10.1750
" />
<path d="M6.4740 7.1280
L6.4740 7.1250
" />
<path d="M6.4740 7.1280
L6.4740 7.1250
" />
<path d="M6.4740 7.1310
L6.4740 7.1280
" />
<path d="M6.4740 7.1310
L6.4740 7.1280
" />
<path d="M6.4740 7.1330
L6.4740 7.1310
" />
<path d="M6.4740 7.1330
L6.4740 7.1310
" />
<path d="M6.4740 7.1350
L6.4740 7.1330
" />
<path d="M6.4740 7.1350
L6.4740 7.1330
" />
<path d="M6.4740 7.7160
L6.4740 7.7180
" />
<path d="M6.4740 7.7160
L6.4740 7.7180
" />
<path d="M6.4740 7.7180
L6.4740 7.7200
" />
<path d="M6.4740 7.7180
L6.4740 7.7200
" />
<path d="M6.4740 7.7200
L6.4740 7.7230
" />
<path d="M6.4740 7.7200
L6.4740 7.7230
" />
<path d="M6.4740 7.7230
L6.4740 7.7250
" />
<path d="M6.4740 7.7230
L6.4740 7.7250
" />
<path d="M6.4740 8.9750
L6.6750 8.9750
" />
<path d="M6.4740 9.1280
L6.4740 9.1250
" />
<path d="M6.4740 9.1310
L6.4740 9.1280
" />
<path d="M6.4740 9.1330
L6.4740 9.1310
" />
<path d="M6.4740 9.1350
L6.4740 9.1330
" />
<path d="M6.4740 9.7150
L6.4740 9.7170
" />
<path d="M6.4740 9.7150
L6.4740 9.7170
" />
<path d="M6.4740 9.7150
L6.4740 9.7170
" />
<path d="M6.4740 9.7150
L6.4740 9.7170
" />
<path d="M6.4740 9.7170
L6.4740 9.7190
" />
<path d="M6.4740 9.7170
L6.4740 9.7190
" />
<path d="M6.4740 9.7170
L6.4740 9.7190
" />
<path d="M6.4740 9.7170
L6.4740 9.7190
" />
<path d="M6.4740 9.7190
L6.4740 9.7220
" />
<path d="M6.4740 9.7190
L6.4740 9.7220
" />
<path d="M6.4740 9.7190
L6.4740 9.7220
" />
<path d="M6.4740 9.7190
L6.4740 9.7220
" />
<path d="M6.4740 9.7220
L6.4740 9.7250
" />
<path d="M6.4740 9.7220
L6.4740 9.7250
" />
<path d="M6.4740 9.7220
L6.4740 9.7250
" />
<path d="M6.4740 9.7220
L6.4740 9.7250
" />
<path d="M6.4740 10.1750
L6.3620 10.1750
" />
<path d="M6.4810 1.7790
L6.4740 1.7750
" />
<path d="M6.4870 1.7830
L6.4810 1.7790
" />
<path d="M6.4940 1.7870
L6.4870 1.7830
" />
<path d="M6.5000 1.7910
L6.4940 1.7870
" />
<path d="M6.5060 1.7950
L6.5000 1.7910
" />
<path d="M6.5120 1.8000
L6.5060 1.7950
" />
<path d="M6.5180 1.8040
L6.5120 1.8000
" />
<path d="M6.5250 0.8250
L6.5250 2.6250
" />
<path d="M6.5250 1.8090
L6.5180 1.8040
" />
<path d="M6.5250 2.5250
L6.4740 2.5250
" />
<path d="M6.5250 2.9790
L6.5250 2.6250
" />
</g>
<g style="fill:#000000; fill-opacity:0.0000; stroke:none;">
<circle cx="6.5250" cy="2.9790" r="0.0100" /> 
</g>
<g style="fill:none; 
stroke:#000000; stroke-width:0.0200; stroke-opacity:1; 
stroke-linecap:round; stroke-linejoin:round;">
<path d="M6.5250 3.1250
L6.5250 2.9790
" />
<path d="M6.5390 0.5260
L6.5250 0.5250
" />
<path d="M6.5540 0.5270
L6.5390 0.5260
" />
<path d="M6.5690 0.5290
L6.5540 0.5270
" />
<path d="M6.5830 0.5310
L6.5690 0.5290
" />
<path d="M6.5980 0.5350
L6.5830 0.5310
" />
<path d="M6.6120 0.5380
L6.5980 0.5350
" />
<path d="M6.6260 0.5430
L6.6120 0.5380
" />
<path d="M6.6390 0.5480
L6.6260 0.5430
" />
<path d="M6.6530 0.5540
L6.6390 0.5480
" />
<path d="M6.6660 0.5610
L6.6530 0.5540
" />
<path d="M6.6750 10.1750
L6.4740 10.1750
" />
<path d="M6.6750 10.1750
L7.2290 10.1750
" />
<path d="M6.6790 0.5680
L6.6660 0.5610
" />
<path d="M6.6910 0.5760
L6.6790 0.5680
" />
<path d="M6.7030 0.5840
L6.6910 0.5760
" />
<path d="M6.7150 0.5930
L6.7030 0.5840
" />
<path d="M6.7260 0.6030
L6.7150 0.5930
" />
<path d="M6.7370 0.6130
L6.7260 0.6030
" />
</g>
<g style="fill:#000000; fill-opacity:0.0000; stroke:none;">
<circle cx="6.7370" cy="0.6130" r="0.0100" /> 
</g>
<g style="fill:none; 
stroke:#000000; stroke-width:0.0200; stroke-opacity:1; 
stroke-linecap:round; stroke-linejoin:round;">
<path d="M6.7470 0.6240
L6.7370 0.6130
" />
<path d="M6.7570 0.6350
L6.7470 0.6240
" />
<path d="M6.7660 0.6470
L6.7570 0.6350
" />
<path d="M6.7740 0.6590
L6.7660 0.6470
" />
<path d="M6.7820 0.6710
L6.7740 0.6590
" />
<path d="M6.7890 0.6840
L6.7820 0.6710
" />
<path d="M6.7960 0.6970
L6.7890 0.6840
" />
<path d="M6.8020 0.7110
L6.7960 0.6970
" />
<path d="M6.8070 0.7240
L6.8020 0.7110
" />
<path d="M6.8120 0.7380
L6.8070 0.7240
" />
<path d="M6.8150 0.7520
L6.8120 0.7380
" />
<path d="M6.8190 0.7670
L6.8150 0.7520
" />
<path d="M6.8210 0.7810
L6.8190 0.7670
" />
<path d="M6.8230 0.7960
L6.8210 0.7810
" />
<path d="M6.8240 0.8110
L6.8230 0.7960
" />
<path d="M6.8250 0.8250
L6.8240 0.8110
" />
<path d="M6.8250 0.8250
L6.8250 2.6250
" />
<path d="M6.8250 1.0250
L7.2290 1.0250
" />
<path d="M6.8250 2.2250
L7.2290 2.2250
" />
<path d="M6.8250 2.6250
L6.8250 2.9790
" />
</g>
<g style="fill:#000000; fill-opacity:0.0000; stroke:none;">
<circle cx="6.8250" cy="2.9790" r="0.0100" /> 
</g>
<g style="fill:none; 
stroke:#000000; stroke-width:0.0200; stroke-opacity:1; 
stroke-linecap:round; stroke-linejoin:round;">
<path d="M6.8250 2.9790
L6.8250 3.1250
" />
<path d="M6.8250 3.1250
L6.5250 3.1250
" />
<path d="M7.2290 1.0250
L7.5830 1.0250
" />
<path d="M7.2290 8.9750
L6.6750 8.9750
" />
<path d="M7.2290 8.9750
L7.5830 8.9750
" />
</g>
<g style="fill:#000000; fill-opacity:0.0000; stroke:none;">
<circle cx="7.5830" cy="1.0250" r="0.0100" /> 
</g>
<g style="fill:none; 
stroke:#000000; stroke-width:0.0200; stroke-opacity:1; 
stroke-linecap:round; stroke-linejoin:round;">
<path d="M7.5830 1.0250
L7.7290 1.0250
" />
<path d="M7.5830 2.2250
L7.2290 2.2250
" />
</g>
<g style="fill:#000000; fill-opacity:0.0000; stroke:none;">
<circle cx="7.5830" cy="2.2250" r="0.0100" /> 
<circle cx="7.5830" cy="8.9750" r="0.0100" /> 
</g>
<g style="fill:none; 
stroke:#000000; stroke-width:0.0200; stroke-opacity:1; 
stroke-linecap:round; stroke-linejoin:round;">
<path d="M7.5830 8.9750
L7.7290 8.9750
" />
<path d="M7.5830 10.1750
L7.2290 10.1750
" />
</g>
<g style="fill:#000000; fill-opacity:0.0000; stroke:none;">
<circle cx="7.5830" cy="10.1750" r="0.0100" /> 
</g>
<g style="fill:none; 
stroke:#000000; stroke-width:0.0200; stroke-opacity:1; 
stroke-linecap:round; stroke-linejoin:round;">
<path d="M7.7290 1.0250
L7.7290 2.2250
" />
<path d="M7.7290 2.2250
L7.5830 2.2250
" />
<path d="M7.7290 8.9750
L7.7290 10.1750
" />
<path d="M7.7290 10.1750
L7.5830 10.1750
" />
</g> 
</svg>
