<?xml version="1.0" standalone="no"?>
 <!DOCTYPE svg PUBLIC "-//W3C//DTD SVG 1.1//EN" 
 "http://www.w3.org/Graphics/SVG/1.1/DTD/svg11.dtd"> 
<svg
  xmlns:svg="http://www.w3.org/2000/svg"
  xmlns="http://www.w3.org/2000/svg"
  xmlns:xlink="http://www.w3.org/1999/xlink"
  version="1.1"
  width="23.0886mm" height="23.0886mm" viewBox="0.0000 0.0000 23.0886 23.0886">
<title>SVG Image created as outline.svg date 2024/10/22 15:51:07 </title>
  <desc>Image generated by PCBNEW </desc>
<g style="fill:#000000; fill-opacity:0.0000;stroke:#000000; stroke-opacity:1.0000;
stroke-linecap:round; stroke-linejoin:round;"
 transform="translate(0 0) scale(1 1)">
</g>
<g style="fill:#000000; fill-opacity:0.0; 
stroke:#000000; stroke-width:0.0000; stroke-opacity:1; 
stroke-linecap:round; stroke-linejoin:round;">
</g>
<g style="fill:#000000; fill-opacity:0.0000; 
stroke:#000000; stroke-width:0.0212; stroke-opacity:1; 
stroke-linecap:round; stroke-linejoin:round;">
<rect x="-5.000000" y="-5.000000" width="33.100000" height="33.100000" rx="0.000000" />
</g>
<g style="fill:#FFFFFF; fill-opacity:0.0000; 
stroke:#FFFFFF; stroke-width:0.0212; stroke-opacity:1; 
stroke-linecap:round; stroke-linejoin:round;">
</g>
<g style="fill:#FFFFFF; fill-opacity:0.0000; 
stroke:#FFFFFF; stroke-width:0.1000; stroke-opacity:1; 
stroke-linecap:round; stroke-linejoin:round;">
</g>
<g style="fill:#FFFFFF; fill-opacity:0.0; 
stroke:#FFFFFF; stroke-width:0.1000; stroke-opacity:1; 
stroke-linecap:round; stroke-linejoin:round;">
<path d="M0.0500 0.0500
L0.0500 1.1908
" />
<path d="M0.0500 1.1908
L1.3000 2.2397
" />
<path d="M0.0500 1.1908
L1.3000 2.2397
" />
<path d="M0.0500 22.5500
L0.0500 1.1908
" />
<path d="M0.1103 22.5536
L0.0500 22.5500
" />
<path d="M0.1697 22.5645
L0.1103 22.5536
" />
<path d="M0.2273 22.5825
L0.1697 22.5645
" />
<path d="M0.2824 22.6073
L0.2273 22.5825
" />
<path d="M0.3340 22.6385
L0.2824 22.6073
" />
<path d="M0.3816 22.6757
L0.3340 22.6385
" />
<path d="M0.4243 22.7184
L0.3816 22.6757
" />
<path d="M0.4615 22.7660
L0.4243 22.7184
" />
<path d="M0.4927 22.8176
L0.4615 22.7660
" />
<path d="M0.5175 22.8727
L0.4927 22.8176
" />
<path d="M0.5355 22.9303
L0.5175 22.8727
" />
<path d="M0.5464 22.9897
L0.5355 22.9303
" />
<path d="M0.5500 23.0500
L0.5464 22.9897
" />
<path d="M1.1908 0.0500
L0.0500 0.0500
" />
<path d="M1.1908 0.0500
L22.5500 0.0500
" />
<path d="M1.3000 2.2397
L1.3000 20.8603
" />
<path d="M1.3000 2.2397
L2.0506 2.5506
" />
<path d="M1.3000 2.2397
L2.2397 1.3000
" />
<path d="M1.3000 20.8603
L2.0506 20.5494
" />
<path d="M1.3000 20.8603
L2.2397 21.8000
" />
<path d="M2.0506 2.5506
L2.0506 20.5494
" />
<path d="M2.0506 20.5494
L2.5506 21.0494
" />
<path d="M2.2397 1.3000
L1.1908 0.0500
" />
<path d="M2.2397 1.3000
L1.1908 0.0500
" />
<path d="M2.2397 1.3000
L1.3000 2.2397
" />
<path d="M2.2397 1.3000
L2.5506 2.0506
" />
<path d="M2.2397 21.8000
L2.5506 21.0494
" />
<path d="M2.2397 21.8000
L20.8603 21.8000
" />
<path d="M2.5506 2.0506
L2.0506 2.5506
" />
<path d="M2.5506 21.0494
L20.5494 21.0494
" />
<path d="M3.5515 4.0192
L3.5515 4.0819
" />
<path d="M3.5515 4.0192
L3.5515 4.0819
" />
<path d="M3.5515 4.0819
L3.5594 4.1442
" />
<path d="M3.5515 4.0819
L3.5594 4.1442
" />
<path d="M3.5594 3.9569
L3.5515 4.0192
" />
<path d="M3.5594 3.9569
L3.5515 4.0192
" />
<path d="M3.5594 4.1442
L3.5750 4.2051
" />
<path d="M3.5594 4.1442
L3.5750 4.2051
" />
<path d="M3.5750 3.8960
L3.5594 3.9569
" />
<path d="M3.5750 3.8960
L3.5594 3.9569
" />
<path d="M3.5750 4.2051
L3.5981 4.2634
" />
<path d="M3.5750 4.2051
L3.5981 4.2634
" />
<path d="M3.5981 3.8377
L3.5750 3.8960
" />
<path d="M3.5981 3.8377
L3.5750 3.8960
" />
<path d="M3.5981 4.2634
L3.6284 4.3185
" />
<path d="M3.5981 4.2634
L3.6284 4.3185
" />
<path d="M3.6284 3.7826
L3.5981 3.8377
" />
<path d="M3.6284 3.7826
L3.5981 3.8377
" />
<path d="M3.6284 4.3185
L3.6653 4.3693
" />
<path d="M3.6284 4.3185
L3.6653 4.3693
" />
<path d="M3.6653 3.7318
L3.6284 3.7826
" />
<path d="M3.6653 3.7318
L3.6284 3.7826
" />
<path d="M3.6653 4.3693
L3.7083 4.4150
" />
<path d="M3.6653 4.3693
L3.7083 4.4150
" />
<path d="M3.7083 3.6861
L3.6653 3.7318
" />
<path d="M3.7083 3.6861
L3.6653 3.7318
" />
<path d="M3.7083 4.4150
L3.7567 4.4551
" />
<path d="M3.7083 4.4150
L3.7567 4.4551
" />
<path d="M3.7567 3.6460
L3.7083 3.6861
" />
<path d="M3.7567 3.6460
L3.7083 3.6861
" />
<path d="M3.7567 4.4551
L3.8097 4.4887
" />
<path d="M3.7567 4.4551
L3.8097 4.4887
" />
<path d="M3.8097 3.6124
L3.7567 3.6460
" />
<path d="M3.8097 3.6124
L3.7567 3.6460
" />
<path d="M3.8097 4.4887
L3.8665 4.5154
" />
<path d="M3.8097 4.4887
L3.8665 4.5154
" />
<path d="M3.8665 3.5857
L3.8097 3.6124
" />
<path d="M3.8665 3.5857
L3.8097 3.6124
" />
<path d="M3.8665 4.5154
L3.9262 4.5348
" />
<path d="M3.8665 4.5154
L3.9262 4.5348
" />
<path d="M3.9262 3.5663
L3.8665 3.5857
" />
<path d="M3.9262 3.5663
L3.8665 3.5857
" />
<path d="M3.9262 4.5348
L3.9879 4.5466
" />
<path d="M3.9262 4.5348
L3.9879 4.5466
" />
<path d="M3.9879 3.5545
L3.9262 3.5663
" />
<path d="M3.9879 3.5545
L3.9262 3.5663
" />
<path d="M3.9879 4.5466
L4.0506 4.5506
" />
<path d="M3.9879 4.5466
L4.0506 4.5506
" />
<path d="M4.0506 3.5506
L3.9879 3.5545
" />
<path d="M4.0506 3.5506
L3.9879 3.5545
" />
<path d="M4.0506 4.5506
L4.1132 4.5466
" />
<path d="M4.0506 4.5506
L4.1132 4.5466
" />
<path d="M4.1132 3.5545
L4.0506 3.5506
" />
<path d="M4.1132 3.5545
L4.0506 3.5506
" />
<path d="M4.1132 4.5466
L4.1749 4.5348
" />
<path d="M4.1132 4.5466
L4.1749 4.5348
" />
<path d="M4.1749 3.5663
L4.1132 3.5545
" />
<path d="M4.1749 3.5663
L4.1132 3.5545
" />
<path d="M4.1749 4.5348
L4.2346 4.5154
" />
<path d="M4.1749 4.5348
L4.2346 4.5154
" />
<path d="M4.2346 3.5857
L4.1749 3.5663
" />
<path d="M4.2346 3.5857
L4.1749 3.5663
" />
<path d="M4.2346 4.5154
L4.2914 4.4887
" />
<path d="M4.2346 4.5154
L4.2914 4.4887
" />
<path d="M4.2914 3.6124
L4.2346 3.5857
" />
<path d="M4.2914 3.6124
L4.2346 3.5857
" />
<path d="M4.2914 4.4887
L4.3444 4.4551
" />
<path d="M4.2914 4.4887
L4.3444 4.4551
" />
<path d="M4.3444 3.6460
L4.2914 3.6124
" />
<path d="M4.3444 3.6460
L4.2914 3.6124
" />
<path d="M4.3444 4.4551
L4.3928 4.4150
" />
<path d="M4.3444 4.4551
L4.3928 4.4150
" />
<path d="M4.3928 3.6861
L4.3444 3.6460
" />
<path d="M4.3928 3.6861
L4.3444 3.6460
" />
<path d="M4.3928 4.4150
L4.4358 4.3693
" />
<path d="M4.3928 4.4150
L4.4358 4.3693
" />
<path d="M4.4358 3.7318
L4.3928 3.6861
" />
<path d="M4.4358 3.7318
L4.3928 3.6861
" />
<path d="M4.4358 4.3693
L4.4727 4.3185
" />
<path d="M4.4358 4.3693
L4.4727 4.3185
" />
<path d="M4.4727 3.7826
L4.4358 3.7318
" />
<path d="M4.4727 3.7826
L4.4358 3.7318
" />
<path d="M4.4727 4.3185
L4.5030 4.2634
" />
<path d="M4.4727 4.3185
L4.5030 4.2634
" />
<path d="M4.5030 3.8377
L4.4727 3.7826
" />
<path d="M4.5030 3.8377
L4.4727 3.7826
" />
<path d="M4.5030 4.2634
L4.5261 4.2051
" />
<path d="M4.5030 4.2634
L4.5261 4.2051
" />
<path d="M4.5261 3.8960
L4.5030 3.8377
" />
<path d="M4.5261 3.8960
L4.5030 3.8377
" />
<path d="M4.5261 4.2051
L4.5417 4.1442
" />
<path d="M4.5261 4.2051
L4.5417 4.1442
" />
<path d="M4.5417 3.9569
L4.5261 3.8960
" />
<path d="M4.5417 3.9569
L4.5261 3.8960
" />
<path d="M4.5417 4.1442
L4.5496 4.0819
" />
<path d="M4.5417 4.1442
L4.5496 4.0819
" />
<path d="M4.5496 4.0192
L4.5417 3.9569
" />
<path d="M4.5496 4.0192
L4.5417 3.9569
" />
<path d="M4.5496 4.0819
L4.5496 4.0192
" />
<path d="M4.5496 4.0819
L4.5496 4.0192
" />
<path d="M20.5494 2.0506
L2.5506 2.0506
" />
<path d="M20.5494 21.0494
L21.0494 20.5494
" />
<path d="M20.8603 1.3000
L2.2397 1.3000
" />
<path d="M20.8603 1.3000
L20.5494 2.0506
" />
<path d="M20.8603 21.8000
L20.5494 21.0494
" />
<path d="M20.8603 21.8000
L21.8000 20.8603
" />
<path d="M21.0494 2.5506
L20.5494 2.0506
" />
<path d="M21.0494 20.5494
L21.0494 2.5506
" />
<path d="M21.8000 2.2397
L20.8603 1.3000
" />
<path d="M21.8000 2.2397
L21.0494 2.5506
" />
<path d="M21.8000 20.8603
L21.0494 20.5494
" />
<path d="M21.8000 20.8603
L21.8000 2.2397
" />
<path d="M22.5500 0.0500
L22.5536 0.1103
" />
<path d="M22.5500 23.0500
L0.5500 23.0500
" />
<path d="M22.5536 0.1103
L22.5645 0.1697
" />
<path d="M22.5536 22.9897
L22.5500 23.0500
" />
<path d="M22.5645 0.1697
L22.5825 0.2273
" />
<path d="M22.5645 22.9303
L22.5536 22.9897
" />
<path d="M22.5825 0.2273
L22.6073 0.2824
" />
<path d="M22.5825 22.8727
L22.5645 22.9303
" />
<path d="M22.6073 0.2824
L22.6385 0.3340
" />
<path d="M22.6073 22.8176
L22.5825 22.8727
" />
<path d="M22.6385 0.3340
L22.6757 0.3816
" />
<path d="M22.6385 22.7660
L22.6073 22.8176
" />
<path d="M22.6757 0.3816
L22.7184 0.4243
" />
<path d="M22.6757 22.7184
L22.6385 22.7660
" />
<path d="M22.7184 0.4243
L22.7660 0.4615
" />
<path d="M22.7184 22.6757
L22.6757 22.7184
" />
<path d="M22.7660 0.4615
L22.8176 0.4927
" />
<path d="M22.7660 22.6385
L22.7184 22.6757
" />
<path d="M22.8176 0.4927
L22.8727 0.5175
" />
<path d="M22.8176 22.6073
L22.7660 22.6385
" />
<path d="M22.8727 0.5175
L22.9303 0.5355
" />
<path d="M22.8727 22.5825
L22.8176 22.6073
" />
<path d="M22.9303 0.5355
L22.9897 0.5464
" />
<path d="M22.9303 22.5645
L22.8727 22.5825
" />
<path d="M22.9897 0.5464
L23.0500 0.5500
" />
<path d="M22.9897 22.5536
L22.9303 22.5645
" />
<path d="M23.0500 0.5500
L23.0500 22.5500
" />
<path d="M23.0500 22.5500
L22.9897 22.5536
" />
<g >
</g>
<g >
</g>
<g >
</g>
<g >
</g>
</g> 
</svg>
