<?xml version="1.0" standalone="no"?>
 <!DOCTYPE svg PUBLIC "-//W3C//DTD SVG 1.1//EN" 
 "http://www.w3.org/Graphics/SVG/1.1/DTD/svg11.dtd"> 
<svg
  xmlns:svg="http://www.w3.org/2000/svg"
  xmlns="http://www.w3.org/2000/svg"
  xmlns:xlink="http://www.w3.org/1999/xlink"
  version="1.1"
  width="8.0264mm" height="5.5372mm" viewBox="0.0000 0.0000 8.0264 5.5372">
<title>SVG Image created as outline.svg date 2024/10/18 10:45:01 </title>
  <desc>Image generated by PCBNEW </desc>
<g style="fill:#000000; fill-opacity:0.0000;stroke:#000000; stroke-opacity:1.0000;
stroke-linecap:round; stroke-linejoin:round;"
 transform="translate(0 0) scale(1 1)">
</g>
<g style="fill:#000000; fill-opacity:0.0; 
stroke:#000000; stroke-width:0.0000; stroke-opacity:1; 
stroke-linecap:round; stroke-linejoin:round;">
</g>
<g style="fill:#000000; fill-opacity:0.0000; 
stroke:#000000; stroke-width:0.0212; stroke-opacity:1; 
stroke-linecap:round; stroke-linejoin:round;">
<rect x="-5.000000" y="-5.000000" width="18.040000" height="15.540000" rx="0.000000" />
</g>
<g style="fill:#FFFFFF; fill-opacity:0.0000; 
stroke:#FFFFFF; stroke-width:0.0212; stroke-opacity:1; 
stroke-linecap:round; stroke-linejoin:round;">
</g>
<g style="fill:#FFFFFF; fill-opacity:0.0000; 
stroke:#FFFFFF; stroke-width:0.0200; stroke-opacity:1; 
stroke-linecap:round; stroke-linejoin:round;">
</g>
<g style="fill:#FFFFFF; fill-opacity:0.0; 
stroke:#FFFFFF; stroke-width:0.0200; stroke-opacity:1; 
stroke-linecap:round; stroke-linejoin:round;">
<path d="M0.8230 0.3750
L0.8230 0.6250
" />
<path d="M0.8230 0.3750
L1.3270 0.3750
" />
<path d="M0.8230 1.0250
L0.8230 1.2750
" />
<path d="M0.8230 1.0250
L1.3270 1.0250
" />
<path d="M0.8230 1.6740
L0.8230 1.9250
" />
<path d="M0.8230 1.6740
L1.3270 1.6740
" />
<path d="M0.8230 2.3230
L0.8230 2.5730
" />
<path d="M0.8230 2.3230
L1.3270 2.3230
" />
<path d="M0.8230 2.9750
L0.8230 3.2250
" />
<path d="M0.8230 2.9750
L1.3270 2.9750
" />
<path d="M0.8230 3.6230
L0.8230 3.8750
" />
<path d="M0.8230 3.6230
L1.3270 3.6230
" />
<path d="M0.8230 4.2740
L0.8230 4.5240
" />
<path d="M0.8230 4.2740
L1.3270 4.2740
" />
<path d="M0.8230 4.9230
L0.8230 5.1730
" />
<path d="M0.8230 4.9230
L1.3270 4.9230
" />
<path d="M1.3270 0.3750
L1.3990 0.3750
" />
<path d="M1.3270 0.6250
L0.8230 0.6250
" />
<path d="M1.3270 1.0250
L1.3990 1.0250
" />
<path d="M1.3270 1.2750
L0.8230 1.2750
" />
<path d="M1.3270 1.6740
L1.3990 1.6740
" />
<path d="M1.3270 1.9250
L0.8230 1.9250
" />
<path d="M1.3270 2.3230
L1.3990 2.3230
" />
<path d="M1.3270 2.5730
L0.8230 2.5730
" />
<path d="M1.3270 2.9750
L1.3990 2.9750
" />
<path d="M1.3270 3.2250
L0.8230 3.2250
" />
<path d="M1.3270 3.6230
L1.3990 3.6230
" />
<path d="M1.3270 3.8750
L0.8230 3.8750
" />
<path d="M1.3270 4.2740
L1.3990 4.2740
" />
<path d="M1.3270 4.5240
L0.8230 4.5240
" />
<path d="M1.3270 4.9230
L1.3990 4.9230
" />
<path d="M1.3270 5.1730
L0.8230 5.1730
" />
<path d="M1.3990 0.3750
L1.5140 0.3750
" />
<path d="M1.3990 0.6250
L1.3270 0.6250
" />
<path d="M1.3990 1.0250
L1.5140 1.0250
" />
<path d="M1.3990 1.2750
L1.3270 1.2750
" />
<path d="M1.3990 1.6740
L1.5140 1.6740
" />
<path d="M1.3990 1.9250
L1.3270 1.9250
" />
<path d="M1.3990 2.3230
L1.5140 2.3230
" />
<path d="M1.3990 2.5730
L1.3270 2.5730
" />
<path d="M1.3990 2.9750
L1.5140 2.9750
" />
<path d="M1.3990 3.2250
L1.3270 3.2250
" />
<path d="M1.3990 3.6230
L1.5140 3.6230
" />
<path d="M1.3990 3.8750
L1.3270 3.8750
" />
<path d="M1.3990 4.2740
L1.5140 4.2740
" />
<path d="M1.3990 4.5240
L1.3270 4.5240
" />
<path d="M1.3990 4.9230
L1.5140 4.9230
" />
<path d="M1.3990 5.1730
L1.3270 5.1730
" />
<path d="M1.5140 0.6250
L1.3990 0.6250
" />
<path d="M1.5140 1.2750
L1.3990 1.2750
" />
<path d="M1.5140 1.9250
L1.3990 1.9250
" />
<path d="M1.5140 2.5730
L1.3990 2.5730
" />
<path d="M1.5140 3.2250
L1.3990 3.2250
" />
<path d="M1.5140 3.8750
L1.3990 3.8750
" />
<path d="M1.5140 4.5240
L1.3990 4.5240
" />
<path d="M1.5140 5.1730
L1.3990 5.1730
" />
<path d="M1.6590 0.3750
L1.5140 0.3750
" />
<path d="M1.6590 0.3750
L1.9240 0.3750
" />
<path d="M1.6590 0.6250
L1.5140 0.6250
" />
<path d="M1.6590 1.0250
L1.5140 1.0250
" />
<path d="M1.6590 1.0250
L1.9240 1.0250
" />
<path d="M1.6590 1.2750
L1.5140 1.2750
" />
<path d="M1.6590 1.6740
L1.5140 1.6740
" />
<path d="M1.6590 1.6740
L1.9240 1.6740
" />
<path d="M1.6590 1.9250
L1.5140 1.9250
" />
<path d="M1.6590 2.3230
L1.5140 2.3230
" />
<path d="M1.6590 2.3230
L1.9240 2.3230
" />
<path d="M1.6590 2.5730
L1.5140 2.5730
" />
<path d="M1.6590 2.9750
L1.5140 2.9750
" />
<path d="M1.6590 2.9750
L1.9240 2.9750
" />
<path d="M1.6590 3.2250
L1.5140 3.2250
" />
<path d="M1.6590 3.6230
L1.5140 3.6230
" />
<path d="M1.6590 3.6230
L1.9240 3.6230
" />
<path d="M1.6590 3.8750
L1.5140 3.8750
" />
<path d="M1.6590 4.2740
L1.5140 4.2740
" />
<path d="M1.6590 4.2740
L1.9240 4.2740
" />
<path d="M1.6590 4.5240
L1.5140 4.5240
" />
<path d="M1.6590 4.9230
L1.5140 4.9230
" />
<path d="M1.6590 4.9230
L1.9240 4.9230
" />
<path d="M1.6590 5.1730
L1.5140 5.1730
" />
<path d="M1.8230 0.2750
L1.9240 0.3750
" />
<path d="M1.8230 0.2750
L6.2250 0.2750
" />
<path d="M1.8230 0.3750
L1.8230 0.2750
" />
<path d="M1.8230 1.0250
L1.8230 0.6250
" />
<path d="M1.8230 1.6740
L1.8230 1.2750
" />
<path d="M1.8230 2.3230
L1.8230 1.9250
" />
<path d="M1.8230 2.9750
L1.8230 2.5730
" />
<path d="M1.8230 3.6230
L1.8230 3.2250
" />
<path d="M1.8230 4.2740
L1.8230 3.8750
" />
<path d="M1.8230 4.9230
L1.8230 4.5240
" />
<path d="M1.8230 5.2740
L1.8230 5.1730
" />
<path d="M1.8230 5.2740
L1.9240 5.1730
" />
<path d="M1.9240 0.3750
L6.1250 0.3750
" />
<path d="M1.9240 0.6250
L1.6590 0.6250
" />
<path d="M1.9240 1.2750
L1.6590 1.2750
" />
<path d="M1.9240 1.9250
L1.6590 1.9250
" />
<path d="M1.9240 2.5730
L1.6590 2.5730
" />
<path d="M1.9240 3.2250
L1.6590 3.2250
" />
<path d="M1.9240 3.8750
L1.6590 3.8750
" />
<path d="M1.9240 4.5240
L1.6590 4.5240
" />
<path d="M1.9240 5.1730
L1.6590 5.1730
" />
<path d="M1.9240 5.1730
L1.9240 0.3750
" />
<path d="M4.7580 4.6150
L4.7590 4.5930
" />
<path d="M4.7580 4.6150
L4.7590 4.5930
" />
<path d="M4.7590 4.5930
L4.7610 4.5710
" />
<path d="M4.7590 4.5930
L4.7610 4.5710
" />
<path d="M4.7590 4.6350
L4.7580 4.6150
" />
<path d="M4.7590 4.6350
L4.7580 4.6150
" />
<path d="M4.7610 4.5710
L4.7650 4.5500
" />
<path d="M4.7610 4.5710
L4.7650 4.5500
" />
<path d="M4.7610 4.6570
L4.7590 4.6350
" />
<path d="M4.7610 4.6570
L4.7590 4.6350
" />
<path d="M4.7650 4.5500
L4.7700 4.5300
" />
<path d="M4.7650 4.5500
L4.7700 4.5300
" />
<path d="M4.7650 4.6770
L4.7610 4.6570
" />
<path d="M4.7650 4.6770
L4.7610 4.6570
" />
<path d="M4.7700 4.5300
L4.7760 4.5080
" />
<path d="M4.7700 4.5300
L4.7760 4.5080
" />
<path d="M4.7700 4.6980
L4.7650 4.6770
" />
<path d="M4.7700 4.6980
L4.7650 4.6770
" />
<path d="M4.7760 4.5080
L4.7830 4.4880
" />
<path d="M4.7760 4.5080
L4.7830 4.4880
" />
<path d="M4.7760 4.7200
L4.7700 4.6980
" />
<path d="M4.7760 4.7200
L4.7700 4.6980
" />
<path d="M4.7830 4.4880
L4.7930 4.4680
" />
<path d="M4.7830 4.4880
L4.7930 4.4680
" />
<path d="M4.7830 4.7400
L4.7760 4.7200
" />
<path d="M4.7830 4.7400
L4.7760 4.7200
" />
<path d="M4.7930 4.4680
L4.8040 4.4500
" />
<path d="M4.7930 4.4680
L4.8040 4.4500
" />
<path d="M4.7930 4.7600
L4.7830 4.7400
" />
<path d="M4.7930 4.7600
L4.7830 4.7400
" />
</g>
<g style="fill:#FFFFFF; fill-opacity:0.0000; 
stroke:#FFFFFF; stroke-width:0.0000; stroke-opacity:1; 
stroke-linecap:round; stroke-linejoin:round;">
<circle cx="4.8040" cy="4.4500" r="0.0100" /> 
<circle cx="4.8040" cy="4.4500" r="0.0100" /> 
</g>
<g style="fill:#FFFFFF; fill-opacity:0.0000; 
stroke:#FFFFFF; stroke-width:0.0200; stroke-opacity:1; 
stroke-linecap:round; stroke-linejoin:round;">
</g>
<g style="fill:#FFFFFF; fill-opacity:0.0; 
stroke:#FFFFFF; stroke-width:0.0200; stroke-opacity:1; 
stroke-linecap:round; stroke-linejoin:round;">
<path d="M4.8040 4.4500
L4.8090 4.4400
" />
<path d="M4.8040 4.4500
L4.8090 4.4400
" />
<path d="M4.8040 4.7780
L4.7930 4.7600
" />
<path d="M4.8040 4.7780
L4.7930 4.7600
" />
</g>
<g style="fill:#FFFFFF; fill-opacity:0.0000; 
stroke:#FFFFFF; stroke-width:0.0000; stroke-opacity:1; 
stroke-linecap:round; stroke-linejoin:round;">
<circle cx="4.8040" cy="4.7780" r="0.0100" /> 
<circle cx="4.8040" cy="4.7780" r="0.0100" /> 
</g>
<g style="fill:#FFFFFF; fill-opacity:0.0000; 
stroke:#FFFFFF; stroke-width:0.0200; stroke-opacity:1; 
stroke-linecap:round; stroke-linejoin:round;">
</g>
<g style="fill:#FFFFFF; fill-opacity:0.0; 
stroke:#FFFFFF; stroke-width:0.0200; stroke-opacity:1; 
stroke-linecap:round; stroke-linejoin:round;">
<path d="M4.8090 4.4400
L4.8150 4.4310
" />
<path d="M4.8090 4.4400
L4.8150 4.4310
" />
<path d="M4.8150 4.4310
L4.8220 4.4210
" />
<path d="M4.8150 4.4310
L4.8220 4.4210
" />
<path d="M4.8150 4.7980
L4.8040 4.7780
" />
<path d="M4.8150 4.7980
L4.8040 4.7780
" />
<path d="M4.8220 4.4210
L4.8280 4.4130
" />
<path d="M4.8220 4.4210
L4.8280 4.4130
" />
<path d="M4.8280 4.4130
L4.8350 4.4050
" />
<path d="M4.8280 4.4130
L4.8350 4.4050
" />
<path d="M4.8280 4.8150
L4.8150 4.7980
" />
<path d="M4.8280 4.8150
L4.8150 4.7980
" />
<path d="M4.8350 4.4050
L4.8420 4.3950
" />
<path d="M4.8350 4.4050
L4.8420 4.3950
" />
<path d="M4.8420 4.3950
L4.8490 4.3870
" />
<path d="M4.8420 4.3950
L4.8490 4.3870
" />
<path d="M4.8420 4.8320
L4.8280 4.8150
" />
<path d="M4.8420 4.8320
L4.8280 4.8150
" />
<path d="M4.8490 4.3870
L4.8570 4.3810
" />
<path d="M4.8490 4.3870
L4.8570 4.3810
" />
<path d="M4.8570 4.3810
L4.8630 4.3730
" />
<path d="M4.8570 4.3810
L4.8630 4.3730
" />
<path d="M4.8570 4.8470
L4.8420 4.8320
" />
<path d="M4.8570 4.8470
L4.8420 4.8320
" />
<path d="M4.8630 4.3730
L4.8710 4.3650
" />
<path d="M4.8630 4.3730
L4.8710 4.3650
" />
<path d="M4.8710 4.3650
L4.8800 4.3590
" />
<path d="M4.8710 4.3650
L4.8800 4.3590
" />
<path d="M4.8710 4.8630
L4.8570 4.8470
" />
<path d="M4.8710 4.8630
L4.8570 4.8470
" />
<path d="M4.8800 4.3590
L4.8880 4.3510
" />
<path d="M4.8800 4.3590
L4.8880 4.3510
" />
<path d="M4.8880 4.3510
L4.8970 4.3450
" />
<path d="M4.8880 4.3510
L4.8970 4.3450
" />
<path d="M4.8880 4.8760
L4.8710 4.8630
" />
<path d="M4.8880 4.8760
L4.8710 4.8630
" />
<path d="M4.8970 4.3450
L4.9050 4.3390
" />
<path d="M4.8970 4.3450
L4.9050 4.3390
" />
<path d="M4.9050 4.3390
L4.9140 4.3330
" />
<path d="M4.9050 4.3390
L4.9140 4.3330
" />
<path d="M4.9050 4.8880
L4.8880 4.8760
" />
<path d="M4.9050 4.8880
L4.8880 4.8760
" />
<path d="M4.9140 4.3330
L4.9250 4.3290
" />
<path d="M4.9140 4.3330
L4.9250 4.3290
" />
<path d="M4.9250 4.3290
L4.9340 4.3230
" />
<path d="M4.9250 4.3290
L4.9340 4.3230
" />
<path d="M4.9250 4.8990
L4.9050 4.8880
" />
<path d="M4.9250 4.8990
L4.9050 4.8880
" />
<path d="M4.9340 4.3230
L4.9430 4.3190
" />
<path d="M4.9340 4.3230
L4.9430 4.3190
" />
<path d="M4.9430 4.3190
L4.9530 4.3130
" />
<path d="M4.9430 4.3190
L4.9530 4.3130
" />
<path d="M4.9430 4.9100
L4.9250 4.8990
" />
<path d="M4.9430 4.9100
L4.9250 4.8990
" />
<path d="M4.9530 4.3130
L4.9630 4.3100
" />
<path d="M4.9530 4.3130
L4.9630 4.3100
" />
<path d="M4.9630 4.3100
L4.9730 4.3060
" />
<path d="M4.9630 4.3100
L4.9730 4.3060
" />
<path d="M4.9630 4.9190
L4.9430 4.9100
" />
<path d="M4.9630 4.9190
L4.9430 4.9100
" />
<path d="M4.9730 4.3060
L4.9830 4.3020
" />
<path d="M4.9730 4.3060
L4.9830 4.3020
" />
<path d="M4.9830 4.3020
L4.9920 4.2980
" />
<path d="M4.9830 4.3020
L4.9920 4.2980
" />
<path d="M4.9830 4.9270
L4.9630 4.9190
" />
<path d="M4.9830 4.9270
L4.9630 4.9190
" />
<path d="M4.9920 4.2980
L5.0020 4.2960
" />
<path d="M4.9920 4.2980
L5.0020 4.2960
" />
<path d="M5.0020 4.2960
L5.0130 4.2920
" />
<path d="M5.0020 4.2960
L5.0130 4.2920
" />
<path d="M5.0020 4.9320
L4.9830 4.9270
" />
<path d="M5.0020 4.9320
L4.9830 4.9270
" />
<path d="M5.0130 4.2920
L5.0230 4.2900
" />
<path d="M5.0130 4.2920
L5.0230 4.2900
" />
<path d="M5.0230 4.2900
L5.0340 4.2880
" />
<path d="M5.0230 4.2900
L5.0340 4.2880
" />
<path d="M5.0230 4.9380
L5.0020 4.9320
" />
<path d="M5.0230 4.9380
L5.0020 4.9320
" />
<path d="M5.0340 4.2880
L5.0460 4.2860
" />
<path d="M5.0340 4.2880
L5.0460 4.2860
" />
<path d="M5.0460 4.2860
L5.0570 4.2860
" />
<path d="M5.0460 4.2860
L5.0570 4.2860
" />
<path d="M5.0460 4.9420
L5.0230 4.9380
" />
<path d="M5.0460 4.9420
L5.0230 4.9380
" />
<path d="M5.0570 4.2860
L5.0670 4.2840
" />
<path d="M5.0570 4.2860
L5.0670 4.2840
" />
<path d="M5.0670 4.2840
L5.0770 4.2840
" />
<path d="M5.0670 4.2840
L5.0770 4.2840
" />
<path d="M5.0670 4.9430
L5.0460 4.9420
" />
<path d="M5.0670 4.9430
L5.0460 4.9420
" />
<path d="M5.0770 4.2840
L5.0890 4.2840
" />
<path d="M5.0770 4.2840
L5.0890 4.2840
" />
<path d="M5.0890 4.2840
L5.1110 4.2840
" />
<path d="M5.0890 4.2840
L5.1110 4.2840
" />
<path d="M5.0890 4.9430
L5.0670 4.9430
" />
<path d="M5.0890 4.9430
L5.0670 4.9430
" />
<path d="M5.1010 4.9430
L5.0890 4.9430
" />
<path d="M5.1010 4.9430
L5.0890 4.9430
" />
<path d="M5.1110 4.2840
L5.1330 4.2860
" />
<path d="M5.1110 4.2840
L5.1330 4.2860
" />
<path d="M5.1110 4.9430
L5.1010 4.9430
" />
<path d="M5.1110 4.9430
L5.1010 4.9430
" />
<path d="M5.1210 4.9430
L5.1110 4.9430
" />
<path d="M5.1210 4.9430
L5.1110 4.9430
" />
<path d="M5.1330 4.2860
L5.1550 4.2900
" />
<path d="M5.1330 4.2860
L5.1550 4.2900
" />
<path d="M5.1330 4.9420
L5.1210 4.9430
" />
<path d="M5.1330 4.9420
L5.1210 4.9430
" />
<path d="M5.1430 4.9390
L5.1330 4.9420
" />
<path d="M5.1430 4.9390
L5.1330 4.9420
" />
<path d="M5.1550 4.2900
L5.1750 4.2960
" />
<path d="M5.1550 4.2900
L5.1750 4.2960
" />
<path d="M5.1550 4.9380
L5.1430 4.9390
" />
<path d="M5.1550 4.9380
L5.1430 4.9390
" />
<path d="M5.1650 4.9350
L5.1550 4.9380
" />
<path d="M5.1650 4.9350
L5.1550 4.9380
" />
<path d="M5.1750 4.2960
L5.1960 4.3020
" />
<path d="M5.1750 4.2960
L5.1960 4.3020
" />
<path d="M5.1750 4.9320
L5.1650 4.9350
" />
<path d="M5.1750 4.9320
L5.1650 4.9350
" />
<path d="M5.1860 4.9300
L5.1750 4.9320
" />
<path d="M5.1860 4.9300
L5.1750 4.9320
" />
<path d="M5.1960 4.3020
L5.2160 4.3100
" />
<path d="M5.1960 4.3020
L5.2160 4.3100
" />
<path d="M5.1960 4.9270
L5.1860 4.9300
" />
<path d="M5.1960 4.9270
L5.1860 4.9300
" />
<path d="M5.2060 4.9230
L5.1960 4.9270
" />
<path d="M5.2060 4.9230
L5.1960 4.9270
" />
<path d="M5.2160 4.3100
L5.2360 4.3190
" />
<path d="M5.2160 4.3100
L5.2360 4.3190
" />
<path d="M5.2160 4.9190
L5.2060 4.9230
" />
<path d="M5.2160 4.9190
L5.2060 4.9230
" />
<path d="M5.2260 4.9150
L5.2160 4.9190
" />
<path d="M5.2260 4.9150
L5.2160 4.9190
" />
<path d="M5.2360 4.3190
L5.2540 4.3290
" />
<path d="M5.2360 4.3190
L5.2540 4.3290
" />
<path d="M5.2360 4.9100
L5.2260 4.9150
" />
<path d="M5.2360 4.9100
L5.2260 4.9150
" />
<path d="M5.2440 4.9040
L5.2360 4.9100
" />
<path d="M5.2440 4.9040
L5.2360 4.9100
" />
<path d="M5.2540 4.3290
L5.2720 4.3390
" />
<path d="M5.2540 4.3290
L5.2720 4.3390
" />
<path d="M5.2540 4.8990
L5.2440 4.9040
" />
<path d="M5.2540 4.8990
L5.2440 4.9040
" />
<path d="M5.2640 4.8950
L5.2540 4.8990
" />
<path d="M5.2640 4.8950
L5.2540 4.8990
" />
<path d="M5.2720 4.3390
L5.2900 4.3510
" />
<path d="M5.2720 4.3390
L5.2900 4.3510
" />
<path d="M5.2720 4.8880
L5.2640 4.8950
" />
<path d="M5.2720 4.8880
L5.2640 4.8950
" />
<path d="M5.2800 4.8830
L5.2720 4.8880
" />
<path d="M5.2800 4.8830
L5.2720 4.8880
" />
<path d="M5.2900 4.3510
L5.3070 4.3650
" />
<path d="M5.2900 4.3510
L5.3070 4.3650
" />
<path d="M5.2900 4.8760
L5.2800 4.8830
" />
<path d="M5.2900 4.8760
L5.2800 4.8830
" />
<path d="M5.2980 4.8700
L5.2900 4.8760
" />
<path d="M5.2980 4.8700
L5.2900 4.8760
" />
<path d="M5.3070 4.3650
L5.3210 4.3810
" />
<path d="M5.3070 4.3650
L5.3210 4.3810
" />
<path d="M5.3070 4.8630
L5.2980 4.8700
" />
<path d="M5.3070 4.8630
L5.2980 4.8700
" />
<path d="M5.3150 4.8550
L5.3070 4.8630
" />
<path d="M5.3150 4.8550
L5.3070 4.8630
" />
<path d="M5.3210 4.3810
L5.3370 4.3950
" />
<path d="M5.3210 4.3810
L5.3370 4.3950
" />
<path d="M5.3210 4.8470
L5.3150 4.8550
" />
<path d="M5.3210 4.8470
L5.3150 4.8550
" />
<path d="M5.3290 4.8400
L5.3210 4.8470
" />
<path d="M5.3290 4.8400
L5.3210 4.8470
" />
<path d="M5.3370 4.3950
L5.3510 4.4130
" />
<path d="M5.3370 4.3950
L5.3510 4.4130
" />
<path d="M5.3370 4.8320
L5.3290 4.8400
" />
<path d="M5.3370 4.8320
L5.3290 4.8400
" />
<path d="M5.3430 4.8230
L5.3370 4.8320
" />
<path d="M5.3430 4.8230
L5.3370 4.8320
" />
<path d="M5.3510 4.4130
L5.3630 4.4310
" />
<path d="M5.3510 4.4130
L5.3630 4.4310
" />
<path d="M5.3510 4.8150
L5.3430 4.8230
" />
<path d="M5.3510 4.8150
L5.3430 4.8230
" />
<path d="M5.3570 4.8060
L5.3510 4.8150
" />
<path d="M5.3570 4.8060
L5.3510 4.8150
" />
<path d="M5.3630 4.4310
L5.3750 4.4500
" />
<path d="M5.3630 4.4310
L5.3750 4.4500
" />
<path d="M5.3630 4.7980
L5.3570 4.8060
" />
<path d="M5.3630 4.7980
L5.3570 4.8060
" />
<path d="M5.3690 4.7890
L5.3630 4.7980
" />
<path d="M5.3690 4.7890
L5.3630 4.7980
" />
</g>
<g style="fill:#FFFFFF; fill-opacity:0.0000; 
stroke:#FFFFFF; stroke-width:0.0000; stroke-opacity:1; 
stroke-linecap:round; stroke-linejoin:round;">
<circle cx="5.3750" cy="4.4500" r="0.0100" /> 
<circle cx="5.3750" cy="4.4500" r="0.0100" /> 
</g>
<g style="fill:#FFFFFF; fill-opacity:0.0000; 
stroke:#FFFFFF; stroke-width:0.0200; stroke-opacity:1; 
stroke-linecap:round; stroke-linejoin:round;">
</g>
<g style="fill:#FFFFFF; fill-opacity:0.0; 
stroke:#FFFFFF; stroke-width:0.0200; stroke-opacity:1; 
stroke-linecap:round; stroke-linejoin:round;">
<path d="M5.3750 4.4500
L5.3850 4.4680
" />
<path d="M5.3750 4.4500
L5.3850 4.4680
" />
<path d="M5.3750 4.7780
L5.3690 4.7890
" />
<path d="M5.3750 4.7780
L5.3690 4.7890
" />
</g>
<g style="fill:#FFFFFF; fill-opacity:0.0000; 
stroke:#FFFFFF; stroke-width:0.0000; stroke-opacity:1; 
stroke-linecap:round; stroke-linejoin:round;">
<circle cx="5.3750" cy="4.7780" r="0.0100" /> 
<circle cx="5.3750" cy="4.7780" r="0.0100" /> 
</g>
<g style="fill:#FFFFFF; fill-opacity:0.0000; 
stroke:#FFFFFF; stroke-width:0.0200; stroke-opacity:1; 
stroke-linecap:round; stroke-linejoin:round;">
</g>
<g style="fill:#FFFFFF; fill-opacity:0.0; 
stroke:#FFFFFF; stroke-width:0.0200; stroke-opacity:1; 
stroke-linecap:round; stroke-linejoin:round;">
<path d="M5.3850 4.4680
L5.3950 4.4880
" />
<path d="M5.3850 4.4680
L5.3950 4.4880
" />
<path d="M5.3850 4.7600
L5.3750 4.7780
" />
<path d="M5.3850 4.7600
L5.3750 4.7780
" />
<path d="M5.3950 4.4880
L5.4010 4.5080
" />
<path d="M5.3950 4.4880
L5.4010 4.5080
" />
<path d="M5.3950 4.7400
L5.3850 4.7600
" />
<path d="M5.3950 4.7400
L5.3850 4.7600
" />
<path d="M5.4010 4.5080
L5.4070 4.5300
" />
<path d="M5.4010 4.5080
L5.4070 4.5300
" />
<path d="M5.4010 4.7200
L5.3950 4.7400
" />
<path d="M5.4010 4.7200
L5.3950 4.7400
" />
<path d="M5.4070 4.5300
L5.4130 4.5500
" />
<path d="M5.4070 4.5300
L5.4130 4.5500
" />
<path d="M5.4070 4.6980
L5.4010 4.7200
" />
<path d="M5.4070 4.6980
L5.4010 4.7200
" />
<path d="M5.4130 4.5500
L5.4170 4.5710
" />
<path d="M5.4130 4.5500
L5.4170 4.5710
" />
<path d="M5.4130 4.6770
L5.4070 4.6980
" />
<path d="M5.4130 4.6770
L5.4070 4.6980
" />
<path d="M5.4170 4.5710
L5.4190 4.5930
" />
<path d="M5.4170 4.5710
L5.4190 4.5930
" />
<path d="M5.4170 4.6570
L5.4130 4.6770
" />
<path d="M5.4170 4.6570
L5.4130 4.6770
" />
<path d="M5.4190 4.5930
L5.4190 4.6150
" />
<path d="M5.4190 4.5930
L5.4190 4.6150
" />
<path d="M5.4190 4.6150
L5.4190 4.6350
" />
<path d="M5.4190 4.6150
L5.4190 4.6350
" />
<path d="M5.4190 4.6350
L5.4170 4.6570
" />
<path d="M5.4190 4.6350
L5.4170 4.6570
" />
<path d="M6.1250 0.3750
L6.1250 5.1730
" />
<path d="M6.1250 0.3750
L6.3880 0.3750
" />
<path d="M6.1250 0.6250
L6.3880 0.6250
" />
<path d="M6.1250 1.0250
L6.3880 1.0250
" />
<path d="M6.1250 1.2750
L6.3880 1.2750
" />
<path d="M6.1250 1.6740
L6.3880 1.6740
" />
<path d="M6.1250 1.9250
L6.3880 1.9250
" />
<path d="M6.1250 2.3230
L6.3880 2.3230
" />
<path d="M6.1250 2.5730
L6.3880 2.5730
" />
<path d="M6.1250 2.9750
L6.3880 2.9750
" />
<path d="M6.1250 3.2250
L6.3880 3.2250
" />
<path d="M6.1250 3.6230
L6.3880 3.6230
" />
<path d="M6.1250 3.8750
L6.3880 3.8750
" />
<path d="M6.1250 4.2740
L6.3880 4.2740
" />
<path d="M6.1250 4.5240
L6.3880 4.5240
" />
<path d="M6.1250 4.9230
L6.3880 4.9230
" />
<path d="M6.1250 5.1730
L1.9240 5.1730
" />
<path d="M6.1250 5.1730
L6.2250 5.2740
" />
<path d="M6.1250 5.1730
L6.3880 5.1730
" />
<path d="M6.2250 0.2750
L6.1250 0.3750
" />
<path d="M6.2250 0.2750
L6.2250 0.3750
" />
<path d="M6.2250 0.6250
L6.2250 1.0250
" />
<path d="M6.2250 1.2750
L6.2250 1.6740
" />
<path d="M6.2250 1.9250
L6.2250 2.3230
" />
<path d="M6.2250 2.5730
L6.2250 2.9750
" />
<path d="M6.2250 3.2250
L6.2250 3.6230
" />
<path d="M6.2250 3.8750
L6.2250 4.2740
" />
<path d="M6.2250 4.5240
L6.2250 4.9230
" />
<path d="M6.2250 5.1730
L6.2250 5.2740
" />
<path d="M6.2250 5.2740
L1.8230 5.2740
" />
<path d="M6.3880 0.3750
L6.5330 0.3750
" />
<path d="M6.3880 0.6250
L6.5330 0.6250
" />
<path d="M6.3880 1.0250
L6.5330 1.0250
" />
<path d="M6.3880 1.2750
L6.5330 1.2750
" />
<path d="M6.3880 1.6740
L6.5330 1.6740
" />
<path d="M6.3880 1.9250
L6.5330 1.9250
" />
<path d="M6.3880 2.3230
L6.5330 2.3230
" />
<path d="M6.3880 2.5730
L6.5330 2.5730
" />
<path d="M6.3880 2.9750
L6.5330 2.9750
" />
<path d="M6.3880 3.2250
L6.5330 3.2250
" />
<path d="M6.3880 3.6230
L6.5330 3.6230
" />
<path d="M6.3880 3.8750
L6.5330 3.8750
" />
<path d="M6.3880 4.2740
L6.5330 4.2740
" />
<path d="M6.3880 4.5240
L6.5330 4.5240
" />
<path d="M6.3880 4.9230
L6.5330 4.9230
" />
<path d="M6.3880 5.1730
L6.5330 5.1730
" />
<path d="M6.5330 0.3750
L6.6490 0.3750
" />
<path d="M6.5330 0.6250
L6.6490 0.6250
" />
<path d="M6.5330 1.0250
L6.6490 1.0250
" />
<path d="M6.5330 1.2750
L6.6490 1.2750
" />
<path d="M6.5330 1.6740
L6.6490 1.6740
" />
<path d="M6.5330 1.9250
L6.6490 1.9250
" />
<path d="M6.5330 2.3230
L6.6490 2.3230
" />
<path d="M6.5330 2.5730
L6.6490 2.5730
" />
<path d="M6.5330 2.9750
L6.6490 2.9750
" />
<path d="M6.5330 3.2250
L6.6490 3.2250
" />
<path d="M6.5330 3.6230
L6.6490 3.6230
" />
<path d="M6.5330 3.8750
L6.6490 3.8750
" />
<path d="M6.5330 4.2740
L6.6490 4.2740
" />
<path d="M6.5330 4.5240
L6.6490 4.5240
" />
<path d="M6.5330 4.9230
L6.6490 4.9230
" />
<path d="M6.5330 5.1730
L6.6490 5.1730
" />
<path d="M6.6490 0.3750
L6.7220 0.3750
" />
<path d="M6.6490 1.0250
L6.7220 1.0250
" />
<path d="M6.6490 1.6740
L6.7220 1.6740
" />
<path d="M6.6490 2.3230
L6.7220 2.3230
" />
<path d="M6.6490 2.9750
L6.7220 2.9750
" />
<path d="M6.6490 3.6230
L6.7220 3.6230
" />
<path d="M6.6490 4.2740
L6.7220 4.2740
" />
<path d="M6.6490 4.9230
L6.7220 4.9230
" />
<path d="M6.7220 0.3750
L7.2250 0.3750
" />
<path d="M6.7220 0.6250
L6.6490 0.6250
" />
<path d="M6.7220 0.6250
L7.2250 0.6250
" />
<path d="M6.7220 1.0250
L7.2250 1.0250
" />
<path d="M6.7220 1.2750
L6.6490 1.2750
" />
<path d="M6.7220 1.2750
L7.2250 1.2750
" />
<path d="M6.7220 1.6740
L7.2250 1.6740
" />
<path d="M6.7220 1.9250
L6.6490 1.9250
" />
<path d="M6.7220 1.9250
L7.2250 1.9250
" />
<path d="M6.7220 2.3230
L7.2250 2.3230
" />
<path d="M6.7220 2.5730
L6.6490 2.5730
" />
<path d="M6.7220 2.5730
L7.2250 2.5730
" />
<path d="M6.7220 2.9750
L7.2250 2.9750
" />
<path d="M6.7220 3.2250
L6.6490 3.2250
" />
<path d="M6.7220 3.2250
L7.2250 3.2250
" />
<path d="M6.7220 3.6230
L7.2250 3.6230
" />
<path d="M6.7220 3.8750
L6.6490 3.8750
" />
<path d="M6.7220 3.8750
L7.2250 3.8750
" />
<path d="M6.7220 4.2740
L7.2250 4.2740
" />
<path d="M6.7220 4.5240
L6.6490 4.5240
" />
<path d="M6.7220 4.5240
L7.2250 4.5240
" />
<path d="M6.7220 4.9230
L7.2250 4.9230
" />
<path d="M6.7220 5.1730
L6.6490 5.1730
" />
<path d="M6.7220 5.1730
L7.2250 5.1730
" />
<path d="M7.2250 0.3750
L7.2250 0.6250
" />
<path d="M7.2250 1.0250
L7.2250 1.2750
" />
<path d="M7.2250 1.6740
L7.2250 1.9250
" />
<path d="M7.2250 2.3230
L7.2250 2.5730
" />
<path d="M7.2250 2.9750
L7.2250 3.2250
" />
<path d="M7.2250 3.6230
L7.2250 3.8750
" />
<path d="M7.2250 4.2740
L7.2250 4.5240
" />
<path d="M7.2250 4.9230
L7.2250 5.1730
" />
<g >
</g>
<g >
</g>
<g >
</g>
<g >
</g>
</g> 
</svg>
