<?xml version="1.0" standalone="no"?>
 <!DOCTYPE svg PUBLIC "-//W3C//DTD SVG 1.1//EN" 
 "http://www.w3.org/Graphics/SVG/1.1/DTD/svg11.dtd"> 
<svg
  xmlns:svg="http://www.w3.org/2000/svg"
  xmlns="http://www.w3.org/2000/svg"
  xmlns:xlink="http://www.w3.org/1999/xlink"
  version="1.1"
  width="2.2860mm" height="4.0132mm" viewBox="0.0000 0.0000 2.2860 4.0132">
<title>SVG Image created as outline.svg date 2024/10/08 17:17:24 </title>
  <desc>Image generated by PCBNEW </desc>
<g style="fill:#000000; fill-opacity:0.0000;stroke:#000000; stroke-opacity:1.0000;
stroke-linecap:round; stroke-linejoin:round;"
 transform="translate(0 0) scale(1 1)">
</g>
<g style="fill:#000000; fill-opacity:0.0; 
stroke:#000000; stroke-width:0.0000; stroke-opacity:1; 
stroke-linecap:round; stroke-linejoin:round;">
</g>
<g style="fill:#000000; fill-opacity:0.0000; 
stroke:#000000; stroke-width:0.0212; stroke-opacity:1; 
stroke-linecap:round; stroke-linejoin:round;">
<rect x="-5.000000" y="-5.000000" width="12.300000" height="14.030000" rx="0.000000" />
</g>
<g style="fill:#FFFFFF; fill-opacity:0.0000; 
stroke:#FFFFFF; stroke-width:0.0212; stroke-opacity:1; 
stroke-linecap:round; stroke-linejoin:round;">
</g>
<g style="fill:#FFFFFF; fill-opacity:0.0000; 
stroke:#FFFFFF; stroke-width:0.0200; stroke-opacity:1; 
stroke-linecap:round; stroke-linejoin:round;">
</g>
<g style="fill:#FFFFFF; fill-opacity:0.0; 
stroke:#FFFFFF; stroke-width:0.0200; stroke-opacity:1; 
stroke-linecap:round; stroke-linejoin:round;">
<path d="M0.1550 0.5250
L0.1550 3.5240
" />
<path d="M0.1550 0.5250
L2.1530 0.5250
" />
</g>
<g style="fill:#FFFFFF; fill-opacity:0.0000; 
stroke:#FFFFFF; stroke-width:0.0000; stroke-opacity:1; 
stroke-linecap:round; stroke-linejoin:round;">
<circle cx="1.6530" cy="0.8250" r="0.0100" /> 
</g>
<g style="fill:#FFFFFF; fill-opacity:0.0000; 
stroke:#FFFFFF; stroke-width:0.0200; stroke-opacity:1; 
stroke-linecap:round; stroke-linejoin:round;">
</g>
<g style="fill:#FFFFFF; fill-opacity:0.0; 
stroke:#FFFFFF; stroke-width:0.0200; stroke-opacity:1; 
stroke-linecap:round; stroke-linejoin:round;">
<path d="M1.6530 0.8250
L1.6540 0.8350
" />
<path d="M1.6540 0.8130
L1.6530 0.8250
" />
<path d="M1.6540 0.8350
L1.6550 0.8450
" />
<path d="M1.6550 0.8030
L1.6540 0.8130
" />
<path d="M1.6550 0.8450
L1.6560 0.8550
" />
<path d="M1.6560 0.7930
L1.6550 0.8030
" />
<path d="M1.6560 0.8550
L1.6580 0.8650
" />
<path d="M1.6580 0.7830
L1.6560 0.7930
" />
<path d="M1.6580 0.8650
L1.6600 0.8740
" />
<path d="M1.6600 0.7750
L1.6580 0.7830
" />
<path d="M1.6600 0.8740
L1.6620 0.8840
" />
<path d="M1.6620 0.7650
L1.6600 0.7750
" />
<path d="M1.6620 0.8840
L1.6670 0.8920
" />
<path d="M1.6670 0.7550
L1.6620 0.7650
" />
<path d="M1.6670 0.8920
L1.6700 0.9020
" />
<path d="M1.6700 0.7470
L1.6670 0.7550
" />
<path d="M1.6700 0.9020
L1.6740 0.9100
" />
<path d="M1.6740 0.7380
L1.6700 0.7470
" />
<path d="M1.6740 0.9100
L1.6790 0.9200
" />
<path d="M1.6790 0.7280
L1.6740 0.7380
" />
<path d="M1.6790 0.9200
L1.6830 0.9280
" />
<path d="M1.6830 0.7200
L1.6790 0.7280
" />
<path d="M1.6830 0.9280
L1.6890 0.9360
" />
<path d="M1.6890 0.7120
L1.6830 0.7200
" />
<path d="M1.6890 0.9360
L1.6940 0.9440
" />
<path d="M1.6940 0.7040
L1.6890 0.7120
" />
<path d="M1.6940 0.9440
L1.7000 0.9520
" />
<path d="M1.7000 0.6960
L1.6940 0.7040
" />
<path d="M1.7000 0.9520
L1.7060 0.9580
" />
<path d="M1.7060 0.6900
L1.7000 0.6960
" />
<path d="M1.7060 0.9580
L1.7130 0.9660
" />
<path d="M1.7130 0.6820
L1.7060 0.6900
" />
<path d="M1.7130 0.9660
L1.7200 0.9720
" />
<path d="M1.7200 0.6760
L1.7130 0.6820
" />
<path d="M1.7200 0.9720
L1.7270 0.9780
" />
<path d="M1.7270 0.6700
L1.7200 0.6760
" />
<path d="M1.7270 0.9780
L1.7340 0.9840
" />
<path d="M1.7340 0.6640
L1.7270 0.6700
" />
<path d="M1.7340 0.9840
L1.7420 0.9900
" />
<path d="M1.7420 0.6580
L1.7340 0.6640
" />
<path d="M1.7420 0.9900
L1.7500 0.9960
" />
<path d="M1.7500 0.6520
L1.7420 0.6580
" />
<path d="M1.7500 0.9960
L1.7580 1.0000
" />
<path d="M1.7580 0.6480
L1.7500 0.6520
" />
<path d="M1.7580 1.0000
L1.7670 1.0050
" />
<path d="M1.7670 0.6440
L1.7580 0.6480
" />
<path d="M1.7670 1.0050
L1.7760 1.0090
" />
<path d="M1.7760 0.6400
L1.7670 0.6440
" />
<path d="M1.7760 1.0090
L1.7850 1.0110
" />
<path d="M1.7850 0.6360
L1.7760 0.6400
" />
<path d="M1.7850 1.0110
L1.7950 1.0150
" />
<path d="M1.7950 0.6320
L1.7850 0.6360
" />
<path d="M1.7950 1.0150
L1.8050 1.0170
" />
<path d="M1.8050 0.6300
L1.7950 0.6320
" />
<path d="M1.8050 1.0170
L1.8140 1.0190
" />
<path d="M1.8140 0.6280
L1.8050 0.6300
" />
<path d="M1.8140 1.0190
L1.8240 1.0210
" />
<path d="M1.8240 0.6260
L1.8140 0.6280
" />
<path d="M1.8240 1.0210
L1.8340 1.0230
" />
<path d="M1.8340 0.6260
L1.8240 0.6260
" />
<path d="M1.8340 1.0230
L1.8440 1.0230
" />
<path d="M1.8440 0.6240
L1.8340 0.6260
" />
<path d="M1.8440 1.0230
L1.8550 1.0250
" />
<path d="M1.8550 0.6240
L1.8440 0.6240
" />
</g>
<g style="fill:#FFFFFF; fill-opacity:0.0000; 
stroke:#FFFFFF; stroke-width:0.0000; stroke-opacity:1; 
stroke-linecap:round; stroke-linejoin:round;">
<circle cx="1.8550" cy="0.6240" r="0.0100" /> 
<circle cx="1.8550" cy="1.0250" r="0.0100" /> 
</g>
<g style="fill:#FFFFFF; fill-opacity:0.0000; 
stroke:#FFFFFF; stroke-width:0.0200; stroke-opacity:1; 
stroke-linecap:round; stroke-linejoin:round;">
</g>
<g style="fill:#FFFFFF; fill-opacity:0.0; 
stroke:#FFFFFF; stroke-width:0.0200; stroke-opacity:1; 
stroke-linecap:round; stroke-linejoin:round;">
<path d="M1.8550 1.0250
L1.8640 1.0230
" />
<path d="M1.8640 0.6240
L1.8550 0.6240
" />
<path d="M1.8640 1.0230
L1.8740 1.0230
" />
<path d="M1.8740 0.6260
L1.8640 0.6240
" />
<path d="M1.8740 1.0230
L1.8840 1.0210
" />
<path d="M1.8840 0.6260
L1.8740 0.6260
" />
<path d="M1.8840 1.0210
L1.8940 1.0190
" />
<path d="M1.8940 0.6280
L1.8840 0.6260
" />
<path d="M1.8940 1.0190
L1.9030 1.0170
" />
<path d="M1.9030 0.6300
L1.8940 0.6280
" />
<path d="M1.9030 1.0170
L1.9130 1.0150
" />
<path d="M1.9130 0.6320
L1.9030 0.6300
" />
<path d="M1.9130 1.0150
L1.9230 1.0110
" />
<path d="M1.9230 0.6360
L1.9130 0.6320
" />
<path d="M1.9230 1.0110
L1.9320 1.0090
" />
<path d="M1.9320 0.6400
L1.9230 0.6360
" />
<path d="M1.9320 1.0090
L1.9410 1.0050
" />
<path d="M1.9410 0.6440
L1.9320 0.6400
" />
<path d="M1.9410 1.0050
L1.9500 1.0000
" />
<path d="M1.9500 0.6480
L1.9410 0.6440
" />
<path d="M1.9500 1.0000
L1.9580 0.9960
" />
<path d="M1.9580 0.6520
L1.9500 0.6480
" />
<path d="M1.9580 0.9960
L1.9660 0.9900
" />
<path d="M1.9660 0.6580
L1.9580 0.6520
" />
<path d="M1.9660 0.9900
L1.9740 0.9840
" />
<path d="M1.9740 0.6640
L1.9660 0.6580
" />
<path d="M1.9740 0.9840
L1.9820 0.9780
" />
<path d="M1.9820 0.6700
L1.9740 0.6640
" />
<path d="M1.9820 0.9780
L1.9880 0.9720
" />
<path d="M1.9880 0.6760
L1.9820 0.6700
" />
<path d="M1.9880 0.9720
L1.9950 0.9660
" />
<path d="M1.9950 0.6820
L1.9880 0.6760
" />
<path d="M1.9950 0.9660
L2.0020 0.9580
" />
<path d="M2.0020 0.6900
L1.9950 0.6820
" />
<path d="M2.0020 0.9580
L2.0080 0.9520
" />
<path d="M2.0080 0.6960
L2.0020 0.6900
" />
<path d="M2.0080 0.9520
L2.0140 0.9440
" />
<path d="M2.0140 0.7040
L2.0080 0.6960
" />
<path d="M2.0140 0.9440
L2.0190 0.9360
" />
<path d="M2.0190 0.7120
L2.0140 0.7040
" />
<path d="M2.0190 0.9360
L2.0250 0.9280
" />
<path d="M2.0250 0.7200
L2.0190 0.7120
" />
<path d="M2.0250 0.9280
L2.0290 0.9200
" />
<path d="M2.0290 0.7280
L2.0250 0.7200
" />
<path d="M2.0290 0.9200
L2.0340 0.9100
" />
<path d="M2.0340 0.7380
L2.0290 0.7280
" />
<path d="M2.0340 0.9100
L2.0380 0.9020
" />
<path d="M2.0380 0.7470
L2.0340 0.7380
" />
<path d="M2.0380 0.9020
L2.0410 0.8920
" />
<path d="M2.0410 0.7550
L2.0380 0.7470
" />
<path d="M2.0410 0.8920
L2.0450 0.8840
" />
<path d="M2.0450 0.7650
L2.0410 0.7550
" />
<path d="M2.0450 0.8840
L2.0470 0.8740
" />
<path d="M2.0470 0.7750
L2.0450 0.7650
" />
<path d="M2.0470 0.8740
L2.0490 0.8650
" />
<path d="M2.0490 0.7830
L2.0470 0.7750
" />
<path d="M2.0490 0.8650
L2.0520 0.8550
" />
<path d="M2.0520 0.7930
L2.0490 0.7830
" />
<path d="M2.0520 0.8550
L2.0530 0.8450
" />
<path d="M2.0530 0.8030
L2.0520 0.7930
" />
<path d="M2.0530 0.8450
L2.0540 0.8350
" />
<path d="M2.0540 0.8130
L2.0530 0.8030
" />
<path d="M2.0540 0.8250
L2.0540 0.8130
" />
</g>
<g style="fill:#FFFFFF; fill-opacity:0.0000; 
stroke:#FFFFFF; stroke-width:0.0000; stroke-opacity:1; 
stroke-linecap:round; stroke-linejoin:round;">
<circle cx="2.0540" cy="0.8250" r="0.0100" /> 
<circle cx="2.0540" cy="0.8250" r="0.0100" /> 
</g>
<g style="fill:#FFFFFF; fill-opacity:0.0000; 
stroke:#FFFFFF; stroke-width:0.0200; stroke-opacity:1; 
stroke-linecap:round; stroke-linejoin:round;">
</g>
<g style="fill:#FFFFFF; fill-opacity:0.0; 
stroke:#FFFFFF; stroke-width:0.0200; stroke-opacity:1; 
stroke-linecap:round; stroke-linejoin:round;">
<path d="M2.0540 0.8350
L2.0540 0.8250
" />
<path d="M2.1530 0.5250
L2.1530 3.5240
" />
<g >
</g>
<g >
</g>
<g >
</g>
<g >
</g>
</g> 
</svg>
