<?xml version="1.0" standalone="no"?>
 <!DOCTYPE svg PUBLIC "-//W3C//DTD SVG 1.1//EN" 
 "http://www.w3.org/Graphics/SVG/1.1/DTD/svg11.dtd"> 
<svg
  xmlns:svg="http://www.w3.org/2000/svg"
  xmlns="http://www.w3.org/2000/svg"
  xmlns:xlink="http://www.w3.org/1999/xlink"
  version="1.1"
  width="18.2372mm" height="7.9248mm" viewBox="0.0000 0.0000 18.2372 7.9248">
<title>SVG Image created as outline.svg date 2024/10/08 17:15:56 </title>
  <desc>Image generated by PCBNEW </desc>
<g style="fill:#000000; fill-opacity:0.0000;stroke:#000000; stroke-opacity:1.0000;
stroke-linecap:round; stroke-linejoin:round;"
 transform="translate(0 0) scale(1 1)">
</g>
<g style="fill:#000000; fill-opacity:0.0; 
stroke:#000000; stroke-width:0.0000; stroke-opacity:1; 
stroke-linecap:round; stroke-linejoin:round;">
</g>
<g style="fill:#000000; fill-opacity:0.0000; 
stroke:#000000; stroke-width:0.0212; stroke-opacity:1; 
stroke-linecap:round; stroke-linejoin:round;">
<rect x="-5.000000" y="-5.000000" width="28.250000" height="17.950000" rx="0.000000" />
</g>
<g style="fill:#FFFFFF; fill-opacity:0.0000; 
stroke:#FFFFFF; stroke-width:0.0212; stroke-opacity:1; 
stroke-linecap:round; stroke-linejoin:round;">
</g>
<g style="fill:#FFFFFF; fill-opacity:0.0000; 
stroke:#FFFFFF; stroke-width:0.0200; stroke-opacity:1; 
stroke-linecap:round; stroke-linejoin:round;">
</g>
<g style="fill:#FFFFFF; fill-opacity:0.0; 
stroke:#FFFFFF; stroke-width:0.0200; stroke-opacity:1; 
stroke-linecap:round; stroke-linejoin:round;">
<path d="M0.3750 1.4000
L0.3750 2.8250
" />
<path d="M0.3750 2.8250
L0.6250 2.8250
" />
<path d="M0.3750 4.0250
L0.3750 5.4500
" />
<path d="M0.3750 5.4500
L0.3760 5.5010
" />
<path d="M0.3760 1.3490
L0.3750 1.4000
" />
<path d="M0.3760 5.5010
L0.3800 5.5520
" />
<path d="M0.3800 1.2980
L0.3760 1.3490
" />
<path d="M0.3800 5.5520
L0.3870 5.6020
" />
<path d="M0.3870 1.2480
L0.3800 1.2980
" />
<path d="M0.3870 5.6020
L0.3950 5.6520
" />
<path d="M0.3950 1.1980
L0.3870 1.2480
" />
<path d="M0.3950 5.6520
L0.4060 5.7000
" />
<path d="M0.4060 1.1500
L0.3950 1.1980
" />
<path d="M0.4060 5.7000
L0.4200 5.7470
" />
<path d="M0.4200 1.1030
L0.4060 1.1500
" />
<path d="M0.4200 5.7470
L0.4360 5.7940
" />
<path d="M0.4360 1.0560
L0.4200 1.1030
" />
<path d="M0.4360 5.7940
L0.4540 5.8390
" />
<path d="M0.4540 1.0110
L0.4360 1.0560
" />
<path d="M0.4540 5.8390
L0.4740 5.8840
" />
<path d="M0.4740 0.9660
L0.4540 1.0110
" />
<path d="M0.4740 5.8840
L0.4960 5.9270
" />
<path d="M0.4960 0.9230
L0.4740 0.9660
" />
<path d="M0.4960 5.9270
L0.5200 5.9690
" />
<path d="M0.5200 0.8810
L0.4960 0.9230
" />
<path d="M0.5200 5.9690
L0.5460 6.0090
" />
<path d="M0.5460 0.8410
L0.5200 0.8810
" />
<path d="M0.5460 6.0090
L0.5740 6.0480
" />
<path d="M0.5740 0.8020
L0.5460 0.8410
" />
<path d="M0.5740 6.0480
L0.6030 6.0860
" />
<path d="M0.6030 0.7640
L0.5740 0.8020
" />
<path d="M0.6030 6.0860
L0.6350 6.1220
" />
<path d="M0.6250 2.8250
L0.6250 4.0250
" />
<path d="M0.6250 4.0250
L0.3750 4.0250
" />
<path d="M0.6350 0.7280
L0.6030 0.7640
" />
<path d="M0.6350 6.1220
L0.6680 6.1570
" />
<path d="M0.6680 0.6930
L0.6350 0.7280
" />
<path d="M0.6680 6.1570
L0.7030 6.1900
" />
<path d="M0.7030 0.6600
L0.6680 0.6930
" />
<path d="M0.7030 6.1900
L0.7390 6.2220
" />
<path d="M0.7390 0.6280
L0.7030 0.6600
" />
<path d="M0.7390 6.2220
L0.7770 6.2510
" />
<path d="M0.7770 0.5990
L0.7390 0.6280
" />
<path d="M0.7770 6.2510
L0.8160 6.2790
" />
<path d="M0.8160 0.5710
L0.7770 0.5990
" />
<path d="M0.8160 6.2790
L0.8560 6.3050
" />
<path d="M0.8560 0.5450
L0.8160 0.5710
" />
<path d="M0.8560 6.3050
L0.8980 6.3290
" />
<path d="M0.8980 0.5210
L0.8560 0.5450
" />
<path d="M0.8980 6.3290
L0.9410 6.3510
" />
<path d="M0.9410 0.4990
L0.8980 0.5210
" />
<path d="M0.9410 6.3510
L0.9860 6.3710
" />
<path d="M0.9860 0.4790
L0.9410 0.4990
" />
<path d="M0.9860 6.3710
L1.0310 6.3890
" />
<path d="M1.0310 0.4610
L0.9860 0.4790
" />
<path d="M1.0310 6.3890
L1.0780 6.4050
" />
<path d="M1.0780 0.4450
L1.0310 0.4610
" />
<path d="M1.0780 6.4050
L1.1250 6.4190
" />
<path d="M1.1250 0.4310
L1.0780 0.4450
" />
<path d="M1.1250 6.4190
L1.1730 6.4300
" />
<path d="M1.1730 0.4200
L1.1250 0.4310
" />
<path d="M1.1730 6.4300
L1.2230 6.4380
" />
<path d="M1.2230 0.4120
L1.1730 0.4200
" />
<path d="M1.2230 6.4380
L1.2730 6.4450
" />
<path d="M1.2730 0.4050
L1.2230 0.4120
" />
<path d="M1.2730 6.4450
L1.3240 6.4490
" />
<path d="M1.3240 0.4010
L1.2730 0.4050
" />
<path d="M1.3240 6.4490
L1.3750 6.4500
" />
<path d="M1.3750 0.4000
L1.3240 0.4010
" />
<path d="M1.3750 6.4500
L16.8750 6.4500
" />
<path d="M2.1450 7.2500
L2.1450 6.4500
" />
<path d="M3.1450 7.2500
L2.1450 7.2500
" />
<path d="M3.1450 7.2500
L3.1450 6.4500
" />
<path d="M4.8150 6.4500
L4.8150 6.7190
" />
<path d="M4.8150 6.7190
L4.8150 7.2500
" />
<path d="M5.0150 6.4500
L5.0150 6.7190
" />
<path d="M5.0150 6.7190
L4.8150 6.7190
" />
<path d="M5.0150 6.7190
L5.0150 7.2500
" />
<path d="M5.0150 7.2500
L4.8150 7.2500
" />
<path d="M5.3150 6.4500
L5.3150 6.7190
" />
<path d="M5.3150 6.7190
L5.3150 7.2500
" />
<path d="M5.5150 6.4500
L5.5150 6.7190
" />
<path d="M5.5150 6.7190
L5.3150 6.7190
" />
<path d="M5.5150 6.7190
L5.5150 7.2500
" />
<path d="M5.5150 7.2500
L5.3150 7.2500
" />
<path d="M5.8150 6.4500
L5.8150 6.7190
" />
<path d="M5.8150 6.7190
L5.8150 7.2500
" />
<path d="M6.0150 6.4500
L6.0150 6.7190
" />
<path d="M6.0150 6.7190
L5.8150 6.7190
" />
<path d="M6.0150 6.7190
L6.0150 7.2500
" />
<path d="M6.0150 7.2500
L5.8150 7.2500
" />
<path d="M6.3150 6.4500
L6.3150 6.7190
" />
<path d="M6.3150 6.7190
L6.3150 7.2500
" />
<path d="M6.5150 6.4500
L6.5150 6.7190
" />
<path d="M6.5150 6.7190
L6.3150 6.7190
" />
<path d="M6.5150 6.7190
L6.5150 7.2500
" />
<path d="M6.5150 7.2500
L6.3150 7.2500
" />
<path d="M6.8150 6.4500
L6.8150 6.7190
" />
<path d="M6.8150 6.7190
L6.8150 7.2500
" />
<path d="M7.0150 6.4500
L7.0150 6.7190
" />
<path d="M7.0150 6.7190
L6.8150 6.7190
" />
<path d="M7.0150 6.7190
L7.0150 7.2500
" />
<path d="M7.0150 7.2500
L6.8150 7.2500
" />
<path d="M7.3150 6.4500
L7.3150 6.7190
" />
<path d="M7.3150 6.7190
L7.3150 7.2500
" />
<path d="M7.5150 6.4500
L7.5150 6.7190
" />
<path d="M7.5150 6.7190
L7.3150 6.7190
" />
<path d="M7.5150 6.7190
L7.5150 7.2500
" />
<path d="M7.5150 7.2500
L7.3150 7.2500
" />
<path d="M7.8150 6.4500
L7.8150 6.7190
" />
<path d="M7.8150 6.7190
L7.8150 7.2500
" />
<path d="M8.0150 6.4500
L8.0150 6.7190
" />
<path d="M8.0150 6.7190
L7.8150 6.7190
" />
<path d="M8.0150 6.7190
L8.0150 7.2500
" />
<path d="M8.0150 7.2500
L7.8150 7.2500
" />
<path d="M8.3150 6.4500
L8.3150 6.7190
" />
<path d="M8.3150 6.7190
L8.3150 7.2500
" />
<path d="M8.5150 6.4500
L8.5150 6.7190
" />
<path d="M8.5150 6.7190
L8.3150 6.7190
" />
<path d="M8.5150 6.7190
L8.5150 7.2500
" />
<path d="M8.5150 7.2500
L8.3150 7.2500
" />
<path d="M8.8150 6.4500
L8.8150 6.7190
" />
<path d="M8.8150 6.7190
L8.8150 7.2500
" />
<path d="M9.0150 6.4500
L9.0150 6.7190
" />
<path d="M9.0150 6.7190
L8.8150 6.7190
" />
<path d="M9.0150 6.7190
L9.0150 7.2500
" />
<path d="M9.0150 7.2500
L8.8150 7.2500
" />
<path d="M9.3150 6.4500
L9.3150 6.7190
" />
<path d="M9.3150 6.7190
L9.3150 7.2500
" />
<path d="M9.5150 6.4500
L9.5150 6.7190
" />
<path d="M9.5150 6.7190
L9.3150 6.7190
" />
<path d="M9.5150 6.7190
L9.5150 7.2500
" />
<path d="M9.5150 7.2500
L9.3150 7.2500
" />
<path d="M9.8150 6.4500
L9.8150 6.7190
" />
<path d="M9.8150 6.7190
L9.8150 7.2500
" />
<path d="M10.0150 6.4500
L10.0150 6.7190
" />
<path d="M10.0150 6.7190
L9.8150 6.7190
" />
<path d="M10.0150 6.7190
L10.0150 7.2500
" />
<path d="M10.0150 7.2500
L9.8150 7.2500
" />
<path d="M10.3150 6.4500
L10.3150 6.7190
" />
<path d="M10.3150 6.7190
L10.3150 7.2500
" />
<path d="M10.5150 6.4500
L10.5150 6.7190
" />
<path d="M10.5150 6.7190
L10.3150 6.7190
" />
<path d="M10.5150 6.7190
L10.5150 7.2500
" />
<path d="M10.5150 7.2500
L10.3150 7.2500
" />
<path d="M10.8150 6.4500
L10.8150 6.7190
" />
<path d="M10.8150 6.7190
L10.8150 7.2500
" />
<path d="M11.0150 6.4500
L11.0150 6.7190
" />
<path d="M11.0150 6.7190
L10.8150 6.7190
" />
<path d="M11.0150 6.7190
L11.0150 7.2500
" />
<path d="M11.0150 7.2500
L10.8150 7.2500
" />
<path d="M11.3150 6.4500
L11.3150 6.7190
" />
<path d="M11.3150 6.7190
L11.3150 7.2500
" />
<path d="M11.5150 6.4500
L11.5150 6.7190
" />
<path d="M11.5150 6.7190
L11.3150 6.7190
" />
<path d="M11.5150 6.7190
L11.5150 7.2500
" />
<path d="M11.5150 7.2500
L11.3150 7.2500
" />
<path d="M11.8150 6.4500
L11.8150 6.7190
" />
<path d="M11.8150 6.7190
L11.8150 7.2500
" />
<path d="M12.0150 6.4500
L12.0150 6.7190
" />
<path d="M12.0150 6.7190
L11.8150 6.7190
" />
<path d="M12.0150 6.7190
L12.0150 7.2500
" />
<path d="M12.0150 7.2500
L11.8150 7.2500
" />
<path d="M12.3150 6.4500
L12.3150 6.7190
" />
<path d="M12.3150 6.7190
L12.3150 7.2500
" />
<path d="M12.5150 6.4500
L12.5150 6.7190
" />
<path d="M12.5150 6.7190
L12.3150 6.7190
" />
<path d="M12.5150 6.7190
L12.5150 7.2500
" />
<path d="M12.5150 7.2500
L12.3150 7.2500
" />
<path d="M12.8150 6.4500
L12.8150 6.7190
" />
<path d="M12.8150 6.7190
L12.8150 7.2500
" />
<path d="M13.0150 6.4500
L13.0150 6.7190
" />
<path d="M13.0150 6.7190
L12.8150 6.7190
" />
<path d="M13.0150 6.7190
L13.0150 7.2500
" />
<path d="M13.0150 7.2500
L12.8150 7.2500
" />
<path d="M13.3150 6.4500
L13.3150 6.7190
" />
<path d="M13.3150 6.7190
L13.3150 7.2500
" />
<path d="M13.5150 6.4500
L13.5150 6.7190
" />
<path d="M13.5150 6.7190
L13.3150 6.7190
" />
<path d="M13.5150 6.7190
L13.5150 7.2500
" />
<path d="M13.5150 7.2500
L13.3150 7.2500
" />
<path d="M13.8150 6.4500
L13.8150 6.7190
" />
<path d="M13.8150 6.7190
L13.8150 7.2500
" />
<path d="M14.0150 6.4500
L14.0150 6.7190
" />
<path d="M14.0150 6.7190
L13.8150 6.7190
" />
<path d="M14.0150 6.7190
L14.0150 7.2500
" />
<path d="M14.0150 7.2500
L13.8150 7.2500
" />
<path d="M15.1050 7.2500
L15.1050 6.4500
" />
<path d="M16.1050 7.2500
L15.1050 7.2500
" />
<path d="M16.1050 7.2500
L16.1050 6.4500
" />
<path d="M16.8750 0.4000
L1.3750 0.4000
" />
<path d="M16.8750 6.4500
L16.9250 6.4490
" />
<path d="M16.9250 0.4010
L16.8750 0.4000
" />
<path d="M16.9250 6.4490
L16.9740 6.4450
" />
<path d="M16.9740 0.4050
L16.9250 0.4010
" />
<path d="M16.9740 6.4450
L17.0230 6.4390
" />
<path d="M17.0230 0.4110
L16.9740 0.4050
" />
<path d="M17.0230 6.4390
L17.0710 6.4310
" />
<path d="M17.0710 0.4190
L17.0230 0.4110
" />
<path d="M17.0710 6.4310
L17.1190 6.4200
" />
<path d="M17.1190 0.4300
L17.0710 0.4190
" />
<path d="M17.1190 6.4200
L17.1660 6.4070
" />
<path d="M17.1660 0.4430
L17.1190 0.4300
" />
<path d="M17.1660 6.4070
L17.2120 6.3910
" />
<path d="M17.2120 0.4590
L17.1660 0.4430
" />
<path d="M17.2120 6.3910
L17.2580 6.3740
" />
<path d="M17.2580 0.4760
L17.2120 0.4590
" />
<path d="M17.2580 6.3740
L17.3020 6.3540
" />
<path d="M17.3020 0.4960
L17.2580 0.4760
" />
<path d="M17.3020 6.3540
L17.3460 6.3320
" />
<path d="M17.3460 0.5180
L17.3020 0.4960
" />
<path d="M17.3460 6.3320
L17.3880 6.3080
" />
<path d="M17.3880 0.5420
L17.3460 0.5180
" />
<path d="M17.3880 6.3080
L17.4300 6.2820
" />
<path d="M17.4300 0.5680
L17.3880 0.5420
" />
<path d="M17.4300 6.2820
L17.4700 6.2540
" />
<path d="M17.4700 0.5960
L17.4300 0.5680
" />
<path d="M17.4700 6.2540
L17.5090 6.2240
" />
<path d="M17.5090 0.6260
L17.4700 0.5960
" />
<path d="M17.5090 6.2240
L17.5460 6.1910
" />
<path d="M17.5460 0.6590
L17.5090 0.6260
" />
<path d="M17.5460 6.1910
L17.5820 6.1570
" />
<path d="M17.5820 0.6930
L17.5460 0.6590
" />
</g>
<g style="fill:#FFFFFF; fill-opacity:0.0000; 
stroke:#FFFFFF; stroke-width:0.0000; stroke-opacity:1; 
stroke-linecap:round; stroke-linejoin:round;">
<circle cx="17.5820" cy="0.6930" r="0.0100" /> 
<circle cx="17.5820" cy="6.1570" r="0.0100" /> 
</g>
<g style="fill:#FFFFFF; fill-opacity:0.0000; 
stroke:#FFFFFF; stroke-width:0.0200; stroke-opacity:1; 
stroke-linecap:round; stroke-linejoin:round;">
</g>
<g style="fill:#FFFFFF; fill-opacity:0.0; 
stroke:#FFFFFF; stroke-width:0.0200; stroke-opacity:1; 
stroke-linecap:round; stroke-linejoin:round;">
<path d="M17.5820 6.1570
L17.6160 6.1210
" />
<path d="M17.6160 0.7290
L17.5820 0.6930
" />
<path d="M17.6160 6.1210
L17.6490 6.0840
" />
<path d="M17.6250 2.8250
L17.8750 2.8250
" />
<path d="M17.6250 4.0250
L17.6250 2.8250
" />
<path d="M17.6490 0.7660
L17.6160 0.7290
" />
<path d="M17.6490 6.0840
L17.6790 6.0450
" />
<path d="M17.6790 0.8050
L17.6490 0.7660
" />
<path d="M17.6790 6.0450
L17.7070 6.0050
" />
<path d="M17.7070 0.8450
L17.6790 0.8050
" />
<path d="M17.7070 6.0050
L17.7330 5.9630
" />
<path d="M17.7330 0.8870
L17.7070 0.8450
" />
<path d="M17.7330 5.9630
L17.7570 5.9210
" />
<path d="M17.7570 0.9290
L17.7330 0.8870
" />
<path d="M17.7570 5.9210
L17.7790 5.8770
" />
<path d="M17.7790 0.9730
L17.7570 0.9290
" />
<path d="M17.7790 5.8770
L17.7990 5.8330
" />
<path d="M17.7990 1.0170
L17.7790 0.9730
" />
<path d="M17.7990 5.8330
L17.8160 5.7870
" />
<path d="M17.8160 1.0630
L17.7990 1.0170
" />
<path d="M17.8160 5.7870
L17.8320 5.7410
" />
<path d="M17.8320 1.1090
L17.8160 1.0630
" />
<path d="M17.8320 5.7410
L17.8450 5.6940
" />
<path d="M17.8450 1.1560
L17.8320 1.1090
" />
<path d="M17.8450 5.6940
L17.8560 5.6460
" />
<path d="M17.8560 1.2040
L17.8450 1.1560
" />
<path d="M17.8560 5.6460
L17.8640 5.5980
" />
<path d="M17.8640 1.2520
L17.8560 1.2040
" />
<path d="M17.8640 5.5980
L17.8700 5.5490
" />
<path d="M17.8700 1.3010
L17.8640 1.2520
" />
<path d="M17.8700 5.5490
L17.8740 5.5000
" />
<path d="M17.8740 1.3500
L17.8700 1.3010
" />
<path d="M17.8740 5.5000
L17.8750 5.4500
" />
<path d="M17.8750 1.4000
L17.8740 1.3500
" />
<path d="M17.8750 2.8250
L17.8750 1.4000
" />
<path d="M17.8750 4.0250
L17.6250 4.0250
" />
<path d="M17.8750 5.4500
L17.8750 4.0250
" />
<g >
</g>
<g >
</g>
<g >
</g>
<g >
</g>
</g> 
</svg>
